<svg xmlns="http://www.w3.org/2000/svg" width="63.403" height="66.595" viewBox="0 0 63.403 66.595">
  <g id="_14" data-name="14" transform="translate(-0.5)">
    <g id="Grupo_1111076" data-name="Grupo 1111076">
      <path id="Trazado_896133" data-name="Trazado 896133" d="M60.636,47.965a9,9,0,0,1-9,9h0a9,9,0,0,1,9-9Z" transform="translate(53.54 -24.327) rotate(45)" fill="#43df4b"/>
      <path id="Trazado_896134" data-name="Trazado 896134" d="M45.272,41.6a9,9,0,0,1,9,9h0a9,9,0,0,1-9-9Z" transform="translate(52.368 113.894) rotate(-135)" fill="#43df4b"/>
      <path id="Trazado_896135" data-name="Trazado 896135" d="M52.858,55.743a9,9,0,0,1-9,9h0a9,9,0,0,1,9-9Z" transform="translate(56.762 -16.549) rotate(45)" fill="#43df4b"/>
      <path id="Trazado_896136" data-name="Trazado 896136" d="M37.494,49.379a9,9,0,0,1,9,9A9,9,0,0,1,37.494,49.379Z" transform="translate(33.59 121.672) rotate(-135)" fill="#43df4b"/>
    </g>
    <path id="Trazado_896137" data-name="Trazado 896137" d="M1.5,58V1h34V58a5,5,0,0,1-5,5H6.5a5,5,0,0,1-5-5Z" fill="#e6ffff"/>
    <path id="Trazado_896138" data-name="Trazado 896138" d="M4.5,58V1h31V58a5,5,0,0,1-5,5H9.5A5,5,0,0,1,4.5,58Z" fill="#d5fdfe"/>
    <path id="Trazado_896139" data-name="Trazado 896139" d="M1.5,53V8h34V53a5,5,0,0,1-5,5H6.5a5,5,0,0,1-5-5Z" fill="#81e6ff"/>
    <path id="Trazado_896140" data-name="Trazado 896140" d="M4.5,53V8h31V53a5,5,0,0,1-5,5H9.5A5,5,0,0,1,4.5,53Z" fill="#64d5ff"/>
    <path id="Trazado_896141" data-name="Trazado 896141" d="M5.5,22h8v8h-8Z" fill="#81e6ff"/>
    <path id="Trazado_896142" data-name="Trazado 896142" d="M18.5,42h12V54h-12Z" fill="#81e6ff"/>
    <path id="Trazado_896143" data-name="Trazado 896143" d="M16.5,11h12V23h-12Z" transform="translate(-5.431 20.889) rotate(-45)" fill="#81e6ff"/>
    <circle id="Elipse_11985" data-name="Elipse 11985" cx="9" cy="9" r="9" transform="translate(13.5 25)" fill="#43df4b"/>
    <circle id="Elipse_11986" data-name="Elipse 11986" cx="9" cy="9" r="9" transform="translate(1.5 36)" fill="#76f585"/>
    <path id="Trazado_896144" data-name="Trazado 896144" d="M4.5,38.307V51.693a8.994,8.994,0,1,0,0-13.386Z" fill="#48ef63"/>
    <path id="Trazado_896145" data-name="Trazado 896145" d="M16.5,33h4v2h-4Z"/>
    <path id="Trazado_896146" data-name="Trazado 896146" d="M24.5,33h4v2h-4Z"/>
    <path id="Trazado_896147" data-name="Trazado 896147" d="M21.5,36h2v4h-2Z"/>
    <path id="Trazado_896148" data-name="Trazado 896148" d="M21.5,28h2v4h-2Z"/>
    <path id="Trazado_896149" data-name="Trazado 896149" d="M6.672,40.172h2v4h-2Z" transform="translate(-27.575 17.78) rotate(-45)"/>
    <path id="Trazado_896150" data-name="Trazado 896150" d="M12.328,45.828h2v4h-2Z" transform="translate(-29.92 23.44) rotate(-45)"/>
    <path id="Trazado_896151" data-name="Trazado 896151" d="M5.672,46.828h4v2h-4Z" transform="translate(-31.568 19.427) rotate(-45)"/>
    <path id="Trazado_896152" data-name="Trazado 896152" d="M11.328,41.172h4v2h-4Z" transform="translate(-25.916 21.776) rotate(-45)"/>
    <path id="Trazado_896153" data-name="Trazado 896153" d="M63.207,51.752a9.934,9.934,0,0,0-7.071-2.929,10.1,10.1,0,0,0-1.418.1L56.841,46.8l-1.414-1.414L53.31,47.5a10.138,10.138,0,0,0,.1-1.409,9.934,9.934,0,0,0-2.929-7.071l-.707-.707-.707.707a10,10,0,0,0-.674,13.4l-2.859,2.859a10.1,10.1,0,0,0,.1-1.407A9.931,9.931,0,0,0,42.7,46.8l-.707-.707-.707.707a10,10,0,0,0-.674,13.4l-.037.037a5.98,5.98,0,0,1-5.491,1.629A5.975,5.975,0,0,0,36.5,58V0H.5V58a6.006,6.006,0,0,0,6,6h24a5.957,5.957,0,0,0,2.7-.644,7.969,7.969,0,0,0,8.788-1.7l.037-.037a10.015,10.015,0,0,0,13.4-.67l.707-.707-.707-.707a9.993,9.993,0,0,0-8.5-2.822L49.8,53.842a10,10,0,0,0,13.4-.671l.707-.707ZM2.5,9H20.6l-8,8,7.334,7.334A10.027,10.027,0,0,0,14.5,28.007V21H4.5V31h8.46a9.949,9.949,0,0,0-.46,3,10.11,10.11,0,0,0,.074,1.219A10.01,10.01,0,0,0,2.5,39ZM20.427,43.784A10.009,10.009,0,0,0,26.856,43H29.5V53h-10V49.369A9.96,9.96,0,0,0,20.5,45a10.218,10.218,0,0,0-.073-1.216ZM22.5,42a7.961,7.961,0,0,1-2.6-.434,10.037,10.037,0,0,0-5.16-5.625A8,8,0,1,1,22.5,42Zm0-18h-.07l-7-7L22.5,9.929,29.571,17l-7,7Zm-10-1v6h-6V23ZM4.843,39.343A8,8,0,1,1,2.5,45a8,8,0,0,1,2.343-5.657ZM34.5,58a4,4,0,0,1-4,4H6.5a4,4,0,0,1-4-4v-.532A5.976,5.976,0,0,0,6.5,59h24a5.976,5.976,0,0,0,4-1.532Zm0-5a4,4,0,0,1-4,4H6.5a4,4,0,0,1-4-4V51a10.009,10.009,0,0,0,15,1.14V55h14V41H29.634a9.994,9.994,0,0,0-4.569-16.666L32.4,17l-8-8H34.5Zm0-46H2.5V2h32Zm7.494,51.723a8.006,8.006,0,0,1,0-9.7,8.021,8.021,0,0,1,0,9.7Zm11.213,1.514a8.02,8.02,0,0,1-9.7,0,8.023,8.023,0,0,1,9.7,0Zm-3.435-9.294a8.017,8.017,0,0,1,0-9.7A8.017,8.017,0,0,1,49.772,50.943ZM56.136,54.1a7.937,7.937,0,0,1-4.849-1.636,8.017,8.017,0,0,1,9.7,0A7.937,7.937,0,0,1,56.136,54.1Z"/>
  </g>
</svg>
