<svg xmlns="http://www.w3.org/2000/svg" width="135.371" height="122.305" viewBox="0 0 135.371 122.305">
  <g id="_36" data-name="36" transform="translate(-1 -4)">
    <path id="Trazado_896580" data-name="Trazado 896580" d="M124.271,99.336A8.734,8.734,0,0,0,133,90.6V20.734A8.734,8.734,0,0,0,124.271,12H10.734A8.734,8.734,0,0,0,2,20.734V90.6a8.734,8.734,0,0,0,8.734,8.734Z" transform="translate(1.183 9.467)" fill="#66c3e9"/>
    <path id="Trazado_896581" data-name="Trazado 896581" d="M87.327,68.769H82.581V39.983a79.95,79.95,0,0,1,5.056-27.976L8.367,12A8.635,8.635,0,0,0,4,13.212v3.155a78.6,78.6,0,0,0,78.6,78.6h6.314c.127-2.124.218-4.249.218-6.373a110.2,110.2,0,0,0-1.808-19.828Z" transform="translate(3.55 9.467)" fill="#8adef9"/>
    <path id="Trazado_896582" data-name="Trazado 896582" d="M69.049,12H48.663c.459,6.6.714,13.207.714,19.786V76.3A54.14,54.14,0,0,0,50.424,86.9a58.681,58.681,0,0,1,1.033,8.082H76.567A8.635,8.635,0,0,0,77.783,90.6V20.734A8.734,8.734,0,0,0,69.049,12Z" transform="translate(56.405 9.467)" fill="#8adef9"/>
    <path id="Trazado_896583" data-name="Trazado 896583" d="M45.357,74.869v.039A111.973,111.973,0,0,1,47.54,96.88a108.388,108.388,0,0,1-2.108,21.275,4.066,4.066,0,0,0-.076.775,3.974,3.974,0,0,0,3.974,3.974h2.576a4.974,4.974,0,0,0,5.3-3.747l.1-.415a38.55,38.55,0,0,0,1.166-9.62c0-.845,0-1.731-.013-2.6a56.551,56.551,0,0,0-1.092-10.917,56.147,56.147,0,0,1-1.092-11.026V40.07A282.757,282.757,0,0,0,54.09,5a78.006,78.006,0,0,0-13.1,43.269v26.6Z" transform="translate(47.324 1.183)" fill="#9d9e9d"/>
    <path id="Trazado_896584" data-name="Trazado 896584" d="M47.54,74.869V48.546A82.7,82.7,0,0,1,55.072,14.06Q54.651,9.526,54.09,5a78.006,78.006,0,0,0-13.1,43.269v26.6Z" transform="translate(47.324 1.183)" fill="#dfe0df"/>
    <path id="Trazado_896585" data-name="Trazado 896585" d="M42.98,38.183A7.456,7.456,0,0,1,48.251,36h.376a7.456,7.456,0,0,1,5.27,2.183V47.9A56.166,56.166,0,0,0,54.99,58.934a56.314,56.314,0,0,1,1.09,11.018v2.9a37.659,37.659,0,0,1-1.124,9.133,5.594,5.594,0,0,1-5.426,4.236H46.954a3.974,3.974,0,0,1-3.974-3.974,4.065,4.065,0,0,1,.076-.779,108.374,108.374,0,0,0,2.107-21.271A112.009,112.009,0,0,0,42.98,38.221Z" transform="translate(49.679 37.869)" fill="#916658"/>
    <path id="Trazado_896586" data-name="Trazado 896586" d="M46.222,36.145a7.424,7.424,0,0,0-3.242,1.867v.039a111.974,111.974,0,0,1,2.183,21.972A108.387,108.387,0,0,1,43.056,81.3a4.065,4.065,0,0,0-.076.775A3.972,3.972,0,0,0,46.1,85.951,5.59,5.59,0,0,0,50.524,81.8a37.659,37.659,0,0,0,1.124-9.133V69.652a62.227,62.227,0,0,0-1.212-11.511,56.257,56.257,0,0,1-.972-10.41V40.669a4.642,4.642,0,0,0-3.207-4.513Z" transform="translate(49.679 38.04)" fill="#a37765"/>
    <path id="Trazado_896587" data-name="Trazado 896587" d="M44.611,49.1h9.314c0-.4-.028-.8-.028-1.2V38.183A7.456,7.456,0,0,0,48.626,36h-.376a7.456,7.456,0,0,0-5.27,2.183v.04q1.087,5.4,1.631,10.878Z" transform="translate(49.679 37.869)" fill="#4c4c4c"/>
    <path id="Trazado_896588" data-name="Trazado 896588" d="M46.222,36.145a7.424,7.424,0,0,0-3.242,1.867v.039A107.106,107.106,0,0,1,44.6,48.929h4.882c0-.4-.028-.8-.028-1.2V40.669a4.642,4.642,0,0,0-3.207-4.513Z" transform="translate(49.679 38.04)" fill="#5e5e5e"/>
    <rect id="Rectángulo_405106" data-name="Rectángulo 405106" width="13.1" height="39.301" rx="3" transform="translate(112.354 45.485)" fill="#fff"/>
    <path id="Trazado_896589" data-name="Trazado 896589" d="M42.866,52.04A13.1,13.1,0,1,0,25.53,34.706" transform="translate(29.029 27.222)" fill="#719301"/>
    <path id="Trazado_896590" data-name="Trazado 896590" d="M39.566,55.171A13.1,13.1,0,1,0,22.535,37.7" transform="translate(25.485 30.768)" fill="#82ab00"/>
    <path id="Trazado_896591" data-name="Trazado 896591" d="M36.864,58.041A13.1,13.1,0,1,0,19.53,40.707" transform="translate(21.928 34.322)" fill="#8dbf00"/>
    <circle id="Elipse_12021" data-name="Elipse 12021" cx="13.1" cy="13.1" r="13.1" transform="translate(33.751 73.869)" fill="#8dbf00"/>
    <path id="Trazado_896592" data-name="Trazado 896592" d="M27.916,36a13.044,13.044,0,0,0-8.1,2.817A13.09,13.09,0,0,0,38.2,57.2,13.09,13.09,0,0,0,27.916,36Z" transform="translate(18.935 37.869)" fill="#b6dd14"/>
    <g id="Grupo_1111282" data-name="Grupo 1111282" transform="translate(38.118 78.236)">
      <path id="Trazado_896593" data-name="Trazado 896593" d="M21,38h4.367v4.367H21Z" transform="translate(-14.45 -38)" fill="#fff"/>
      <path id="Trazado_896594" data-name="Trazado 896594" d="M21,44h4.367v4.367H21Z" transform="translate(-14.45 -30.9)" fill="#fff"/>
      <path id="Trazado_896595" data-name="Trazado 896595" d="M24,41h4.367v4.367H24Z" transform="translate(-10.9 -34.45)" fill="#fff"/>
      <path id="Trazado_896596" data-name="Trazado 896596" d="M18,41h4.367v4.367H18Z" transform="translate(-18 -34.45)" fill="#fff"/>
    </g>
    <path id="Trazado_896597" data-name="Trazado 896597" d="M32.866,41.04A13.1,13.1,0,1,0,15.53,23.706" transform="translate(17.195 14.204)" fill="#719301"/>
    <path id="Trazado_896598" data-name="Trazado 896598" d="M29.571,44.167A13.1,13.1,0,1,0,12.53,26.7" transform="translate(13.645 17.754)" fill="#82ab00"/>
    <path id="Trazado_896599" data-name="Trazado 896599" d="M26.864,47.041A13.1,13.1,0,1,0,9.53,29.707" transform="translate(10.094 21.304)" fill="#8dbf00"/>
    <circle id="Elipse_12022" data-name="Elipse 12022" cx="13.1" cy="13.1" r="13.1" transform="translate(11.917 49.851)" fill="#8dbf00"/>
    <path id="Trazado_896600" data-name="Trazado 896600" d="M17.916,25a13.044,13.044,0,0,0-8.1,2.817A13.09,13.09,0,0,0,28.2,46.2,13.09,13.09,0,0,0,17.916,25Z" transform="translate(7.101 24.851)" fill="#b6dd14"/>
    <path id="Trazado_896601" data-name="Trazado 896601" d="M11,27h4.367v4.367H11Z" transform="translate(11.834 27.218)" fill="#fff"/>
    <path id="Trazado_896602" data-name="Trazado 896602" d="M11,33h4.367v4.367H11Z" transform="translate(11.834 34.319)" fill="#fff"/>
    <path id="Trazado_896603" data-name="Trazado 896603" d="M14,30h4.367v4.367H14Z" transform="translate(15.384 30.768)" fill="#fff"/>
    <path id="Trazado_896604" data-name="Trazado 896604" d="M8,30h4.367v4.367H8Z" transform="translate(8.284 30.768)" fill="#fff"/>
    <path id="Trazado_896605" data-name="Trazado 896605" d="M125.454,19.284H104.93c-.345-4.474-.762-8.939-1.31-13.371a2.183,2.183,0,0,0-3.983-.941,80.349,80.349,0,0,0-7.559,14.312H11.917A10.93,10.93,0,0,0,1,30.2V100.07a10.93,10.93,0,0,0,10.917,10.917H91.88c-.323,2.655-.716,5.3-1.24,7.919a6.078,6.078,0,0,0-.12,1.21,6.164,6.164,0,0,0,6.157,6.155h2.369a6.953,6.953,0,0,0,.7.035,7.107,7.107,0,0,0,6.928-5.432l.107-.419a40.994,40.994,0,0,0,1.2-9.467h17.467a10.93,10.93,0,0,0,10.917-10.917V30.2a10.93,10.93,0,0,0-10.917-10.917Zm-29.192,65.5q-.463-3.956-1.19-7.86a5.24,5.24,0,0,1,2.9-.873h.376a5.221,5.221,0,0,1,3.087,1.017v7.716Zm2.087-13.1h-.376c-.308,0-.6.059-.9.087V49.72a79.982,79.982,0,0,1,3.88-24.662c.312,5.408.487,10.819.487,16.194V72.231a9.585,9.585,0,0,0-3.087-.546Zm1.635-58.924c.074.718.127,1.443.194,2.164a84.323,84.323,0,0,0-7.476,34.8V73.26a9.189,9.189,0,0,0-.766.609H90.52V49.45a75.526,75.526,0,0,1,9.465-36.688ZM11.917,106.62a6.55,6.55,0,0,1-6.55-6.55V30.2a6.55,6.55,0,0,1,6.55-6.55H90.463a79.984,79.984,0,0,0-4.31,25.8v26.6a2.183,2.183,0,0,0,2.183,2.183H90.9A110.071,110.071,0,0,1,92.7,98.063c0,2.852-.146,5.707-.376,8.557Zm90.627,12.773-.107.419a2.838,2.838,0,0,1-3.183,2.092H96.677a1.79,1.79,0,0,1-1.79-1.788,1.7,1.7,0,0,1,.035-.352,110.935,110.935,0,0,0,2.148-21.7c0-2.969-.151-5.943-.382-8.91h4.858a58.247,58.247,0,0,0,1.026,8.079A54.958,54.958,0,0,1,103.62,107.8l.013,2.513a36.592,36.592,0,0,1-1.09,9.076ZM132,100.07a6.55,6.55,0,0,1-6.55,6.55H107.967a58.888,58.888,0,0,0-1.116-10.262,54.323,54.323,0,0,1-1.048-10.59V41.253c0-5.852-.183-11.731-.548-17.6h20.2A6.55,6.55,0,0,1,132,30.2Z" transform="translate(0)"/>
    <path id="Trazado_896606" data-name="Trazado 896606" d="M59.734,22A8.734,8.734,0,0,0,51,30.734v26.2a8.734,8.734,0,1,0,17.467,0v-26.2A8.734,8.734,0,0,0,59.734,22ZM64.1,56.934a4.367,4.367,0,1,1-8.734,0v-26.2a4.367,4.367,0,1,1,8.734,0Z" transform="translate(59.17 21.301)"/>
    <path id="Trazado_896607" data-name="Trazado 896607" d="M33.879,56.926a15.264,15.264,0,0,0,6.517-6.55,15.21,15.21,0,0,0,6.568-6.55A15.26,15.26,0,1,0,26.4,23.3a15.284,15.284,0,0,0-6.55,6.55,15.258,15.258,0,0,0-6.537,6.507A15.284,15.284,0,1,0,33.879,56.926Zm1.7-7.035A15.3,15.3,0,0,0,20.346,34.655,10.878,10.878,0,0,1,35.582,49.891Zm6.55-6.537A15.3,15.3,0,0,0,26.9,28.1,10.884,10.884,0,0,1,42.132,43.354Zm8.734-13.065a10.9,10.9,0,0,1-2.183,6.5A15.3,15.3,0,0,0,33.447,21.554a10.878,10.878,0,0,1,17.419,8.734ZM20.3,60.856A10.917,10.917,0,1,1,31.215,49.939,10.917,10.917,0,0,1,20.3,60.856Z" transform="translate(4.719 13.013)"/>
    <path id="Trazado_896608" data-name="Trazado 896608" d="M11,27h4.367v4.367H11Z" transform="translate(11.834 27.218)"/>
    <path id="Trazado_896609" data-name="Trazado 896609" d="M11,33h4.367v4.367H11Z" transform="translate(11.834 34.319)"/>
    <path id="Trazado_896610" data-name="Trazado 896610" d="M14,30h4.367v4.367H14Z" transform="translate(15.384 30.768)"/>
    <path id="Trazado_896611" data-name="Trazado 896611" d="M8,30h4.367v4.367H8Z" transform="translate(8.284 30.768)"/>
    <path id="Trazado_896612" data-name="Trazado 896612" d="M49.949,26A15.284,15.284,0,0,0,36.4,34.3a15.284,15.284,0,0,0-6.55,6.55,15.258,15.258,0,0,0-6.537,6.507A15.284,15.284,0,1,0,43.879,67.921a15.264,15.264,0,0,0,6.517-6.55,15.21,15.21,0,0,0,6.568-6.55A15.26,15.26,0,0,0,49.949,26ZM30.3,71.852A10.917,10.917,0,1,1,41.215,60.934,10.917,10.917,0,0,1,30.3,71.852ZM45.582,60.886A15.3,15.3,0,0,0,30.346,45.651,10.878,10.878,0,0,1,45.582,60.886Zm6.55-6.537A15.3,15.3,0,0,0,36.9,39.1,10.884,10.884,0,0,1,52.132,54.349Zm6.55-6.563A15.3,15.3,0,0,0,43.447,32.55,10.878,10.878,0,0,1,58.682,47.786Z" transform="translate(16.553 26.035)"/>
    <path id="Trazado_896613" data-name="Trazado 896613" d="M21,38h4.367v4.367H21Z" transform="translate(23.668 40.236)"/>
    <path id="Trazado_896614" data-name="Trazado 896614" d="M21,44h4.367v4.367H21Z" transform="translate(23.668 47.336)"/>
    <path id="Trazado_896615" data-name="Trazado 896615" d="M24,41h4.367v4.367H24Z" transform="translate(27.218 43.786)"/>
    <path id="Trazado_896616" data-name="Trazado 896616" d="M18,41h4.367v4.367H18Z" transform="translate(20.118 43.786)"/>
  </g>
</svg>
