<svg xmlns="http://www.w3.org/2000/svg" width="1330" height="401" viewBox="0 0 1330 401">
  <g id="_5" data-name="5" transform="translate(-135 -1428.477)">
    <rect id="Rectángulo_401338" data-name="Rectángulo 401338" width="1330" height="401" transform="translate(135 1428.477)" fill="none"/>
    <path id="Trazado_899402" data-name="Trazado 899402" d="M8.235-2.391H4.008L3.27,0h-3.3L4.667-12.8h2.9L12.3,0H8.982ZM4.746-4.772H7.5L6.117-9.211Zm8-.053a6.421,6.421,0,0,1,.475-2.549,3.821,3.821,0,0,1,1.362-1.709,3.591,3.591,0,0,1,2.065-.6,2.855,2.855,0,0,1,2.32,1l.105-.826h2.689V-.36a4.009,4.009,0,0,1-.584,2.184,3.75,3.75,0,0,1-1.692,1.424,6.219,6.219,0,0,1-2.566.5,5.365,5.365,0,0,1-2.026-.4,3.657,3.657,0,0,1-1.5-1.028L14.634.58a2.716,2.716,0,0,0,2.18.976A1.764,1.764,0,0,0,18.782-.466v-.3a2.781,2.781,0,0,1-2.153.94,3.437,3.437,0,0,1-2.812-1.332A5.517,5.517,0,0,1,12.744-4.72Zm2.971.185a3.383,3.383,0,0,0,.439,1.85,1.386,1.386,0,0,0,1.23.681,1.573,1.573,0,0,0,1.4-.642v-4A1.534,1.534,0,0,0,17.4-7.4a1.4,1.4,0,0,0-1.239.708A3.858,3.858,0,0,0,15.715-4.641ZM29.2-6.829l-.976-.07a1.752,1.752,0,0,0-1.793.879V0H23.467V-9.51h2.777l.1,1.222a2.294,2.294,0,0,1,2.083-1.4,2.888,2.888,0,0,1,.826.105ZM33.39,0H30.419V-9.51H33.39ZM30.243-11.962A1.322,1.322,0,0,1,30.7-13a1.724,1.724,0,0,1,1.187-.4,1.724,1.724,0,0,1,1.187.4,1.322,1.322,0,0,1,.457,1.037,1.322,1.322,0,0,1-.457,1.037,1.724,1.724,0,0,1-1.187.4,1.724,1.724,0,0,1-1.187-.4A1.322,1.322,0,0,1,30.243-11.962Zm4.6,7.119a5.613,5.613,0,0,1,.554-2.536,3.96,3.96,0,0,1,1.591-1.709,4.791,4.791,0,0,1,2.435-.6,4.373,4.373,0,0,1,3.366,1.323,5.076,5.076,0,0,1,1.23,3.6v.105a4.925,4.925,0,0,1-1.235,3.529A4.384,4.384,0,0,1,39.437.176a4.434,4.434,0,0,1-3.261-1.217,4.761,4.761,0,0,1-1.327-3.3Zm2.962.185a3.538,3.538,0,0,0,.413,1.934,1.376,1.376,0,0,0,1.222.615q1.582,0,1.617-2.435v-.3q0-2.558-1.635-2.558-1.485,0-1.608,2.206Z" transform="translate(876 1547.977)" fill="#12263f"/>
    <path id="Trazado_899404" data-name="Trazado 899404" d="M8.235-2.391H4.008L3.27,0h-3.3L4.667-12.8h2.9L12.3,0H8.982ZM4.746-4.772H7.5L6.117-9.211ZM15.891-9.51l.1,1.116A3.27,3.27,0,0,1,18.7-9.686a2.407,2.407,0,0,1,2.435,1.433,3.165,3.165,0,0,1,2.795-1.433q2.892,0,2.971,3.5V0H23.933V-6a1.813,1.813,0,0,0-.246-1.063,1.048,1.048,0,0,0-.9-.334,1.4,1.4,0,0,0-1.31.782l.009.123V0H18.519V-5.985a1.906,1.906,0,0,0-.237-1.081,1.045,1.045,0,0,0-.905-.334,1.42,1.42,0,0,0-1.3.782V0H13.113V-9.51ZM33.952,0a3.344,3.344,0,0,1-.281-.853A2.754,2.754,0,0,1,31.386.176,3.374,3.374,0,0,1,29.1-.637a2.588,2.588,0,0,1-.94-2.043A2.66,2.66,0,0,1,29.3-5.019a5.821,5.821,0,0,1,3.322-.791h.914v-.5q0-1.316-1.134-1.316a.927.927,0,0,0-1.055,1.042H28.389a2.655,2.655,0,0,1,1.173-2.239,4.931,4.931,0,0,1,2.993-.86,4.323,4.323,0,0,1,2.874.888A3.086,3.086,0,0,1,36.51-6.363v4.21a4.311,4.311,0,0,0,.4,2V0ZM32.1-1.934a1.652,1.652,0,0,0,.918-.237,1.487,1.487,0,0,0,.523-.536V-4.228h-.861q-1.547,0-1.547,1.389a.848.848,0,0,0,.272.655A.986.986,0,0,0,32.1-1.934Zm11.8-4.9-.976-.07a1.752,1.752,0,0,0-1.793.879V0H38.171V-9.51h2.777l.1,1.222a2.294,2.294,0,0,1,2.083-1.4,2.888,2.888,0,0,1,.826.105Zm.721,2A6.421,6.421,0,0,1,45.1-7.374a3.821,3.821,0,0,1,1.362-1.709,3.591,3.591,0,0,1,2.065-.6,2.855,2.855,0,0,1,2.32,1l.105-.826H53.64V-.36a4.009,4.009,0,0,1-.584,2.184,3.75,3.75,0,0,1-1.692,1.424,6.219,6.219,0,0,1-2.566.5,5.365,5.365,0,0,1-2.026-.4,3.657,3.657,0,0,1-1.5-1.028L46.512.58a2.716,2.716,0,0,0,2.18.976A1.764,1.764,0,0,0,50.66-.466v-.3a2.781,2.781,0,0,1-2.153.94,3.437,3.437,0,0,1-2.812-1.332A5.517,5.517,0,0,1,44.622-4.72Zm2.971.185a3.383,3.383,0,0,0,.439,1.85,1.386,1.386,0,0,0,1.23.681,1.573,1.573,0,0,0,1.4-.642v-4a1.534,1.534,0,0,0-1.38-.65,1.4,1.4,0,0,0-1.239.708A3.858,3.858,0,0,0,47.593-4.641Zm7.356-.2A5.613,5.613,0,0,1,55.5-7.378a3.96,3.96,0,0,1,1.591-1.709,4.791,4.791,0,0,1,2.435-.6,4.373,4.373,0,0,1,3.366,1.323,5.076,5.076,0,0,1,1.23,3.6v.105A4.925,4.925,0,0,1,62.89-1.129,4.384,4.384,0,0,1,59.546.176a4.434,4.434,0,0,1-3.261-1.217,4.761,4.761,0,0,1-1.327-3.3Zm2.962.185a3.538,3.538,0,0,0,.413,1.934,1.376,1.376,0,0,0,1.222.615q1.582,0,1.617-2.435v-.3q0-2.558-1.635-2.558-1.485,0-1.608,2.206Z" transform="translate(876 1665.977)" fill="#12263f"/>
    <path id="Trazado_899403" data-name="Trazado 899403" d="M.967,0V-12.8H5.089a6.064,6.064,0,0,1,3.05.769,5.406,5.406,0,0,1,2.114,2.171,6.554,6.554,0,0,1,.769,3.142v.589a6.592,6.592,0,0,1-.743,3.151A5.429,5.429,0,0,1,8.187-.8a5.93,5.93,0,0,1-3.01.8ZM4.052-10.415v8.042H5.124a2.4,2.4,0,0,0,2.039-.945,4.63,4.63,0,0,0,.712-2.808V-6.68a4.592,4.592,0,0,0-.712-2.795,2.442,2.442,0,0,0-2.074-.94Zm14.08,9.387a3.054,3.054,0,0,1-2.54,1.2,3,3,0,0,1-2.369-.91,3.826,3.826,0,0,1-.8-2.615V-9.51h2.962v6.179a1.065,1.065,0,0,0,1.187,1.222,1.548,1.548,0,0,0,1.45-.729V-9.51H21V0H18.22ZM25.743,0H22.772V-13.5h2.971Zm5.845-2.109a1.317,1.317,0,0,0,.967-.338,1.241,1.241,0,0,0,.334-.945h2.777A3.288,3.288,0,0,1,34.545-.826a4.168,4.168,0,0,1-2.887,1,4.22,4.22,0,0,1-3.27-1.3,5.125,5.125,0,0,1-1.2-3.6v-.123A5.792,5.792,0,0,1,27.725-7.4a3.872,3.872,0,0,1,1.534-1.7,4.573,4.573,0,0,1,2.373-.593,4.116,4.116,0,0,1,2.944,1.028,3.647,3.647,0,0,1,1.09,2.786H32.889A1.626,1.626,0,0,0,32.528-7a1.244,1.244,0,0,0-.967-.4q-1.151,0-1.345,1.468a10.357,10.357,0,0,0-.062,1.283A4.068,4.068,0,0,0,30.5-2.663,1.187,1.187,0,0,0,31.588-2.109ZM41.52.176a4.889,4.889,0,0,1-3.542-1.305,4.507,4.507,0,0,1-1.354-3.4v-.246a5.84,5.84,0,0,1,.541-2.575,3.955,3.955,0,0,1,1.578-1.727A4.763,4.763,0,0,1,41.2-9.686a4.117,4.117,0,0,1,3.164,1.244,4.887,4.887,0,0,1,1.16,3.467v1.151H39.639a2.135,2.135,0,0,0,.694,1.257,2.066,2.066,0,0,0,1.389.457,2.662,2.662,0,0,0,2.2-.984l1.354,1.6A3.784,3.784,0,0,1,43.7-.277,5.3,5.3,0,0,1,41.52.176ZM41.186-7.4q-1.3,0-1.547,1.723h2.988v-.229a1.467,1.467,0,0,0-.36-1.1A1.434,1.434,0,0,0,41.186-7.4Z" transform="translate(876 1606.977)" fill="#12263f"/>
    <path id="Trazado_899405" data-name="Trazado 899405" d="M7.567-3.4a1.268,1.268,0,0,0-.479-1.055,5.954,5.954,0,0,0-1.683-.782,16.147,16.147,0,0,1-1.969-.782Q.949-7.242.949-9.378a3.011,3.011,0,0,1,.62-1.876A4.008,4.008,0,0,1,3.322-12.52a6.823,6.823,0,0,1,2.549-.453,5.969,5.969,0,0,1,2.474.492,3.917,3.917,0,0,1,1.7,1.4A3.661,3.661,0,0,1,10.652-9H7.576A1.547,1.547,0,0,0,7.1-10.213a1.867,1.867,0,0,0-1.3-.431,2.106,2.106,0,0,0-1.305.365,1.119,1.119,0,0,0-.479.927,1.127,1.127,0,0,0,.527.892A6.65,6.65,0,0,0,6.4-7.633a11.36,11.36,0,0,1,2.18.918,3.663,3.663,0,0,1,2.074,3.3A3.125,3.125,0,0,1,9.387-.782,5.629,5.629,0,0,1,5.915.176,6.888,6.888,0,0,1,3.1-.382,4.247,4.247,0,0,1,1.2-1.912,3.985,3.985,0,0,1,.563-4.148H3.656a1.963,1.963,0,0,0,.532,1.516,2.513,2.513,0,0,0,1.727.488,1.985,1.985,0,0,0,1.208-.33A1.088,1.088,0,0,0,7.567-3.4ZM17.455,0a3.344,3.344,0,0,1-.281-.853A2.754,2.754,0,0,1,14.889.176,3.374,3.374,0,0,1,12.6-.637a2.588,2.588,0,0,1-.94-2.043,2.66,2.66,0,0,1,1.143-2.338,5.821,5.821,0,0,1,3.322-.791h.914v-.5q0-1.316-1.134-1.316a.927.927,0,0,0-1.055,1.042H11.892a2.655,2.655,0,0,1,1.173-2.239,4.931,4.931,0,0,1,2.993-.86,4.323,4.323,0,0,1,2.874.888,3.086,3.086,0,0,1,1.081,2.435v4.21a4.311,4.311,0,0,0,.4,2V0ZM15.6-1.934a1.652,1.652,0,0,0,.918-.237,1.487,1.487,0,0,0,.523-.536V-4.228h-.861q-1.547,0-1.547,1.389a.848.848,0,0,0,.272.655A.986.986,0,0,0,15.6-1.934ZM24.776,0H21.806V-13.5h2.971Zm7.181,0a3.344,3.344,0,0,1-.281-.853A2.754,2.754,0,0,1,29.391.176a3.374,3.374,0,0,1-2.285-.813,2.588,2.588,0,0,1-.94-2.043,2.66,2.66,0,0,1,1.143-2.338A5.821,5.821,0,0,1,30.63-5.81h.914v-.5q0-1.316-1.134-1.316a.927.927,0,0,0-1.055,1.042H26.394a2.655,2.655,0,0,1,1.173-2.239,4.931,4.931,0,0,1,2.993-.86,4.323,4.323,0,0,1,2.874.888,3.086,3.086,0,0,1,1.081,2.435v4.21a4.311,4.311,0,0,0,.4,2V0ZM30.1-1.934a1.652,1.652,0,0,0,.918-.237,1.487,1.487,0,0,0,.523-.536V-4.228h-.861q-1.547,0-1.547,1.389a.848.848,0,0,0,.272.655A.986.986,0,0,0,30.1-1.934ZM35.78-4.825a5.809,5.809,0,0,1,.976-3.56,3.211,3.211,0,0,1,2.725-1.3,2.731,2.731,0,0,1,2.145,1V-13.5H44.6V0H41.933l-.149-1.02a2.8,2.8,0,0,1-2.32,1.2,3.205,3.205,0,0,1-2.689-1.3A5.993,5.993,0,0,1,35.78-4.825Zm2.962.185q0,2.531,1.477,2.531a1.458,1.458,0,0,0,1.406-.826V-6.557A1.419,1.419,0,0,0,40.236-7.4q-1.371,0-1.485,2.215Zm7.163-.2a5.613,5.613,0,0,1,.554-2.536A3.96,3.96,0,0,1,48.05-9.088a4.791,4.791,0,0,1,2.435-.6,4.373,4.373,0,0,1,3.366,1.323,5.076,5.076,0,0,1,1.23,3.6v.105a4.925,4.925,0,0,1-1.235,3.529A4.384,4.384,0,0,1,50.5.176a4.434,4.434,0,0,1-3.261-1.217,4.761,4.761,0,0,1-1.327-3.3Zm2.962.185a3.538,3.538,0,0,0,.413,1.934,1.376,1.376,0,0,0,1.222.615q1.582,0,1.617-2.435v-.3q0-2.558-1.635-2.558Q49-7.4,48.876-5.194Z" transform="translate(876 1724.977)" fill="#12263f"/>
    <g id="tongue" transform="translate(600.899 1504.488)">
      <path id="Trazado_896569" data-name="Trazado 896569" d="M1322.1,1223.308l21.235-29.651,68.01-11.057,74.272,14.58,23.877,25.638-42.861,73.783-33.173,31.9h-28.672l-48.243-38.457Z" transform="translate(-1320.393 -1158.727)" fill="#670000"/>
      <path id="Trazado_896570" data-name="Trazado 896570" d="M1763.671,1214.565a80.085,80.085,0,0,0-21.907-13.033,105.975,105.975,0,0,0-25.259-6.526,134.471,134.471,0,0,0-27.876-.816,181.594,181.594,0,0,0-29.536,4.789c-4.9,1.185-9.758,2.531-14.58,4-2.374.721-4.764,1.429-7.1,2.252a43.2,43.2,0,0,0-6.346,3.022c-1.036.568-2.07,1.138-3.12,1.678a.211.211,0,0,0-.119.151.285.285,0,0,0-.015.161,32.8,32.8,0,0,0,2.469,7.634,8.408,8.408,0,0,0,2.037,3.057,3.188,3.188,0,0,0,3.248.672,3.36,3.36,0,0,0,1.289-1.086,2.8,2.8,0,0,0,.242-.391,8.461,8.461,0,0,0,1.622,2.692,8.791,8.791,0,0,0,3.474,2.387,7.823,7.823,0,0,0,4.153.361,9.181,9.181,0,0,0,3.869-1.724,8.438,8.438,0,0,0,2.618-3.19,28.965,28.965,0,0,0,1.772,3.731,11.05,11.05,0,0,0,2.983,3.456,7.412,7.412,0,0,0,2.155,1.072,9.289,9.289,0,0,0,2.793.371,18.613,18.613,0,0,0,2.873-.285c.923-.153,1.853-.318,2.762-.543a6.4,6.4,0,0,0,2.4-1.093,3.573,3.573,0,0,0,.707-.7,5.565,5.565,0,0,0,1.56,3.453,5.9,5.9,0,0,0,2.662,1.337,15.325,15.325,0,0,0,3.212.385c2.445.088,4.892.12,7.338.178,1.2.029,2.408.075,3.611.077a11.24,11.24,0,0,0,3.32-.391,4.731,4.731,0,0,0,2.359-1.509,4.627,4.627,0,0,0,.6-.985c.024.08.049.159.077.236a4.67,4.67,0,0,0,.7,1.271,2.95,2.95,0,0,0,.969.849,5.182,5.182,0,0,0,1.714.464,16.017,16.017,0,0,0,1.8.078l1.986.014,4.021.028,3.971.028a22.717,22.717,0,0,0,3.539-.148,6.137,6.137,0,0,0,4.778-3.251,11.058,11.058,0,0,0,1-2.546,3.69,3.69,0,0,0,.593,1.1,4.51,4.51,0,0,0,2.226,1.418,10.8,10.8,0,0,0,2.857.432,17.343,17.343,0,0,0,2.772-.1,13.574,13.574,0,0,0,5.24-1.676,10.316,10.316,0,0,0,3.7-3.655,8.9,8.9,0,0,0,1.041-2.648,5.375,5.375,0,0,0,1.3,1.663,11.778,11.778,0,0,0,3.278,1.987,16.77,16.77,0,0,0,1.833.656,11.115,11.115,0,0,0,1.787.393,6.556,6.556,0,0,0,4.535-1.384,16.281,16.281,0,0,0,3.4-3.727l.189-.263a4.163,4.163,0,0,0,4.08.689,6.1,6.1,0,0,0,3.5-3.437,13.543,13.543,0,0,0,.9-2.851A.2.2,0,0,0,1763.671,1214.565Z" transform="translate(-1602.824 -1169.092)" fill="#fff"/>
      <path id="Trazado_896571" data-name="Trazado 896571" d="M1488.617,931.693a115.186,115.186,0,0,0-4.091-11.928,46.343,46.343,0,0,0-6.387-10.719,93.523,93.523,0,0,0-8.512-9.087c-2.836-2.728-5.75-5.377-8.76-7.912a119.681,119.681,0,0,0-19.268-13.457,77.068,77.068,0,0,0-22.345-8.4c-7.818-1.508-16.514-1.091-23.015,4.009a18.626,18.626,0,0,0-1.883,1.7,23.026,23.026,0,0,0-9.2-5.62,28.792,28.792,0,0,0-12.264-1.06,58.915,58.915,0,0,0-12.363,2.869,82.288,82.288,0,0,0-10.777,4.521,111.8,111.8,0,0,0-19.736,12.947c-3.1,2.495-6.092,5.117-9,7.828-3.016,2.811-5.994,5.687-8.725,8.779a48.623,48.623,0,0,0-7.091,10.213,76.914,76.914,0,0,0-4.581,11.979c-.315,1.019-.623,2.039-.932,3.06a.214.214,0,0,0,.068.239c2.768,11.322,5.036,22.77,8.232,33.986a148.275,148.275,0,0,0,5.656,16.488,138.824,138.824,0,0,0,7.178,14.594,119.18,119.18,0,0,0,19.1,25.675,85.422,85.422,0,0,0,26.132,18.178,75.1,75.1,0,0,0,31.036,6.6q1.984-.027,3.962-.177a61.694,61.694,0,0,0,15.532-3.386,72.539,72.539,0,0,0,7.354-3.069c1.12-.541,2.25-1.065,3.358-1.627,1.184-.6,2.316-1.3,3.482-1.93.512-.278.926-.673,1.417-.983.536-.339,1.079-.668,1.613-1.01q1.46-.937,2.883-1.93,2.809-1.962,5.457-4.141a91.592,91.592,0,0,0,9.884-9.5,122.185,122.185,0,0,0,8.578-10.779,22.741,22.741,0,0,0,1.959-3.012,17.1,17.1,0,0,1,1.06-1.6q.578-.887,1.141-1.783,2.1-3.342,4.006-6.8a179.976,179.976,0,0,0,12.1-27.942,155.289,155.289,0,0,0,7.345-31.557q.256-2.034.46-4.073A.2.2,0,0,0,1488.617,931.693Zm-96.967,89.188a48.419,48.419,0,0,1-12.861-2.515,89.855,89.855,0,0,1-12.552-5.505,73.548,73.548,0,0,1-11.648-7.356,150.947,150.947,0,0,1-19.408-18.737,113.074,113.074,0,0,1-15.927-23.435c-2.793-5.4-5.272-10.948-7.722-16.506-1.243-2.819-2.464-5.65-3.746-8.452-1.026-2.243-2.944-4.5-2.775-7.109.148-2.3,3-4.8,4.586-6.278a36.451,36.451,0,0,1,6.728-4.853,103.034,103.034,0,0,1,15.557-6.762c13.329-4.964,28.476-8.184,42.737-7.8a56.994,56.994,0,0,1,10.207,1.172,60.575,60.575,0,0,0,9.6,1.741,34.161,34.161,0,0,0,9.668-1.316,94.242,94.242,0,0,1,9.439-1.988,70.765,70.765,0,0,1,19.861.16,76.681,76.681,0,0,1,18.437,4.873,67.015,67.015,0,0,1,14.991,9.148c3.129,2.419,6.185,4.928,9.242,7.437,1.522,1.249,3.014,2.557,4.584,3.746,1.1.834,2.385,1.623,2.6,3.126.177,1.244-.505,2.487-.912,3.625,0,1.127-1,2.771-1.376,3.847q-.653,1.876-1.378,3.722a107.257,107.257,0,0,1-5.166,11.224,132.157,132.157,0,0,1-13.2,19.89c-5.091,6.424-10.631,12.478-16.306,18.387-5.756,5.994-11.595,11.844-18.353,16.724a48.834,48.834,0,0,1-10.095,5.887,54.529,54.529,0,0,1-11.861,3.126A62.64,62.64,0,0,1,1391.649,1020.881Z" transform="translate(-1299.675 -869.003)" fill="#b70000"/>
      <g id="Grupo_1111275" data-name="Grupo 1111275" transform="translate(27.052 69.621)">
        <path id="Trazado_896572" data-name="Trazado 896572" d="M1774,1901.462c.7-17.144,16.2-30.429,34.613-29.675l0-.029c-.374,0-.748,0-1.125-.017-14.121-.58-25.038-13.963-24.384-29.893s12.631-28.373,26.752-27.793q.311.013.62.034a51.878,51.878,0,0,0-2.383-7.454,40.219,40.219,0,0,0-5.906-10.16,31.974,31.974,0,0,0-9.212-7.754,47.458,47.458,0,0,0-11.852-4.5c-11.347-2.82-23.932,4.467-35.521,4.586-11.117.114-22.648-6.6-33.527-4.11a50.89,50.89,0,0,0-11.7,4.064,32.3,32.3,0,0,0-9.521,7.242,38.328,38.328,0,0,0-6.2,9.64,49.753,49.753,0,0,0-2.767,7.73c.085,0,.17,0,.255,0,14.132,0,25.589,12.924,25.589,28.868,0,15.416-10.712,28.009-24.2,28.824,0,.016,0,.031,0,.046,18.3.135,33.1,13.991,33.1,31.066,0,14.484-10.644,26.652-25.047,30.095a42.508,42.508,0,0,0,6.791,10.238q.443.51.9,1.01c3.96-14.521,23.237-25.539,46.421-25.539,23.139,0,42.386,10.976,46.4,25.455a47.805,47.805,0,0,0,6.222-7.979q.715-1.181,1.339-2.42C1784.44,1929.611,1773.381,1916.558,1774,1901.462Zm-28.787-18.63c-6.112-22.287-6.531-58.443.39-80.524-.126,7.277-.2,14.582-.169,21.854.093,19.934.379,39.849,1.557,59.752.107,1.828.26,3.655.373,5.486A67.184,67.184,0,0,1,1745.214,1882.831Z" transform="translate(-1679.845 -1783.57)" fill="#e28181"/>
        <path id="Trazado_896573" data-name="Trazado 896573" d="M2457.016,2051.569c-.029-7.272.043-14.577.168-21.855-6.921,22.081-6.5,58.237-.39,80.524a67.3,67.3,0,0,0,2.152,6.567c-.113-1.83-.266-3.657-.373-5.485C2457.395,2091.417,2457.108,2071.5,2457.016,2051.569Z" transform="translate(-2391.425 -2010.976)" fill="#d16b6b"/>
        <path id="Trazado_896574" data-name="Trazado 896574" d="M1682.921,2203.845c0-15.943-11.457-28.867-25.589-28.867-.086,0-.17,0-.255,0q-.476,1.764-.836,3.561a65.245,65.245,0,0,0-1.208,12.578,115.22,115.22,0,0,0,.907,13.864q1.62,13.818,2.784,27.686C1672.208,2231.854,1682.921,2219.261,1682.921,2203.845Z" transform="translate(-1655.031 -2145.182)" fill="#fca870"/>
        <path id="Trazado_896575" data-name="Trazado 896575" d="M1736.676,2964.5c0-17.075-14.794-30.931-33.1-31.066q.941,11.06,1.648,22.127c.584,9.043.9,18.214,2.686,27.1a54.911,54.911,0,0,0,3.673,11.842c.015.032.03.063.044.094C1726.032,2991.156,1736.676,2978.986,1736.676,2964.5Z" transform="translate(-1699.881 -2845.903)" fill="#8fd8e5"/>
        <path id="Trazado_896576" data-name="Trazado 896576" d="M3011.191,2211.583c-.654,15.93,10.263,29.313,24.383,29.893.377.016.751.02,1.125.017,1.423-13.409,3.11-26.93,3.494-40.211a70.037,70.037,0,0,0-.781-13.222q-.346-2.135-.85-4.236-.309-.021-.62-.034C3023.822,2183.211,3011.845,2195.655,3011.191,2211.583Z" transform="translate(-2907.927 -2153.305)" fill="#fca870"/>
        <path id="Trazado_896577" data-name="Trazado 896577" d="M2925.007,2954.381c.342-4.094.755-8.208,1.193-12.334-18.413-.755-33.909,12.53-34.613,29.674-.62,15.1,10.438,28.15,25.661,31.569a47.989,47.989,0,0,0,3.479-9.276C2924.146,2981.272,2923.912,2967.511,2925.007,2954.381Z" transform="translate(-2797.431 -2853.829)" fill="#8fd8e5"/>
        <path id="Trazado_896578" data-name="Trazado 896578" d="M1956.768,3549.14c-23.184,0-42.461,11.019-46.421,25.539a59.849,59.849,0,0,0,18.4,13.9c22.2,10.615,54.808,5.542,72.65-12.171q.894-.888,1.77-1.813C1999.154,3560.116,1979.908,3549.14,1956.768,3549.14Z" transform="translate(-1890.911 -3414.736)" fill="#f490bd"/>
        <ellipse id="Elipse_12016" data-name="Elipse 12016" cx="27.646" cy="18.162" rx="27.646" ry="18.162" transform="translate(37.13 11.179)" fill="#826ac6"/>
      </g>
    </g>
    <circle id="Elipse_12017" data-name="Elipse 12017" cx="23" cy="23" r="23" transform="translate(810 1692.977)" fill="#8fd8e5"/>
    <circle id="Elipse_12019" data-name="Elipse 12019" cx="23" cy="23" r="23" transform="translate(810 1636.977)" fill="#826ac6"/>
    <circle id="Elipse_12020" data-name="Elipse 12020" cx="23" cy="23" r="23" transform="translate(810 1580.977)" fill="#f490bd"/>
    <circle id="Elipse_12018" data-name="Elipse 12018" cx="23" cy="23" r="23" transform="translate(810 1518.977)" fill="#fca870"/>
  </g>
</svg>
