<svg xmlns="http://www.w3.org/2000/svg" width="134.176" height="116.246" viewBox="0 0 134.176 116.246">
  <g id="_52" data-name="52" transform="translate(-0.013 -0.029)">
    <g id="_038---Dirty-Chopping-Board" data-name="038---Dirty-Chopping-Board" transform="translate(0.013 0.029)">
      <path id="Shape" d="M38.8,15,5,48.8V23.947A8.947,8.947,0,0,1,13.947,15Z" transform="translate(6.154 18.486)" fill="#ff9801"/>
      <path id="Shape-2" data-name="Shape" d="M116.838,15H98.922l-.045.045L57.743,56.179a4.456,4.456,0,0,1-6.308,0L37.187,41.931,18.957,60.183a2.353,2.353,0,0,0-.649,1.767A11.184,11.184,0,0,1,5,73.469V86.576a8.947,8.947,0,0,0,8.947,8.947H116.838a8.947,8.947,0,0,0,8.947-8.947V23.947A8.947,8.947,0,0,0,116.838,15Zm0,48.09a5.592,5.592,0,1,1-11.184,0V47.433a5.592,5.592,0,1,1,11.184,0Z" transform="translate(6.154 18.486)" fill="#ff9801"/>
      <path id="Shape-3" data-name="Shape" d="M28.783,41.288a4.456,4.456,0,0,0,6.308,0l.2-.2L21.245,27.04,17.89,30.4Z" transform="translate(22.096 33.377)" fill="#f57c00"/>
      <path id="Shape-4" data-name="Shape" d="M55.947,28.138A5.574,5.574,0,0,0,47,32.59V48.247a5.565,5.565,0,0,0,8.947,4.447,5.561,5.561,0,0,1-2.237-4.447V32.59A5.563,5.563,0,0,1,55.947,28.138Z" transform="translate(58.098 33.329)" fill="#f57c00"/>
      <path id="Shape-5" data-name="Shape" d="M58.71,15H52a8.947,8.947,0,0,1,8.947,8.947V86.576A8.947,8.947,0,0,1,52,95.523h6.71a8.947,8.947,0,0,0,8.947-8.947V23.947A8.947,8.947,0,0,0,58.71,15Z" transform="translate(64.282 18.486)" fill="#f57c00"/>
      <path id="Shape-6" data-name="Shape" d="M42.125,34.04,23.9,52.292a2.353,2.353,0,0,0-.649,1.767A11.184,11.184,0,0,1,3.429,61.686,11.535,11.535,0,0,1,4.5,46.342L29.465,21.38Z" transform="translate(1.216 26.376)" fill="#02a9f4"/>
      <path id="Shape-7" data-name="Shape" d="M25.173,21.38l-3.355,3.355,9.3,9.3L12.893,52.292a2.353,2.353,0,0,0-.649,1.767A11.166,11.166,0,0,1,4.478,65.243a11.323,11.323,0,0,0,1.168.336A11.184,11.184,0,0,0,18.954,54.059a2.353,2.353,0,0,1,.649-1.767L37.833,34.04Z" transform="translate(5.509 26.376)" fill="#0377bc"/>
      <path id="Shape-8" data-name="Shape" d="M75.881,21.1l-.045.045L34.7,62.276a4.456,4.456,0,0,1-6.308,0L23.63,57.512,45.774,35.368l7.918-7.9,17.4-17.4,4.742,4.742a4.489,4.489,0,0,1,.045,6.285Z" transform="translate(29.195 12.389)" fill="#cfd8dc"/>
      <path id="Shape-9" data-name="Shape" d="M83.338,21.29l-17.4,17.4-7.918,7.9L35.874,68.732,26.39,59.248,13.73,46.588,28,32.318,58.018,2.323a4.442,4.442,0,0,1,6.33,0Z" transform="translate(16.951 1.168)" fill="#9e9e9e"/>
      <circle id="Oval" cx="5.592" cy="5.592" r="5.592" transform="translate(60.363 93.881)" fill="#a4c400"/>
      <circle id="Oval-2" data-name="Oval" cx="6.71" cy="6.71" r="6.71" transform="translate(82.731 71.511)" fill="#a4c400"/>
      <path id="Shape-10" data-name="Shape" d="M13,52.676a5.592,5.592,0,0,1,5.592-5.592,8.242,8.242,0,0,0,7.936-6.69,5.592,5.592,0,0,1,10.96,2.194,19.359,19.359,0,0,1-18.9,15.68A5.592,5.592,0,0,1,13,52.676Z" transform="translate(16.048 44.558)" fill="#60a917"/>
      <path id="Shape-11" data-name="Shape" d="M59.947,54.184h-6.71a2.237,2.237,0,1,1,0-4.474H57.71V45.237a2.237,2.237,0,0,1,4.474,0v6.71A2.237,2.237,0,0,1,59.947,54.184Z" transform="translate(63.045 53.115)" fill="#f5f5f5"/>
      <g id="Grupo_1111284" data-name="Grupo 1111284">
        <path id="Shape-12" data-name="Shape" d="M123.006,31.278H108.5a6.686,6.686,0,0,0-1.879-5.625L82.9,1.93a6.871,6.871,0,0,0-9.488,0L44.048,31.278H20.115A11.2,11.2,0,0,0,8.931,42.462V66.409L4.162,71.178A13.792,13.792,0,0,0,2.929,89.519a13.508,13.508,0,0,0,6,4.165v11.407a11.2,11.2,0,0,0,11.184,11.184H123.006a11.2,11.2,0,0,0,11.184-11.184V42.462A11.2,11.2,0,0,0,123.006,31.278ZM76.575,5.09a2.288,2.288,0,0,1,3.161,0l17.4,17.4L81.317,38.3a2.237,2.237,0,1,0,3.163,3.163L100.3,25.651l3.163,3.167a2.237,2.237,0,0,1,0,3.165L62.338,73.106a2.237,2.237,0,0,1-3.163,0l-3.163-3.165,20.56-20.56a2.237,2.237,0,1,0-3.163-3.163L52.847,66.776l-7.9-7.907L33.868,47.8ZM13.4,42.462a6.71,6.71,0,0,1,6.71-6.71h19.46L29.111,46.216,13.4,61.936ZM7.325,74.341,30.7,50.962l.863.861,8.627,8.629L23.537,77.107a4.538,4.538,0,0,0-1.3,3.469,8.983,8.983,0,0,1-2.608,6.762,9.077,9.077,0,0,1-6.757,2.608,8.887,8.887,0,0,1-6.487-3.27,9.285,9.285,0,0,1,.935-12.336Zm122.391,30.751a6.71,6.71,0,0,1-6.71,6.71H20.114a6.71,6.71,0,0,1-6.71-6.71V94.424A13.4,13.4,0,0,0,26.7,80.264L43.357,63.606,56.012,76.26a6.71,6.71,0,0,0,9.488,0l40.506-40.508h17a6.71,6.71,0,0,1,6.71,6.71Z" transform="translate(-0.013 -0.029)"/>
        <path id="Shape-13" data-name="Shape" d="M16.553,29.86a2.237,2.237,0,1,0-3.163,0,2.237,2.237,0,0,0,3.163,0Z" transform="translate(15.721 32.142)"/>
        <path id="Shape-14" data-name="Shape" d="M8.775,37.638a2.237,2.237,0,1,0-3.163,0A2.237,2.237,0,0,0,8.775,37.638Z" transform="translate(6.101 41.762)"/>
        <path id="Shape-15" data-name="Shape" d="M56.829,26A7.829,7.829,0,0,0,49,33.829V49.486a7.829,7.829,0,0,0,15.657,0V33.829A7.829,7.829,0,0,0,56.829,26Zm3.355,23.486a3.355,3.355,0,0,1-6.71,0V33.829a3.355,3.355,0,0,1,6.71,0Z" transform="translate(60.572 32.09)"/>
        <path id="Shape-16" data-name="Shape" d="M33.829,41a7.829,7.829,0,1,0,7.829,7.829A7.829,7.829,0,0,0,33.829,41Zm0,11.184a3.355,3.355,0,1,1,3.355-3.355A3.355,3.355,0,0,1,33.829,52.184Z" transform="translate(32.126 50.642)"/>
        <path id="Shape-17" data-name="Shape" d="M34.786,35.153a7.829,7.829,0,0,0-9.211,6.126,5.959,5.959,0,0,1-5.746,4.905,7.829,7.829,0,1,0,0,15.657c13.926,0,19.889-11.432,21.1-17.48a7.851,7.851,0,0,0-6.142-9.209ZM36.54,43.49A17.12,17.12,0,0,1,19.829,57.369a3.355,3.355,0,1,1,0-6.71,10.347,10.347,0,0,0,10.13-8.486,3.355,3.355,0,0,1,3.29-2.7,3.519,3.519,0,0,1,.671.065A3.366,3.366,0,0,1,36.54,43.5Z" transform="translate(14.812 43.22)"/>
        <path id="Shape-18" data-name="Shape" d="M58.6,40.184H56.05A8.757,8.757,0,0,0,55.1,37.9l1.81-1.812a2.237,2.237,0,0,0-3.163-3.163l-1.81,1.812a8.757,8.757,0,0,0-2.279-.951V31.237a2.237,2.237,0,1,0-4.474,0v2.554a8.757,8.757,0,0,0-2.279.951L41.1,32.93a2.237,2.237,0,0,0-3.163,3.163l1.81,1.812a8.757,8.757,0,0,0-.951,2.279H36.237a2.237,2.237,0,1,0,0,4.474h2.554a8.757,8.757,0,0,0,.951,2.279l-1.81,1.812A2.237,2.237,0,1,0,41.1,51.911L42.9,50.1a8.757,8.757,0,0,0,2.279.951V53.6a2.237,2.237,0,1,0,4.474,0V51.05a8.757,8.757,0,0,0,2.279-.951l1.81,1.812a2.237,2.237,0,0,0,3.163-3.163L55.1,46.937a8.757,8.757,0,0,0,.951-2.279H58.6a2.237,2.237,0,1,0,0-4.474Zm-11.184,6.71a4.474,4.474,0,1,1,4.474-4.474A4.474,4.474,0,0,1,47.421,46.894Z" transform="translate(42.02 35.801)"/>
      </g>
    </g>
  </g>
</svg>
