<svg xmlns="http://www.w3.org/2000/svg" width="59.689" height="57.055" viewBox="0 0 59.689 57.055">
  <g id="_6" data-name="6" transform="translate(0.001)">
    <g id="Grupo_1111037" data-name="Grupo 1111037" transform="translate(-0.001 0)">
      <g id="Grupo_1111020" data-name="Grupo 1111020" transform="translate(0.664 31.933)">
        <path id="Trazado_896021" data-name="Trazado 896021" d="M57.335,161.425a3.356,3.356,0,0,0-2.508,1.05,1.069,1.069,0,0,1-1.575-.009,3.29,3.29,0,0,0-4.806,0,1.075,1.075,0,0,1-1.584,0,3.29,3.29,0,0,0-4.806,0,1.075,1.075,0,0,1-1.584,0,3.29,3.29,0,0,0-4.806,0,1.075,1.075,0,0,1-1.584,0,3.29,3.29,0,0,0-4.806,0,1.075,1.075,0,0,1-1.584,0,3.29,3.29,0,0,0-4.806,0,1.075,1.075,0,0,1-1.584,0,3.29,3.29,0,0,0-4.806,0,1.075,1.075,0,0,1-1.584,0,3.29,3.29,0,0,0-4.806,0,1.069,1.069,0,0,1-1.575.009,3.356,3.356,0,0,0-2.508-1.05c-1.978.059-3.525,1.984-3.525,4.245v17.8a2.281,2.281,0,0,0,2.115,2.416H58.745a2.281,2.281,0,0,0,2.115-2.416v-17.8c0-2.261-1.547-4.186-3.525-4.245Z" transform="translate(-2.5 -161.424)" fill="#c18e6b"/>
      </g>
      <g id="Grupo_1111021" data-name="Grupo 1111021" transform="translate(0.797 46.941)">
        <path id="Trazado_896022" data-name="Trazado 896022" d="M55.313,218.975a1.069,1.069,0,0,1-1.575-.009,3.288,3.288,0,0,0-4.8,0,1.075,1.075,0,0,1-1.583,0,3.288,3.288,0,0,0-4.8,0,1.075,1.075,0,0,1-1.583,0,3.288,3.288,0,0,0-4.8,0,1.075,1.075,0,0,1-1.583,0,3.288,3.288,0,0,0-4.8,0,1.075,1.075,0,0,1-1.583,0,3.288,3.288,0,0,0-4.8,0,1.075,1.075,0,0,1-1.583,0,3.288,3.288,0,0,0-4.8,0,1.075,1.075,0,0,1-1.583,0,3.288,3.288,0,0,0-4.8,0,1.069,1.069,0,0,1-1.575.009,3.355,3.355,0,0,0-2.507-1.05C4.547,217.983,3,219.909,3,222.17v3.572a2.157,2.157,0,0,0,2,1.632H59.114a2.281,2.281,0,0,0,2.115-2.416v-3.83a3.811,3.811,0,0,0-3.408-3.2,3.355,3.355,0,0,0-2.507,1.05Z" transform="translate(-3 -217.923)" fill="#b2e26d"/>
      </g>
      <g id="Grupo_1111022" data-name="Grupo 1111022" transform="translate(0.133 46.277)">
        <path id="Trazado_896023" data-name="Trazado 896023" d="M57.352,226.2H3.086a2.755,2.755,0,0,1-2.555-2.08.749.749,0,0,1-.032-.216v-3.572c0-2.64,1.84-4.842,4.1-4.909a3.909,3.909,0,0,1,2.918,1.219.544.544,0,0,0,.8-.01,3.834,3.834,0,0,1,5.592,0,.552.552,0,0,0,.814,0,3.834,3.834,0,0,1,5.592,0,.552.552,0,0,0,.814,0,3.834,3.834,0,0,1,5.592,0,.552.552,0,0,0,.814,0,3.834,3.834,0,0,1,5.592,0,.552.552,0,0,0,.814,0,3.834,3.834,0,0,1,5.592,0,.552.552,0,0,0,.814,0,3.834,3.834,0,0,1,5.592,0,.552.552,0,0,0,.814,0,3.834,3.834,0,0,1,5.592,0,.544.544,0,0,0,.8.01,3.9,3.9,0,0,1,2.918-1.219,4.429,4.429,0,0,1,3.968,3.706.761.761,0,0,1,.017.161v3.83a2.914,2.914,0,0,1-2.7,3.08ZM1.665,223.786a1.551,1.551,0,0,0,1.421,1.088H57.353a1.657,1.657,0,0,0,1.538-1.752v-3.745a3.2,3.2,0,0,0-2.85-2.624,2.819,2.819,0,0,0-2.111.882,1.611,1.611,0,0,1-2.354-.007,2.773,2.773,0,0,0-4.044,0,1.6,1.6,0,0,1-2.362,0,2.773,2.773,0,0,0-4.044,0,1.6,1.6,0,0,1-2.362,0,2.773,2.773,0,0,0-4.044,0,1.6,1.6,0,0,1-2.362,0,2.773,2.773,0,0,0-4.044,0,1.6,1.6,0,0,1-2.362,0,2.773,2.773,0,0,0-4.044,0,1.6,1.6,0,0,1-2.362,0,2.773,2.773,0,0,0-4.044,0,1.6,1.6,0,0,1-2.362,0,2.773,2.773,0,0,0-4.044,0,1.611,1.611,0,0,1-2.355.008,2.822,2.822,0,0,0-2.111-.882,3.385,3.385,0,0,0-2.967,3.581Zm51.876-6.646h0Z" transform="translate(-0.499 -215.424)"/>
      </g>
      <g id="Grupo_1111023" data-name="Grupo 1111023" transform="translate(4.449 9.894)">
        <path id="Trazado_896024" data-name="Trazado 896024" d="M19.42,82.484a1.037,1.037,0,0,0,1.546-.009,3.19,3.19,0,0,1,4.718,0,1.043,1.043,0,0,0,1.555,0,3.19,3.19,0,0,1,4.718,0,1.043,1.043,0,0,0,1.555,0,3.19,3.19,0,0,1,4.718,0,1.043,1.043,0,0,0,1.555,0,3.189,3.189,0,0,1,4.718,0,1.043,1.043,0,0,0,1.555,0,3.189,3.189,0,0,1,4.718,0,1.043,1.043,0,0,0,1.555,0,3.189,3.189,0,0,1,4.718,0,1.043,1.043,0,0,0,1.555,0,3.189,3.189,0,0,1,4.718,0,1.037,1.037,0,0,0,1.546.009,3.312,3.312,0,0,1,2.094-1.039,4.936,4.936,0,0,0,.577-2.329,4.449,4.449,0,0,0-3.221-4.5,2.463,2.463,0,0,1-1.847-2.11,4.292,4.292,0,0,0-3.569-3.8A2.358,2.358,0,0,1,56.914,66.8a4.322,4.322,0,0,0-2.933-3.3,2.618,2.618,0,0,1-1.738-2.383c-.218-2.394-2.14-4.281-4.209-4.115a2.283,2.283,0,0,1-2.246-1.669,3.757,3.757,0,0,0-7.286,0,2.285,2.285,0,0,1-2.247,1.67c-2.066-.162-3.992,1.717-4.209,4.111A2.621,2.621,0,0,1,30.307,63.5,4.324,4.324,0,0,0,27.377,66.8a2.356,2.356,0,0,1-1.986,1.912,4.294,4.294,0,0,0-3.57,3.8,2.466,2.466,0,0,1-1.848,2.112,4.447,4.447,0,0,0-3.223,4.492,4.938,4.938,0,0,0,.577,2.333A3.313,3.313,0,0,1,19.42,82.484Z" transform="translate(-16.75 -52.499)" fill="#a57453"/>
      </g>
      <g id="Grupo_1111024" data-name="Grupo 1111024" transform="translate(2.72 22.732)">
        <path id="Trazado_896025" data-name="Trazado 896025" d="M13.631,104.665a2.071,2.071,0,0,1-1.647-1.62c0-.027-.08-.027-.08,0a2.071,2.071,0,0,1-1.647,1.62c-.027,0-.027.053,0,.08a2.071,2.071,0,0,1,1.647,1.62c0,.027.08.027.08,0a2.071,2.071,0,0,1,1.647-1.62C13.658,104.718,13.658,104.665,13.631,104.665Z" transform="translate(-10.238 -103.025)" fill="#87d147"/>
      </g>
      <g id="Grupo_1111025" data-name="Grupo 1111025" transform="translate(16.573 3.347)">
        <path id="Trazado_896026" data-name="Trazado 896026" d="M72.659,15.761h.611v.611a.839.839,0,0,0,.85.85.851.851,0,0,0,.85-.823v-.638h.611a.839.839,0,0,0,.85-.85.851.851,0,0,0-.823-.85H74.97V13.45a.839.839,0,0,0-.85-.85.851.851,0,0,0-.85.823v.638h-.611a.839.839,0,0,0-.85.85.823.823,0,0,0,.85.85Z" transform="translate(-71.808 -12.6)" fill="#fc657e"/>
      </g>
      <g id="Grupo_1111026" data-name="Grupo 1111026" transform="translate(5.316 11.64)">
        <circle id="Elipse_11975" data-name="Elipse 11975" cx="0.903" cy="0.903" r="0.903" fill="#f5c84c"/>
      </g>
      <g id="Grupo_1111027" data-name="Grupo 1111027" transform="translate(33.218)">
        <circle id="Elipse_11976" data-name="Elipse 11976" cx="0.903" cy="0.903" r="0.903" fill="#70d6f9"/>
      </g>
      <g id="Grupo_1111028" data-name="Grupo 1111028" transform="translate(46.849 11.277)">
        <path id="Trazado_896027" data-name="Trazado 896027" d="M207.7,53.7a2.948,2.948,0,0,0,2.364-2.311c0-.053.106-.053.106,0a2.948,2.948,0,0,0,2.364,2.311c.053,0,.053.08,0,.106a2.948,2.948,0,0,0-2.364,2.311c0,.053-.106.053-.106,0a2.948,2.948,0,0,0-2.364-2.311C207.65,53.78,207.65,53.7,207.7,53.7Z" transform="translate(-207.663 -51.35)" fill="#f5c84c"/>
      </g>
      <g id="Grupo_1111029" data-name="Grupo 1111029" transform="translate(0 31.269)">
        <path id="Trazado_896028" data-name="Trazado 896028" d="M56.984,184.709H2.7a2.914,2.914,0,0,1-2.7-3.08v-17.8c0-2.64,1.841-4.842,4.1-4.909a3.9,3.9,0,0,1,2.918,1.219.544.544,0,0,0,.8-.01,3.835,3.835,0,0,1,5.593,0,.552.552,0,0,0,.814,0,3.836,3.836,0,0,1,5.594,0,.552.552,0,0,0,.814,0,3.835,3.835,0,0,1,5.593,0,.552.552,0,0,0,.814,0,3.836,3.836,0,0,1,5.594,0,.552.552,0,0,0,.814,0,3.836,3.836,0,0,1,5.594,0,.552.552,0,0,0,.814,0,3.836,3.836,0,0,1,5.594,0,.552.552,0,0,0,.814,0,3.836,3.836,0,0,1,5.594,0,.544.544,0,0,0,.8.01,3.893,3.893,0,0,1,2.919-1.219c2.262.067,4.1,2.269,4.1,4.909v17.8a2.914,2.914,0,0,1-2.7,3.08ZM4.213,160.251h-.08a3.385,3.385,0,0,0-2.967,3.581v17.8A1.658,1.658,0,0,0,2.7,183.381H56.985a1.658,1.658,0,0,0,1.538-1.752v-17.8a3.385,3.385,0,0,0-2.967-3.581,2.822,2.822,0,0,0-2.111.882,1.612,1.612,0,0,1-2.355-.007,2.774,2.774,0,0,0-4.045,0,1.6,1.6,0,0,1-2.362,0,2.774,2.774,0,0,0-4.045,0,1.6,1.6,0,0,1-2.362,0,2.774,2.774,0,0,0-4.045,0,1.6,1.6,0,0,1-2.362,0,2.774,2.774,0,0,0-4.045,0,1.6,1.6,0,0,1-2.363,0,2.774,2.774,0,0,0-4.045,0,1.6,1.6,0,0,1-2.363,0,2.774,2.774,0,0,0-4.045,0,1.6,1.6,0,0,1-2.362,0,2.774,2.774,0,0,0-4.045,0,1.612,1.612,0,0,1-2.355.007,2.836,2.836,0,0,0-2.031-.883Z" transform="translate(0.001 -158.923)"/>
      </g>
      <g id="Grupo_1111030" data-name="Grupo 1111030" transform="translate(11.836 41.769)">
        <path id="Trazado_896029" data-name="Trazado 896029" d="M89.162,191.647a2.02,2.02,0,0,1-1.346-.519,3.47,3.47,0,0,0-4.608,0,2,2,0,0,1-2.692,0,3.47,3.47,0,0,0-4.609,0,2,2,0,0,1-2.691,0,3.47,3.47,0,0,0-4.608,0,2,2,0,0,1-2.691,0,3.47,3.47,0,0,0-4.608,0,.664.664,0,1,1-.882-.993,4.8,4.8,0,0,1,6.373,0,.69.69,0,0,0,.927,0,4.8,4.8,0,0,1,6.372,0,.69.69,0,0,0,.927,0,4.8,4.8,0,0,1,6.373,0,.689.689,0,0,0,.927,0,4.8,4.8,0,0,1,6.372,0,.69.69,0,0,0,.927,0,4.8,4.8,0,0,1,6.373,0,.664.664,0,1,1-.882.993,3.47,3.47,0,0,0-4.608,0A2.02,2.02,0,0,1,89.162,191.647Z" transform="translate(-60.203 -188.924)"/>
      </g>
      <g id="Grupo_1111031" data-name="Grupo 1111031" transform="translate(3.785 9.282)">
        <path id="Trazado_896030" data-name="Trazado 896030" d="M56.048,81.656a1.615,1.615,0,0,1-1.16-.519,2.694,2.694,0,0,0-3.975,0,1.556,1.556,0,0,1-2.321,0,2.693,2.693,0,0,0-3.974,0,1.556,1.556,0,0,1-2.321,0,2.694,2.694,0,0,0-3.975,0,1.556,1.556,0,0,1-2.321,0,2.693,2.693,0,0,0-3.974,0,1.556,1.556,0,0,1-2.321,0,2.693,2.693,0,0,0-3.974,0,1.556,1.556,0,0,1-2.321,0,2.693,2.693,0,0,0-3.974,0,1.565,1.565,0,0,1-2.314.008,2.775,2.775,0,0,0-1.763-.872.567.567,0,0,1-.444-.313,5.69,5.69,0,0,1-.664-2.684,5.1,5.1,0,0,1,3.7-5.143,1.856,1.856,0,0,0,1.395-1.572,4.923,4.923,0,0,1,4.1-4.35,1.759,1.759,0,0,0,1.487-1.421A4.973,4.973,0,0,1,28.3,61.02a1.978,1.978,0,0,0,1.3-1.808c.249-2.735,2.462-4.89,4.833-4.7a1.723,1.723,0,0,0,1.687-1.26,4.321,4.321,0,0,1,8.371,0,1.718,1.718,0,0,0,1.686,1.259c2.361-.191,4.583,1.966,4.833,4.707a1.975,1.975,0,0,0,1.3,1.806,4.97,4.97,0,0,1,3.368,3.774,1.761,1.761,0,0,0,1.49,1.42,4.922,4.922,0,0,1,4.1,4.351,1.851,1.851,0,0,0,1.394,1.569,5.1,5.1,0,0,1,3.7,5.147,5.691,5.691,0,0,1-.664,2.68.567.567,0,0,1-.444.313,2.775,2.775,0,0,0-1.763.872,1.565,1.565,0,0,1-2.314-.007,2.693,2.693,0,0,0-3.974,0A1.616,1.616,0,0,1,56.048,81.656ZM59.2,78.933a3.826,3.826,0,0,1,2.748,1.211.528.528,0,0,0,.79.01,3.881,3.881,0,0,1,2.128-1.165,4.2,4.2,0,0,0,.361-1.706,3.813,3.813,0,0,0-2.764-3.844,3.108,3.108,0,0,1-2.314-2.652,3.679,3.679,0,0,0-3.065-3.25,2.97,2.97,0,0,1-2.5-2.4,3.715,3.715,0,0,0-2.519-2.819,3.253,3.253,0,0,1-2.185-2.96,3.668,3.668,0,0,0-3.615-3.522,2.87,2.87,0,0,1-2.824-2.078,3.228,3.228,0,0,0-6.253,0,2.867,2.867,0,0,1-2.823,2.079,3.669,3.669,0,0,0-3.616,3.518,3.256,3.256,0,0,1-2.186,2.962,3.717,3.717,0,0,0-2.516,2.817,2.967,2.967,0,0,1-2.5,2.4,3.68,3.68,0,0,0-3.065,3.251,3.113,3.113,0,0,1-2.315,2.653A3.813,3.813,0,0,0,15.4,77.279a4.2,4.2,0,0,0,.36,1.709,3.881,3.881,0,0,1,2.128,1.165.529.529,0,0,0,.79-.01,3.724,3.724,0,0,1,5.5,0,.536.536,0,0,0,.8,0,3.724,3.724,0,0,1,5.5,0,.536.536,0,0,0,.8,0,3.724,3.724,0,0,1,5.5,0,.536.536,0,0,0,.8,0,3.724,3.724,0,0,1,5.5,0,.536.536,0,0,0,.8,0,3.724,3.724,0,0,1,5.5,0,.536.536,0,0,0,.8,0,3.724,3.724,0,0,1,5.5,0,.536.536,0,0,0,.8,0A3.827,3.827,0,0,1,59.2,78.933Z" transform="translate(-14.25 -50)"/>
      </g>
      <g id="Grupo_1111032" data-name="Grupo 1111032" transform="translate(32.419 26.865)">
        <path id="Trazado_896031" data-name="Trazado 896031" d="M142.523,122.328h-1.859a.664.664,0,0,1,0-1.328h1.859a.664.664,0,0,1,0,1.328Z" transform="translate(-140 -121)"/>
      </g>
      <g id="Grupo_1111033" data-name="Grupo 1111033" transform="translate(25.195 22.424)">
        <path id="Trazado_896032" data-name="Trazado 896032" d="M109.981,102.328h-.775a.664.664,0,0,1,0-1.328h.775a.664.664,0,1,1,0,1.328Z" transform="translate(-108.542 -101)"/>
      </g>
      <g id="Grupo_1111034" data-name="Grupo 1111034" transform="translate(25.223 31.083)">
        <path id="Trazado_896033" data-name="Trazado 896033" d="M111.627,141.328h-2a.664.664,0,1,1,0-1.328h2a.664.664,0,1,1,0,1.328Z" transform="translate(-108.961 -140)"/>
      </g>
      <g id="Grupo_1111035" data-name="Grupo 1111035" transform="translate(30.782 19.538)">
        <path id="Trazado_896034" data-name="Trazado 896034" d="M134.294,89.328h-.964a.664.664,0,0,1,0-1.328h.964a.664.664,0,0,1,0,1.328Z" transform="translate(-132.665 -88)"/>
      </g>
      <g id="Grupo_1111036" data-name="Grupo 1111036" transform="translate(18.094 26.865)">
        <path id="Trazado_896035" data-name="Trazado 896035" d="M82.218,122.328H79.041a.664.664,0,1,1,0-1.328h3.177a.664.664,0,0,1,0,1.328Z" transform="translate(-78.377 -121)"/>
      </g>
    </g>
  </g>
</svg>
