<svg xmlns="http://www.w3.org/2000/svg" width="90" height="90" viewBox="0 0 90 90">
  <g id="_71" data-name="71" transform="translate(-701.051 -1466)">
    <rect id="Rectángulo_405130" data-name="Rectángulo 405130" width="90" height="90" transform="translate(701.051 1466)" fill="none"/>
    <g id="Grupo_1111286" data-name="Grupo 1111286" transform="translate(692.091 1466.69)">
      <g id="Grupo_1111216" data-name="Grupo 1111216" transform="translate(19.768 5.104)">
        <path id="Trazado_896442" data-name="Trazado 896442" d="M39.068,76.24a8.8,8.8,0,1,1-17.609,0c0-4.053,6.252-12.517,8.8-15.64C30.263,60.6,39.068,71.377,39.068,76.24Z" transform="translate(-21.459 -43.193)" fill="#72c2e9"/>
        <path id="Trazado_896443" data-name="Trazado 896443" d="M85.708,146.327a8.8,8.8,0,1,1-17.609,0c0-4.053,6.252-12.517,8.8-15.64C76.9,130.687,85.708,141.464,85.708,146.327Z" transform="translate(-53.019 -90.619)" fill="#72c2e9"/>
        <path id="Trazado_896444" data-name="Trazado 896444" d="M107.758,22.406a8.8,8.8,0,0,1-17.609,0c0-4.053,6.252-12.517,8.8-15.64C98.953,6.766,107.758,17.543,107.758,22.406Z" transform="translate(-67.939 -6.766)" fill="#72c2e9"/>
      </g>
      <path id="Trazado_896445" data-name="Trazado 896445" d="M144.082,132.1a11,11,0,0,1-11-10.027,10.792,10.792,0,0,1,3.4-9.057V83.731a7.6,7.6,0,1,1,15.2,0V113.02a11.068,11.068,0,0,1-7.6,19.08Z" transform="translate(-77.18 -48.597)" fill="#f0c020"/>
      <path id="Trazado_896446" data-name="Trazado 896446" d="M163.586,92.666v24.8h-6.659v-24.8a3.33,3.33,0,1,1,6.659,0Z" transform="translate(-93.357 -57.534)" fill="#eee"/>
      <path id="Trazado_896447" data-name="Trazado 896447" d="M159.8,188.841a6.786,6.786,0,1,1-10.113-5.91v-6.6h6.659v6.6A6.794,6.794,0,0,1,159.8,188.841Z" transform="translate(-86.118 -116.398)" fill="#fb5c3c"/>
      <path id="Trazado_896448" data-name="Trazado 896448" d="M207.454,153.878l4.379,6.168,4.379-6.168Z" transform="translate(-127.547 -101.207)" fill="#72c2e9"/>
      <path id="Trazado_896449" data-name="Trazado 896449" d="M111.555,105.476c-1.281-.423-2.6-.793-3.346-3.992-.684,2.946-1.78,3.474-3.346,3.992,2.554.844,2.94,2.242,3.346,3.992C108.909,106.45,110.067,105.967,111.555,105.476Z" transform="translate(-58.127 -65.754)" fill="#f0c020"/>
      <path id="Trazado_896450" data-name="Trazado 896450" d="M105.575,107.866c-.371-1.6-.616-2.655-2.778-3.369a.861.861,0,0,1,0-1.633c1.3-.43,2.161-.714,2.778-3.37a.861.861,0,0,1,1.675,0c.631,2.716,1.572,2.972,2.778,3.369a.861.861,0,0,1,0,1.633c-1.255.415-2.162.714-2.778,3.369A.86.86,0,0,1,105.575,107.866Zm-.491-4.166a4.465,4.465,0,0,1,1.346,1.424,4.251,4.251,0,0,1,1.272-1.435,4.386,4.386,0,0,1-1.286-1.488A4.264,4.264,0,0,1,105.084,103.7Z" transform="translate(-56.331 -63.959)"/>
      <path id="Trazado_896451" data-name="Trazado 896451" d="M167.9,36.218c-1.281-.423-2.6-.793-3.346-3.992-.684,2.946-1.78,3.474-3.346,3.992,2.554.844,2.94,2.242,3.346,3.992C165.257,37.193,166.415,36.709,167.9,36.218Z" transform="translate(-96.256 -18.89)" fill="#f0c020"/>
      <path id="Trazado_896452" data-name="Trazado 896452" d="M161.924,38.609c-.371-1.6-.616-2.655-2.778-3.369a.861.861,0,0,1,0-1.633c1.3-.43,2.161-.714,2.778-3.37a.861.861,0,0,1,1.675,0c.631,2.716,1.572,2.972,2.778,3.369a.861.861,0,0,1,0,1.633c-1.255.415-2.162.714-2.778,3.369A.86.86,0,0,1,161.924,38.609Zm-.491-4.167a4.465,4.465,0,0,1,1.346,1.424,4.252,4.252,0,0,1,1.272-1.435,4.386,4.386,0,0,1-1.286-1.488A4.267,4.267,0,0,1,161.433,34.443Z" transform="translate(-94.461 -17.095)"/>
      <path id="Trazado_896453" data-name="Trazado 896453" d="M39.158,95.182a.808.808,0,0,1-.009-1.617A4.783,4.783,0,0,0,43.862,88.8c0-1-1.353-3.97-4.374-8.373a.808.808,0,1,1,1.333-.915c1.4,2.041,4.658,7.031,4.658,9.288a6.406,6.406,0,0,1-6.312,6.384Zm-3.494-1.02a6.534,6.534,0,0,1-.88-.669.808.808,0,0,1,1.084-1.2,4.943,4.943,0,0,0,.663.5.808.808,0,0,1-.867,1.365Z" transform="translate(-10.527 -50.647)" fill="#c4e4fd"/>
      <path id="Trazado_896454" data-name="Trazado 896454" d="M84.99,164.469a.808.808,0,0,1,.8-.817,4.783,4.783,0,0,0,4.713-4.768c0-1-1.353-3.971-4.374-8.373a.808.808,0,0,1,1.333-.915c1.4,2.041,4.658,7.031,4.658,9.289a6.405,6.405,0,0,1-6.312,6.384A.808.808,0,0,1,84.99,164.469Zm-2.687-.221a6.556,6.556,0,0,1-.88-.669.808.808,0,1,1,1.084-1.2,4.973,4.973,0,0,0,.663.5.808.808,0,1,1-.867,1.364Z" transform="translate(-42.087 -98.072)" fill="#c4e4fd"/>
      <path id="Trazado_896455" data-name="Trazado 896455" d="M107.848,41.348a.808.808,0,0,1-.009-1.617,4.783,4.783,0,0,0,4.713-4.768c0-1-1.353-3.97-4.374-8.373a.808.808,0,0,1,1.333-.915c1.4,2.041,4.658,7.031,4.658,9.288a6.406,6.406,0,0,1-6.312,6.384h-.009Zm-3.495-1.02a6.534,6.534,0,0,1-.88-.669.808.808,0,0,1,1.084-1.2,4.944,4.944,0,0,0,.663.5.808.808,0,1,1-.867,1.365Z" transform="translate(-57.007 -14.22)" fill="#c4e4fd"/>
      <path id="Trazado_896456" data-name="Trazado 896456" d="M159.851,197.559a.808.808,0,0,1,.559-1,2.746,2.746,0,0,0,.594-5.04l-1.638-.929a.809.809,0,0,1-.41-.7v-5.253a.808.808,0,1,1,1.617,0v4.782l1.229.7a4.363,4.363,0,0,1-.953,8A.808.808,0,0,1,159.851,197.559Zm-2.773-.132a4.388,4.388,0,0,1-.849-.827.808.808,0,1,1,1.273-1,2.782,2.782,0,0,0,.536.522.808.808,0,0,1-.96,1.3Z" transform="translate(-92.769 -121.473)" fill="#ffcac2"/>
      <path id="Trazado_896457" data-name="Trazado 896457" d="M33.242,66.836a.809.809,0,0,0,1.371-.86A85.06,85.06,0,0,0,29.2,58.433l-.006-.006a.832.832,0,0,0-1.251,0c-2.683,3.285-8.959,11.76-8.986,16.151a9.634,9.634,0,0,0,9.61,9.616h0a9.626,9.626,0,0,0,9.613-9.616,8.394,8.394,0,0,0-.54-2.687.825.825,0,0,0-1.031-.495.807.807,0,0,0-.495,1.028,6.856,6.856,0,0,1,.449,2.153,8,8,0,1,1-15.992,0c-.029-3.571,5.753-11.5,7.993-14.346C30.129,62.225,31.88,64.66,33.242,66.836Z" transform="translate(0 -36.426)"/>
      <path id="Trazado_896458" data-name="Trazado 896458" d="M68.973,91.383a.809.809,0,1,0-1.1-.34l0,0a.809.809,0,0,0,1.093.336Z" transform="translate(-33.037 -57.889)"/>
      <path id="Trazado_896459" data-name="Trazado 896459" d="M75.21,154.281h.006a9.626,9.626,0,0,0,9.61-9.616,8.377,8.377,0,0,0-.54-2.687.827.827,0,0,0-1.031-.5.807.807,0,0,0-.495,1.031,6.839,6.839,0,0,1,.449,2.153,8,8,0,1,1-15.992,0c-.029-3.584,5.774-11.533,7.993-14.346,1.6,2.043,3.3,4.407,4.672,6.6a.823.823,0,0,0,1.116.255.807.807,0,0,0,.255-1.112,84.436,84.436,0,0,0-5.416-7.553.836.836,0,0,0-1.251,0c-2.69,3.3-8.959,11.764-8.986,16.154A9.633,9.633,0,0,0,75.21,154.281Z" transform="translate(-31.56 -83.852)"/>
      <path id="Trazado_896460" data-name="Trazado 896460" d="M115.612,161.463a.806.806,0,1,0-1.09-.336v0A.808.808,0,0,0,115.612,161.463Z" transform="translate(-64.599 -105.309)"/>
      <path id="Trazado_896461" data-name="Trazado 896461" d="M101.932,13a.829.829,0,0,0,1.116.255.807.807,0,0,0,.255-1.112A85.039,85.039,0,0,0,97.9,4.6l-.01-.013a.836.836,0,0,0-1.251,0c-2.692,3.3-8.959,11.768-8.986,16.154a9.613,9.613,0,1,0,19.226,0,8.394,8.394,0,0,0-.54-2.687.824.824,0,0,0-1.031-.5.808.808,0,0,0-.495,1.031,6.782,6.782,0,0,1,.449,2.153,8,8,0,1,1-15.992,0C89.238,17.168,95.03,9.225,97.26,6.4,98.9,8.508,100.484,10.7,101.932,13Z" transform="translate(-46.48)"/>
      <path id="Trazado_896462" data-name="Trazado 896462" d="M136.907,36.114a.808.808,0,1,0,1.093.34v0A.811.811,0,0,0,136.907,36.114Z" transform="translate(-79.518 -21.457)"/>
      <circle id="Elipse_12011" data-name="Elipse 12011" cx="0.808" cy="0.808" r="0.808" transform="translate(58.491 54.424)"/>
      <path id="Trazado_896463" data-name="Trazado 896463" d="M142.389,73.63a8.424,8.424,0,0,0-8.41,8.41V98.905a.808.808,0,1,0,1.617,0V82.04a6.792,6.792,0,1,1,13.583,0v2.509h-2.654V82.038a4.138,4.138,0,0,0-8.276,0v30.947a7.592,7.592,0,1,0,8.276,0V99.607h2.654v11.721a.794.794,0,0,0,.252.585,9.965,9.965,0,0,1,3.2,7.34,10.249,10.249,0,1,1-20.5,0,9.931,9.931,0,0,1,3.207-7.337.807.807,0,0,0,.252-.588v-5.952a.808.808,0,0,0-1.617,0v5.613a11.61,11.61,0,0,0-3.46,8.264,11.843,11.843,0,0,0,11.87,11.967l.013-.016v.016a11.846,11.846,0,0,0,11.847-11.963,11.621,11.621,0,0,0-3.453-8.264V82.04A8.419,8.419,0,0,0,142.389,73.63Zm-2.523,8.408a2.521,2.521,0,0,1,5.043,0v23.99h-5.043Zm8.5,37.311a5.978,5.978,0,1,1-8.907-5.207.808.808,0,0,0,.41-.7v-5.794h5.043v5.794a.809.809,0,0,0,.41.7,6,6,0,0,1,3.044,5.207Zm.816-21.359h-2.654v-5.1h2.654Zm0-6.719h-2.654V86.166h2.654Z" transform="translate(-75.488 -46.906)"/>
      <path id="Trazado_896464" data-name="Trazado 896464" d="M205.1,152.654l4.378,6.169a.811.811,0,0,0,1.319,0l4.378-6.169a.808.808,0,0,0-.66-1.274h-8.759A.806.806,0,0,0,205.1,152.654Zm7.851.343-2.813,3.961L207.326,153Z" transform="translate(-125.852 -99.517)"/>
      <path id="Trazado_896465" data-name="Trazado 896465" d="M201.568,101.69a2.656,2.656,0,1,0,2.655,2.655A2.663,2.663,0,0,0,201.568,101.69Zm0,3.7a1.04,1.04,0,1,1,1.038-1.041A1.049,1.049,0,0,1,201.568,105.386Z" transform="translate(-121.766 -65.893)"/>
      <path id="Trazado_896466" data-name="Trazado 896466" d="M224.2,112.007a.808.808,0,1,0,0-1.617h-4.132a.809.809,0,0,0-.808.808v7.725a.808.808,0,1,0,1.617,0V115.67H224.2a.808.808,0,1,0,0-1.617h-3.324v-2.047Z" transform="translate(-135.536 -71.78)"/>
    </g>
  </g>
</svg>
