<svg xmlns="http://www.w3.org/2000/svg" width="142.2" height="137.937" viewBox="0 0 142.2 137.937">
  <g id="_77" data-name="77" transform="translate(-1.843 -2.807)">
    <g id="Grupo_1111233" data-name="Grupo 1111233" transform="translate(28.146 5.628)">
      <path id="Trazado_896516" data-name="Trazado 896516" d="M118.078,123.014H24.086a9.847,9.847,0,0,1-9.847-9.847V14.429a9.847,9.847,0,0,1,9.847-9.847h93.992a9.847,9.847,0,0,1,9.847,9.847v98.738a9.847,9.847,0,0,1-9.847,9.847Z" transform="translate(-13.133 -3.477)" fill="#488ff7"/>
      <path id="Trazado_896517" data-name="Trazado 896517" d="M118.685,124.725H24.693a10.967,10.967,0,0,1-10.954-10.954V15.034A10.965,10.965,0,0,1,24.693,4.083h93.992a10.963,10.963,0,0,1,10.951,10.951v98.738a10.965,10.965,0,0,1-10.951,10.954ZM24.693,6.294a8.751,8.751,0,0,0-8.743,8.74v98.738a8.751,8.751,0,0,0,8.743,8.743h93.992a8.751,8.751,0,0,0,8.74-8.743V15.034a8.751,8.751,0,0,0-8.74-8.74Z" transform="translate(-13.739 -4.083)"/>
    </g>
    <g id="Grupo_1111234" data-name="Grupo 1111234" transform="translate(37.314 15.849)">
      <path id="Trazado_896518" data-name="Trazado 896518" d="M18.386,9.206h95.35v97.988H18.386Z" transform="translate(-17.28 -8.1)" fill="#dbdbdb"/>
      <path id="Trazado_896519" data-name="Trazado 896519" d="M114.343,108.905H18.991a1.1,1.1,0,0,1-1.106-1.106V9.811a1.1,1.1,0,0,1,1.106-1.106h95.352a1.1,1.1,0,0,1,1.106,1.106V107.8A1.1,1.1,0,0,1,114.343,108.905ZM20.1,106.694h93.141V10.917H20.1Z" transform="translate(-17.886 -8.706)"/>
    </g>
    <g id="Grupo_1111237" data-name="Grupo 1111237" transform="translate(39.674 124.059)">
      <g id="Grupo_1111235" data-name="Grupo 1111235">
        <path id="Trazado_896520" data-name="Trazado 896520" d="M30.687,72.62H22.079a2.626,2.626,0,0,1-2.626-2.626V58.147h19.5l-5.88,12.934a2.626,2.626,0,0,1-2.39,1.539Z" transform="translate(-18.348 -57.042)" fill="#304056"/>
        <path id="Trazado_896521" data-name="Trazado 896521" d="M31.293,74.331H22.684A3.735,3.735,0,0,1,18.953,70.6V58.753a1.1,1.1,0,0,1,1.106-1.106h19.5a1.107,1.107,0,0,1,1.006,1.563L34.689,72.144a3.742,3.742,0,0,1-3.4,2.187ZM21.164,59.858V70.6a1.522,1.522,0,0,0,1.52,1.52h8.609a1.523,1.523,0,0,0,1.384-.894l5.169-11.368H21.164Z" transform="translate(-18.953 -57.647)"/>
      </g>
      <g id="Grupo_1111236" data-name="Grupo 1111236" transform="translate(71.128)">
        <path id="Trazado_896522" data-name="Trazado 896522" d="M59.893,72.62H68.5a2.626,2.626,0,0,0,2.626-2.626V58.147h-19.5L57.5,71.081a2.626,2.626,0,0,0,2.39,1.539Z" transform="translate(-50.518 -57.042)" fill="#304056"/>
        <path id="Trazado_896523" data-name="Trazado 896523" d="M69.107,74.331H60.5a3.738,3.738,0,0,1-3.4-2.187L51.222,59.21a1.107,1.107,0,0,1,1.006-1.563h19.5a1.1,1.1,0,0,1,1.105,1.106V70.6a3.735,3.735,0,0,1-3.731,3.731ZM53.945,59.858l5.169,11.37a1.524,1.524,0,0,0,1.384.892h8.609a1.522,1.522,0,0,0,1.52-1.52V59.858Z" transform="translate(-51.123 -57.647)"/>
      </g>
    </g>
    <g id="Grupo_1111238" data-name="Grupo 1111238" transform="translate(1.843 2.808)">
      <path id="Trazado_896524" data-name="Trazado 896524" d="M2.342,3.307H12.564V126.321H2.342Z" transform="translate(-1.238 -2.202)" fill="#488ff7"/>
      <path id="Trazado_896525" data-name="Trazado 896525" d="M13.17,128.032H2.948a1.1,1.1,0,0,1-1.106-1.106V3.913A1.1,1.1,0,0,1,2.948,2.807H13.17a1.1,1.1,0,0,1,1.106,1.106V126.926A1.1,1.1,0,0,1,13.17,128.032Zm-9.116-2.211h8.011V5.018H4.054Z" transform="translate(-1.843 -2.807)"/>
    </g>
    <g id="Grupo_1111239" data-name="Grupo 1111239" transform="translate(12.064 2.807)">
      <path id="Trazado_896526" data-name="Trazado 896526" d="M6.965,3.307,32.216,16.349v97.988L6.965,126.321Z" transform="translate(-5.861 -2.201)" fill="#b9b9b9"/>
      <path id="Trazado_896527" data-name="Trazado 896527" d="M7.571,128.032a1.125,1.125,0,0,1-.592-.171,1.107,1.107,0,0,1-.514-.935V3.913a1.107,1.107,0,0,1,1.613-.982l25.25,13.042a1.105,1.105,0,0,1,.6.982v97.988a1.108,1.108,0,0,1-.63,1L8.046,127.926a1.112,1.112,0,0,1-.475.106ZM8.677,5.729V125.178l23.039-10.934V17.628Z" transform="translate(-6.466 -2.807)"/>
    </g>
    <g id="Grupo_1111242" data-name="Grupo 1111242" transform="translate(37.314 42.457)">
      <g id="Grupo_1111240" data-name="Grupo 1111240">
        <path id="Trazado_896528" data-name="Trazado 896528" d="M18.386,21.24h95.35v9.95H18.386Z" transform="translate(-17.28 -20.134)" fill="#304056"/>
        <path id="Trazado_896529" data-name="Trazado 896529" d="M114.343,32.9H18.991a1.1,1.1,0,0,1-1.106-1.106v-9.95a1.1,1.1,0,0,1,1.106-1.106h95.352a1.1,1.1,0,0,1,1.106,1.106v9.95A1.1,1.1,0,0,1,114.343,32.9ZM20.1,30.689h93.141V22.951H20.1Z" transform="translate(-17.886 -20.74)"/>
      </g>
      <g id="Grupo_1111241" data-name="Grupo 1111241" transform="translate(0 34.823)">
        <path id="Trazado_896530" data-name="Trazado 896530" d="M18.386,36.99h95.35v9.95H18.386Z" transform="translate(-17.28 -35.884)" fill="#304056"/>
        <path id="Trazado_896531" data-name="Trazado 896531" d="M114.343,48.65H18.991a1.1,1.1,0,0,1-1.106-1.106V37.6a1.1,1.1,0,0,1,1.106-1.105h95.352a1.1,1.1,0,0,1,1.106,1.105v9.95A1.1,1.1,0,0,1,114.343,48.65ZM20.1,46.439h93.141V38.7H20.1Z" transform="translate(-17.886 -36.49)"/>
      </g>
    </g>
    <g id="Grupo_1111246" data-name="Grupo 1111246" transform="translate(49.429 30.998)">
      <g id="Grupo_1111243" data-name="Grupo 1111243" transform="translate(0 0)">
        <path id="Trazado_896532" data-name="Trazado 896532" d="M43.764,27.516h-19.9l3.028-11.459H40.736Z" transform="translate(-22.759 -14.952)" fill="#488ff7"/>
        <path id="Trazado_896533" data-name="Trazado 896533" d="M44.37,29.227h-19.9A1.106,1.106,0,0,1,23.4,27.839L26.429,16.38a1.107,1.107,0,0,1,1.069-.823H41.343a1.107,1.107,0,0,1,1.069.823l3.027,11.459a1.106,1.106,0,0,1-1.069,1.388ZM25.907,27.016H42.934l-2.442-9.248H28.349Z" transform="translate(-23.365 -15.557)"/>
      </g>
      <g id="Grupo_1111244" data-name="Grupo 1111244" transform="translate(25.61 0)">
        <path id="Trazado_896534" data-name="Trazado 896534" d="M55.348,27.516h-19.9l3.028-11.459H52.32Z" transform="translate(-34.342 -14.952)" fill="#488ff7"/>
        <path id="Trazado_896535" data-name="Trazado 896535" d="M55.953,29.227h-19.9a1.106,1.106,0,0,1-1.069-1.388L38.015,16.38a1.1,1.1,0,0,1,1.069-.823H52.926a1.107,1.107,0,0,1,1.069.823l3.027,11.459a1.106,1.106,0,0,1-1.069,1.388ZM37.49,27.016H54.517l-2.442-9.248H39.934Z" transform="translate(-34.948 -15.557)"/>
      </g>
      <g id="Grupo_1111245" data-name="Grupo 1111245" transform="translate(51.222 0)">
        <path id="Trazado_896536" data-name="Trazado 896536" d="M66.931,27.516h-19.9L50.06,16.057H63.9Z" transform="translate(-45.927 -14.952)" fill="#488ff7"/>
        <path id="Trazado_896537" data-name="Trazado 896537" d="M67.537,29.227h-19.9a1.106,1.106,0,0,1-1.069-1.388L49.6,16.38a1.107,1.107,0,0,1,1.069-.823H64.508a1.1,1.1,0,0,1,1.069.823l3.029,11.459a1.106,1.106,0,0,1-1.069,1.388ZM49.074,27.016H66.1l-2.444-9.248H51.516Z" transform="translate(-46.532 -15.557)"/>
      </g>
    </g>
    <g id="Grupo_1111250" data-name="Grupo 1111250" transform="translate(49.429 65.821)">
      <g id="Grupo_1111247" data-name="Grupo 1111247">
        <path id="Trazado_896538" data-name="Trazado 896538" d="M43.764,43.266h-19.9l3.028-11.459H40.736Z" transform="translate(-22.759 -30.702)" fill="#488ff7"/>
        <path id="Trazado_896539" data-name="Trazado 896539" d="M44.37,44.977h-19.9A1.106,1.106,0,0,1,23.4,43.589L26.429,32.13a1.107,1.107,0,0,1,1.069-.823H41.343a1.107,1.107,0,0,1,1.069.823l3.027,11.459a1.106,1.106,0,0,1-1.069,1.388ZM25.907,42.766H42.934l-2.442-9.248H28.349Z" transform="translate(-23.365 -31.307)"/>
      </g>
      <g id="Grupo_1111248" data-name="Grupo 1111248" transform="translate(25.61)">
        <path id="Trazado_896540" data-name="Trazado 896540" d="M55.348,43.266h-19.9l3.028-11.459H52.32Z" transform="translate(-34.342 -30.702)" fill="#488ff7"/>
        <path id="Trazado_896541" data-name="Trazado 896541" d="M55.953,44.977h-19.9a1.106,1.106,0,0,1-1.069-1.388L38.015,32.13a1.1,1.1,0,0,1,1.069-.823H52.926a1.107,1.107,0,0,1,1.069.823l3.027,11.459a1.106,1.106,0,0,1-1.069,1.388ZM37.49,42.766H54.517l-2.442-9.248H39.934Z" transform="translate(-34.948 -31.307)"/>
      </g>
      <g id="Grupo_1111249" data-name="Grupo 1111249" transform="translate(51.222)">
        <path id="Trazado_896542" data-name="Trazado 896542" d="M66.931,43.266h-19.9L50.06,31.807H63.9Z" transform="translate(-45.927 -30.702)" fill="#488ff7"/>
        <path id="Trazado_896543" data-name="Trazado 896543" d="M67.537,44.977h-19.9a1.106,1.106,0,0,1-1.069-1.388L49.6,32.13a1.107,1.107,0,0,1,1.069-.823H64.508a1.1,1.1,0,0,1,1.069.823l3.029,11.459a1.106,1.106,0,0,1-1.069,1.388ZM49.074,42.766H66.1l-2.444-9.248H51.516Z" transform="translate(-46.532 -31.307)"/>
      </g>
    </g>
  </g>
</svg>
