<svg xmlns="http://www.w3.org/2000/svg" width="90" height="90" viewBox="0 0 90 90">
  <g id="_79" data-name="79" transform="translate(-369.051 -3559)">
    <rect id="Rectángulo_405132" data-name="Rectángulo 405132" width="90" height="90" transform="translate(369.051 3559)" fill="none"/>
    <g id="Grupo_1111254" data-name="Grupo 1111254" transform="translate(356.051 3553)">
      <path id="Trazado_896544" data-name="Trazado 896544" d="M32,24H97.333V87H32Z" transform="translate(-6.833 -6.833)" fill="#e7ecf0"/>
      <path id="Trazado_896545" data-name="Trazado 896545" d="M32,24H97.333v9.333H32Z" transform="translate(-6.833 -6.833)" fill="#ced0d2"/>
      <path id="Trazado_896546" data-name="Trazado 896546" d="M56,456h9.333v4.667H56Z" transform="translate(-27.333 -375.833)" fill="#b4b7b8"/>
      <path id="Trazado_896547" data-name="Trazado 896547" d="M0,0H9.333V4.667H0Z" transform="translate(87 84.833) rotate(180)" fill="#b4b7b8"/>
      <g id="Grupo_1111253" data-name="Grupo 1111253" transform="translate(25.167 31.167)">
        <path id="Trazado_896548" data-name="Trazado 896548" d="M32,392H97.333v9.333H32Z" transform="translate(-32 -352.333)" fill="#ced0d2"/>
        <path id="Trazado_896549" data-name="Trazado 896549" d="M64,120H89.667v35H64Z" transform="translate(-59.333 -120)" fill="#ced0d2"/>
        <path id="Trazado_896550" data-name="Trazado 896550" d="M272,120h25.667v35H272Z" transform="translate(-237 -120)" fill="#ced0d2"/>
      </g>
      <path id="Trazado_896551" data-name="Trazado 896551" d="M101.833,120S96,130.5,96,136.333s3.5,9.333,8.167,9.333,8.167-4.667,8.167-10.5-8.167-7-5.833-15.167Z" transform="translate(-61.5 -88.833)" fill="#eb6f6d"/>
      <path id="Trazado_896552" data-name="Trazado 896552" d="M110.645,182.426a7.6,7.6,0,0,1-6.478,4.01s1.167-5.833-2.333-5.833a8.924,8.924,0,0,1-5.779-2.282Q96,177.73,96,177.1c0-2.638,1.193-6.229,2.5-9.373a4.273,4.273,0,0,1,2.167,3.539c0,3.5,0,4.667,4.667,5.833C108.375,177.864,109.93,180.607,110.645,182.426Z" transform="translate(-61.5 -129.603)" fill="#ff9494"/>
      <path id="Trazado_896553" data-name="Trazado 896553" d="M164.687,162.918c-1.889.366-5.092.427-6.678-2.745-.9-1.791.155-3.984,1.117-5.434C160.252,158.091,163.628,159.866,164.687,162.918Z" transform="translate(-114.176 -118.507)" fill="#ff9494"/>
      <path id="Trazado_896554" data-name="Trazado 896554" d="M320.333,181.833a3.5,3.5,0,0,1-3.5,3.5h-8.069A4.73,4.73,0,0,1,304,180.8a4.667,4.667,0,0,1,8.707-2.466h4.124A3.5,3.5,0,0,1,320.333,181.833Z" transform="translate(-239.166 -136.667)" fill="#eb6f6d"/>
      <path id="Trazado_896555" data-name="Trazado 896555" d="M343,287.406s3.484-1.161,3.5-6.96a.331.331,0,0,1,.01-.078l.51-2.039a2.669,2.669,0,0,0-4.977-1.841l-.209.418s-3.5-1.167-5.833,1.167v9.333Z" transform="translate(-266.5 -221.24)" fill="#f5caa7"/>
      <ellipse id="Elipse_12015" data-name="Elipse 12015" cx="4.83" cy="4.588" rx="4.83" ry="4.588" transform="translate(64.595 56.796)" fill="#eb6f6d"/>
      <path id="Trazado_896556" data-name="Trazado 896556" d="M272,232h25.667v2.333H272Z" transform="translate(-211.833 -184.5)" fill="#e7ecf0"/>
      <path id="Trazado_896557" data-name="Trazado 896557" d="M90.5,16H25.167A1.167,1.167,0,0,0,24,17.167v63a1.167,1.167,0,0,0,1.167,1.167H27.5v3.5A1.167,1.167,0,0,0,28.667,86H38a1.167,1.167,0,0,0,1.167-1.167v-3.5H76.5v3.5A1.167,1.167,0,0,0,77.667,86H87a1.167,1.167,0,0,0,1.167-1.167v-3.5H90.5a1.167,1.167,0,0,0,1.167-1.167v-63A1.167,1.167,0,0,0,90.5,16Zm-1.167,2.333v7h-63v-7Zm0,9.333v42h-63v-42Zm-52.5,56h-7V81.333h7Zm49,0h-7V81.333h7ZM26.333,79V72h63v7ZM87,75.5a1.167,1.167,0,0,1-1.167,1.167h-56a1.167,1.167,0,0,1,0-2.333h56A1.167,1.167,0,0,1,87,75.5ZM55.5,30H29.833a1.167,1.167,0,0,0-1.167,1.167v35a1.167,1.167,0,0,0,1.167,1.167H55.5a1.167,1.167,0,0,0,1.167-1.167v-35A1.167,1.167,0,0,0,55.5,30ZM41.652,55.6a6.453,6.453,0,0,1-5.358-4.355,9.519,9.519,0,0,0,4.039.921.948.948,0,0,1,.829.339,5,5,0,0,1,.49,3.1Zm1.315-4.573a3.284,3.284,0,0,0-2.634-1.194,7.721,7.721,0,0,1-4.649-1.684c-.011-.213-.018-.429-.018-.649a23,23,0,0,1,1.8-7.391A2.557,2.557,0,0,1,38,41.667c0,1.9,0,3.27.779,4.439.885,1.328,2.548,1.971,4.771,2.526,1.282.321,3.028,1.293,4.277,4.067A6.683,6.683,0,0,1,44,55.5,6.686,6.686,0,0,0,42.967,51.028Zm1.967-12.246a21.484,21.484,0,0,0,2.049,2.539,19.353,19.353,0,0,1,1.72,2.1,4.044,4.044,0,0,1-3.827-2.273A3.042,3.042,0,0,1,44.934,38.781Zm-1.246-2.737c-1.429,2.341-1.741,4.458-.9,6.144A6.359,6.359,0,0,0,48.8,45.751c.268,0,.543-.014.822-.039a4.7,4.7,0,0,1,.043.622,12.27,12.27,0,0,1-.586,3.8,8.373,8.373,0,0,0-4.964-3.765c-1.957-.489-3-.969-3.4-1.557s-.387-1.6-.387-3.145a5.086,5.086,0,0,0-1.906-3.917c1.037-2.4,2.089-4.445,2.6-5.416h2.517A8.969,8.969,0,0,0,43.688,36.044ZM54.333,65H31V32.333h7.4c-1.68,3.293-5.065,10.507-5.065,15.167a11.112,11.112,0,0,0,2.637,7.639A8.9,8.9,0,0,0,42.667,58a8.466,8.466,0,0,0,6.758-3.518A13.382,13.382,0,0,0,52,46.333c0-2.92-1.668-4.777-3.281-6.572-1.875-2.087-3.511-3.911-2.8-7.428h8.417Zm31.5-35H60.167A1.167,1.167,0,0,0,59,31.167v35a1.167,1.167,0,0,0,1.167,1.167H85.833A1.167,1.167,0,0,0,87,66.167v-35A1.167,1.167,0,0,0,85.833,30Zm-1.167,2.333V47.5H81.706a4.663,4.663,0,0,0-4.039-7h-3.5A5.856,5.856,0,0,0,69.5,38.167a5.834,5.834,0,0,0-5.831,6,5.711,5.711,0,0,0,1.2,3.335H61.333V32.333ZM66,44.1a3.5,3.5,0,0,1,3.5-3.6,3.514,3.514,0,0,1,3.033,1.751,1.167,1.167,0,0,0,1.01.583h4.124a2.333,2.333,0,1,1,0,4.667H69.6A3.574,3.574,0,0,1,66,44.1Zm0,17.4A3.5,3.5,0,1,1,69.5,65,3.5,3.5,0,0,1,66,61.5Zm13.388-4.693-.511,2.043a1.494,1.494,0,0,0-.043.354c-.012,4.206-2,5.51-2.574,5.8h-2.1a5.824,5.824,0,0,0-1.532-8.417,6.111,6.111,0,0,1,2.159.143A1.492,1.492,0,0,0,76.5,55.94a1.552,1.552,0,0,1,1.793-.955,1.459,1.459,0,0,1,.924.685,1.492,1.492,0,0,1,.169,1.137ZM79.6,65a9.974,9.974,0,0,0,1.561-5.687l.485-1.94a3.836,3.836,0,0,0-6.925-3.041,6.99,6.99,0,0,0-5.7,1.356A5.829,5.829,0,0,0,64.837,65h-3.5V49.833H84.667V65ZM70.667,44A1.167,1.167,0,1,1,69.5,42.833,1.167,1.167,0,0,1,70.667,44Zm0,17.5A1.167,1.167,0,1,1,69.5,60.333,1.167,1.167,0,0,1,70.667,61.5Z" transform="translate(0 0)"/>
    </g>
  </g>
</svg>
