<svg xmlns="http://www.w3.org/2000/svg" width="54.64" height="54.641" viewBox="0 0 54.64 54.641">
  <g id="_8" data-name="8" transform="translate(0)">
    <g id="Grupo_1111041" data-name="Grupo 1111041" transform="translate(21.089 0.8)">
      <path id="Trazado_896055" data-name="Trazado 896055" d="M197.613,20.272c0,5.112,2.3,9.851,6.231,13.749,3.927-3.9,6.231-8.637,6.231-13.749a18.678,18.678,0,0,0-4.657-12.037,2.054,2.054,0,0,0-3.148,0,18.678,18.678,0,0,0-4.657,12.037Z" transform="translate(-197.613 -7.501)" fill="#2bcf69"/>
    </g>
    <g id="Grupo_1111042" data-name="Grupo 1111042" transform="translate(27.32 21.089)">
      <path id="Trazado_896056" data-name="Trazado 896056" d="M269.749,197.613c-5.112,0-9.851,2.3-13.749,6.231,3.9,3.927,8.637,6.231,13.749,6.231a18.678,18.678,0,0,0,12.037-4.657,2.054,2.054,0,0,0,0-3.148A18.678,18.678,0,0,0,269.749,197.613Z" transform="translate(-256 -197.613)" fill="#2bcf69"/>
    </g>
    <g id="Grupo_1111043" data-name="Grupo 1111043" transform="translate(21.089 27.32)">
      <path id="Trazado_896057" data-name="Trazado 896057" d="M210.075,269.749c0-5.112-2.3-9.851-6.231-13.749-3.927,3.9-6.231,8.637-6.231,13.749a18.678,18.678,0,0,0,4.657,12.037,2.054,2.054,0,0,0,3.148,0A18.678,18.678,0,0,0,210.075,269.749Z" transform="translate(-197.613 -256)" fill="#2bcf69"/>
    </g>
    <g id="Grupo_1111044" data-name="Grupo 1111044" transform="translate(0.8 21.089)">
      <path id="Trazado_896058" data-name="Trazado 896058" d="M20.272,210.075c5.112,0,9.851-2.3,13.749-6.231-3.9-3.927-8.637-6.231-13.749-6.231A18.678,18.678,0,0,0,8.235,202.27a2.054,2.054,0,0,0,0,3.148,18.678,18.678,0,0,0,12.037,4.657Z" transform="translate(-7.501 -197.613)" fill="#2bcf69"/>
    </g>
    <g id="Grupo_1111045" data-name="Grupo 1111045" transform="translate(0.8 0.8)">
      <path id="Trazado_896059" data-name="Trazado 896059" d="M56.528,40.579c-4.6-3.708-10.3-5.6-14.931-6.56,4.634-.963,10.329-2.85,14.932-6.556,3.656-2.944,5.593-7.858,2.385-11.067-1.521-1.521-4.364-1.353-6.324-.945.409-1.96.578-4.8-.943-6.325-3.209-3.21-8.123-1.274-11.067,2.382-3.707,4.6-5.6,10.3-6.561,14.932-.964-4.634-2.854-10.329-6.561-14.932C24.514,7.852,19.6,5.916,16.391,9.126c-1.521,1.521-1.352,4.365-.943,6.325-1.959-.408-4.8-.577-6.324.945-3.209,3.21-1.272,8.124,2.384,11.067,4.6,3.706,10.3,5.593,14.932,6.556-4.634.964-10.328,2.852-14.931,6.56-3.655,2.945-5.591,7.859-2.382,11.068,1.521,1.521,4.365,1.352,6.324.943-.408,1.96-.576,4.8.945,6.324,3.209,3.209,8.123,1.272,11.066-2.385,3.706-4.6,5.593-10.3,6.556-14.934.963,4.634,2.85,10.33,6.556,14.934,2.943,3.657,7.857,5.594,11.066,2.385,1.521-1.521,1.353-4.365.945-6.324,1.959.409,4.8.578,6.324-.943,3.209-3.209,1.273-8.123-2.382-11.068Z" transform="translate(-7.499 -7.5)" fill="#ffa2ad"/>
    </g>
    <g id="Grupo_1111046" data-name="Grupo 1111046" transform="translate(0.8 0.801)">
      <path id="Trazado_896060" data-name="Trazado 896060" d="M11.509,27.465a33.128,33.128,0,0,0,11.786,5.789,26.557,26.557,0,0,1,.355-24.88c-2.478-1.246-5.214-1.29-7.258.755-1.521,1.521-1.352,4.365-.943,6.325-1.959-.408-4.8-.577-6.324.945C5.915,19.607,7.853,24.521,11.509,27.465Z" transform="translate(-7.499 -7.502)" fill="#ff92a4"/>
    </g>
    <g id="Grupo_1111047" data-name="Grupo 1111047" transform="translate(28.088 37.691)">
      <path id="Trazado_896061" data-name="Trazado 896061" d="M275.3,356.449a26.406,26.406,0,0,1-12.108-2.92,33.134,33.134,0,0,0,5.788,11.785c2.943,3.657,7.857,5.594,11.066,2.385,1.521-1.521,1.353-4.365.945-6.324,1.959.409,4.8.578,6.324-.943,2.044-2.044,2-4.779.756-7.256a26.4,26.4,0,0,1-12.771,3.273Z" transform="translate(-263.192 -353.176)" fill="#ff92a4"/>
    </g>
    <g id="Grupo_1111048" data-name="Grupo 1111048" transform="translate(0.803 27.887)">
      <path id="Trazado_896062" data-name="Trazado 896062" d="M24.059,261.311A33.682,33.682,0,0,0,11.537,267.3c-3.655,2.945-5.591,7.859-2.382,11.068,1.521,1.521,4.365,1.352,6.324.943-.408,1.96-.577,4.8.945,6.324,3.209,3.209,8.123,1.272,11.066-2.385a33.686,33.686,0,0,0,5.988-12.523A26.649,26.649,0,0,1,24.059,261.311Z" transform="translate(-7.529 -261.311)" fill="#ff92a4"/>
    </g>
    <g id="Grupo_1111049" data-name="Grupo 1111049" transform="translate(11.73 11.731)">
      <path id="Trazado_896063" data-name="Trazado 896063" d="M110.745,110.746c-1.513,1.513-1,4.482,1.935,7.413a26.715,26.715,0,0,0,12.828,7.35,26.715,26.715,0,0,0-7.35-12.828C115.227,109.75,112.258,109.233,110.745,110.746Z" transform="translate(-109.918 -109.919)" fill="#ff7591"/>
    </g>
    <g id="Grupo_1111050" data-name="Grupo 1111050" transform="translate(11.731 11.845)">
      <path id="Trazado_896064" data-name="Trazado 896064" d="M111.866,113.59q0-1.316.126-2.6a2.753,2.753,0,0,0-1.245.712c-1.459,1.459-1.03,4.272,1.631,7.1A26.641,26.641,0,0,1,111.866,113.59Z" transform="translate(-109.92 -110.991)" fill="#f26486"/>
    </g>
    <g id="Grupo_1111051" data-name="Grupo 1111051" transform="translate(27.32 11.731)">
      <path id="Trazado_896065" data-name="Trazado 896065" d="M270.762,110.746c-1.513-1.513-4.482-1-7.413,1.935A26.715,26.715,0,0,0,256,125.509a26.715,26.715,0,0,0,12.828-7.35C271.758,115.228,272.275,112.259,270.762,110.746Z" transform="translate(-255.999 -109.919)" fill="#ff7591"/>
    </g>
    <g id="Grupo_1111052" data-name="Grupo 1111052" transform="translate(27.32 27.32)">
      <path id="Trazado_896066" data-name="Trazado 896066" d="M270.762,270.763c1.513-1.513,1-4.482-1.935-7.413A26.716,26.716,0,0,0,256,256a26.715,26.715,0,0,0,7.35,12.828C266.28,271.759,269.249,272.276,270.762,270.763Z" transform="translate(-255.999 -256)" fill="#ff7591"/>
    </g>
    <g id="Grupo_1111053" data-name="Grupo 1111053" transform="translate(34.984 40.452)">
      <path id="Trazado_896067" data-name="Trazado 896067" d="M334.91,380.678a2.752,2.752,0,0,0,.712-1.245q-1.283.125-2.6.126a26.633,26.633,0,0,1-5.212-.512C330.638,381.708,333.451,382.137,334.91,380.678Z" transform="translate(-327.811 -379.047)" fill="#f26486"/>
    </g>
    <g id="Grupo_1111054" data-name="Grupo 1111054" transform="translate(11.73 27.32)">
      <path id="Trazado_896068" data-name="Trazado 896068" d="M110.745,270.763c1.513,1.513,4.482,1,7.413-1.935A26.715,26.715,0,0,0,125.508,256a26.715,26.715,0,0,0-12.828,7.35C109.749,266.281,109.232,269.25,110.745,270.763Z" transform="translate(-109.918 -256)" fill="#ff7591"/>
    </g>
    <g id="Grupo_1111055" data-name="Grupo 1111055" transform="translate(11.73 30.783)">
      <path id="Trazado_896069" data-name="Trazado 896069" d="M118.158,297.816A28.974,28.974,0,0,0,122.045,293a26.667,26.667,0,0,1-4.547-4.547,28.973,28.973,0,0,0-4.819,3.887c-2.931,2.931-3.447,5.9-1.935,7.413S115.227,300.747,118.158,297.816Z" transform="translate(-109.919 -288.451)" fill="#f26486"/>
    </g>
    <g id="Grupo_1111056" data-name="Grupo 1111056" transform="translate(23.147 23.147)">
      <circle id="Elipse_11979" data-name="Elipse 11979" cx="4.173" cy="4.173" r="4.173" transform="translate(0 0)" fill="#f9ef80"/>
    </g>
    <g id="Grupo_1111057" data-name="Grupo 1111057" transform="translate(23.051 23.051)">
      <path id="Trazado_896070" data-name="Trazado 896070" d="M220.268,220.269a4.266,4.266,0,0,1,2.134-3.7,4.269,4.269,0,1,0,0,7.392A4.266,4.266,0,0,1,220.268,220.269Z" transform="translate(-215.999 -216)" fill="#f9d171"/>
    </g>
    <g id="Grupo_1111058" data-name="Grupo 1111058" transform="translate(0 0)">
      <path id="Trazado_896071" data-name="Trazado 896071" d="M50.331,33.256q-.543-.438-1.119-.851a22.275,22.275,0,0,0,4.407-2.9,2.854,2.854,0,0,0,0-4.376,22.275,22.275,0,0,0-4.405-2.9c.382-.276.756-.559,1.118-.85a10.82,10.82,0,0,0,4.3-7.441A6.175,6.175,0,0,0,52.781,9.13c-1.546-1.547-4.054-1.6-5.913-1.355.241-1.86.193-4.367-1.354-5.914A6.177,6.177,0,0,0,40.7.01a10.818,10.818,0,0,0-7.441,4.3q-.439.545-.853,1.121a22.275,22.275,0,0,0-2.9-4.407A2.843,2.843,0,0,0,27.32,0h0a2.844,2.844,0,0,0-2.188,1.021,22.271,22.271,0,0,0-2.9,4.407q-.415-.575-.853-1.121A10.819,10.819,0,0,0,13.941.01,6.176,6.176,0,0,0,9.126,1.861C7.58,3.408,7.531,5.915,7.772,7.775c-1.859-.24-4.367-.192-5.913,1.355A6.175,6.175,0,0,0,.01,13.945a10.82,10.82,0,0,0,4.3,7.441q.543.437,1.118.85a22.273,22.273,0,0,0-4.4,2.9,2.855,2.855,0,0,0,0,4.375,22.275,22.275,0,0,0,4.408,2.9c-.384.277-.758.56-1.119.851A10.821,10.821,0,0,0,.013,40.7a6.175,6.175,0,0,0,1.851,4.815c1.547,1.547,4.054,1.595,5.913,1.354-.241,1.86-.192,4.367,1.355,5.914a6.172,6.172,0,0,0,4.815,1.85,10.819,10.819,0,0,0,7.441-4.3c.291-.362.573-.735.849-1.117a22.271,22.271,0,0,0,2.9,4.4,2.854,2.854,0,0,0,4.376,0,22.275,22.275,0,0,0,2.9-4.4q.413.573.849,1.116a10.819,10.819,0,0,0,7.441,4.3q.186.01.37.01a6.159,6.159,0,0,0,4.446-1.86c1.547-1.546,1.6-4.054,1.355-5.914,1.86.241,4.367.193,5.913-1.354A6.175,6.175,0,0,0,54.627,40.7a10.82,10.82,0,0,0-4.3-7.442Zm2.262-6.9a1.254,1.254,0,0,1,0,1.92,20.259,20.259,0,0,1-4.932,3.081,34.054,34.054,0,0,0-6.838-3.24h6.614a.8.8,0,1,0,0-1.6H40.823a34.054,34.054,0,0,0,6.84-3.239,20.253,20.253,0,0,1,4.929,3.08ZM26.36,2.048a1.254,1.254,0,0,1,1.919,0A20.253,20.253,0,0,1,31.36,6.98a34.063,34.063,0,0,0-3.24,6.838V7.2a.8.8,0,1,0-1.6,0v6.615A34.056,34.056,0,0,0,23.28,6.98,20.256,20.256,0,0,1,26.36,2.048ZM28.28,52.593a1.254,1.254,0,0,1-1.92,0,20.257,20.257,0,0,1-3.079-4.929,34.056,34.056,0,0,0,3.239-6.839v6.613a.8.8,0,1,0,1.6,0V40.824a34.052,34.052,0,0,0,3.239,6.84,20.249,20.249,0,0,1-3.079,4.929Zm23.365-8.211c-1.414,1.414-4.384.978-5.594.726a.8.8,0,0,0-.947.947c.252,1.211.687,4.181-.727,5.595a4.553,4.553,0,0,1-3.6,1.383,9.347,9.347,0,0,1-6.28-3.7,34.06,34.06,0,0,1-6.4-14.595.8.8,0,0,0-1.567,0,34.06,34.06,0,0,1-6.4,14.595,9.347,9.347,0,0,1-6.28,3.7,4.552,4.552,0,0,1-3.6-1.383c-1.414-1.414-.979-4.384-.727-5.595a.8.8,0,0,0-.947-.947C7.379,45.36,4.409,45.8,3,44.381a4.555,4.555,0,0,1-1.384-3.6,9.348,9.348,0,0,1,3.7-6.281,26.946,26.946,0,0,1,4.073-2.69.8.8,0,1,0-.762-1.408q-.845.457-1.643.957A20.253,20.253,0,0,1,2.047,28.28a1.254,1.254,0,0,1,0-1.92,20.254,20.254,0,0,1,4.929-3.08,34.041,34.041,0,0,0,6.84,3.239H7.2a.8.8,0,1,0,0,1.6h6.629q-1.172.411-2.278.879a.8.8,0,1,0,.625,1.474A41.574,41.574,0,0,1,19.905,28.1a.8.8,0,0,0,0-1.567,34.054,34.054,0,0,1-14.593-6.4,9.349,9.349,0,0,1-3.7-6.28,4.555,4.555,0,0,1,1.383-3.6C4.4,8.847,7.375,9.282,8.586,9.534a.8.8,0,0,0,.947-.947c-.253-1.211-.688-4.181.726-5.6a4.557,4.557,0,0,1,3.6-1.384,9.347,9.347,0,0,1,6.281,3.7,34.059,34.059,0,0,1,6.4,14.593.8.8,0,0,0,1.567,0A34.059,34.059,0,0,1,34.5,5.31a9.347,9.347,0,0,1,6.281-3.7,4.559,4.559,0,0,1,3.6,1.384c1.413,1.414.978,4.384.726,5.6a.8.8,0,0,0,.947.947c1.211-.252,4.181-.687,5.594.727a4.555,4.555,0,0,1,1.383,3.6,9.349,9.349,0,0,1-3.7,6.28,34.055,34.055,0,0,1-14.593,6.4.8.8,0,0,0,0,1.567,34.053,34.053,0,0,1,14.592,6.4,9.348,9.348,0,0,1,3.7,6.281,4.556,4.556,0,0,1-1.384,3.6Z" transform="translate(0 0)"/>
      <path id="Trazado_896072" data-name="Trazado 896072" d="M132.2,125.59a29.718,29.718,0,0,0-8.4-5.9,5,5,0,0,0,0-1.775,29.145,29.145,0,0,0,4.912-2.9.8.8,0,0,0-.945-1.292,27.562,27.562,0,0,1-4.5,2.677,5.1,5.1,0,0,0-2.054-2.054,28.122,28.122,0,0,1,5.51-7.8,8.337,8.337,0,0,1,3.856-2.421,2.23,2.23,0,0,1,2.911,2.911,8.337,8.337,0,0,1-2.421,3.856c-.292.292-.594.581-.9.859a.8.8,0,0,0,1.081,1.18c.321-.294.64-.6.948-.908a10.11,10.11,0,0,0,2.847-4.62,3.81,3.81,0,0,0-4.836-4.836,10.108,10.108,0,0,0-4.62,2.847,29.753,29.753,0,0,0-5.9,8.4,5,5,0,0,0-1.776,0,29.321,29.321,0,0,0-5.9-8.4,10.11,10.11,0,0,0-4.62-2.847,3.81,3.81,0,0,0-4.836,4.836,10.108,10.108,0,0,0,2.847,4.62,29.711,29.711,0,0,0,8.4,5.9,5,5,0,0,0,0,1.773,29.719,29.719,0,0,0-8.4,5.9,10.11,10.11,0,0,0-2.847,4.62,4.031,4.031,0,0,0,.912,3.924,3.71,3.71,0,0,0,2.7,1.062,5.355,5.355,0,0,0,1.229-.15,10.108,10.108,0,0,0,4.62-2.847,29.718,29.718,0,0,0,5.9-8.4,5,5,0,0,0,1.774,0,29.752,29.752,0,0,0,5.9,8.4,10.11,10.11,0,0,0,4.62,2.847,5.356,5.356,0,0,0,1.229.15,3.711,3.711,0,0,0,2.695-1.062,4.032,4.032,0,0,0,.912-3.924A10.112,10.112,0,0,0,132.2,125.59Zm-25.656-14.7a8.337,8.337,0,0,1-2.421-3.856,2.23,2.23,0,0,1,2.911-2.911,8.337,8.337,0,0,1,3.856,2.421,28.13,28.13,0,0,1,5.51,7.8,5.1,5.1,0,0,0-2.054,2.054A28.115,28.115,0,0,1,106.545,110.89Zm4.346,20.179a8.337,8.337,0,0,1-3.856,2.421,2.23,2.23,0,0,1-2.911-2.911,8.337,8.337,0,0,1,2.421-3.856,28.119,28.119,0,0,1,7.8-5.51,5.105,5.105,0,0,0,2.054,2.054,28.119,28.119,0,0,1-5.51,7.8Zm4.448-12.262a3.468,3.468,0,1,1,3.468,3.468A3.472,3.472,0,0,1,115.339,118.806ZM133,133a2.523,2.523,0,0,1-2.424.486,8.337,8.337,0,0,1-3.856-2.421,28.124,28.124,0,0,1-5.51-7.8,5.106,5.106,0,0,0,2.054-2.054,28.123,28.123,0,0,1,7.8,5.51,8.337,8.337,0,0,1,2.421,3.856A2.523,2.523,0,0,1,133,133Z" transform="translate(-91.487 -91.486)"/>
    </g>
  </g>
</svg>
