<svg xmlns="http://www.w3.org/2000/svg" width="90" height="90" viewBox="0 0 90 90">
  <g id="_81" data-name="81" transform="translate(-967.051 -3559)">
    <rect id="Rectángulo_405134" data-name="Rectángulo 405134" width="90" height="90" transform="translate(967.051 3559)" fill="none"/>
    <g id="Grupo_1111258" data-name="Grupo 1111258" transform="translate(977.051 3528.35)">
      <path id="XMLID_1497_" d="M85.5,315.363v18.114a1.368,1.368,0,0,1-1.367,1.367H22.7a1.368,1.368,0,0,1-1.367-1.367V315.363Z" transform="translate(-18.414 -231.975)" fill="#8d9da7"/>
      <path id="XMLID_1498_" d="M456.683,315.363v18.114a1.368,1.368,0,0,1-1.367,1.367H451.3a1.368,1.368,0,0,0,1.367-1.367V315.363Z" transform="translate(-389.599 -231.975)" fill="#7a8d98"/>
      <path id="XMLID_1499_" d="M85.5,315.363v8.66a7.175,7.175,0,0,1-3.127.714H24.457a7.175,7.175,0,0,1-3.127-.714v-8.66Z" transform="translate(-18.414 -231.975)" fill="#7a8d98"/>
      <path id="XMLID_1500_" d="M75.449,107.81v29.366a5.017,5.017,0,0,1-5.018,5.016H12.518A5.017,5.017,0,0,1,7.5,137.176V107.81a1.368,1.368,0,0,1,1.367-1.367H74.082A1.368,1.368,0,0,1,75.449,107.81Z" transform="translate(-6.475 -51.618)" fill="#c5d3dd"/>
      <path id="XMLID_1501_" d="M447.463,107.81v29.366a5.017,5.017,0,0,1-5.018,5.016H438.43a5.017,5.017,0,0,0,5.018-5.016V107.81a1.368,1.368,0,0,0-1.367-1.367H446.1A1.368,1.368,0,0,1,447.463,107.81Z" transform="translate(-378.488 -51.618)" fill="#b7c4ce"/>
      <path id="XMLID_1503_" d="M96.883,55.52v26.3a1.368,1.368,0,0,1-1.367,1.367H38.367A1.368,1.368,0,0,1,37,81.821V55.52a1.367,1.367,0,0,1,1.367-1.367H95.516a1.367,1.367,0,0,1,1.367,1.367Z" transform="translate(-31.941 -6.477)" fill="#9ce6fb"/>
      <g id="Grupo_1111257" data-name="Grupo 1111257" transform="translate(5.059 47.676)">
        <path id="XMLID_1504_" d="M70.715,54.153,41.68,83.188H38.367A1.368,1.368,0,0,1,37,81.821V80.2L63.042,54.153h7.673Z" transform="translate(-37 -54.153)" fill="#c9f0fd"/>
        <path id="XMLID_1505_" d="M258.791,55.52v5.268l-22.4,22.4H224.55l29.034-29.035h3.84a1.367,1.367,0,0,1,1.367,1.367Z" transform="translate(-198.908 -54.153)" fill="#c9f0fd"/>
        <path id="XMLID_1506_" d="M357.274,130.153V147.43a1.368,1.368,0,0,1-1.367,1.367H338.63Z" transform="translate(-297.392 -119.762)" fill="#c9f0fd"/>
      </g>
      <path id="XMLID_1507_" d="M37,106.443H96.883V114.7H37Z" transform="translate(-31.941 -51.618)" fill="#8d9da7"/>
      <path id="XMLID_1508_" d="M130.712,106.443l-8.259,8.259H114.78l8.259-8.259Z" transform="translate(-99.087 -51.618)" fill="#a0acb9"/>
      <path id="XMLID_1509_" d="M344.32,106.443l-8.259,8.259H324.22l8.258-8.259Z" transform="translate(-279.893 -51.618)" fill="#a0acb9"/>
      <path id="XMLID_1510_" d="M443.318,130.153v5.018H438.3Z" transform="translate(-378.376 -72.087)" fill="#a0acb9"/>
      <path id="XMLID_1546_" d="M114.485,176.828a6.629,6.629,0,0,1-6.654,6.56h-6.642a4.933,4.933,0,0,1-4.758-3.594,4.746,4.746,0,0,1-.172-1.239,4.868,4.868,0,0,1,4.869-4.905h.01a1.777,1.777,0,0,0,1.445-.722,6.583,6.583,0,0,1,11.9,3.9Z" transform="translate(-83.099 -106.677)" fill="#fb4a59"/>
      <path id="XMLID_1547_" d="M105.582,173.3l-9.151,9.151a4.746,4.746,0,0,1-.172-1.239,4.868,4.868,0,0,1,4.869-4.905h.01a1.777,1.777,0,0,0,1.445-.722A6.592,6.592,0,0,1,105.582,173.3Z" transform="translate(-83.099 -109.336)" fill="#fb6672"/>
      <path id="XMLID_1549_" d="M114.485,146.878a6.629,6.629,0,0,1-6.654,6.56h-6.642a4.955,4.955,0,0,1-3.139-1.118,4.854,4.854,0,0,1,3.078-8.62h.01a1.777,1.777,0,0,0,1.445-.722,6.582,6.582,0,0,1,11.9,3.9Z" transform="translate(-83.099 -80.822)" fill="#fb8189"/>
      <path id="XMLID_1550_" d="M109.815,140.555,98.05,152.32a4.854,4.854,0,0,1,3.078-8.62h.01a1.777,1.777,0,0,0,1.445-.722,6.588,6.588,0,0,1,7.232-2.423Z" transform="translate(-83.099 -80.822)" fill="#fc9aa1"/>
      <circle id="XMLID_2683_" cx="2.458" cy="2.458" r="2.458" transform="translate(22.367 63.752)" fill="#ffeed3"/>
      <path id="XMLID_2682_" d="M170.832,174.642a2.459,2.459,0,0,1-4.55,1.292,2.459,2.459,0,0,0,2.677-3.681A2.459,2.459,0,0,1,170.832,174.642Z" transform="translate(-143.548 -108.432)" fill="#fddaa9"/>
      <path id="XMLID_1555_" d="M292.291,225.529a3.006,3.006,0,0,1-3.008,3.008H275.748a3.008,3.008,0,0,1,0-6.016h13.535A3.008,3.008,0,0,1,292.291,225.529Z" transform="translate(-235.451 -151.826)" fill="#e22334"/>
      <path id="XMLID_1556_" d="M275.748,222.521h8.261l-6.016,6.016h-2.245a3.008,3.008,0,0,1,0-6.016Z" transform="translate(-235.451 -151.826)" fill="#fb4a59"/>
      <path id="XMLID_1557_" d="M349.172,225.529a3.006,3.006,0,0,1-3.008,3.008H338.63l6.016-6.016h1.519A3.008,3.008,0,0,1,349.172,225.529Z" transform="translate(-292.333 -151.826)" fill="#fb4a59"/>
      <path id="XMLID_1564_" d="M292.291,188.709a3.006,3.006,0,0,1-3.008,3.008H275.748a3.008,3.008,0,0,1,0-6.016h13.535a3.008,3.008,0,0,1,3.008,3.008Z" transform="translate(-235.451 -120.04)" fill="#fb4a59"/>
      <path id="XMLID_1565_" d="M290.622,185.7l-6.016,6.016h-7.279a3.008,3.008,0,0,1-2.758-1.8l4.211-4.211Z" transform="translate(-237.031 -120.04)" fill="#fb6672"/>
      <path id="XMLID_1566_" d="M380.958,195.969a3.006,3.006,0,0,1-3.008,3.008h-2.5l4.866-4.866A2.989,2.989,0,0,1,380.958,195.969Z" transform="translate(-324.119 -127.3)" fill="#fb6672"/>
      <path id="XMLID_1573_" d="M292.291,151.9a3.006,3.006,0,0,1-3.008,3.008H275.748a3.008,3.008,0,0,1,0-6.016h13.535a3.006,3.006,0,0,1,3.008,3.008Z" transform="translate(-235.451 -88.263)" fill="#fb8189"/>
      <path id="XMLID_1574_" d="M314.068,150.861l-4.047,4.047H298.18l6.014-6.016h7.051A3.008,3.008,0,0,1,314.068,150.861Z" transform="translate(-257.413 -88.264)" fill="#fc9aa1"/>
      <path id="XMLID_756_" d="M67.607,53.8H65.967V49.043a2.4,2.4,0,0,0-2.393-2.393H30.789a1.025,1.025,0,1,0,0,2.051H63.574a.342.342,0,0,1,.342.342V53.8H6.084V49.043a.342.342,0,0,1,.342-.342H25.949a1.025,1.025,0,1,0,0-2.051H6.426a2.4,2.4,0,0,0-2.393,2.393V53.8H2.393A2.4,2.4,0,0,0,0,56.192V85.557a6.025,6.025,0,0,0,1.891,4.385V101.5a2.4,2.4,0,0,0,2.393,2.393H65.716a2.4,2.4,0,0,0,2.393-2.393V89.942A6.024,6.024,0,0,0,70,85.557V56.192A2.4,2.4,0,0,0,67.607,53.8ZM52.213,75.685l.336-.336A1.025,1.025,0,1,0,51.1,73.9l-1.617,1.617a1.031,1.031,0,0,0-.136.168H48.263l.336-.336a1.025,1.025,0,0,0-1.45-1.45l-1.617,1.617a1.028,1.028,0,0,0-.136.168H44.312l.336-.336A1.025,1.025,0,1,0,43.2,73.9L41.58,75.517a1.031,1.031,0,0,0-.136.168H40.288A1.984,1.984,0,0,1,38.315,73.7a1.964,1.964,0,0,1,.48-1.292,4.009,4.009,0,0,0,1.5.291H53.832a4.01,4.01,0,0,0,1.5-.291,1.98,1.98,0,0,1-1.492,3.273H52.213Zm5.331-13.627A4.039,4.039,0,0,0,53.832,59.6h-3.7a1.025,1.025,0,1,0,0,2.051h3.7a1.982,1.982,0,1,1,0,3.965H52.213l.336-.336a1.025,1.025,0,0,0-1.45-1.45l-1.617,1.617a1.028,1.028,0,0,0-.136.169H48.263l.336-.336a1.025,1.025,0,0,0-1.45-1.45l-1.617,1.617a1.027,1.027,0,0,0-.136.169H44.312l.336-.336a1.025,1.025,0,0,0-1.45-1.45L41.58,65.449a1.027,1.027,0,0,0-.136.169H40.3a1.982,1.982,0,1,1,0-3.965h5a1.025,1.025,0,1,0,0-2.051h-5a4.039,4.039,0,0,0-3.712,2.456H31.293a7.664,7.664,0,0,0-1.1-1.4A7.558,7.558,0,0,0,24.8,58.425a7.638,7.638,0,0,0-6.148,3.126.763.763,0,0,1-.625.3h0a5.928,5.928,0,0,0-1.548.206H6.084V55.85H9.57v.9a1.025,1.025,0,1,0,2.051,0v-.9h2.442v.9a1.025,1.025,0,0,0,2.051,0v-.9h2.442v.9a1.025,1.025,0,1,0,2.051,0v-.9h8.877v.9a1.025,1.025,0,1,0,2.051,0v-.9h2.442v.9a1.025,1.025,0,1,0,2.051,0v-.9h2.442v.9a1.025,1.025,0,1,0,2.051,0v-.9h8.877v.9a1.025,1.025,0,1,0,2.051,0v-.9h2.442v.9a1.025,1.025,0,1,0,2.051,0v-.9h2.442v.9a1.025,1.025,0,0,0,2.051,0v-.9h3.486v6.208H57.544Zm-4.995,6.808a1.025,1.025,0,0,0-1.45,0l-1.617,1.617a1.028,1.028,0,0,0-.136.169H48.262l.336-.336a1.025,1.025,0,0,0-1.45-1.45l-1.617,1.617a1.027,1.027,0,0,0-.136.169H44.312l.336-.336a1.025,1.025,0,0,0-1.45-1.45L41.58,70.483a1.027,1.027,0,0,0-.136.169H40.3a1.985,1.985,0,0,1-1.982-1.982,1.962,1.962,0,0,1,.479-1.292,4.01,4.01,0,0,0,1.5.292H53.832a4.01,4.01,0,0,0,1.5-.291,1.965,1.965,0,0,1,.48,1.292,1.985,1.985,0,0,1-1.982,1.982H52.213l.336-.336a1.026,1.026,0,0,0,0-1.45ZM14.186,67.776A3.844,3.844,0,0,1,18.037,63.9h.006a2.814,2.814,0,0,0,2.27-1.143A5.58,5.58,0,0,1,24.8,60.476a5.557,5.557,0,0,1,5.557,5.577,5.6,5.6,0,0,1-5.629,5.538H18.09A3.885,3.885,0,0,1,14.186,67.776Zm-8.1-3.667h7.308a5.864,5.864,0,0,0-.888,5.677,5.845,5.845,0,0,0,1.081,5.9H6.426a.342.342,0,0,1-.342-.342ZM14.2,72.2a5.963,5.963,0,0,0,3.887,1.438h6.642a7.692,7.692,0,0,0,5.492-2.3,5.627,5.627,0,0,1-5.492,4.344H18.09A3.892,3.892,0,0,1,14.2,72.2Zm18.208-2.049a7.627,7.627,0,0,0-.282-2.083,7.5,7.5,0,0,0,.282-2.011,7.651,7.651,0,0,0-.246-1.951h4.126a4.014,4.014,0,0,0,.857,2.044,4.02,4.02,0,0,0,0,5.03,4.03,4.03,0,0,0-.36,4.5h-6.82a7.555,7.555,0,0,0,2.446-5.531Zm24.57,1.03a4.029,4.029,0,0,0,0-5.034,4.013,4.013,0,0,0,.854-2.041h6.079V75.343a.342.342,0,0,1-.342.342H57.343a4.027,4.027,0,0,0-.361-4.5ZM66.058,101.5a.342.342,0,0,1-.342.342H4.284a.342.342,0,0,1-.342-.342V91.223a6.011,6.011,0,0,0,2.1.377H7.4v.7a1.025,1.025,0,1,0,2.051,0v-.7h1.97v.7a1.025,1.025,0,1,0,2.051,0v-.7h1.97v.7a1.025,1.025,0,1,0,2.051,0v-.7h1.97v.7a1.025,1.025,0,1,0,2.051,0v-.7h1.97v.7a1.025,1.025,0,1,0,2.051,0v-.7H52.951a1.025,1.025,0,0,0,0-2.051H6.042a4,4,0,0,1-3.992-3.992V56.192a.342.342,0,0,1,.342-.342H4.033V75.343a2.4,2.4,0,0,0,2.393,2.393H63.574a2.4,2.4,0,0,0,2.393-2.393V55.85h1.641a.342.342,0,0,1,.342.342V85.557a4,4,0,0,1-3.992,3.992H57.791a1.025,1.025,0,0,0,0,2.051h6.167a6.011,6.011,0,0,0,2.1-.377Z" transform="translate(0 0)"/>
      <path id="XMLID_215_" d="M55.115,399.445a1.025,1.025,0,0,0-1.025,1.025v1.721a1.025,1.025,0,0,0,2.051,0V400.47A1.025,1.025,0,0,0,55.115,399.445Z" transform="translate(-46.695 -304.561)"/>
      <path id="XMLID_214_" d="M84.525,399.445A1.025,1.025,0,0,0,83.5,400.47v1.721a1.025,1.025,0,0,0,2.051,0V400.47A1.025,1.025,0,0,0,84.525,399.445Z" transform="translate(-72.084 -304.561)"/>
      <path id="XMLID_213_" d="M113.935,399.445a1.025,1.025,0,0,0-1.025,1.025v1.721a1.025,1.025,0,0,0,2.051,0V400.47A1.025,1.025,0,0,0,113.935,399.445Z" transform="translate(-97.473 -304.561)"/>
      <path id="XMLID_212_" d="M143.345,399.445a1.025,1.025,0,0,0-1.025,1.025v1.721a1.025,1.025,0,1,0,2.051,0V400.47A1.025,1.025,0,0,0,143.345,399.445Z" transform="translate(-122.862 -304.561)"/>
      <path id="XMLID_211_" d="M172.755,399.445a1.025,1.025,0,0,0-1.025,1.025v1.721a1.025,1.025,0,1,0,2.051,0V400.47A1.025,1.025,0,0,0,172.755,399.445Z" transform="translate(-148.251 -304.561)"/>
      <path id="XMLID_210_" d="M399.333,291.058a1.025,1.025,0,0,0-1.025-1.025h-4.152a1.025,1.025,0,1,0,0,2.051h4.152A1.025,1.025,0,0,0,399.333,291.058Z" transform="translate(-339.382 -210.108)"/>
      <path id="XMLID_207_" d="M159.585,171.211a3.484,3.484,0,1,0-3.484-3.484A3.488,3.488,0,0,0,159.585,171.211Zm0-4.917a1.433,1.433,0,1,1-1.433,1.433A1.435,1.435,0,0,1,159.585,166.294Z" transform="translate(-134.759 -101.516)"/>
    </g>
  </g>
</svg>
