<svg xmlns="http://www.w3.org/2000/svg" width="60.015" height="59.926" viewBox="0 0 60.015 59.926">
  <g id="_94" data-name="94" transform="translate(-0.974 -0.074)">
    <g id="_040---Frozen-Meat" data-name="040---Frozen-Meat">
      <path id="Shape" d="M60,44a15,15,0,0,1-30,0c0-.27.01-.53.02-.79a15.012,15.012,0,0,1,14.43-14.2c.18-.01.37-.01.55-.01A14.988,14.988,0,0,1,60,44Z" fill="#00bcd4"/>
      <path id="Shape-2" data-name="Shape" d="M45,29c-.506,0-1.007.027-1.5.076a15,15,0,0,1,0,29.848c.493.049.994.076,1.5.076a15,15,0,0,0,0-30Z" fill="#00838f"/>
      <path id="Shape-3" data-name="Shape" d="M49.07,15.46a15.045,15.045,0,0,0-1.51-1.61l-.42-.34c-.34-.27-.65-.51-.96-.71-7.56-5.13-14.42-7.73-20.4-7.73a19.283,19.283,0,0,0-4.19.46C13.38,7.39,7.02,16.98,6.11,28.85a29.977,29.977,0,0,0,1.43,12.4,18.253,18.253,0,0,0,2.12,4.13,11.7,11.7,0,0,0,4.06,3.78,7.1,7.1,0,0,0,3.22.8,6.065,6.065,0,0,0,3.83-1.33,21.129,21.129,0,0,0,3.67-4.52c.68-1,1.38-2.03,2.16-3.03a30.734,30.734,0,0,1,6.48-6.18,14.994,14.994,0,0,1,11.37-5.89,17.211,17.211,0,0,0,2.66-1.6c1.94-1.46,3.99-4.11,3.88-7.17a8.243,8.243,0,0,0-1.92-4.78Z" fill="#f44335"/>
      <path id="Shape-4" data-name="Shape" d="M49.07,15.46a15.045,15.045,0,0,0-1.51-1.61l-.42-.34c-.34-.27-.65-.51-.96-.71-7.56-5.13-14.42-7.73-20.4-7.73-.494,0-.982.026-1.466.062,5.611.4,11.944,2.971,18.866,7.668.31.2.62.44.96.71l.42.34a15.044,15.044,0,0,1,1.51,1.61,8.243,8.243,0,0,1,1.92,4.78c.11,3.06-1.94,5.71-3.88,7.17a17.211,17.211,0,0,1-2.66,1.6A14.994,14.994,0,0,0,30.08,34.9a30.734,30.734,0,0,0-6.48,6.18c-.78,1-1.48,2.03-2.16,3.03a21.129,21.129,0,0,1-3.67,4.52,6.007,6.007,0,0,1-2.381,1.141,6.729,6.729,0,0,0,1.551.189,6.065,6.065,0,0,0,3.83-1.33,21.129,21.129,0,0,0,3.67-4.52c.68-1,1.38-2.03,2.16-3.03a30.734,30.734,0,0,1,6.48-6.18,14.994,14.994,0,0,1,11.37-5.89,17.211,17.211,0,0,0,2.66-1.6c1.94-1.46,3.99-4.11,3.88-7.17a8.243,8.243,0,0,0-1.92-4.78Z" fill="#c81e1e"/>
      <path id="Shape-5" data-name="Shape" d="M25.68,24.16c-4.7,1.91-9.38.45-10.46-3.25s1.87-8.24,6.57-10.15,9.38-.44,10.46,3.26S30.38,22.26,25.68,24.16Z" fill="#ffe0b2"/>
      <path id="Shape-6" data-name="Shape" d="M54.99,20.1a12.759,12.759,0,0,1-4.7,9.86A15,15,0,0,0,45,29c-.18,0-.37,0-.55.01a17.211,17.211,0,0,0,2.66-1.6c1.94-1.46,3.99-4.11,3.88-7.17a8.243,8.243,0,0,0-1.92-4.78,15.045,15.045,0,0,0-1.51-1.61l-.42-.34c-.34-.27-.65-.51-.96-.71-7.56-5.13-14.42-7.73-20.4-7.73a19.283,19.283,0,0,0-4.19.46C13.38,7.39,7.02,16.98,6.11,28.85a29.977,29.977,0,0,0,1.43,12.4,18.253,18.253,0,0,0,2.12,4.13,11.7,11.7,0,0,0,4.06,3.78,7.1,7.1,0,0,0,3.22.8,6.065,6.065,0,0,0,3.83-1.33,21.129,21.129,0,0,0,3.67-4.52c.68-1,1.38-2.03,2.16-3.03a30.734,30.734,0,0,1,6.48-6.18,14.91,14.91,0,0,0-3.06,8.31c-.09.11-.18.23-.27.34-2.15,2.75-3.86,6.1-6.48,8.2a10.418,10.418,0,0,1-11.39.96,15.593,15.593,0,0,1-5.5-5.04,22.425,22.425,0,0,1-2.59-5.04A33.889,33.889,0,0,1,2.12,28.54C3.09,15.87,9.94,4.07,20.71,1.63,30.15-.51,40.07,3.82,48.42,9.48c.13.09.25.17.37.26.09.06.17.12.26.19.21.15.41.31.61.47l.51.42a18.323,18.323,0,0,1,2.01,2.12,12.221,12.221,0,0,1,2.81,7.16Z" fill="#ffe0b2"/>
      <g id="Grupo_1110982" data-name="Grupo 1110982">
        <path id="Shape-7" data-name="Shape" d="M52.18,12.94a18.323,18.323,0,0,0-2.01-2.12l-.51-.42c-.2-.16-.4-.32-.61-.47-.09-.07-.17-.13-.26-.19-.12-.09-.24-.17-.37-.26C41.094,4.514,32.559.574,24.2,1.128c7.38.414,14.769,3.979,21.22,8.352.13.09.25.17.37.26.09.06.17.12.26.19.21.15.41.31.61.47l.51.42a18.323,18.323,0,0,1,2.01,2.12,12.221,12.221,0,0,1,2.81,7.16,12.506,12.506,0,0,1-4.008,9.207,15.024,15.024,0,0,1,2.308.653,12.759,12.759,0,0,0,4.7-9.86,12.221,12.221,0,0,0-2.81-7.16Z" fill="#dfc49c"/>
        <path id="Shape-8" data-name="Shape" d="M27.562,39.933a14.872,14.872,0,0,0-.542,3.277c-.09.11-.18.23-.27.34-2.15,2.75-3.86,6.1-6.48,8.2a9.968,9.968,0,0,1-4.832,2.1,10.125,10.125,0,0,0,7.832-2.1c2.62-2.1,4.33-5.45,6.48-8.2.09-.11.18-.23.27-.34a14.91,14.91,0,0,1,3.06-8.31,30.972,30.972,0,0,0-5.518,5.033Z" fill="#dfc49c"/>
        <path id="Shape-9" data-name="Shape" d="M32.03,51.52a23.007,23.007,0,0,1-4.36,5.22,10.34,10.34,0,0,1-8.4,2.08,9.692,9.692,0,0,1-4.74-2.46c-2.37-2.14-6.8-6.31-8.16-8.69h.01a15.593,15.593,0,0,0,5.5,5.04,10.418,10.418,0,0,0,11.39-.96c2.62-2.1,4.33-5.45,6.48-8.2.09-.11.18-.23.27-.34-.01.26-.02.52-.02.79a14.873,14.873,0,0,0,2.03,7.52Z" fill="#dfc49c"/>
        <path id="Shape-10" data-name="Shape" d="M59.99,24.39a12.871,12.871,0,0,1-4.03,9.39,14.826,14.826,0,0,0-5.67-3.82,12.759,12.759,0,0,0,4.7-9.86,12.221,12.221,0,0,0-2.81-7.16,18.323,18.323,0,0,0-2.01-2.12l-.51-.42c-.2-.16-.4-.32-.61-.47a57.318,57.318,0,0,1,8.08,7.14,12.559,12.559,0,0,1,2.86,7.32Z" fill="#dfc49c"/>
      </g>
      <path id="Shape-11" data-name="Shape" d="M25.68,24.16c-4.7,1.91-9.38.45-10.46-3.25s1.87-8.24,6.57-10.15,9.38-.44,10.46,3.26S30.38,22.26,25.68,24.16Z" fill="#ffe0b2"/>
      <path id="Shape-12" data-name="Shape" d="M24.384,19.7c3.153-1.277,4.2-3.722,4.08-4.148-.172-.594-2.451-1.5-5.378-.318a7.74,7.74,0,0,0-3.569,2.8,2.4,2.4,0,0,0-.512,1.348C19.177,19.973,21.457,20.884,24.384,19.7Z" fill="#f44335"/>
      <path id="Shape-13" data-name="Shape" d="M54.515,45.141l-2.983,1.475L47,44l4.532-2.616,2.983,1.475a1,1,0,0,0,.886-1.793l-1.787-.884,1.165-.673a1,1,0,1,0-1-1.732l-1.165.673.128-1.991a1,1,0,0,0-2-.128l-.215,3.321L46,42.268V37.035l2.769-1.846a1,1,0,0,0-1.11-1.664L46,34.631V33.286a1,1,0,0,0-2,0v1.345l-1.659-1.106a1,1,0,0,0-1.11,1.664L44,37.035v5.233l-4.531-2.616-.215-3.321a1,1,0,0,0-2,.128l.128,1.991-1.165-.673a1,1,0,1,0-1,1.732l1.165.673-1.787.884a1,1,0,0,0,.886,1.793l2.983-1.475L43,44l-4.532,2.616-2.983-1.475a1,1,0,0,0-.886,1.793l1.787.884-1.165.673a1,1,0,1,0,1,1.732l1.165-.673-.128,1.991a1,1,0,0,0,.933,1.062h.066a1,1,0,0,0,1-.936l.215-3.321L44,45.732v5.233l-2.769,1.846a1,1,0,0,0,1.11,1.664L44,53.369v1.345a1,1,0,0,0,2,0V53.369l1.659,1.106a1,1,0,0,0,1.11-1.664L46,50.965V45.732l4.531,2.616.215,3.321a1,1,0,0,0,1,.936h.066a1,1,0,0,0,.933-1.062l-.128-1.991,1.165.673a1,1,0,1,0,1-1.732l-1.165-.673,1.787-.884a1,1,0,0,0-.886-1.793Z" fill="#f5f5f5"/>
      <path id="Shape-14" data-name="Shape" d="M60.989,24.357a13.564,13.564,0,0,0-3.125-7.966,57.244,57.244,0,0,0-8.2-7.248,3.089,3.089,0,0,0-.275-.2l-.037-.026-.011-.008c-.088-.064-.176-.126-.268-.19l-.093-.064c-10.6-7.189-20.194-9.881-28.492-8C10,3.032,2.214,14.208,1.123,28.465A34.874,34.874,0,0,0,2.852,42.974a23.318,23.318,0,0,0,2.641,5.164.035.035,0,0,0,.009.028c1.429,2.5,5.85,6.672,8.356,8.935a10.706,10.706,0,0,0,5.232,2.7,11.741,11.741,0,0,0,2.11.2,11.319,11.319,0,0,0,7.1-2.475,19.785,19.785,0,0,0,3.715-4.213,15.986,15.986,0,1,0,25.3-19.518,13.645,13.645,0,0,0,3.674-9.437Zm-2,.068a11.6,11.6,0,0,1-3.068,7.917A16.035,16.035,0,0,0,52.05,29.66a13.451,13.451,0,0,0,3.937-9.593,12.022,12.022,0,0,0-.628-3.39c.618.622.988,1.019.99,1.019a11.522,11.522,0,0,1,2.642,6.729ZM3.117,28.616C3.969,17.485,9.808,5.125,20.931,2.605c7.74-1.753,16.8.838,26.92,7.7l.091.063c.085.058.166.114.3.209.069.045.128.091.232.17.189.135.371.28.555.428l.475.39a17.288,17.288,0,0,1,1.9,2.006,11.14,11.14,0,0,1,2.587,6.564,11.627,11.627,0,0,1-3.955,8.689,15.976,15.976,0,0,0-2.369-.583c.014-.011.03-.021.045-.032,2.148-1.617,4.4-4.569,4.278-8a9.255,9.255,0,0,0-2.139-5.374,16.017,16.017,0,0,0-1.662-1.762l-.428-.347c-.367-.291-.7-.55-1.02-.754-7.727-5.243-14.779-7.9-20.961-7.9a20.312,20.312,0,0,0-4.411.485C12.74,6.51,6.056,16.469,5.113,28.774A30.967,30.967,0,0,0,6.6,41.6a19.217,19.217,0,0,0,2.237,4.355,12.694,12.694,0,0,0,4.424,4.1,8.079,8.079,0,0,0,3.677.911,7.064,7.064,0,0,0,4.454-1.549,21.777,21.777,0,0,0,3.874-4.739c.668-.984,1.359-2,2.122-2.978a28.766,28.766,0,0,1,2.432-2.724,15.9,15.9,0,0,0-.762,3.84l-.1.124c-.72.92-1.393,1.908-2.043,2.863a23.215,23.215,0,0,1-4.275,5.173,9.362,9.362,0,0,1-10.3.852A14.654,14.654,0,0,1,7.2,47.1a21.334,21.334,0,0,1-2.473-4.816,32.892,32.892,0,0,1-1.61-13.668Zm29.3,5.531a31.8,31.8,0,0,0-6.609,6.318c-.8,1.029-1.511,2.073-2.215,3.109a20.449,20.449,0,0,1-3.45,4.275,5.534,5.534,0,0,1-5.967.423,10.723,10.723,0,0,1-3.7-3.464,17.271,17.271,0,0,1-2-3.9A28.969,28.969,0,0,1,7.1,28.928C7.98,17.49,14.027,8.27,21.8,6.508A18.382,18.382,0,0,1,25.78,6.07c5.774,0,12.449,2.542,19.858,7.57.285.184.568.406.872.647l.37.3a14.1,14.1,0,0,1,1.414,1.507,7.245,7.245,0,0,1,1.7,4.186c.1,2.667-1.736,5.021-3.477,6.331a16.044,16.044,0,0,1-2.379,1.437,15.965,15.965,0,0,0-11.718,6.1ZM27.044,55.96a9.29,9.29,0,0,1-7.6,1.875A8.723,8.723,0,0,1,15.2,55.618c-.308-.279-.69-.627-1.111-1.017a11.836,11.836,0,0,0,2.826.347A11.11,11.11,0,0,0,23.9,52.53a24.949,24.949,0,0,0,4.676-5.607c.191-.279.386-.56.58-.841a15.865,15.865,0,0,0,1.706,5.378,20.28,20.28,0,0,1-3.818,4.5ZM45,58A14,14,0,1,1,59,44,14,14,0,0,1,45,58Z"/>
      <path id="Shape-15" data-name="Shape" d="M29.778,9.769a10.389,10.389,0,0,0-8.365.069c-5.156,2.087-8.364,7.18-7.151,11.352a6.387,6.387,0,0,0,3.429,3.969A8.863,8.863,0,0,0,21.572,26a12,12,0,0,0,4.485-.913c5.156-2.088,8.364-7.18,7.151-11.352a6.389,6.389,0,0,0-3.43-3.966ZM25.307,23.237a8.528,8.528,0,0,1-6.743.123,4.359,4.359,0,0,1-2.382-2.728c-.935-3.216,1.749-7.227,5.981-8.941a10.047,10.047,0,0,1,3.736-.758,6.9,6.9,0,0,1,3.006.635A4.361,4.361,0,0,1,31.288,14.3C32.223,17.512,29.539,21.522,25.307,23.237Z"/>
      <path id="Shape-16" data-name="Shape" d="M28.322,14.143a7.142,7.142,0,0,0-5.611.161,8.759,8.759,0,0,0-4.034,3.183,2.992,2.992,0,0,0-.632,2.171,1.94,1.94,0,0,0,1.1,1.128,5.653,5.653,0,0,0,2.423.491,8.5,8.5,0,0,0,3.188-.653c3.453-1.4,4.982-4.262,4.665-5.353a1.938,1.938,0,0,0-1.1-1.128Zm-4.313,4.628a5.372,5.372,0,0,1-3.9.258,3.253,3.253,0,0,1,.25-.455,6.726,6.726,0,0,1,3.106-2.416,5.374,5.374,0,0,1,3.9-.26,6.217,6.217,0,0,1-3.356,2.873Z"/>
    </g>
  </g>
</svg>
