<svg xmlns="http://www.w3.org/2000/svg" width="17.928" height="16.381" viewBox="0 0 17.928 16.381">
  <g id="carne" transform="translate(0.001 -22.082)">
    <g id="Grupo_1111292" data-name="Grupo 1111292" transform="translate(0.263 22.345)">
      <g id="Grupo_1111290" data-name="Grupo 1111290" transform="translate(0 0)">
        <path id="Trazado_899389" data-name="Trazado 899389" d="M9.812,37.082c2.886,2.008,3.693,4.5,4.954,6.207,4.95,6.683,14.814-3.659,7.644-10.331a14.471,14.471,0,0,0-10.43-3.313c-4.737.421-6.048,4.738-2.168,7.438Zm5.607,2.52a1.037,1.037,0,0,1-1.645.117,12.566,12.566,0,0,0-3.362-3.5c-3.155-2.195-1.982-5.205,1.661-5.529a12.709,12.709,0,0,1,2.634.045,1.868,1.868,0,0,1,1.706,1.6,10.8,10.8,0,0,1-.3,6.024,6.651,6.651,0,0,1-.7,1.239Zm1.663-.827a10.5,10.5,0,0,0,.554-5.344c-.109-.938.442-1.89,1.438-1.4a12.912,12.912,0,0,1,2.639,1.714A6.034,6.034,0,0,1,23.4,40.7c-.765,1.834-2.606,3.672-4.706,3.7a3.778,3.778,0,0,1-3.087-1.736C15,41.832,16.579,39.955,17.082,38.775Z" transform="translate(-7.535 -29.594)" fill="#fff" fill-rule="evenodd"/>
        <path id="Trazado_899390" data-name="Trazado 899390" d="M9.826,83.7c2.886,2.008,3.693,4.5,4.954,6.207a4.659,4.659,0,0,0,4.766,2.075,6.855,6.855,0,0,1-4.133-2.544,15.336,15.336,0,0,1-.855-1.338c-.322-.545-.639-1.089-.989-1.617a12.3,12.3,0,0,0-3.293-3.429c-1.989-1.384-2.688-2.937-1.923-5.15C6.976,79.508,7.306,81.944,9.826,83.7Z" transform="translate(-7.549 -76.209)" fill="#a1e5fc" fill-rule="evenodd"/>
        <path id="Trazado_899391" data-name="Trazado 899391" d="M39.344,65.116a12.566,12.566,0,0,1,3.362,3.5,1.037,1.037,0,0,0,1.645-.117,6.65,6.65,0,0,0,.7-1.239,10.8,10.8,0,0,0,.3-6.024,1.868,1.868,0,0,0-1.706-1.6,12.709,12.709,0,0,0-2.634-.045C37.362,59.91,36.189,62.921,39.344,65.116Z" transform="translate(-36.467 -58.49)" fill="#ff5678" fill-rule="evenodd"/>
        <path id="Trazado_899392" data-name="Trazado 899392" d="M236.32,96.89a10.5,10.5,0,0,1-.554,5.344c-.5,1.18-2.087,3.057-1.471,3.888a3.778,3.778,0,0,0,3.087,1.736c2.1-.026,3.941-1.864,4.706-3.7A6.034,6.034,0,0,0,240.4,97.2a12.913,12.913,0,0,0-2.639-1.714C236.762,95,236.211,95.951,236.32,96.89Zm2.029,6.159A1.051,1.051,0,1,1,237.3,104.1,1.05,1.05,0,0,1,238.349,103.048Z" transform="translate(-226.219 -93.053)" fill="#ff5678" fill-rule="evenodd"/>
        <circle id="Elipse_12024" data-name="Elipse 12024" cx="1.051" cy="1.051" r="1.051" transform="matrix(0.987, -0.16, 0.16, 0.987, 10.922, 10.179)" fill="#fff"/>
        <path id="Trazado_899393" data-name="Trazado 899393" d="M39.344,97.961a12.566,12.566,0,0,1,3.362,3.5,1.037,1.037,0,0,0,1.645-.117,6.844,6.844,0,0,0,.411-.655,1.013,1.013,0,0,1-1.531-.015,12.566,12.566,0,0,0-3.362-3.5c-1.643-1.143-2.111-2.507-1.67-3.6C37.067,94.729,37.274,96.521,39.344,97.961Z" transform="translate(-36.467 -91.336)" fill="#ff1142" fill-rule="evenodd"/>
        <path id="Trazado_899394" data-name="Trazado 899394" d="M234.435,361.179c-.27.584-.4,1.112-.139,1.458a3.778,3.778,0,0,0,3.087,1.736,4.15,4.15,0,0,0,1.973-.557,4.51,4.51,0,0,1-4.8-1.967A.87.87,0,0,1,234.435,361.179Z" transform="translate(-226.221 -349.568)" fill="#ff1142" fill-rule="evenodd"/>
        <path id="Trazado_899395" data-name="Trazado 899395" d="M324.55,317.7a1.051,1.051,0,1,0,1.39,1.39,1.051,1.051,0,0,1-1.39-1.39Z" transform="translate(-312.853 -307.611)" fill="#a1e5fc" fill-rule="evenodd"/>
      </g>
      <g id="Grupo_1111291" data-name="Grupo 1111291" transform="translate(14.199 6.023)">
        <path id="Trazado_899396" data-name="Trazado 899396" d="M414.078,203.177h-.525v-.525h.525Zm-.525-1.051h-.525V201.6h.525Z" transform="translate(-413.027 -201.601)" fill="#fff"/>
      </g>
    </g>
    <g id="Grupo_1111293" data-name="Grupo 1111293" transform="translate(-0.001 22.082)">
      <path id="Trazado_899397" data-name="Trazado 899397" d="M83.219,250.046h0a4.547,4.547,0,0,1-3.672-2.055,18.094,18.094,0,0,1-.994-1.567,13.576,13.576,0,0,0-3.8-4.537l-.31.424a13.137,13.137,0,0,1,3.653,4.38A18.469,18.469,0,0,0,79.12,248.3a5.052,5.052,0,0,0,4.094,2.267h0a6.453,6.453,0,0,0,4.994-2.809l-.421-.313A5.93,5.93,0,0,1,83.219,250.046Z" transform="translate(-71.836 -234.19)"/>
      <path id="Trazado_899398" data-name="Trazado 899398" d="M227.612,96.071c-.661,1.113-1.345,2.264-.809,2.989a4.043,4.043,0,0,0,3.256,1.842h.045a4.8,4.8,0,0,0,3.02-1.233,7.072,7.072,0,0,0,1.925-2.626,6.022,6.022,0,0,0,.313-3.911,7.065,7.065,0,0,0-2.067-3.34l-.01-.009a13.169,13.169,0,0,0-2.692-1.749,1.17,1.17,0,0,0-1.233.032,1.749,1.749,0,0,0-.582,1.636,10.142,10.142,0,0,1-.535,5.211A10.9,10.9,0,0,1,227.612,96.071Zm1.689-6.43a1.268,1.268,0,0,1,.363-1.146.514.514,0,0,1,.3-.095.907.907,0,0,1,.394.106,12.646,12.646,0,0,1,2.58,1.675,5.757,5.757,0,0,1,1.623,6.66,5.43,5.43,0,0,1-4.467,3.536h-.04a3.5,3.5,0,0,1-2.833-1.63c-.329-.444.318-1.533.838-2.408a11.231,11.231,0,0,0,.664-1.22A10.644,10.644,0,0,0,229.3,89.641Z" transform="translate(-218.675 -85.571)"/>
      <path id="Trazado_899399" data-name="Trazado 899399" d="M17.9,30.507a7.713,7.713,0,0,0-2.585-4.99l-.009-.008a14.341,14.341,0,0,0-5.387-2.854,14.626,14.626,0,0,0-5.236-.521A6.227,6.227,0,0,0,1.66,23.151,3.812,3.812,0,0,0,.132,25.218c-.462,1.621.3,3.365,2.031,4.665l.315-.42C.925,28.3.237,26.765.637,25.362a3.294,3.294,0,0,1,1.324-1.781,5.706,5.706,0,0,1,2.77-.924,14.1,14.1,0,0,1,5.046.5,13.82,13.82,0,0,1,5.187,2.745,7.2,7.2,0,0,1,2.415,4.646,7.039,7.039,0,0,1-1.126,4.359l.442.283A7.567,7.567,0,0,0,17.9,30.507Z" transform="translate(0.001 -22.082)"/>
      <path id="Trazado_899400" data-name="Trazado 899400" d="M36.441,52.136a12.991,12.991,0,0,0-2.688-.045c-1.9.169-3.3,1.082-3.647,2.382a2.616,2.616,0,0,0,.224,1.85A4.86,4.86,0,0,0,31.965,58.1a12.276,12.276,0,0,1,3.293,3.429,1.061,1.061,0,0,0,.9.476h.02a1.474,1.474,0,0,0,1.161-.586,6.95,6.95,0,0,0,.724-1.288,10.748,10.748,0,0,0,.315-6.173A2.136,2.136,0,0,0,36.441,52.136Zm1.136,7.785a6.427,6.427,0,0,1-.669,1.19.94.94,0,0,1-.745.365.547.547,0,0,1-.467-.24,12.784,12.784,0,0,0-3.431-3.57c-1.322-.92-1.924-2.034-1.652-3.058.287-1.08,1.508-1.844,3.186-1.993q.529-.047,1.07-.047a12.7,12.7,0,0,1,1.51.091,1.614,1.614,0,0,1,1.479,1.388,10.267,10.267,0,0,1-.281,5.876Z" transform="translate(-28.974 -50.992)"/>
      <path id="Trazado_899401" data-name="Trazado 899401" d="M317.745,310.175a1.313,1.313,0,1,0-1.313-1.313A1.315,1.315,0,0,0,317.745,310.175Zm0-2.1a.788.788,0,1,1-.788.788A.789.789,0,0,1,317.745,308.074Z" transform="translate(-305.351 -297.553)"/>
    </g>
  </g>
</svg>
