<svg xmlns="http://www.w3.org/2000/svg" xmlns:xlink="http://www.w3.org/1999/xlink" width="116" height="116" viewBox="0 0 116 116">
  <defs>
    <filter id="Elipse_11517" x="0" y="0" width="116" height="116" filterUnits="userSpaceOnUse">
      <feOffset dy="8" input="SourceAlpha"/>
      <feGaussianBlur stdDeviation="5" result="blur"/>
      <feFlood flood-opacity="0.161"/>
      <feComposite operator="in" in2="blur"/>
      <feComposite in="SourceGraphic"/>
    </filter>
  </defs>
  <g id="a1" transform="translate(-916.333 -133)">
    <g transform="matrix(1, 0, 0, 1, 916.33, 133)" filter="url(#Elipse_11517)">
      <circle id="Elipse_11517-2" data-name="Elipse 11517" cx="43" cy="43" r="43" transform="translate(15 7)" fill="#facd6c"/>
    </g>
    <g id="Page-1" transform="translate(945.271 156.999)">
      <g id="_027---Salting-Meat" data-name="027---Salting-Meat">
        <path id="Shape" d="M46,35.5c0,5.71-.69,10.07-9.31,10.07-4.09,0-5.38,2.03-6.62,3.99-1.68,2.66-3.25,4.53-8.12,4.53a37.56,37.56,0,0,1-6.13-.51C6.68,52.05,1,46.02,1,37.82,1,31.2,5.56,25.45,12.33,22.35l-.7,2.45a2.209,2.209,0,0,0,4.13,1.53l2.69-5.92a29.384,29.384,0,0,1,9.71-.2l-4.53,3.52a2.518,2.518,0,0,0,2.57,4.29c5.713-2.5,6.157-2.8,7.82-3.36a22.429,22.429,0,0,0,3.72-1.63C42.93,25.74,46,30.11,46,35.5Z" fill="#f5f5f5"/>
        <path id="Shape-2" data-name="Shape" d="M37.74,23.03c-.526.29-1.07.551-1.62.8C40.466,26.563,43,30.609,43,35.5c0,5.71-.69,10.07-9.31,10.07-4.09,0-5.38,2.03-6.62,3.99-1.531,2.425-2.98,4.188-6.911,4.482.6.029,1.191.048,1.791.048,4.87,0,6.44-1.87,8.12-4.53,1.24-1.96,2.53-3.99,6.62-3.99,8.62,0,9.31-4.36,9.31-10.07,0-5.39-3.07-9.76-8.26-12.47Z" fill="#cfd8dc"/>
        <path id="Shape-3" data-name="Shape" d="M59,7.8V19.67a1,1,0,0,1-1.27.97L45.57,17.16a1.011,1.011,0,0,0-.99.26l-1.87,1.87a22.344,22.344,0,0,1-4.97,3.74,22.428,22.428,0,0,1-3.72,1.63c-1.949.674-2.867,1.2-7.82,3.36a2.518,2.518,0,0,1-2.57-4.29l6.98-5.43a.985.985,0,0,0,.39-.79V13.55a1,1,0,0,0-1.41-.91L20,17l-3.69,8.13H16.3l-.54,1.2a2.209,2.209,0,0,1-4.13-1.53c3.911-13.683,2.653-9.281,2.97-10.39a4.006,4.006,0,0,1,1.62-2.23L31.55,1.67a3.982,3.982,0,0,1,3.15-.56L58.22,6.82A1,1,0,0,1,59,7.8Z" fill="#ffe0b2"/>
        <path id="Shape-4" data-name="Shape" d="M58.22,6.82,34.7,1.11a4,4,0,0,0-2.357.156L55.22,6.82A1,1,0,0,1,56,7.8V19.67a1.009,1.009,0,0,1-.1.445l1.834.525A1,1,0,0,0,59,19.67V7.8a1,1,0,0,0-.78-.98Z" fill="#dfc49c"/>
        <path id="Shape-5" data-name="Shape" d="M42,35.5c0,4.78,0,6.07-5.31,6.07-6.29,0-8.61,3.66-10,5.85-1.23,1.94-1.69,2.67-4.74,2.67a32.94,32.94,0,0,1-5.47-.46C9.2,48.42,5,44.08,5,37.82c0-4.43,2.83-8.39,7.16-10.88a2.213,2.213,0,0,0,3.6-.61l.54-1.2h.01a22.754,22.754,0,0,1,6.9-.99,2.557,2.557,0,0,0-.29,2.71,2.523,2.523,0,0,0,3.28,1.17c6.435-2.85,5.926-2.637,6.28-2.77C37.91,26.88,42,30.23,42,35.5Z" fill="#e91e63"/>
        <path id="Shape-6" data-name="Shape" d="M32.48,25.25c-.209.078-.128.041-1.335.577C35.723,27.612,39,30.785,39,35.5c0,4.78,0,6.07-5.31,6.07-6.29,0-8.61,3.66-10,5.85-1.043,1.646-1.539,2.418-3.525,2.616.582.032,1.173.054,1.785.054,3.05,0,3.51-.73,4.74-2.67,1.39-2.19,3.71-5.85,10-5.85C42,41.57,42,40.28,42,35.5,42,30.23,37.91,26.88,32.48,25.25Z" fill="#ad1457"/>
        <ellipse id="Oval" cx="4.544" cy="4" rx="4.544" ry="4" transform="translate(13.912 33)" fill="#f5f5f5"/>
        <path id="Shape-7" data-name="Shape" d="M46,35.5v5c0,5.71-.99,10.07-6.26,10.07-4.09,0-5.38,2.03-6.62,3.99-1.68,2.66-3.25,4.53-8.12,4.53a83.475,83.475,0,0,1-9.18-.51C6.68,57.05,1,51.02,1,42.82v-5c0,8.2,5.68,14.23,14.82,15.76a37.56,37.56,0,0,0,6.13.51c4.87,0,6.44-1.87,8.12-4.53,1.24-1.96,2.53-3.99,6.62-3.99C45.31,45.57,46,41.21,46,35.5Z" fill="#cfd8dc"/>
        <g id="Grupo_1110988" data-name="Grupo 1110988">
          <path id="Shape-8" data-name="Shape" d="M45.291,18.123,57.45,21.6A2,2,0,0,0,60,19.674V7.8a1.986,1.986,0,0,0-1.539-1.95L34.932.138a5.02,5.02,0,0,0-3.951.709L15.669,11.353a5.008,5.008,0,0,0-2.035,2.786L10.665,24.53a3.209,3.209,0,0,0,6.007,2.209l4.083-8.984L30,13.553v3.958l-6.984,5.432A3.519,3.519,0,0,0,26.6,28.936l5.82-2.586c.623-.277,1.266-.526,1.91-.741a23.348,23.348,0,0,0,9.085-5.615ZM33.7,23.712c-.7.234-1.407.507-2.09.81l-5.819,2.587a1.519,1.519,0,0,1-1.549-2.588l6.985-5.432A1.987,1.987,0,0,0,32,17.511V13.553a2,2,0,0,0-2.828-1.821L19.586,16.09a.991.991,0,0,0-.5.5l-4.238,9.325a1.208,1.208,0,0,1-2.263-.828L15.554,14.7a3.015,3.015,0,0,1,1.231-1.679L32.1,2.5a3,3,0,0,1,2.36-.422L58,7.8V19.674L45.84,16.2a2,2,0,0,0-1.963.509L42.006,18.58A21.359,21.359,0,0,1,33.7,23.712Z"/>
          <path id="Shape-9" data-name="Shape" d="M51.9,10.421l2.1.515V13a1,1,0,0,0,2,0V10.151a1,1,0,0,0-.763-.971l-2.865-.7a1,1,0,1,0-.475,1.942Z"/>
          <path id="Shape-10" data-name="Shape" d="M4,37.82c0,6.731,4.6,11.514,12.315,12.8a33.654,33.654,0,0,0,5.635.474c3.451,0,4.2-.959,5.586-3.137,1.36-2.143,3.416-5.383,9.154-5.383,6.068,0,6.31-2.041,6.31-7.07a10.345,10.345,0,0,0-4.9-8.746,1,1,0,1,0-1.128,1.652A8.322,8.322,0,0,1,41,35.5c0,4.784,0,5.07-4.31,5.07-6.837,0-9.443,4.106-10.847,6.32-1.183,1.864-1.4,2.2-3.893,2.2a31.746,31.746,0,0,1-5.3-.446C9.88,47.519,6,43.574,6,37.82a10.7,10.7,0,0,1,3.63-7.785,1,1,0,1,0-1.379-1.45A12.82,12.82,0,0,0,4,37.82Z"/>
          <path id="Shape-11" data-name="Shape" d="M24,37a5.3,5.3,0,0,0-5.545-5,5.3,5.3,0,0,0-5.544,5,5.3,5.3,0,0,0,5.544,5A5.3,5.3,0,0,0,24,37Zm-9.089,0a3.31,3.31,0,0,1,3.544-3A3.311,3.311,0,0,1,22,37a3.311,3.311,0,0,1-3.545,3A3.31,3.31,0,0,1,14.911,37Z"/>
          <path id="Shape-12" data-name="Shape" d="M15.659,59.567A84.48,84.48,0,0,0,25,60.09c5.374,0,7.24-2.263,8.965-5,1.2-1.892,2.23-3.525,5.775-3.525,6.4,0,7.26-5.6,7.26-11.07v-5a14.035,14.035,0,0,0-4.969-10.76,1,1,0,0,0-1.322,1.5A12.089,12.089,0,0,1,45,35.5c0,5.643-.56,9.07-8.31,9.07-4.648,0-6.21,2.471-7.465,4.456-1.6,2.529-2.884,4.064-7.275,4.064a36.692,36.692,0,0,1-5.965-.5C7.359,51.149,2,45.489,2,37.82c0-4.42,2.192-8.6,6.174-11.778a1,1,0,1,0-1.248-1.564C2.46,28.041,0,32.779,0,37.82v5c0,8.713,6,15.13,15.659,16.747Zm0-5a38.6,38.6,0,0,0,6.291.523c5.382,0,7.177-2.165,8.966-5,1.195-1.891,2.229-3.524,5.774-3.524,4.15,0,6.639-1,8.129-2.6-.487,4.019-2.01,5.6-5.079,5.6-4.645,0-6.209,2.47-7.466,4.456-1.6,2.529-2.882,4.064-7.274,4.064a82.494,82.494,0,0,1-9.015-.5c-7.119-1.192-12-5.261-13.5-10.956,2.623,4.093,7.2,6.936,13.174,7.937Z"/>
          <circle id="Oval-2" data-name="Oval" cx="1" cy="1" r="1" transform="translate(26 31)"/>
          <circle id="Oval-3" data-name="Oval" cx="1" cy="1" r="1" transform="translate(30 29)"/>
          <circle id="Oval-4" data-name="Oval" cx="1" cy="1" r="1" transform="translate(29 34)"/>
          <circle id="Oval-5" data-name="Oval" cx="1" cy="1" r="1" transform="translate(26 37)"/>
        </g>
      </g>
    </g>
  </g>
</svg>
