<svg xmlns="http://www.w3.org/2000/svg" width="62" height="62" viewBox="0 0 62 62">
  <g id="_10" data-name="10" transform="translate(-1 -1)">
    <path id="Trazado_896084" data-name="Trazado 896084" d="M62.124,44.041a18,18,0,0,1-36,0Z" fill="#893b1b"/>
    <path id="Trazado_896085" data-name="Trazado 896085" d="M29.241,44.041a17.989,17.989,0,0,0,26.33,13.891,17.961,17.961,0,0,0,6.553-13.891Z" fill="#a44b2f"/>
    <path id="Trazado_896086" data-name="Trazado 896086" d="M38.124,44.041a18,18,0,0,1-36,0Z" fill="#a44b2f"/>
    <path id="Trazado_896087" data-name="Trazado 896087" d="M5.241,44.041a17.989,17.989,0,0,0,26.33,13.891,17.961,17.961,0,0,0,6.553-13.891Z" fill="#c7644a"/>
    <path id="Trazado_896088" data-name="Trazado 896088" d="M50.124,21.041a18,18,0,0,1-36,0Z" fill="#672a0d"/>
    <path id="Trazado_896089" data-name="Trazado 896089" d="M17.241,21.041a17.989,17.989,0,0,0,26.33,13.891,17.961,17.961,0,0,0,6.553-13.891Z" fill="#893b1b"/>
    <path id="Trazado_896090" data-name="Trazado 896090" d="M16.124,21.041l1.488-2.975a1.854,1.854,0,0,1,1.658-1.025,1.854,1.854,0,0,0,1.854-1.854v-.56a2.566,2.566,0,0,1,1.418-2.3,2.566,2.566,0,0,0,.955-.824l5.762-8.231a2.9,2.9,0,0,1,4.732-.023l3.563,4.989a1.9,1.9,0,0,0,1.55.8,1.9,1.9,0,0,1,1.585.848l.725,1.088A2.388,2.388,0,0,0,43.4,12.041a2.389,2.389,0,0,1,2.266,1.633l2.456,7.367" fill="#e7b532"/>
    <path id="Trazado_896091" data-name="Trazado 896091" d="M60.124,44.041a6.172,6.172,0,0,0-2.359-4.853L47.336,30.994a4.455,4.455,0,0,0-5.388-.089l-11.4,8.363a5.919,5.919,0,0,0-2.419,4.774" fill="#3d8738"/>
    <path id="Trazado_896092" data-name="Trazado 896092" d="M57.765,39.188,47.336,30.994a4.455,4.455,0,0,0-5.388-.089l-7.732,5.67A6,6,0,0,0,40,41H59.312a6.149,6.149,0,0,0-1.547-1.812Z" fill="#4fa04b"/>
    <path id="Trazado_896093" data-name="Trazado 896093" d="M36.124,44.041l-1.488-2.975a1.854,1.854,0,0,0-1.658-1.025,1.854,1.854,0,0,1-1.854-1.854v-.56a2.566,2.566,0,0,0-1.418-2.295,2.566,2.566,0,0,1-.955-.824l-5.762-8.231a2.9,2.9,0,0,0-4.732-.023l-3.563,4.989a1.9,1.9,0,0,1-1.55.8,1.9,1.9,0,0,0-1.585.848l-.725,1.088a2.388,2.388,0,0,1-1.987,1.064,2.389,2.389,0,0,0-2.266,1.633L4.125,44.041" fill="#c53330"/>
    <path id="Trazado_896094" data-name="Trazado 896094" d="M45.668,13.674A2.389,2.389,0,0,0,43.4,12.041a2.386,2.386,0,0,1-1.987-1.064L40.69,9.889a1.9,1.9,0,0,0-1.585-.848,1.9,1.9,0,0,1-1.55-.8L33.992,3.254a2.9,2.9,0,0,0-4.732.022L23.5,11.507a2.538,2.538,0,0,1-.5.518A6,6,0,0,0,29,18H47.11Z" fill="#f9cb66"/>
    <path id="Trazado_896095" data-name="Trazado 896095" d="M32.978,40.041a1.854,1.854,0,0,1-1.854-1.854v-.56a2.566,2.566,0,0,0-1.418-2.295,2.566,2.566,0,0,1-.955-.824l-5.762-8.231a2.9,2.9,0,0,0-4.732-.022l-3.563,4.989a1.9,1.9,0,0,1-1.55.8,1.9,1.9,0,0,0-1.585.848l-.725,1.088A2.381,2.381,0,0,1,10,34.74V35a6,6,0,0,0,6,6H34.592a1.852,1.852,0,0,0-1.614-.959Z" fill="#dd4946"/>
    <path id="Trazado_896096" data-name="Trazado 896096" d="M62,43H60.923a7.11,7.11,0,0,0-2.665-4.64L48.385,30.6A18.915,18.915,0,0,0,51,21a1,1,0,0,0-1-1H48.72l-2.227-6.683A3.384,3.384,0,0,0,43.278,11a1.387,1.387,0,0,1-1.155-.618L41.4,9.294A2.9,2.9,0,0,0,38.98,8a.909.909,0,0,1-.737-.379L34.681,2.633a3.9,3.9,0,0,0-6.365.03l-5.762,8.23a1.564,1.564,0,0,1-.583.5A3.547,3.547,0,0,0,20,14.586v.56a.856.856,0,0,1-.854.854,2.839,2.839,0,0,0-2.553,1.578L15.382,20H14a1,1,0,0,0-1,1,18.788,18.788,0,0,0,1.827,8.122l-1.07,1.5a.907.907,0,0,1-.737.38A2.9,2.9,0,0,0,10.6,32.294l-.726,1.087A1.385,1.385,0,0,1,8.722,34a3.382,3.382,0,0,0-3.214,2.316L3.28,43H2a1,1,0,0,0-1,1A18.986,18.986,0,0,0,32.006,58.711,18.978,18.978,0,0,0,63,44a1,1,0,0,0-1-1Zm-3.1,0H36.618l-1.211-2.422A2.838,2.838,0,0,0,32.854,39a.849.849,0,0,1-.338-.071l9.9-7.26a3.532,3.532,0,0,1,4.18.069l10.43,8.194A5.134,5.134,0,0,1,58.9,43ZM18.382,18.473A.848.848,0,0,1,19.146,18,2.857,2.857,0,0,0,22,15.146v-.56a1.556,1.556,0,0,1,.866-1.4,3.575,3.575,0,0,0,1.326-1.145l5.762-8.23a1.9,1.9,0,0,1,3.1-.015l3.562,4.989A2.912,2.912,0,0,0,38.98,10a.9.9,0,0,1,.753.4l.726,1.089A3.383,3.383,0,0,0,43.278,13a1.385,1.385,0,0,1,1.317.949L46.613,20h-29ZM15.028,22H48.97a16.9,16.9,0,0,1-2.261,7.517,5.581,5.581,0,0,0-5.479.539l-9.309,6.827A3.532,3.532,0,0,0,30.028,34.4a1.571,1.571,0,0,1-.584-.5l-5.762-8.23a3.894,3.894,0,0,0-6.363-.031L16.18,27.228A16.742,16.742,0,0,1,15.028,22ZM7.4,36.948A1.386,1.386,0,0,1,8.722,36a3.38,3.38,0,0,0,2.819-1.509l.726-1.088a.9.9,0,0,1,.753-.4,2.909,2.909,0,0,0,2.364-1.217l3.562-4.988a1.9,1.9,0,0,1,3.1.015l5.762,8.23a3.591,3.591,0,0,0,1.327,1.146,1.557,1.557,0,0,1,.865,1.4v.56A2.857,2.857,0,0,0,32.854,41a.85.85,0,0,1,.764.473L34.382,43h-29ZM3.029,45H36.97A17,17,0,0,1,3.029,45ZM44,61a16.959,16.959,0,0,1-10.5-3.649A18.93,18.93,0,0,0,38.95,45H60.971A17.023,17.023,0,0,1,44,61Z"/>
  </g>
</svg>
