<svg xmlns="http://www.w3.org/2000/svg" width="64.819" height="64.883" viewBox="0 0 64.819 64.883">
  <g id="_11" data-name="11" transform="translate(-0.25)">
    <g id="Grupo_1111070" data-name="Grupo 1111070" transform="translate(1.201 12.939)">
      <path id="Trazado_896097" data-name="Trazado 896097" d="M73.335,142a4.373,4.373,0,0,0-2.748,1.021A4.373,4.373,0,0,0,67.838,142a4.917,4.917,0,0,0-3.975,2.357A4.917,4.917,0,0,0,59.889,142a4.373,4.373,0,0,0-2.748,1.021A4.373,4.373,0,0,0,54.392,142a4.993,4.993,0,0,0-4.1,2.546,4.993,4.993,0,0,0-4.1-2.546,4.373,4.373,0,0,0-2.748,1.021A4.373,4.373,0,0,0,40.693,142a4.916,4.916,0,0,0-3.975,2.357A4.917,4.917,0,0,0,32.744,142,4.373,4.373,0,0,0,30,143.021,4.373,4.373,0,0,0,27.247,142c-3.036,0-5.5,3.408-5.5,7.611s2.461,7.611,5.5,7.611A4.373,4.373,0,0,0,30,156.2a4.373,4.373,0,0,0,2.748,1.021,4.916,4.916,0,0,0,3.975-2.357,4.917,4.917,0,0,0,3.975,2.357,4.373,4.373,0,0,0,2.748-1.021,4.373,4.373,0,0,0,2.748,1.021,4.993,4.993,0,0,0,4.1-2.546,4.993,4.993,0,0,0,4.1,2.546,4.373,4.373,0,0,0,2.748-1.021,4.373,4.373,0,0,0,2.748,1.021,4.916,4.916,0,0,0,3.975-2.357,4.917,4.917,0,0,0,3.975,2.357,4.373,4.373,0,0,0,2.748-1.021,4.373,4.373,0,0,0,2.748,1.021c3.036,0,5.5-3.408,5.5-7.611S76.371,142,73.335,142Z" transform="translate(-19.974 -136.926)" fill="#ed9c87"/>
      <path id="Trazado_896098" data-name="Trazado 896098" d="M21.857,206c.189,3.967,2.571,7.1,5.483,7.1a4.373,4.373,0,0,0,2.748-1.021,4.373,4.373,0,0,0,2.748,1.021,4.916,4.916,0,0,0,3.975-2.357,4.917,4.917,0,0,0,3.975,2.357,4.373,4.373,0,0,0,2.748-1.021,4.373,4.373,0,0,0,2.748,1.021,4.993,4.993,0,0,0,4.1-2.546,4.992,4.992,0,0,0,4.1,2.546,4.373,4.373,0,0,0,2.748-1.021,4.373,4.373,0,0,0,2.748,1.021,4.916,4.916,0,0,0,3.975-2.357,4.917,4.917,0,0,0,3.975,2.357,4.373,4.373,0,0,0,2.748-1.021,4.373,4.373,0,0,0,2.748,1.021c2.912,0,5.295-3.137,5.483-7.1Z" transform="translate(-20.068 -192.808)" fill="#e46a4a"/>
      <path id="Trazado_896099" data-name="Trazado 896099" d="M13.839,261.37H7.75V236H68.383v25.37H13.839Z" transform="translate(-7.75 -219.002)" fill="#f7bd83"/>
      <path id="Trazado_896100" data-name="Trazado 896100" d="M13.839,409.805H7.75V406H68.383v3.805H13.839Z" transform="translate(-7.75 -367.438)" fill="#f3a451"/>
      <path id="Trazado_896101" data-name="Trazado 896101" d="M55.75,221h7.611v29.175H55.75Z" transform="translate(-49.661 -205.905)" fill="#757575"/>
      <path id="Trazado_896102" data-name="Trazado 896102" d="M55.75,421h7.611v3.805H55.75Z" transform="translate(-49.661 -380.535)" fill="#616161"/>
      <path id="Trazado_896103" data-name="Trazado 896103" d="M0,0H7.611V29.175H0Z" transform="translate(54.545 44.27) rotate(180)" fill="#757575"/>
      <circle id="Elipse_11984" data-name="Elipse 11984" cx="15.222" cy="15.222" r="15.222" transform="translate(32.473 20.549)" fill="#ed9c87"/>
      <path id="Trazado_896104" data-name="Trazado 896104" d="M278.972,382.319A15.224,15.224,0,0,1,263.868,369a15.222,15.222,0,1,0,30.207,0A15.224,15.224,0,0,1,278.972,382.319Z" transform="translate(-231.277 -335.132)" fill="#e46a4a"/>
      <path id="Trazado_896105" data-name="Trazado 896105" d="M329.132,316.825l-4.036,4.036-4.036-4.036-4.485,4.485,4.036,4.036-4.036,4.036,4.485,4.485,4.036-4.036,4.036,4.036,4.485-4.485-4.036-4.036,4.036-4.036Z" transform="translate(-277.401 -289.575)" fill="#fff"/>
      <g id="Grupo_1111069" data-name="Grupo 1111069" transform="translate(4.693)">
        <path id="Trazado_896106" data-name="Trazado 896106" d="M49.757,107.007s-2.65.438-4.014-.926-.926-4.014-.926-4.014,2.65-.438,4.014.926S49.757,107.007,49.757,107.007Z" transform="translate(-44.75 -102)" fill="#e2fc85"/>
        <path id="Trazado_896107" data-name="Trazado 896107" d="M155.757,107.007s-2.65.438-4.014-.926-.926-4.014-.926-4.014,2.65-.438,4.014.926S155.757,107.007,155.757,107.007Z" transform="translate(-137.304 -102)" fill="#e2fc85"/>
        <path id="Trazado_896108" data-name="Trazado 896108" d="M302.817,107.007s2.65.438,4.014-.926.926-4.014.926-4.014-2.65-.438-4.014.926S302.817,107.007,302.817,107.007Z" transform="translate(-270.023 -102)" fill="#e2fc85"/>
        <path id="Trazado_896109" data-name="Trazado 896109" d="M408.817,107.007s2.65.438,4.014-.926.926-4.014.926-4.014-2.65-.438-4.014.926S408.817,107.007,408.817,107.007Z" transform="translate(-362.578 -102)" fill="#e2fc85"/>
      </g>
    </g>
    <g id="Grupo_1111071" data-name="Grupo 1111071" transform="translate(10.144 21.374)">
      <path id="Trazado_896110" data-name="Trazado 896110" d="M269.25,168.5h1.9v1.9h-1.9Z" transform="translate(-245.022 -168.5)" fill="#fff"/>
      <path id="Trazado_896111" data-name="Trazado 896111" d="M104.75,168.5h1.9v1.9h-1.9Z" transform="translate(-101.389 -168.5)" fill="#fff"/>
      <path id="Trazado_896112" data-name="Trazado 896112" d="M373.75,168.5h1.9v1.9h-1.9Z" transform="translate(-336.266 -168.5)" fill="#fff"/>
      <path id="Trazado_896113" data-name="Trazado 896113" d="M78.25,253.5h1.9v1.9h-1.9Z" transform="translate(-78.25 -242.718)" fill="#fff"/>
      <path id="Trazado_896114" data-name="Trazado 896114" d="M78.25,303.5h1.9v1.9h-1.9Z" transform="translate(-78.25 -286.376)" fill="#fff"/>
      <path id="Trazado_896115" data-name="Trazado 896115" d="M78.25,353.5h1.9v1.9h-1.9Z" transform="translate(-78.25 -330.033)" fill="#fff"/>
      <path id="Trazado_896116" data-name="Trazado 896116" d="M78.25,403.5h1.9v1.9h-1.9Z" transform="translate(-78.25 -373.691)" fill="#fff"/>
    </g>
    <g id="Grupo_1111072" data-name="Grupo 1111072" transform="translate(0.25 0)">
      <path id="Trazado_896117" data-name="Trazado 896117" d="M30.614,101.442a3.4,3.4,0,0,1,2.154.812l.595.476.595-.476a3.405,3.405,0,0,1,2.154-.812c2.506,0,4.545,2.987,4.545,6.66a9.481,9.481,0,0,1-.07,1.152l1.889.232a11.38,11.38,0,0,0,.084-1.385,10.492,10.492,0,0,0-1.316-5.2,3.732,3.732,0,0,1,2.817-1.459,3.4,3.4,0,0,1,2.154.812l.595.477.595-.477a3.4,3.4,0,0,1,2.153-.812,3.861,3.861,0,0,1,2.968,1.641,10.564,10.564,0,0,0-1.213,5.018,11.379,11.379,0,0,0,.084,1.385l1.889-.232a9.481,9.481,0,0,1-.07-1.152c0-3.672,2.039-6.66,4.545-6.66a3.4,3.4,0,0,1,2.154.812l.595.476.595-.476a3.405,3.405,0,0,1,2.154-.812,3.732,3.732,0,0,1,2.817,1.459,10.492,10.492,0,0,0-1.316,5.2,11.376,11.376,0,0,0,.085,1.385l1.888-.233a9.477,9.477,0,0,1-.07-1.152c0-3.672,2.039-6.66,4.545-6.66a3.4,3.4,0,0,1,2.154.812l.595.476.595-.476a3.405,3.405,0,0,1,2.154-.812,4.127,4.127,0,0,1,3.383,2.238l1.623-.993a6.822,6.822,0,0,0-2.688-2.58c1.59-1.67,1.184-4.461,1.132-4.778l-.111-.672-.672-.111c-.32-.053-3.18-.47-4.842,1.192a5.579,5.579,0,0,0-1.258,4.249A5.067,5.067,0,0,0,71.2,99.54a5.482,5.482,0,0,0-3.977,1.807,6.266,6.266,0,0,0-1.655-1.238c1.592-1.67,1.187-4.463,1.134-4.78l-.111-.672-.672-.111c-.32-.053-3.18-.47-4.842,1.192a5.579,5.579,0,0,0-1.258,4.249,5.067,5.067,0,0,0-2.065-.447,5.528,5.528,0,0,0-4.1,1.942,5.576,5.576,0,0,0-4.1-1.942,5.066,5.066,0,0,0-2.065.447,5.579,5.579,0,0,0-1.258-4.249c-1.662-1.662-4.521-1.245-4.842-1.192l-.672.111-.111.672c-.052.317-.458,3.11,1.134,4.78a6.264,6.264,0,0,0-1.655,1.238,5.483,5.483,0,0,0-3.977-1.807,5.067,5.067,0,0,0-2.065.447,5.579,5.579,0,0,0-1.257-4.249c-1.662-1.662-4.521-1.245-4.842-1.192l-.672.111-.111.672c-.052.317-.458,3.108,1.132,4.778a6.823,6.823,0,0,0-2.688,2.58l1.623.993a4.129,4.129,0,0,1,3.384-2.238Zm45.26-4.359a3.563,3.563,0,0,1,2.458-.716,2.66,2.66,0,0,1-3.173,3.174A3.584,3.584,0,0,1,75.874,97.083Zm-13.446,0a3.561,3.561,0,0,1,2.458-.716,3.584,3.584,0,0,1-.716,2.458,3.551,3.551,0,0,1-2.458.716A3.584,3.584,0,0,1,62.428,97.083Zm-20-.716a3.562,3.562,0,0,1,2.458.716,3.561,3.561,0,0,1,.716,2.458,3.559,3.559,0,0,1-2.458-.716A3.562,3.562,0,0,1,42.431,96.367Zm-13.446,0a3.562,3.562,0,0,1,2.458.716,3.561,3.561,0,0,1,.716,2.458,3.558,3.558,0,0,1-2.458-.716A3.562,3.562,0,0,1,28.985,96.367Z" transform="translate(-22.39 -82.479)"/>
      <path id="Trazado_896118" data-name="Trazado 896118" d="M16.223,179.087a9.481,9.481,0,0,1-.07-1.152,9.1,9.1,0,0,1,.457-2.893l-1.8-.6a11,11,0,0,0-.555,3.5,11.379,11.379,0,0,0,.084,1.385Z" transform="translate(-12.474 -152.312)"/>
      <path id="Trazado_896119" data-name="Trazado 896119" d="M461.1,177.935a9.472,9.472,0,0,1-.07,1.152l1.888.233a11.372,11.372,0,0,0,.085-1.385,11.006,11.006,0,0,0-.555-3.5l-1.8.6A9.1,9.1,0,0,1,461.1,177.935Z" transform="translate(-402.247 -152.312)"/>
      <path id="Trazado_896120" data-name="Trazado 896120" d="M329.737,358.379l-1.864.38a14.284,14.284,0,0,1-13.982,17.14,14.111,14.111,0,0,1-8.954-3.158l-1.195,1.481a16.18,16.18,0,0,0,26-15.843Z" transform="translate(-265.245 -312.919)"/>
      <path id="Trazado_896121" data-name="Trazado 896121" d="M48.9,220.857a14.266,14.266,0,0,1,13.517,9.682l1.8-.612a16.175,16.175,0,0,0-1.429-3.09V215.4H56.7v-1.9H47.184v1.9H39.636v1.9h7.547v1.74a16.074,16.074,0,0,0-7.359,2.7H15.852v-4.44H37.734v-1.9H15.852v-1.9H6.339v1.9H.25v27.272H6.339v1.9h9.514v-1.9h4.734v-1.9H15.852v-4.44H32.768a16.115,16.115,0,0,0,.966,4.44H22.489v1.9h12.1a16.211,16.211,0,0,0,2.671,3.683l1.369-1.321A14.27,14.27,0,0,1,48.9,220.857Zm7.8-3.552h4.186v6.961a16.189,16.189,0,0,0-4.186-3.309Zm-7.611-1.9h5.708v4.666a16.156,16.156,0,0,0-5.708-1.11ZM6.339,240.772H2.153v-4.44H6.339Zm0-6.342H2.153v-4.44H6.339Zm0-6.342H2.153v-4.44H6.339Zm0-6.342H2.153v-4.44H6.339Zm7.611,20.93H8.241V215.4H13.95Zm18.79-8.245H15.852v-4.44H33.56a16.079,16.079,0,0,0-.821,4.44Zm1.6-6.342H15.852v-4.44H37.516A16.252,16.252,0,0,0,34.338,228.088Z" transform="translate(-0.25 -186.418)"/>
      <path id="Trazado_896122" data-name="Trazado 896122" d="M319.872,306.218l-4.036,4.036-4.036-4.036-5.83,5.83,4.036,4.036-4.036,4.036,5.83,5.83,4.036-4.036,4.036,4.036,5.83-5.83-4.036-4.036,4.036-4.036Zm3.139,13.9-3.139,3.139-4.036-4.036L311.8,323.26l-3.139-3.139,4.036-4.036-4.036-4.036,3.139-3.139,4.036,4.036,4.036-4.036,3.139,3.139-4.036,4.036Z" transform="translate(-267.189 -267.375)"/>
      <path id="Trazado_896123" data-name="Trazado 896123" d="M234.25,13.953h1.9a3.308,3.308,0,0,1,.518-1.87,5.17,5.17,0,0,0,.75-2.781,5.169,5.169,0,0,0-.75-2.781,3.308,3.308,0,0,1-.518-1.87,3.307,3.307,0,0,1,.518-1.87A5.168,5.168,0,0,0,237.421,0h-1.9A3.307,3.307,0,0,1,235,1.87a5.168,5.168,0,0,0-.75,2.781A5.169,5.169,0,0,0,235,7.432a3.308,3.308,0,0,1,.518,1.87,3.307,3.307,0,0,1-.518,1.87A5.169,5.169,0,0,0,234.25,13.953Z" transform="translate(-204.568 0)"/>
      <path id="Trazado_896124" data-name="Trazado 896124" d="M104.25,13.953h1.9a3.308,3.308,0,0,1,.518-1.87,5.17,5.17,0,0,0,.75-2.781,5.169,5.169,0,0,0-.75-2.781,3.308,3.308,0,0,1-.518-1.87,3.307,3.307,0,0,1,.518-1.87A5.168,5.168,0,0,0,107.421,0h-1.9A3.307,3.307,0,0,1,105,1.87a5.168,5.168,0,0,0-.75,2.781A5.169,5.169,0,0,0,105,7.432a3.308,3.308,0,0,1,.518,1.87,3.308,3.308,0,0,1-.518,1.87A5.169,5.169,0,0,0,104.25,13.953Z" transform="translate(-91.058 0)"/>
      <path id="Trazado_896125" data-name="Trazado 896125" d="M170.518,9.3h1.9a5.169,5.169,0,0,0-.75-2.781,3.308,3.308,0,0,1-.518-1.87,3.307,3.307,0,0,1,.518-1.87A5.169,5.169,0,0,0,172.421,0h-1.9A3.307,3.307,0,0,1,170,1.87a5.168,5.168,0,0,0-.75,2.781A5.169,5.169,0,0,0,170,7.432,3.308,3.308,0,0,1,170.518,9.3Z" transform="translate(-147.813 0)"/>
      <path id="Trazado_896126" data-name="Trazado 896126" d="M40.518,9.3h1.9a5.169,5.169,0,0,0-.75-2.781,3.308,3.308,0,0,1-.518-1.87,3.307,3.307,0,0,1,.518-1.87A5.169,5.169,0,0,0,42.421,0h-1.9A3.307,3.307,0,0,1,40,1.87a5.168,5.168,0,0,0-.75,2.781A5.169,5.169,0,0,0,40,7.432,3.308,3.308,0,0,1,40.518,9.3Z" transform="translate(-34.303 0)"/>
      <path id="Trazado_896127" data-name="Trazado 896127" d="M364.25,9.3a5.169,5.169,0,0,0,.75,2.781,3.309,3.309,0,0,1,.518,1.87h1.9a5.169,5.169,0,0,0-.75-2.781,3.309,3.309,0,0,1-.518-1.87,3.309,3.309,0,0,1,.518-1.87,5.169,5.169,0,0,0,.75-2.781,5.168,5.168,0,0,0-.75-2.781A3.308,3.308,0,0,1,366.153,0h-1.9A5.168,5.168,0,0,0,365,2.782a3.308,3.308,0,0,1,.518,1.87A3.309,3.309,0,0,1,365,6.522a5.168,5.168,0,0,0-.75,2.781Z" transform="translate(-318.077 -0.001)"/>
      <path id="Trazado_896128" data-name="Trazado 896128" d="M299.25,9.3h1.9a3.309,3.309,0,0,1,.518-1.87,5.169,5.169,0,0,0,.75-2.781,5.168,5.168,0,0,0-.75-2.781A3.308,3.308,0,0,1,301.153,0h-1.9A5.168,5.168,0,0,0,300,2.781a3.308,3.308,0,0,1,.518,1.87A3.308,3.308,0,0,1,300,6.521,5.169,5.169,0,0,0,299.25,9.3Z" transform="translate(-261.322 0)"/>
      <path id="Trazado_896129" data-name="Trazado 896129" d="M429.25,9.3h1.9a3.309,3.309,0,0,1,.518-1.87,5.169,5.169,0,0,0,.75-2.781,5.168,5.168,0,0,0-.75-2.781A3.308,3.308,0,0,1,431.153,0h-1.9A5.168,5.168,0,0,0,430,2.781a3.308,3.308,0,0,1,.518,1.87A3.309,3.309,0,0,1,430,6.521,5.169,5.169,0,0,0,429.25,9.3Z" transform="translate(-374.832 0)"/>
    </g>
  </g>
</svg>
