<svg xmlns="http://www.w3.org/2000/svg" width="63.198" height="75.404" viewBox="0 0 63.198 75.404">
  <g id="_12" data-name="12" transform="translate(-42.274 -0.997)">
    <g id="Grupo_1111075" data-name="Grupo 1111075" transform="translate(42.274 0.997)">
      <path id="XMLID_513_" d="M159.032,455.153l-4.306,7.119v0h22.112a2.956,2.956,0,0,0,2.957-2.957v-2.772C156.229,454.755,159.31,455.174,159.032,455.153Z" transform="translate(-138.1 -387.983)" fill="#e0d7d6"/>
      <path id="XMLID_518_" d="M109.7,100.581a20.1,20.1,0,0,1-8-15.965V81H89.5v3.619a20.1,20.1,0,0,1-8,15.965,23.24,23.24,0,0,0-9.168,17.694l7.094,14.739,10.235,4.9h19.923C121.643,129.1,122.281,110.17,109.7,100.581Z" transform="translate(-67.883 -69.169)" fill="#eee7e5"/>
      <path id="XMLID_520_" d="M200.673,11.25v5.379h-12.2V11.25A2.754,2.754,0,0,1,191.229,8.5h6.692A2.754,2.754,0,0,1,200.673,11.25Z" transform="translate(-166.86 -7.388)" fill="#766e6e"/>
      <path id="XMLID_531_" d="M184.7,53.5a2.772,2.772,0,1,1,0,5.544H172.5a2.772,2.772,0,1,1,0-5.544Z" transform="translate(-150.882 -45.735)" fill="#e0d7d6"/>
      <circle id="XMLID_532_" cx="8.871" cy="8.871" r="8.871" transform="translate(18.851 38.81)" fill="#efc52e"/>
      <path id="XMLID_541_" d="M125.774,412.679c-1.067-3.834-4.475-6.236-7.613-5.364a4.933,4.933,0,0,0-1.081.445h0l-2.043,9.694a6.6,6.6,0,0,0,5.868,3.922c2.605-.093,4.81-2.271,5.147-5.541A8.525,8.525,0,0,0,125.774,412.679Z" transform="translate(-104.278 -347.089)" fill="#80d161"/>
      <path id="XMLID_542_" d="M60.1,323.789c-2.043-1.379-4.829-1.028-7.027.656a8.57,8.57,0,0,0-1.892,2.02c-2.227,3.3-1.844,7.45.856,9.273.108.072.217.14.328.2l7.409-1.468a8.761,8.761,0,0,0,1.183-1.41C63.18,329.764,62.8,325.612,60.1,323.789Z" transform="translate(-48.627 -275.34)" fill="#80d161"/>
      <path id="XMLID_543_" d="M61.428,398.758c1.88,2.785.955,7.148-2.043,9.694-2.243,1.906-5.206,2.366-7.351.918-2.7-1.821-3.083-5.974-.856-9.273a8.707,8.707,0,0,1,1.184-1.41c2.172-2.091,5.166-2.737,7.407-1.468h0A4.917,4.917,0,0,1,61.428,398.758Z" transform="translate(-48.627 -338.085)" fill="#96d97b"/>
      <g id="Grupo_1111074" data-name="Grupo 1111074" transform="translate(0 0)">
        <path id="Trazado_896130" data-name="Trazado 896130" d="M105.472,33.154A17.742,17.742,0,0,0,77.341,18.772,26.058,26.058,0,0,1,77.2,15.25a3.88,3.88,0,0,0,0-7.438V4.859A3.866,3.866,0,0,0,73.334,1H66.643a3.866,3.866,0,0,0-3.862,3.862V7.812a3.88,3.88,0,0,0,0,7.438v1.194a18.872,18.872,0,0,1-7.568,15.083,24.3,24.3,0,0,0-9.58,18.033A9.7,9.7,0,0,0,43.906,51.5c-2.434,3.606-2.032,7.965.459,10.261-2.993,3.765-2.772,9.1.7,11.437a6.938,6.938,0,0,0,7.638-.235,7.448,7.448,0,0,0,6,3.435H81.012a4.071,4.071,0,0,0,4.066-4.066V70.105a24.353,24.353,0,0,0,9.272-20.49,17.752,17.752,0,0,0,11.122-16.461ZM66.643,3.215h6.692a1.646,1.646,0,0,1,1.644,1.644V7.65H65V4.859A1.646,1.646,0,0,1,66.643,3.215Zm-4.416,8.316A1.665,1.665,0,0,1,63.89,9.868h12.2a1.663,1.663,0,1,1,0,3.327H63.89A1.665,1.665,0,0,1,62.227,11.531ZM45.744,52.743A7.525,7.525,0,0,1,47.367,51l.039-.03c1.823-1.392,4.084-1.708,5.718-.6,2.189,1.478,2.439,4.947.558,7.733a7.862,7.862,0,0,1-.525.689,7.5,7.5,0,0,0-7.22,1.408C44.092,58.594,43.973,55.367,45.744,52.743ZM46.3,71.363c-2.5-1.686-2.5-6.07.48-8.968,1.907-1.835,4.516-2.376,6.344-1.142,2.725,1.839,2.325,6.569-.78,9.241C49.921,72.407,47.74,72.334,46.3,71.363Zm8.128.2a8.933,8.933,0,0,0,2.194-9.314c2.5-.573,5.2,1.466,6.08,4.633.9,3.24-.436,6.451-2.979,7.159C57.827,74.571,55.738,73.564,54.428,71.564Zm28.432.769a1.85,1.85,0,0,1-1.848,1.848H63.373a7.772,7.772,0,0,0,1.613-3.327H82.86Zm.489-3.7H65.2a9.794,9.794,0,0,0-.357-2.348c-1.287-4.62-5.635-7.4-9.438-5.986-.109-.118-.224-.23-.343-.339.16-.2.316-.408.462-.624,2.565-3.8,2.047-8.65-1.155-10.813a6.677,6.677,0,0,0-6.372-.43,22.089,22.089,0,0,1,8.564-14.807A21.227,21.227,0,0,0,65,16.444V15.412h9.98v1.032A21.239,21.239,0,0,0,83.42,33.291a22.025,22.025,0,0,1,8.746,17.648A22.268,22.268,0,0,1,83.35,68.638ZM94.113,47.306a24.362,24.362,0,0,0-9.349-15.779,19.052,19.052,0,0,1-6.953-10.314,15.524,15.524,0,1,1,16.3,26.093Z" transform="translate(-42.274 -0.997)"/>
        <path id="Trazado_896131" data-name="Trazado 896131" d="M172.256,256a9.98,9.98,0,1,0,9.98,9.98A9.991,9.991,0,0,0,172.256,256Zm0,17.742a7.762,7.762,0,1,1,7.762-7.762A7.771,7.771,0,0,1,172.256,273.739Z" transform="translate(-144.534 -218.296)"/>
      </g>
    </g>
  </g>
</svg>
