<svg xmlns="http://www.w3.org/2000/svg" width="67.102" height="67.062" viewBox="0 0 67.102 67.062">
  <g id="_13" data-name="13" transform="translate(0 -0.154)">
    <g id="Grupo_1111093" data-name="Grupo 1111093" transform="translate(9.336 1.137)">
      <g id="Grupo_1111077" data-name="Grupo 1111077" transform="translate(37.453)">
        <path id="Trazado_896154" data-name="Trazado 896154" d="M369.108,25.738,358.249,14.885a4.235,4.235,0,0,1,5.987-5.991L375.1,19.746a4.235,4.235,0,1,1-5.987,5.991Z" transform="translate(-357.007 -7.655)" fill="#c27e4e"/>
      </g>
      <g id="Grupo_1111078" data-name="Grupo 1111078" transform="translate(3.484 36.778)">
        <path id="Trazado_896155" data-name="Trazado 896155" d="M0,0H18.529V4.765H0Z" transform="translate(3.369 0) rotate(45)" fill="#cf9875"/>
      </g>
      <g id="Grupo_1111079" data-name="Grupo 1111079" transform="translate(13.965 47.285)">
        <path id="Trazado_896156" data-name="Trazado 896156" d="M0,0H4.765V3.706H0Z" transform="translate(0 3.369) rotate(-45)" fill="#c7865b"/>
      </g>
      <g id="Grupo_1111080" data-name="Grupo 1111080" transform="translate(46.088 0.746)">
        <path id="Trazado_896157" data-name="Trazado 896157" d="M430.946,23.292l-8.051-8.046,1.125-1.124a2.647,2.647,0,0,1,3.742,0l4.306,4.3a2.647,2.647,0,0,1,0,3.745Z" transform="translate(-422.895 -13.348)" fill="#b36d3c"/>
      </g>
      <g id="Grupo_1111081" data-name="Grupo 1111081" transform="translate(35.961 7.51)">
        <path id="Trazado_896158" data-name="Trazado 896158" d="M0,0H14.558V4.235H0Z" transform="translate(2.994 0) rotate(45)" fill="#995e34"/>
      </g>
      <g id="Grupo_1111082" data-name="Grupo 1111082" transform="translate(9.859 13.497)">
        <path id="Trazado_896159" data-name="Trazado 896159" d="M172.52,128.287l7.361-7.356-10.3-10.291L162.223,118a17.477,17.477,0,0,1-4.072,3.028l-1.568.844a17.477,17.477,0,0,0-4.072,3.028l-6.05,6.046,13.106,13.1,6.05-6.046a17.466,17.466,0,0,0,3.03-4.069l.845-1.567A17.461,17.461,0,0,1,172.52,128.287Z" transform="translate(-146.46 -110.64)" fill="#cf9875"/>
      </g>
      <g id="Grupo_1111083" data-name="Grupo 1111083" transform="translate(20.344 21.169)">
        <path id="Trazado_896160" data-name="Trazado 896160" d="M238.162,184.787l.845-1.567a17.466,17.466,0,0,1,3.03-4.069l7.361-7.356-2.621-2.619-7.361,7.356a17.467,17.467,0,0,0-3.03,4.069l-.845,1.567a17.465,17.465,0,0,1-3.03,4.069l-6.05,6.046,2.621,2.619,6.05-6.046A17.467,17.467,0,0,0,238.162,184.787Z" transform="translate(-226.461 -169.175)" fill="#c7865b"/>
      </g>
      <g id="Grupo_1111084" data-name="Grupo 1111084" transform="translate(32.391 9.912)">
        <path id="Trazado_896161" data-name="Trazado 896161" d="M329.556,97.445,318.7,86.593a1.059,1.059,0,0,1,0-1.5l1.5-1.5a1.059,1.059,0,0,1,1.5,0L332.551,94.45a1.059,1.059,0,0,1,0,1.5l-1.5,1.5A1.059,1.059,0,0,1,329.556,97.445Z" transform="translate(-318.386 -83.288)" fill="#c27e4e"/>
      </g>
      <g id="Grupo_1111085" data-name="Grupo 1111085" transform="translate(40.752 18.268)">
        <path id="Trazado_896162" data-name="Trazado 896162" d="M387.984,149.852l-2.808-2.807a1.058,1.058,0,0,1,0,1.5l-1.5,1.5a1.06,1.06,0,0,1-1.5,0l2.809,2.807a1.06,1.06,0,0,0,1.5,0l1.5-1.5A1.058,1.058,0,0,0,387.984,149.852Z" transform="translate(-382.18 -147.045)" fill="#b36d3c"/>
      </g>
      <g id="Grupo_1111088" data-name="Grupo 1111088" transform="translate(6.366 33.301)">
        <g id="Grupo_1111086" data-name="Grupo 1111086">
          <path id="Trazado_896163" data-name="Trazado 896163" d="M133.6,278.523,120.12,265.052a1.059,1.059,0,0,1,0-1.5l1.5-1.5a1.059,1.059,0,0,1,1.5,0L136.6,275.529a1.059,1.059,0,0,1,0,1.5l-1.5,1.5A1.059,1.059,0,0,1,133.6,278.523Z" transform="translate(-119.809 -261.747)" fill="#c27e4e"/>
        </g>
        <g id="Grupo_1111087" data-name="Grupo 1111087" transform="translate(10.982 10.976)">
          <path id="Trazado_896164" data-name="Trazado 896164" d="M209.408,348.3l-2.808-2.807a1.058,1.058,0,0,1,0,1.5l-1.5,1.5a1.06,1.06,0,0,1-1.5,0l2.808,2.807a1.06,1.06,0,0,0,1.5,0l1.5-1.5A1.058,1.058,0,0,0,209.408,348.3Z" transform="translate(-203.604 -345.492)" fill="#b36d3c"/>
        </g>
      </g>
      <g id="Grupo_1111091" data-name="Grupo 1111091" transform="translate(0 39.663)">
        <g id="Grupo_1111089" data-name="Grupo 1111089">
          <path id="Trazado_896165" data-name="Trazado 896165" d="M85.027,327.064,71.547,313.593a1.059,1.059,0,0,1,0-1.5l1.5-1.5a1.059,1.059,0,0,1,1.5,0L88.022,324.07a1.059,1.059,0,0,1,0,1.5l-1.5,1.5A1.059,1.059,0,0,1,85.027,327.064Z" transform="translate(-71.236 -310.288)" fill="#c27e4e"/>
        </g>
        <g id="Grupo_1111090" data-name="Grupo 1111090" transform="translate(10.982 10.976)">
          <path id="Trazado_896166" data-name="Trazado 896166" d="M160.835,396.84l-2.808-2.807a1.058,1.058,0,0,1,0,1.5l-1.5,1.5a1.06,1.06,0,0,1-1.5,0l2.808,2.807a1.06,1.06,0,0,0,1.5,0l1.5-1.5A1.058,1.058,0,0,0,160.835,396.84Z" transform="translate(-155.031 -394.033)" fill="#b36d3c"/>
        </g>
      </g>
      <g id="Grupo_1111092" data-name="Grupo 1111092" transform="translate(37.452 2.327)">
        <path id="Trazado_896167" data-name="Trazado 896167" d="M375.094,35.176l-2.06,2.058a2.649,2.649,0,0,1-3.745,0L357.457,25.409a4.233,4.233,0,0,0,.786,4.9L369.1,41.163a4.235,4.235,0,0,0,5.991-5.987Z" transform="translate(-357.003 -25.409)" fill="#b36d3c"/>
      </g>
    </g>
    <g id="Grupo_1111094" data-name="Grupo 1111094" transform="translate(6.205 50.156)">
      <ellipse id="Elipse_11987" data-name="Elipse 11987" cx="2.118" cy="2.117" rx="2.118" ry="2.117" fill="#5a5a5a"/>
    </g>
    <g id="Grupo_1111095" data-name="Grupo 1111095" transform="translate(11.248 58.03)">
      <ellipse id="Elipse_11988" data-name="Elipse 11988" cx="2.118" cy="2.117" rx="2.118" ry="2.117" fill="#5a5a5a"/>
    </g>
    <g id="Grupo_1111096" data-name="Grupo 1111096" transform="translate(0.983 61.999)">
      <ellipse id="Elipse_11989" data-name="Elipse 11989" cx="2.118" cy="2.117" rx="2.118" ry="2.117" fill="#5a5a5a"/>
    </g>
    <g id="Grupo_1111097" data-name="Grupo 1111097" transform="translate(0 0.154)">
      <path id="Trazado_896168" data-name="Trazado 896168" d="M120.957,12.533l-.707-.706.427-.427a3.628,3.628,0,0,0,0-5.133l-4.306-4.3a3.636,3.636,0,0,0-5.134,0l-.429.428-.711-.71a5.218,5.218,0,0,0-7.771,6.941l-1.69,1.689a2.044,2.044,0,0,0-2.412.352l-1.5,1.5a2.044,2.044,0,0,0-.355,2.413l-6.725,6.721A16.481,16.481,0,0,1,85.8,24.152L84.235,25a18.447,18.447,0,0,0-4.3,3.2L74.485,33.64a2.046,2.046,0,0,0-2.287.413l-1.5,1.5a2.036,2.036,0,0,0-.417,2.286L68.119,40a2.043,2.043,0,0,0-2.286.413l-1.5,1.5a2.042,2.042,0,0,0,0,2.889L77.816,58.272a2.044,2.044,0,0,0,2.886,0l1.5-1.5a2.038,2.038,0,0,0,.416-2.286l2.166-2.165a2.032,2.032,0,0,0,.843.184h0a2.024,2.024,0,0,0,1.441-.6l1.5-1.5a2.036,2.036,0,0,0,.417-2.287l5.448-5.444a18.452,18.452,0,0,0,3.2-4.3l.844-1.567a16.45,16.45,0,0,1,2.86-3.841l1.026-1.026a.983.983,0,0,0-1.39-1.39l-1.026,1.026a18.414,18.414,0,0,0-3.2,4.3L95.9,37.451a16.491,16.491,0,0,1-2.86,3.841l-5.355,5.352L75.969,34.935l5.354-5.351a16.484,16.484,0,0,1,3.843-2.857l1.568-.844a18.447,18.447,0,0,0,4.3-3.2L97.7,16.023l8.907,8.9-2.393,2.391a.983.983,0,0,0,1.39,1.391l2.456-2.454a2.044,2.044,0,0,0,2.412-.352l1.5-1.5a2.044,2.044,0,0,0,.355-2.413l1.689-1.688a5.218,5.218,0,0,0,6.943-7.771ZM80.811,55.384l-1.5,1.5a.076.076,0,0,1-.107,0L65.725,43.409a.076.076,0,0,1,0-.107l1.5-1.5a.076.076,0,0,1,.107,0L80.811,55.277a.076.076,0,0,1,0,.107Zm6.366-6.362-1.5,1.5a.07.07,0,0,1-.052.022.073.073,0,0,1-.054-.023l-7.66-7.655a.983.983,0,1,0-1.39,1.391L83.3,51.027l-1.98,1.978L69.6,41.3l1.98-1.979,1.694,1.692a.983.983,0,1,0,1.389-1.391l-2.576-2.573a.07.07,0,0,1-.022-.052.071.071,0,0,1,.023-.054l1.5-1.5a.076.076,0,0,1,.108,0L87.176,48.914a.074.074,0,0,1,.023.054.07.07,0,0,1-.023.053Zm25.45-45.667a1.668,1.668,0,0,1,2.355,0l4.306,4.3a1.662,1.662,0,0,1,0,2.352l-.428.428L112.2,3.782Zm-2.045,19.66-1.5,1.5a.076.076,0,0,1-.107,0L98.116,13.659a.076.076,0,0,1,0-.107l1.5-1.5a.075.075,0,0,1,.053-.022.076.076,0,0,1,.054.022l10.86,10.852a.076.076,0,0,1,0,.107Zm8.986-4.489a3.252,3.252,0,0,1-4.6,0l-6.379-6.375a.983.983,0,0,0-1.39,1.391l5.4,5.4-1.6,1.6-8.907-8.9,1.605-1.6.263.263a.983.983,0,0,0,1.389-1.391l-1.237-1.236a3.252,3.252,0,1,1,4.6-4.6l10.86,10.852a3.253,3.253,0,0,1,0,4.6Z" transform="translate(-55.384 -0.154)"/>
      <path id="Trazado_896169" data-name="Trazado 896169" d="M46.052,377.278a3.1,3.1,0,1,0-3.1,3.1A3.1,3.1,0,0,0,46.052,377.278Zm-3.1,1.134a1.134,1.134,0,1,1,1.135-1.134A1.136,1.136,0,0,1,42.95,378.412Z" transform="translate(-34.626 -325.159)"/>
      <path id="Trazado_896170" data-name="Trazado 896170" d="M81.421,434.258a3.1,3.1,0,1,0,3.1,3.1A3.1,3.1,0,0,0,81.421,434.258Zm0,4.234a1.134,1.134,0,1,1,1.135-1.134A1.136,1.136,0,0,1,81.421,438.492Z" transform="translate(-68.055 -377.365)"/>
      <path id="Trazado_896171" data-name="Trazado 896171" d="M3.1,464.543a3.1,3.1,0,1,0,3.1,3.1A3.1,3.1,0,0,0,3.1,464.543Zm0,4.234a1.134,1.134,0,1,1,1.135-1.134A1.136,1.136,0,0,1,3.1,468.777Z" transform="translate(0 -403.68)"/>
    </g>
  </g>
</svg>
