<svg xmlns="http://www.w3.org/2000/svg" xmlns:xlink="http://www.w3.org/1999/xlink" width="72.704" height="72.704" viewBox="0 0 72.704 72.704">
  <defs>
    <clipPath id="clip-path">
      <circle id="Elipse_5074" data-name="Elipse 5074" cx="36.352" cy="36.352" r="36.352" transform="translate(0 0)" fill="#fff"/>
    </clipPath>
    <clipPath id="clip-path-2">
      <rect id="Rectángulo_34556" data-name="Rectángulo 34556" width="106.026" height="72.704" transform="translate(0 0)" fill="#5fb9b7"/>
    </clipPath>
  </defs>
  <g id="_20" data-name="20" transform="translate(-298.941 -4624.257)">
    <g id="Grupo_146944" data-name="Grupo 146944" transform="translate(298.941 4624.257)">
      <circle id="Elipse_5075" data-name="Elipse 5075" cx="35.342" cy="35.342" r="35.342" transform="translate(1.01 1.01)" fill="#ece4d8"/>
      <g id="Enmascarar_grupo_95" data-name="Enmascarar grupo 95" transform="translate(0 0)" clip-path="url(#clip-path)">
        <g id="Grupo_103038" data-name="Grupo 103038" transform="translate(3.883 -19.794)">
          <g id="Enmascarar_grupo_82" data-name="Enmascarar grupo 82" transform="matrix(0.819, -0.574, 0.574, 0.819, 0, 60.814)" clip-path="url(#clip-path-2)">
            <path id="Trazado_159232" data-name="Trazado 159232" d="M3.532,90.4l98.418-3.891a3.854,3.854,0,0,0,3.819-3.389L109.352,3.1A3.146,3.146,0,0,0,105.823,0L7.406,3.894A3.854,3.854,0,0,0,3.586,7.283L0,87.3A3.146,3.146,0,0,0,3.532,90.4Z" transform="translate(19.175 0.483) rotate(17)" fill="#5fb9b7"/>
          </g>
        </g>
      </g>
    </g>
    <circle id="Elipse_11518" data-name="Elipse 11518" cx="28.274" cy="28.274" r="28.274" transform="translate(307.02 4632.334)" fill="#fff"/>
    <g id="Grupo_1111109" data-name="Grupo 1111109" transform="translate(314.97 4638.691)">
      <path id="Trazado_896237" data-name="Trazado 896237" d="M20.1,48.865V47.627a1.241,1.241,0,0,1,1.237-1.237H37.424a1.241,1.241,0,0,1,1.237,1.237v1.237" transform="translate(-6.935 -16.68)" fill="#d6eff8"/>
      <path id="Trazado_896238" data-name="Trazado 896238" d="M40.087,50.39v4.95a1.241,1.241,0,0,1-1.237,1.237H15.337A1.241,1.241,0,0,1,14.1,55.34V50.39" transform="translate(-4.647 -18.205)" fill="#75777a"/>
      <g id="Grupo_1111108" data-name="Grupo 1111108" transform="translate(15.022 34.042)">
        <circle id="Elipse_11998" data-name="Elipse 11998" cx="1.237" cy="1.237" r="1.237" transform="translate(6.187)" fill="#ef9596"/>
        <circle id="Elipse_11999" data-name="Elipse 11999" cx="1.237" cy="1.237" r="1.237" fill="#ef9596"/>
        <circle id="Elipse_12000" data-name="Elipse 12000" cx="1.237" cy="1.237" r="1.237" transform="translate(12.375)" fill="#ef9596"/>
      </g>
      <path id="Trazado_896239" data-name="Trazado 896239" d="M38.323,38.162,38.237,39.4a1.235,1.235,0,0,1-1.324,1.145l-16.05-1.132a1.235,1.235,0,0,1-1.145-1.324L19.8,36.85" transform="translate(-6.788 -13.042)" fill="#75777a"/>
      <rect id="Rectángulo_405063" data-name="Rectángulo 405063" width="6.187" height="2.475" rx="1.237" transform="translate(2.631 21.843) rotate(4.012)" fill="#75777a"/>
      <path id="Trazado_896240" data-name="Trazado 896240" d="M34.236,28.136c-.049.681-.73,2.432-1.411,2.382s-1.108-1.875-1.058-2.555a1.238,1.238,0,1,1,2.469.179Z" transform="translate(-11.382 -9.216)" fill="#a3aab1"/>
      <path id="Trazado_896241" data-name="Trazado 896241" d="M48.52,33c-.514.445-2.234,1.207-2.679.687s.544-2.11,1.058-2.555A1.237,1.237,0,0,1,48.52,33Z" transform="translate(-16.706 -10.748)" fill="#a3aab1"/>
      <path id="Trazado_896242" data-name="Trazado 896242" d="M38.47,31.255a1.237,1.237,0,1,1,1.621,1.869" transform="translate(-13.938 -10.794)" fill="#fcd192"/>
      <path id="Trazado_896243" data-name="Trazado 896243" d="M27.393,30.488a1.237,1.237,0,0,0-1.869,1.621" transform="translate(-8.888 -10.455)" fill="#fcd192"/>
      <rect id="Rectángulo_405064" data-name="Rectángulo 405064" width="6.187" height="9.9" rx="2" transform="translate(34.665 2.723) rotate(45)" fill="#aadff1"/>
      <path id="Trazado_896244" data-name="Trazado 896244" d="M46.5,18.133,44.75,19.884l-2.63-2.623,1.751-1.751" transform="translate(-15.33 -4.906)" fill="#d6eff8"/>
      <path id="Trazado_896245" data-name="Trazado 896245" d="M23.055,21.843l-3.5,3.5L16.49,21.41l2.623-2.63Z" transform="translate(-5.558 -6.153)" fill="#aadff1"/>
      <path id="Trazado_896246" data-name="Trazado 896246" d="M0,0H2.475V4.95H0Z" transform="translate(2.622 6.066) rotate(-45)" fill="#aadff1"/>
      <path id="Trazado_896247" data-name="Trazado 896247" d="M14.575,55.29H38.087a1.862,1.862,0,0,0,1.856-1.856V49.1h.619V47.865H36.231v-.619a1.862,1.862,0,0,0-1.856-1.856H18.287a1.862,1.862,0,0,0-1.856,1.856v.619H12.1V49.1h.619v4.331a1.862,1.862,0,0,0,1.856,1.856Zm3.094-8.044a.621.621,0,0,1,.619-.619H34.374a.621.621,0,0,1,.619.619v.619H17.669ZM13.956,49.1H38.705v4.331a.621.621,0,0,1-.619.619H14.575a.621.621,0,0,1-.619-.619Z" transform="translate(-3.884 -16.298)"/>
      <path id="Trazado_896248" data-name="Trazado 896248" d="M22.432,56.221l.52-.52a1.853,1.853,0,0,0,2.654-1.671,1.865,1.865,0,0,0-.186-.8l.52-.52-.872-.872-.526.526a1.905,1.905,0,0,0-2.1.353,1.839,1.839,0,0,0-.544,1.312,1.865,1.865,0,0,0,.186.8l-.52.52.872.879Zm.879-2.623a.621.621,0,0,1,.879.879.628.628,0,0,1-.872,0,.627.627,0,0,1,0-.879Z" transform="translate(-7.491 -18.757)"/>
      <path id="Trazado_896249" data-name="Trazado 896249" d="M33.575,56.1a1.863,1.863,0,0,0,1.745-1.237h.73V53.627h-.73a1.849,1.849,0,0,0-3.49,0H31.1v1.237h.73A1.85,1.85,0,0,0,33.575,56.1Zm0-2.475a.619.619,0,1,1-.619.619A.621.621,0,0,1,33.575,53.627Z" transform="translate(-11.128 -18.967)"/>
      <path id="Trazado_896250" data-name="Trazado 896250" d="M41.894,54.04A1.859,1.859,0,0,0,43.75,55.9a1.865,1.865,0,0,0,.8-.186l.52.52.872-.872-.52-.52a1.837,1.837,0,0,0-.359-2.11,1.905,1.905,0,0,0-2.1-.353l-.526-.526-.872.872.52.52A1.844,1.844,0,0,0,41.894,54.04Zm1.417-.439a.621.621,0,0,1,.879.879.628.628,0,0,1-.872,0,.627.627,0,0,1,0-.879Z" transform="translate(-15.117 -18.761)"/>
      <path id="Trazado_896251" data-name="Trazado 896251" d="M3.631,36.5l3.706.26h.136a1.817,1.817,0,0,0,1.689-1.114l3.2.229-.043.619a1.831,1.831,0,0,0,.452,1.349,1.868,1.868,0,0,0,1.268.637l16.05,1.132h.136a1.856,1.856,0,0,0,1.85-1.72l.043-.619.619.043.087-1.237L9.255,34.418a1.907,1.907,0,0,0-.384-.724A1.868,1.868,0,0,0,7.6,33.057L3.9,32.8a1.855,1.855,0,1,0-.266,3.7Zm9.962-.538,17.281,1.219-.043.619a.615.615,0,0,1-.662.569l-16.05-1.132a.6.6,0,0,1-.421-.21.625.625,0,0,1-.148-.452l.043-.619ZM3.761,34.028H3.8l3.7.26a.623.623,0,0,1,.365,1.089.616.616,0,0,1-.452.148l-3.706-.26a.619.619,0,0,1,.043-1.237Z" transform="translate(0 -11.495)"/>
      <path id="Trazado_896252" data-name="Trazado 896252" d="M31.048,29.291c.316.928.767,1.417,1.349,1.46h.074c.551,0,1.039-.421,1.46-1.256a5.125,5.125,0,0,0,.532-1.7,1.864,1.864,0,0,0-1.72-1.986,1.864,1.864,0,0,0-1.986,1.72,5.079,5.079,0,0,0,.285,1.757ZM32.2,27.2a.6.6,0,0,1,.4-.148h.043a.614.614,0,0,1,.575.662,3.877,3.877,0,0,1-.742,1.757,3.863,3.863,0,0,1-.489-1.844A.63.63,0,0,1,32.2,27.2Z" transform="translate(-10.996 -8.831)"/>
      <path id="Trazado_896253" data-name="Trazado 896253" d="M46.111,30.289c-.544.47-1.955,2.463-1.12,3.428a1.2,1.2,0,0,0,.965.39,3.338,3.338,0,0,0,1.009-.186,5.087,5.087,0,0,0,1.578-.829,1.859,1.859,0,0,0,.186-2.617,1.831,1.831,0,0,0-1.268-.637A1.857,1.857,0,0,0,46.111,30.289Zm1.621,1.869a3.921,3.921,0,0,1-1.77.718,3.826,3.826,0,0,1,.959-1.652.616.616,0,0,1,.452-.148.6.6,0,0,1,.421.21A.618.618,0,0,1,47.732,32.158Z" transform="translate(-16.326 -10.367)"/>
      <path id="Trazado_896254" data-name="Trazado 896254" d="M40.242,33.214a1.855,1.855,0,1,0-2.432-2.8l.811.934a.618.618,0,0,1,.811.934Z" transform="translate(-13.687 -10.415)"/>
      <path id="Trazado_896255" data-name="Trazado 896255" d="M26.116,30.305a.6.6,0,0,1,.421.21l.934-.811a1.831,1.831,0,0,0-1.268-.637,1.864,1.864,0,0,0-1.986,1.72,1.831,1.831,0,0,0,.452,1.349l.934-.811a.625.625,0,0,1-.148-.452.6.6,0,0,1,.21-.421A.616.616,0,0,1,26.116,30.305Z" transform="translate(-8.502 -10.074)"/>
      <path id="Trazado_896256" data-name="Trazado 896256" d="M0,0H1.237V1.237H0Z" transform="translate(22.977 23.286) rotate(-85.927)"/>
      <path id="Trazado_896257" data-name="Trazado 896257" d="M0,0H1.237V1.237H0Z" transform="translate(18.046 22.905) rotate(-85.988)"/>
      <path id="Trazado_896258" data-name="Trazado 896258" d="M54.1,7.1a1.839,1.839,0,0,0-.544-1.312L50.936,3.167a1.9,1.9,0,0,0-2.623,0L43.059,8.414a1.839,1.839,0,0,0-.544,1.312,1.865,1.865,0,0,0,.186.8l-1.392,1.392a.616.616,0,0,0,0,.872l2.623,2.623a.608.608,0,0,0,.439.179.634.634,0,0,0,.439-.179L46.2,14.019a1.837,1.837,0,0,0,2.11-.359l5.253-5.247A1.839,1.839,0,0,0,54.11,7.1Zm-9.733,7L42.62,12.349l.872-.872,1.751,1.751Zm8.316-6.565-5.253,5.253a.628.628,0,0,1-.872,0l-2.623-2.623a.627.627,0,0,1,0-.879l5.253-5.253a.627.627,0,0,1,.879,0l2.623,2.623a.627.627,0,0,1,0,.879Z" transform="translate(-14.952)"/>
      <path id="Trazado_896259" data-name="Trazado 896259" d="M40.1,22.39h1.237v1.237H40.1Z" transform="translate(-14.56 -7.529)"/>
      <path id="Trazado_896260" data-name="Trazado 896260" d="M42.1,26.39h1.237v1.237H42.1Z" transform="translate(-15.322 -9.054)"/>
      <path id="Trazado_896261" data-name="Trazado 896261" d="M38.1,26.39h1.237v1.237H38.1Z" transform="translate(-13.797 -9.054)"/>
      <path id="Trazado_896262" data-name="Trazado 896262" d="M35.1,22.39h1.237v1.237H35.1Z" transform="translate(-12.654 -7.529)"/>
      <path id="Trazado_896263" data-name="Trazado 896263" d="M10.5,16.284l3.063,3.935a.6.6,0,0,0,.452.235h.037a.623.623,0,0,0,.439-.179l3.5-3.5a.615.615,0,0,0,.179-.476.639.639,0,0,0-.235-.452L14,12.782a.622.622,0,0,0-.817.049l-.872.872L7.938,9.33l.439-.439a.612.612,0,0,0,.179-.439.639.639,0,0,0-.179-.439L4.863,4.528a.616.616,0,0,0-.872,0L2.239,6.279a.612.612,0,0,0-.179.439.639.639,0,0,0,.179.439l3.5,3.5a.608.608,0,0,0,.439.179.634.634,0,0,0,.439-.179l.439-.439L11.434,14.6l-.872.872a.615.615,0,0,0-.049.817ZM6.175,9.342,3.551,6.719l.872-.872L7.047,8.47Zm7.487,4.764,2.951,2.3L14.1,18.908l-2.3-2.951,1.85-1.85Z" transform="translate(-0.056 -0.65)"/>
    </g>
  </g>
</svg>
