<svg xmlns="http://www.w3.org/2000/svg" xmlns:xlink="http://www.w3.org/1999/xlink" width="84" height="84" viewBox="0 0 84 84">
  <defs>
    <clipPath id="clip-path">
      <circle id="Elipse_5074" data-name="Elipse 5074" cx="42" cy="42" r="42" transform="translate(0 0)" fill="#fff"/>
    </clipPath>
    <clipPath id="clip-path-2">
      <rect id="Rectángulo_34556" data-name="Rectángulo 34556" width="122.5" height="84" transform="translate(0 0)" fill="#5fb9b7"/>
    </clipPath>
  </defs>
  <g id="_27" data-name="27" transform="translate(-758.051 -568.765)">
    <g id="Grupo_146944" data-name="Grupo 146944" transform="translate(758.051 568.766)">
      <circle id="Elipse_5075" data-name="Elipse 5075" cx="41" cy="41" r="41" transform="translate(0.999 1)" fill="#ece4d8"/>
      <g id="Enmascarar_grupo_95" data-name="Enmascarar grupo 95" transform="translate(0 0)" clip-path="url(#clip-path)">
        <g id="Grupo_103038" data-name="Grupo 103038" transform="translate(4.487 -22.869)">
          <g id="Enmascarar_grupo_82" data-name="Enmascarar grupo 82" transform="matrix(0.819, -0.574, 0.574, 0.819, 0, 70.263)" clip-path="url(#clip-path-2)">
            <path id="Trazado_159232" data-name="Trazado 159232" d="M4.081,104.448l113.709-4.5a4.453,4.453,0,0,0,4.413-3.915l4.14-92.454c.093-2.07-1.733-3.672-4.077-3.58L8.557,4.5A4.453,4.453,0,0,0,4.144,8.414L0,100.868C-.089,102.938,1.736,104.541,4.081,104.448Z" transform="translate(22.154 0.558) rotate(17)" fill="#5fb9b7"/>
          </g>
        </g>
      </g>
    </g>
    <circle id="Elipse_11518" data-name="Elipse 11518" cx="33" cy="33" r="33" transform="translate(767.051 577.766)" fill="#fff"/>
    <g id="Grupo_1111124" data-name="Grupo 1111124" transform="translate(774.127 577.041)">
      <g id="Grupo_1111122" data-name="Grupo 1111122" transform="translate(0.758 11.717)">
        <path id="Trazado_896264" data-name="Trazado 896264" d="M275.158,93.9c0-1.534-.809-1.534-.809-3.069s.809-1.535.809-3.069-.809-1.534-.809-3.069.809-1.535.809-3.069-.809-1.535-.809-3.069l-3.238-1.583-3.236,1.578c0,1.535-.809,1.535-.809,3.069s.809,1.535.809,3.069-.809,1.534-.809,3.069.809,1.535.809,3.069-.809,1.534-.809,3.069l4.074,2.042,4.017-2.042Z" transform="translate(-240.833 -71.059)" fill="#c8effe"/>
        <path id="Trazado_896265" data-name="Trazado 896265" d="M264.062,51.633h-8.768a.979.979,0,0,1-.979-.979V48.881l5.1-1.853,5.622,1.853v1.773A.979.979,0,0,1,264.062,51.633Z" transform="translate(-229.37 -44.141)" fill="#f9f7f8"/>
        <path id="Trazado_896266" data-name="Trazado 896266" d="M335.18,65.358v1.773a.979.979,0,0,1-.979.979h1.673a.979.979,0,0,0,.979-.979V65.358Z" transform="translate(-301.182 -60.618)" fill="#efedef"/>
        <path id="Trazado_896267" data-name="Trazado 896267" d="M111.291,285.428a18.748,18.748,0,0,1-18.437-15.348L91.787,264.3l19.537-2.266,19.47,2.266-1.067,5.785A18.748,18.748,0,0,1,111.291,285.428Z" transform="translate(-83.268 -237.413)" fill="#f9f7f8"/>
        <path id="Trazado_896268" data-name="Trazado 896268" d="M91.787,284.451l.3,1.645h33.515a2.2,2.2,0,0,1,2.163,2.6l-.284,1.541a18.748,18.748,0,0,1-17.315,15.313c.372.022.745.034,1.122.034a18.748,18.748,0,0,0,18.437-15.348l1.067-5.785H91.787Z" transform="translate(-83.268 -257.568)" fill="#efedef"/>
        <path id="Trazado_896269" data-name="Trazado 896269" d="M137.227,321.671a16.468,16.468,0,0,1-16.195-13.481l-.383-2.075a.6.6,0,0,1,.784-.682c12.355,4.05,18.551-1.523,31.895-.395a.6.6,0,0,1,.544.712l-.45,2.44A16.468,16.468,0,0,1,137.227,321.671Z" transform="translate(-109.204 -275.936)" fill="#c8effe"/>
        <g id="Grupo_1111116" data-name="Grupo 1111116" transform="translate(24.582 28.99)">
          <path id="Trazado_896270" data-name="Trazado 896270" d="M270.266,305.412q-.894-.075-1.746-.112a.6.6,0,0,1,.145.513l-.45,2.44a16.468,16.468,0,0,1-16.195,13.481c-.436,0-.868-.018-1.3-.052a16.472,16.472,0,0,0,19.635-13.118l.45-2.44A.6.6,0,0,0,270.266,305.412Z" transform="translate(-250.724 -305.3)" fill="#99e6fc"/>
        </g>
        <path id="Trazado_896271" data-name="Trazado 896271" d="M44.63,18.459H24.436a6.665,6.665,0,0,0-4.395,1.654l-12.54,11V44.762l16.63-21.019a1.434,1.434,0,0,1,1.124-.544H44.63a1.035,1.035,0,0,0,1.035-1.035v-2.67a1.035,1.035,0,0,0-1.035-1.035Z" transform="translate(-7.501 -18.459)" fill="#685e68"/>
        <g id="Grupo_1111117" data-name="Grupo 1111117" transform="translate(35.057)">
          <path id="Trazado_896272" data-name="Trazado 896272" d="M356.441,18.459H354.37a1.035,1.035,0,0,1,1.035,1.035v2.67A1.035,1.035,0,0,1,354.37,23.2h2.071a1.035,1.035,0,0,0,1.035-1.035V19.494a1.035,1.035,0,0,0-1.035-1.035Z" transform="translate(-354.37 -18.459)" fill="#554e56"/>
        </g>
        <g id="Grupo_1111121" data-name="Grupo 1111121" transform="translate(24.069 29.157)">
          <g id="Grupo_1111120" data-name="Grupo 1111120">
            <g id="Grupo_1111118" data-name="Grupo 1111118">
              <path id="Trazado_896273" data-name="Trazado 896273" d="M251.708,308.7l-.631-.991a1.643,1.643,0,0,0-2.991,1.235l.181.824a.638.638,0,0,1-.88.721,1.241,1.241,0,0,0-1.111,2.216,8.912,8.912,0,0,1,3.549,4.344l4.6-2.067-1.152-3.676Z" transform="translate(-245.647 -306.951)" fill="#05e39c"/>
            </g>
            <g id="Grupo_1111119" data-name="Grupo 1111119" transform="translate(5.185 3.255)">
              <path id="Trazado_896274" data-name="Trazado 896274" d="M303.087,339.578l1.122-.348a1.643,1.643,0,0,1,1.485,2.875l-.67.512a.639.639,0,0,0,.206,1.119,1.241,1.241,0,0,1-.583,2.409,8.911,8.911,0,0,0-5.516,1.023l-2.177-4.551,3.255-2.062Z" transform="translate(-296.953 -339.156)" fill="#05e39c"/>
            </g>
          </g>
          <path id="Trazado_896275" data-name="Trazado 896275" d="M285.843,322.942a1.476,1.476,0,0,1,.728.577.662.662,0,0,0,.735.269,1.482,1.482,0,0,1,1.657.607.662.662,0,0,0,.735.269,1.475,1.475,0,0,1,.928.03l.081.032a1.466,1.466,0,0,1,.578,2.193l-4.066,5.728a2.16,2.16,0,0,1-3.914-1.434l.6-7a1.466,1.466,0,0,1,1.858-1.3Z" transform="translate(-279.492 -321.247)" fill="#00f2a6"/>
        </g>
        <circle id="Elipse_12001" data-name="Elipse 12001" cx="3.031" cy="3.031" r="3.031" transform="translate(19.706 33.508)" fill="#fe5694"/>
        <path id="Trazado_896276" data-name="Trazado 896276" d="M225.994,350.2a3.017,3.017,0,0,0-1.94-.08c.08.024.161.05.24.08a3.031,3.031,0,0,1-.239,5.737,3.031,3.031,0,0,0,1.939-5.737Z" transform="translate(-202.168 -316.49)" fill="#fd3581"/>
        <circle id="Elipse_12002" data-name="Elipse 12002" cx="3.031" cy="3.031" r="3.031" transform="translate(23.295 35.699)" fill="#fe5694"/>
        <path id="Trazado_896277" data-name="Trazado 896277" d="M261.508,371.877a3.017,3.017,0,0,0-1.94-.08c.08.023.161.05.24.08a3.031,3.031,0,0,1-.239,5.737,3.031,3.031,0,0,0,1.939-5.737Z" transform="translate(-234.092 -335.975)" fill="#fd3581"/>
        <path id="Trazado_896278" data-name="Trazado 896278" d="M108.231,248.464H66.246a1.216,1.216,0,0,1-1.216-1.216v-1.615a1.216,1.216,0,0,1,1.216-1.216h41.985a1.216,1.216,0,0,1,1.216,1.216v1.615A1.216,1.216,0,0,1,108.231,248.464Z" transform="translate(-59.216 -221.581)" fill="#f9f7f8"/>
        <path id="Trazado_896279" data-name="Trazado 896279" d="M474.66,244.418h-2a1.216,1.216,0,0,1,1.216,1.216v1.615a1.216,1.216,0,0,1-1.216,1.216h2a1.216,1.216,0,0,0,1.216-1.216v-1.615a1.216,1.216,0,0,0-1.216-1.216Z" transform="translate(-425.645 -221.581)" fill="#efedef"/>
        <path id="Trazado_896280" data-name="Trazado 896280" d="M276.118,92.593l-6.474-.005a3.864,3.864,0,0,1-.61,1.959h7.691A3.844,3.844,0,0,1,276.118,92.593Z" transform="translate(-242.602 -85.096)" fill="#99e6fc"/>
      </g>
      <g id="Grupo_1111123" data-name="Grupo 1111123" transform="translate(0 10.959)">
        <path id="Trazado_896281" data-name="Trazado 896281" d="M130.482,315.672a17.226,17.226,0,0,0,16.94-14.1l.45-2.44a1.363,1.363,0,0,0-1.225-1.6,52.89,52.89,0,0,0-14.222.926,2.4,2.4,0,0,0-4.081.635,28.57,28.57,0,0,1-13.419-1.131,1.362,1.362,0,0,0-1.765,1.54l.383,2.075A17.226,17.226,0,0,0,130.482,315.672Zm8.316-9.86a1.39,1.39,0,0,0,.976,1.086.486.486,0,0,1,.346.466.472.472,0,0,1-.172.364.494.494,0,0,1-.408.106,8.145,8.145,0,0,0-3.047.059l2.446-3.445a2.245,2.245,0,0,0,.333-1.911q-.022-.079-.05-.156a.885.885,0,0,1,.772,1.557l-.67.512a1.39,1.39,0,0,0-.526,1.362Zm-.987-2.868a.735.735,0,0,1-.108.626l-4.066,5.728a1.406,1.406,0,0,1-1.579.521,3.792,3.792,0,0,0-.686-4.68l.322-3.771a.735.735,0,0,1,.322-.548.682.682,0,0,1,.959.2,1.424,1.424,0,0,0,1.583.58.724.724,0,0,1,.809.3,1.425,1.425,0,0,0,1.583.58A.682.682,0,0,1,137.812,302.944Zm-11.883.622a2.271,2.271,0,0,1,1.19.94,3.765,3.765,0,0,0-1.3,1.041,2.219,2.219,0,0,1-.107-.535.758.758,0,0,0-1.516.043,3.075,3.075,0,0,0,.879,2.077,3.755,3.755,0,0,0-.079.85,2.273,2.273,0,1,1,.932-4.416Zm.736,3.525a2.273,2.273,0,1,1,.043,1.739A2.258,2.258,0,0,1,126.665,307.091Zm3.445-7.867a.89.89,0,0,1,1.193.255q-.07.041-.139.087a2.245,2.245,0,0,0-.981,1.674l-.261,3.055a3.77,3.77,0,0,0-1.291-.173,3.78,3.78,0,0,0-1.2-1.459.486.486,0,0,1,.526-.091,1.4,1.4,0,0,0,1.925-1.578l-.181-.824a.886.886,0,0,1,.4-.944Zm-15.413.251a29.808,29.808,0,0,0,13.559,1.151l.1.477a2,2,0,0,0-2.329.919,3.84,3.84,0,0,0-3.8,1.338,2.215,2.215,0,0,1-.109-.539.758.758,0,0,0-1.516.043,3.076,3.076,0,0,0,.878,2.076,3.752,3.752,0,0,0,.2,2.206,3.792,3.792,0,0,0,3.508,2.361q.078,0,.157,0a3.785,3.785,0,0,0,5.64,1.484,2.921,2.921,0,0,0,3.883-.813l.191-.268a7.518,7.518,0,0,1,4.209-.58,2.012,2.012,0,0,0,1.644-.433,1.989,1.989,0,0,0,.718-1.52,2.011,2.011,0,0,0-1.218-1.852l.5-.379a2.4,2.4,0,0,0-2.17-4.2l-.65.2c-.052-.024-.106-.047-.172-.071a2.222,2.222,0,0,0-1.332-.065,2.24,2.24,0,0,0-2.391-.876,2.23,2.23,0,0,0-.338-.38,48.828,48.828,0,0,1,12.49-.728l-.419,2.273a15.71,15.71,0,0,1-30.9,0Z" transform="translate(-101.701 -268.42)"/>
        <path id="Trazado_896282" data-name="Trazado 896282" d="M282.16,35.924a.758.758,0,0,0,0-1.516h-4.68a.758.758,0,1,0,0,1.516Z" transform="translate(-248.754 -32.038)"/>
        <path id="Trazado_896283" data-name="Trazado 896283" d="M49.773,33.8H43.361a.758.758,0,1,0,0,1.516h6.412a.458.458,0,0,1,.458.458v1.615a.458.458,0,0,1-.458.458H7.788a.458.458,0,0,1-.458-.458V35.77a.458.458,0,0,1,.458-.458c1.181,0,31.462,0,32.642,0a.758.758,0,1,0,0-1.516H35.774a3.742,3.742,0,0,0-.424-1.125,2.36,2.36,0,0,1,0-2.362,3.87,3.87,0,0,0,0-3.776,2.36,2.36,0,0,1,0-2.362,3.871,3.871,0,0,0,0-3.776,3.428,3.428,0,0,1-.2-.428h.3a1.739,1.739,0,0,0,1.737-1.737V17.215h.7a1.8,1.8,0,0,0,1.793-1.793V12.752a1.8,1.8,0,0,0-1.793-1.793H22.132a.758.758,0,1,0,0,1.516H37.887a.277.277,0,0,1,.277.277v2.671a.277.277,0,0,1-.277.277H18.513a2.18,2.18,0,0,0-1.719.832L.164,37.55a.758.758,0,1,0,1.189.941l16.63-21.019a.672.672,0,0,1,.53-.257h6.433V18.23a1.739,1.739,0,0,0,1.737,1.737h.244a3.482,3.482,0,0,1-.2.423,3.871,3.871,0,0,0,0,3.776,2.36,2.36,0,0,1,0,2.362,3.87,3.87,0,0,0,0,3.776,2.36,2.36,0,0,1,0,2.362A3.737,3.737,0,0,0,26.3,33.8H7.788A1.976,1.976,0,0,0,5.815,35.77v1.615a1.976,1.976,0,0,0,1.974,1.974h.858L9.6,44.522a19.586,19.586,0,0,0,3.616,8.218.758.758,0,1,0,1.209-.914,17.813,17.813,0,0,1-3.335-7.579l-.9-4.889H47.374l-.9,4.889a17.989,17.989,0,0,1-30.178,9.687.758.758,0,1,0-1.052,1.092,19.505,19.505,0,0,0,32.721-10.5l.952-5.164h.858a1.976,1.976,0,0,0,1.974-1.974V35.77A1.976,1.976,0,0,0,49.773,33.8ZM26.461,18.23V17.215H35.67V18.23a.221.221,0,0,1-.221.221H26.682A.221.221,0,0,1,26.461,18.23ZM28.067,29.6a2.36,2.36,0,0,1,0-2.362,3.871,3.871,0,0,0,0-3.776,2.36,2.36,0,0,1,0-2.363,3.741,3.741,0,0,0,.425-1.129l5.09,0a3.742,3.742,0,0,0,.425,1.131,2.36,2.36,0,0,1,0,2.363,3.871,3.871,0,0,0,0,3.776,2.36,2.36,0,0,1,0,2.362,3.87,3.87,0,0,0,0,3.776,3.528,3.528,0,0,1,.2.418H27.867a3.463,3.463,0,0,1,.2-.423,3.87,3.87,0,0,0,0-3.776Z" transform="translate(0 -10.959)"/>
        <path id="Trazado_896284" data-name="Trazado 896284" d="M.759,25.125a.755.755,0,0,0,.5-.188l12.541-11a5.9,5.9,0,0,1,3.895-1.466H19.2a.758.758,0,0,0,0-1.516H17.693A7.42,7.42,0,0,0,12.8,12.8L.259,23.8a.758.758,0,0,0,.5,1.328Z" transform="translate(0 -10.959)"/>
        <path id="Trazado_896285" data-name="Trazado 896285" d="M285.187,116.849a.757.757,0,0,0,1.012-.352l.222-.46a.758.758,0,1,0-1.365-.66l-.222.46A.758.758,0,0,0,285.187,116.849Z" transform="translate(-255.979 -104.439)"/>
        <path id="Trazado_896286" data-name="Trazado 896286" d="M310.942,156.768a.758.758,0,1,0,1.141-1l-.234-.267a.758.758,0,0,0-1.141,1Z" transform="translate(-279.138 -140.661)"/>
        <path id="Trazado_896287" data-name="Trazado 896287" d="M295.05,198.409l-.367.434a.758.758,0,1,0,1.157.979l.367-.434a.758.758,0,1,0-1.157-.979Z" transform="translate(-264.739 -179.223)"/>
        <path id="Trazado_896288" data-name="Trazado 896288" d="M333.076,425.919a.755.755,0,0,0,.264-.048l.668-.248a.758.758,0,0,0-.528-1.421l-.668.248a.758.758,0,0,0,.264,1.469Z" transform="translate(-298.731 -382.394)"/>
        <path id="Trazado_896289" data-name="Trazado 896289" d="M172.661,384.951v-.808a.758.758,0,0,0-1.516,0v.808a.758.758,0,0,0,1.516,0Z" transform="translate(-153.848 -345.745)"/>
        <path id="Trazado_896290" data-name="Trazado 896290" d="M145.862,335.653a.758.758,0,0,0-.14-1.063l-.668-.512a.758.758,0,1,0-.922,1.2l.668.512a.758.758,0,0,0,1.063-.14Z" transform="translate(-129.298 -301.281)"/>
        <path id="Trazado_896291" data-name="Trazado 896291" d="M397.589,321.576a.758.758,0,0,0,1.242-.869l-.234-.334a.758.758,0,0,0-1.242.87Z" transform="translate(-357.072 -288.81)"/>
        <path id="Trazado_896292" data-name="Trazado 896292" d="M161.928,359.336a.758.758,0,0,0-.983-.427l-.551.217a.758.758,0,1,0,.555,1.411l.551-.217A.758.758,0,0,0,161.928,359.336Z" transform="translate(-143.751 -323.694)"/>
      </g>
    </g>
  </g>
</svg>
