<svg xmlns="http://www.w3.org/2000/svg" xmlns:xlink="http://www.w3.org/1999/xlink" width="84" height="84" viewBox="0 0 84 84">
  <defs>
    <clipPath id="clip-path">
      <circle id="Elipse_5074" data-name="Elipse 5074" cx="42" cy="42" r="42" transform="translate(0 0)" fill="#fff"/>
    </clipPath>
    <clipPath id="clip-path-2">
      <rect id="Rectángulo_34556" data-name="Rectángulo 34556" width="122.5" height="84" transform="translate(0 0)" fill="#5fb9b7"/>
    </clipPath>
  </defs>
  <g id="_28" data-name="28" transform="translate(-1179.051 -568.765)">
    <g id="Grupo_146944" data-name="Grupo 146944" transform="translate(1179.051 568.766)">
      <circle id="Elipse_5075" data-name="Elipse 5075" cx="41" cy="41" r="41" transform="translate(0.999 1)" fill="#ece4d8"/>
      <g id="Enmascarar_grupo_95" data-name="Enmascarar grupo 95" transform="translate(0 0)" clip-path="url(#clip-path)">
        <g id="Grupo_103038" data-name="Grupo 103038" transform="translate(4.487 -22.869)">
          <g id="Enmascarar_grupo_82" data-name="Enmascarar grupo 82" transform="matrix(0.819, -0.574, 0.574, 0.819, 0, 70.263)" clip-path="url(#clip-path-2)">
            <path id="Trazado_159232" data-name="Trazado 159232" d="M4.081,104.448l113.709-4.5a4.453,4.453,0,0,0,4.413-3.915l4.14-92.454c.093-2.07-1.733-3.672-4.077-3.58L8.557,4.5A4.453,4.453,0,0,0,4.144,8.414L0,100.868C-.089,102.938,1.736,104.541,4.081,104.448Z" transform="translate(22.154 0.558) rotate(17)" fill="#5fb9b7"/>
          </g>
        </g>
      </g>
    </g>
    <circle id="Elipse_11518" data-name="Elipse 11518" cx="33" cy="33" r="33" transform="translate(1188.051 577.766)" fill="#fff"/>
    <g id="Grupo_1111126" data-name="Grupo 1111126" transform="translate(1195.5 584.5)">
      <path id="Trazado_896293" data-name="Trazado 896293" d="M42.9,9.676c-.458-.395-.916-.782-1.374-1.176h-30c-.458.395-.916.789-1.374,1.176A11.888,11.888,0,0,0,6,18.708v2.424H47.053V18.708A11.889,11.889,0,0,0,42.9,9.676Z" transform="translate(-1.263 -1.053)" fill="#d8e0eb"/>
      <path id="Trazado_896294" data-name="Trazado 896294" d="M13,4.5H43V7.658H13Z" transform="translate(-2.737 -0.211)" fill="#cad1e1"/>
      <path id="Trazado_896295" data-name="Trazado 896295" d="M49.947,46.466v5.542a1.971,1.971,0,0,1-1.966,1.966H2.966A1.971,1.971,0,0,1,1,52.008V46.466A1.971,1.971,0,0,1,2.966,44.5H47.982A1.971,1.971,0,0,1,49.947,46.466Z" transform="translate(-0.211 -8.632)" fill="#636a74"/>
      <path id="Trazado_896296" data-name="Trazado 896296" d="M47.053,24.5v2.368H6V24.5H47.053Z" transform="translate(-1.263 -4.421)" fill="#e6ecf4"/>
      <path id="Trazado_896297" data-name="Trazado 896297" d="M47.684,13.226v2.432H39V13.226a.724.724,0,0,1,.726-.726h7.232a.724.724,0,0,1,.726.726Z" transform="translate(-8.211 -1.895)" fill="#a05454"/>
      <path id="Trazado_896298" data-name="Trazado 896298" d="M36.4,30.5H46.65a1.725,1.725,0,0,0-.284.024,6.583,6.583,0,0,0-3.308,1.705,5.849,5.849,0,0,0-1.713,3.4,4.776,4.776,0,0,0-.063.995,4.714,4.714,0,0,0,1.137,3.316,4.869,4.869,0,0,0,.821.758,4.494,4.494,0,0,0,2.645.853H35.637a4.542,4.542,0,0,1-2.661-.853,4.869,4.869,0,0,1-.821-.758,4.714,4.714,0,0,1-1.137-3.316,5.964,5.964,0,0,1,1.776-4.4,6.493,6.493,0,0,1,3.308-1.7,1.338,1.338,0,0,1,.3-.032Z" transform="translate(-6.529 -5.684)" fill="#f3445a"/>
      <path id="Trazado_896299" data-name="Trazado 896299" d="M7,56.5H46.474v2.368H7Z" transform="translate(-1.474 -11.158)" fill="#4d5662"/>
      <path id="Trazado_896300" data-name="Trazado 896300" d="M39,16.5h8.684v3.158H39Z" transform="translate(-8.211 -2.737)" fill="#914747"/>
      <path id="Trazado_896301" data-name="Trazado 896301" d="M39,20.5h8.684v3.158H39Z" transform="translate(-8.211 -3.579)" fill="#a05454"/>
      <path id="Trazado_896302" data-name="Trazado 896302" d="M52.276,35.86a4.523,4.523,0,0,0-.821-1.216,2.907,2.907,0,0,1-.726-1.247c-.016-.071-.032-.134-.047-.205a3.736,3.736,0,0,1-.016-1.255,1.2,1.2,0,0,0-.292-1.026.893.893,0,0,0-.087-.087l-.006,0a.008.008,0,0,1,0-.006,1.321,1.321,0,0,0-.884-.316h-.008a1.728,1.728,0,0,0-.284.024,6.583,6.583,0,0,0-3.308,1.705,5.849,5.849,0,0,0-1.713,3.4,4.783,4.783,0,0,0-.063.995,4.715,4.715,0,0,0,1.137,3.316,4.864,4.864,0,0,0,.821.758,4.494,4.494,0,0,0,2.645.853,4.192,4.192,0,0,0,1.176-.166,3.913,3.913,0,0,0,2.455-1.934,3.971,3.971,0,0,0,.024-3.592Z" transform="translate(-9.266 -5.684)" fill="#ff5666"/>
      <g id="Grupo_1111125" data-name="Grupo 1111125" transform="translate(8.684 12.974)">
        <path id="Trazado_896303" data-name="Trazado 896303" d="M20.158,17.079v1.579a1.579,1.579,0,1,1-3.158,0V17.079a1.579,1.579,0,0,1,3.158,0Z" transform="translate(-12.263 -15.5)" fill="#a05454"/>
        <path id="Trazado_896304" data-name="Trazado 896304" d="M32.158,17.079v1.579a1.579,1.579,0,1,1-3.158,0V17.079a1.579,1.579,0,0,1,3.158,0Z" transform="translate(-14.789 -15.5)" fill="#a05454"/>
        <path id="Trazado_896305" data-name="Trazado 896305" d="M26.158,20.079v1.579a1.579,1.579,0,1,1-3.158,0V20.079a1.579,1.579,0,0,1,3.158,0Z" transform="translate(-13.526 -16.132)" fill="#a05454"/>
        <path id="Trazado_896306" data-name="Trazado 896306" d="M14.158,20.079v1.579a1.579,1.579,0,0,1-3.158,0V20.079a1.579,1.579,0,0,1,3.158,0Z" transform="translate(-11 -16.132)" fill="#a05454"/>
      </g>
      <path id="Trazado_896307" data-name="Trazado 896307" d="M6,27.5V40.921h7.76a4.526,4.526,0,0,1-2.637-.853,4.581,4.581,0,0,1-.821-.758,4.735,4.735,0,0,1-1.145-3.316A5.728,5.728,0,0,1,9.229,35a5.849,5.849,0,0,1,1.713-3.4,6.566,6.566,0,0,1,3.3-1.705,1.388,1.388,0,0,1,1.176.292l.006,0a.008.008,0,0,1,0,.006.9.9,0,0,1,.087.087,1.253,1.253,0,0,1,.292.576,6.586,6.586,0,0,1,2.384-.955,1.365,1.365,0,0,1,1.176.284.008.008,0,0,0,0,.006l.006,0,.087.087a1.233,1.233,0,0,1,.3,1.026,3.514,3.514,0,0,0,.008,1.255c.016.071.032.134.047.205a2.907,2.907,0,0,0,.726,1.247,4.523,4.523,0,0,1,.821,1.216,3.963,3.963,0,0,1-.024,3.6,3.659,3.659,0,0,1-.939,1.145,4.054,4.054,0,0,1-1.508.782,4.248,4.248,0,0,1-1.184.166H30.371a4.541,4.541,0,0,1-2.66-.853,4.864,4.864,0,0,1-.821-.758,4.715,4.715,0,0,1-1.137-3.316,5.965,5.965,0,0,1,1.776-4.4,6.492,6.492,0,0,1,3.308-1.7,1.338,1.338,0,0,1,.3-.032H41.392a1.321,1.321,0,0,1,.884.316.008.008,0,0,0,0,.006l.006,0a.893.893,0,0,1,.087.087,1.2,1.2,0,0,1,.292,1.026,3.736,3.736,0,0,0,.016,1.255c.016.071.032.134.047.205a2.907,2.907,0,0,0,.726,1.247,4.523,4.523,0,0,1,.821,1.216,3.971,3.971,0,0,1-.024,3.592,3.913,3.913,0,0,1-2.455,1.934,4.193,4.193,0,0,1-1.176.166h6.434V27.5Z" transform="translate(-1.263 -5.053)" fill="#d8e0eb"/>
      <path id="Trazado_896308" data-name="Trazado 896308" d="M17.014,44.21a4.29,4.29,0,0,1-1.184.166h3.947a4.513,4.513,0,0,1-1.989-.466,3.413,3.413,0,0,1-.774.3Z" transform="translate(-3.333 -8.507)" fill="#d8e0eb"/>
      <path id="Trazado_896309" data-name="Trazado 896309" d="M15.217,40.09c-.047-.047-.087-.095-.134-.142a4.725,4.725,0,0,1-1.1-2.432,4.3,4.3,0,0,1-.039-.892,5.443,5.443,0,0,1,.063-.995,5.946,5.946,0,0,1,1.713-3.4,6.445,6.445,0,0,1,.924-.742,1.253,1.253,0,0,0-.292-.576.9.9,0,0,0-.087-.087.008.008,0,0,0,0-.006l-.006,0a1.388,1.388,0,0,0-1.176-.292,6.566,6.566,0,0,0-3.3,1.705,5.849,5.849,0,0,0-1.713,3.4,5.728,5.728,0,0,0-.071.995,4.735,4.735,0,0,0,1.145,3.316,4.581,4.581,0,0,0,.821.758,4.526,4.526,0,0,0,2.637.853,4.289,4.289,0,0,0,1.184-.166,3.413,3.413,0,0,0,.774-.3,3.6,3.6,0,0,1-.647-.387A5.467,5.467,0,0,1,15.217,40.09Z" transform="translate(-2.104 -5.683)" fill="#f3445a"/>
      <path id="Trazado_896310" data-name="Trazado 896310" d="M23.256,35.86a4.523,4.523,0,0,0-.821-1.216,2.907,2.907,0,0,1-.726-1.247c-.016-.071-.032-.134-.047-.205a3.514,3.514,0,0,1-.008-1.255,1.233,1.233,0,0,0-.3-1.026l-.087-.087-.006,0a.008.008,0,0,1,0-.006,1.365,1.365,0,0,0-1.176-.284,6.586,6.586,0,0,0-2.384.955,6.445,6.445,0,0,0-.924.742,5.946,5.946,0,0,0-1.713,3.4,5.443,5.443,0,0,0-.063.995,4.3,4.3,0,0,0,.039.892,4.725,4.725,0,0,0,1.1,2.432c.047.047.087.095.134.142a5.467,5.467,0,0,0,.695.608,3.6,3.6,0,0,0,.647.387,4.513,4.513,0,0,0,1.989.466,4.248,4.248,0,0,0,1.184-.166,4.054,4.054,0,0,0,1.508-.782,3.659,3.659,0,0,0,.939-1.145A3.963,3.963,0,0,0,23.256,35.86Z" transform="translate(-3.156 -5.684)" fill="#ff5666"/>
      <path id="Trazado_896311" data-name="Trazado 896311" d="M46.263,59.447H6.789A.789.789,0,0,1,6,58.658V56.289a.789.789,0,1,1,1.579,0v1.579H45.474V56.289a.789.789,0,1,1,1.579,0v2.368a.789.789,0,0,1-.789.789Z" transform="translate(-1.263 -10.947)"/>
      <path id="Trazado_896312" data-name="Trazado 896312" d="M47.767,54.553H2.759A2.763,2.763,0,0,1,0,51.793V46.259A2.763,2.763,0,0,1,2.759,43.5H47.767a2.763,2.763,0,0,1,2.759,2.759v5.534A2.763,2.763,0,0,1,47.767,54.553ZM2.759,45.079a1.182,1.182,0,0,0-1.18,1.18v5.534a1.182,1.182,0,0,0,1.18,1.18H47.767a1.182,1.182,0,0,0,1.18-1.18V46.259a1.182,1.182,0,0,0-1.18-1.18Z" transform="translate(0 -8.421)"/>
      <path id="Trazado_896313" data-name="Trazado 896313" d="M5.789,37.5A.789.789,0,0,1,5,36.71V18.494A12.661,12.661,0,0,1,9.428,8.868L10.8,7.69a.791.791,0,0,1,.514-.19h30a.791.791,0,0,1,.514.19L43.2,8.868a12.66,12.66,0,0,1,4.427,9.625V36.71a.789.789,0,1,1-1.579,0V18.493a11.082,11.082,0,0,0-3.876-8.426l-1.153-.989H11.608l-1.153.988a11.083,11.083,0,0,0-3.876,8.427V36.71a.789.789,0,0,1-.789.789Z" transform="translate(-1.053 -0.842)"/>
      <path id="Trazado_896314" data-name="Trazado 896314" d="M46.842,25.079H5.789a.789.789,0,1,1,0-1.579H46.842a.789.789,0,1,1,0,1.579Z" transform="translate(-1.053 -4.211)"/>
      <path id="Trazado_896315" data-name="Trazado 896315" d="M45.683,49.079H7.789a.789.789,0,1,1,0-1.579H45.683a.789.789,0,1,1,0,1.579Z" transform="translate(-1.474 -9.263)"/>
      <path id="Trazado_896316" data-name="Trazado 896316" d="M45.684,53.079H7.79a.789.789,0,1,1,0-1.579H45.684a.789.789,0,1,1,0,1.579Z" transform="translate(-1.474 -10.105)"/>
      <path id="Trazado_896317" data-name="Trazado 896317" d="M48.408,42.129a5.287,5.287,0,0,1-3.1-1,5.618,5.618,0,0,1-.955-.877,5.532,5.532,0,0,1-1.331-3.879,6.791,6.791,0,0,1,2.015-4.92,7.289,7.289,0,0,1,3.707-1.91,2.171,2.171,0,0,1,1.839.464c.018.016.039.034.054.049s.069.066.109.109a2,2,0,0,1,.493,1.691,2.832,2.832,0,0,0,.012.978c.011.055.023.108.035.16a2.117,2.117,0,0,0,.538.9,4.991,4.991,0,0,1,.919,5.719A4.587,4.587,0,0,1,51.609,41a4.994,4.994,0,0,1-3.2,1.129Zm.778-11.051a.743.743,0,0,0-.142.014,5.719,5.719,0,0,0-2.907,1.49,5.216,5.216,0,0,0-1.54,3.809,3.985,3.985,0,0,0,.948,2.827,4.086,4.086,0,0,0,.687.63,3.6,3.6,0,0,0,4.368-.061,3.049,3.049,0,0,0,.748-.912,3.417,3.417,0,0,0-.678-3.9,3.665,3.665,0,0,1-.917-1.6c-.021-.082-.039-.164-.055-.248a4.39,4.39,0,0,1-.019-1.526.43.43,0,0,0-.1-.365l-.041-.039a.538.538,0,0,0-.355-.118Z" transform="translate(-9.055 -5.473)"/>
      <path id="Trazado_896318" data-name="Trazado 896318" d="M49.608,43.34a.789.789,0,0,1-.725-.475l-1.537-3.534-3.8-1.831a.79.79,0,1,1,.685-1.423l4.068,1.958a.791.791,0,0,1,.382.4l1.655,3.8a.79.79,0,0,1-.723,1.1Z" transform="translate(-9.073 -6.842)"/>
      <path id="Trazado_896319" data-name="Trazado 896319" d="M49.038,39.6a.789.789,0,0,1-.305-1.517l4.135-1.732a.789.789,0,1,1,.611,1.456l-4.135,1.732A.78.78,0,0,1,49.038,39.6Z" transform="translate(-10.158 -6.902)"/>
      <path id="Trazado_896320" data-name="Trazado 896320" d="M35.422,42.131a5.326,5.326,0,0,1-3.122-1,5.645,5.645,0,0,1-.952-.877,5.485,5.485,0,0,1-1.329-3.883,6.721,6.721,0,0,1,2.013-4.914,7.317,7.317,0,0,1,3.713-1.907,1.975,1.975,0,0,1,.446-.045H46.446a.789.789,0,1,1,0,1.579H36.19a.569.569,0,0,0-.12.011,5.762,5.762,0,0,0-2.934,1.492,5.162,5.162,0,0,0-1.54,3.8,4.013,4.013,0,0,0,.946,2.829,4.061,4.061,0,0,0,.685.633,3.768,3.768,0,0,0,2.232.7H45.8a.789.789,0,0,1,0,1.579H35.422Z" transform="translate(-6.318 -5.473)"/>
      <path id="Trazado_896321" data-name="Trazado 896321" d="M12.368,23.815A2.371,2.371,0,0,1,10,21.446V19.867a2.368,2.368,0,0,1,4.737,0v1.579a2.371,2.371,0,0,1-2.368,2.368Zm0-4.737a.79.79,0,0,0-.789.789v1.579a.789.789,0,1,0,1.579,0V19.867A.79.79,0,0,0,12.368,19.078Z" transform="translate(-2.105 -2.947)"/>
      <path id="Trazado_896322" data-name="Trazado 896322" d="M12.579,18.446a.789.789,0,0,1-.789-.789l-.032-1.283-.527-.528a.789.789,0,1,1,1.118-1.115l.789.789a.789.789,0,0,1,.231.558v1.579a.789.789,0,0,1-.789.789Z" transform="translate(-2.316 -2.316)"/>
      <path id="Trazado_896323" data-name="Trazado 896323" d="M12.79,16.867a.789.789,0,0,1-.558-1.348l.789-.789a.789.789,0,1,1,1.116,1.116l-.789.789A.787.787,0,0,1,12.79,16.867Z" transform="translate(-2.526 -2.316)"/>
      <path id="Trazado_896324" data-name="Trazado 896324" d="M18.368,20.815A2.371,2.371,0,0,1,16,18.446V16.867a2.368,2.368,0,0,1,4.737,0v1.579a2.371,2.371,0,0,1-2.368,2.368Zm0-4.737a.79.79,0,0,0-.789.789v1.579a.789.789,0,0,0,1.579,0V16.867A.79.79,0,0,0,18.368,16.078Z" transform="translate(-3.368 -2.316)"/>
      <path id="Trazado_896325" data-name="Trazado 896325" d="M19.579,24.446a.787.787,0,0,1-.558-.231l-.79-.79A.788.788,0,0,1,18,22.867V21.288a.789.789,0,1,1,1.579,0v1.252l.558.558a.789.789,0,0,1-.558,1.348Z" transform="translate(-3.789 -3.579)"/>
      <path id="Trazado_896326" data-name="Trazado 896326" d="M17.79,24.867a.789.789,0,0,1-.558-1.348l.789-.789a.789.789,0,1,1,1.116,1.116l-.789.789a.787.787,0,0,1-.558.231Z" transform="translate(-3.579 -4)"/>
      <path id="Trazado_896327" data-name="Trazado 896327" d="M24.368,23.815A2.371,2.371,0,0,1,22,21.446V19.867a2.368,2.368,0,0,1,4.737,0v1.579a2.371,2.371,0,0,1-2.368,2.368Zm0-4.737a.79.79,0,0,0-.789.789v1.579a.789.789,0,1,0,1.579,0V19.867A.79.79,0,0,0,24.368,19.078Z" transform="translate(-4.632 -2.947)"/>
      <path id="Trazado_896328" data-name="Trazado 896328" d="M24.579,18.446a.789.789,0,0,1-.789-.789l-.032-1.283-.527-.528a.789.789,0,1,1,1.118-1.115l.789.789a.789.789,0,0,1,.231.558v1.579a.789.789,0,0,1-.789.789Z" transform="translate(-4.842 -2.316)"/>
      <path id="Trazado_896329" data-name="Trazado 896329" d="M24.79,16.867a.789.789,0,0,1-.558-1.348l.789-.789a.789.789,0,1,1,1.116,1.116l-.789.789a.787.787,0,0,1-.558.231Z" transform="translate(-5.053 -2.316)"/>
      <path id="Trazado_896330" data-name="Trazado 896330" d="M30.368,20.815A2.371,2.371,0,0,1,28,18.446V16.867a2.368,2.368,0,1,1,4.737,0v1.579A2.371,2.371,0,0,1,30.368,20.815Zm0-4.737a.79.79,0,0,0-.789.789v1.579a.789.789,0,0,0,1.579,0V16.867A.79.79,0,0,0,30.368,16.078Z" transform="translate(-5.895 -2.316)"/>
      <path id="Trazado_896331" data-name="Trazado 896331" d="M31.579,24.446a.787.787,0,0,1-.558-.231l-.79-.79A.788.788,0,0,1,30,22.867V21.288a.789.789,0,1,1,1.579,0v1.252l.558.558a.789.789,0,0,1-.558,1.348Z" transform="translate(-6.316 -3.579)"/>
      <path id="Trazado_896332" data-name="Trazado 896332" d="M29.79,24.867a.789.789,0,0,1-.558-1.348l.789-.789a.789.789,0,1,1,1.116,1.116l-.789.789a.787.787,0,0,1-.558.231Z" transform="translate(-6.105 -4)"/>
      <path id="Trazado_896333" data-name="Trazado 896333" d="M47.474,22.553a.789.789,0,0,1-.789-.789V13.079H39.579v8.684a.789.789,0,1,1-1.579,0V13.018A1.519,1.519,0,0,1,39.518,11.5h7.227a1.519,1.519,0,0,1,1.518,1.518v8.745a.789.789,0,0,1-.789.789Z" transform="translate(-8 -1.684)"/>
      <path id="Trazado_896334" data-name="Trazado 896334" d="M47.474,21.079H38.789a.789.789,0,1,1,0-1.579h8.684a.789.789,0,0,1,0,1.579Z" transform="translate(-8 -3.368)"/>
      <path id="Trazado_896335" data-name="Trazado 896335" d="M47.474,17.079H38.789a.789.789,0,1,1,0-1.579h8.684a.789.789,0,1,1,0,1.579Z" transform="translate(-8 -2.526)"/>
      <path id="Trazado_896336" data-name="Trazado 896336" d="M14.388,42.13a5.341,5.341,0,0,1-4.061-1.892A5.491,5.491,0,0,1,9,36.38a6.314,6.314,0,0,1,.08-1.086,6.6,6.6,0,0,1,1.942-3.843,7.336,7.336,0,0,1,3.7-1.914,2.182,2.182,0,0,1,1.859.479c.013.012.026.024.039.037a1.325,1.325,0,0,1,.159.169,1.941,1.941,0,0,1,.433.88.789.789,0,1,1-1.54.345.465.465,0,0,0-.107-.218l-.028-.029-.009-.008a.618.618,0,0,0-.5-.1,5.757,5.757,0,0,0-2.893,1.493,5.053,5.053,0,0,0-1.484,2.947,4.987,4.987,0,0,0-.063.849,4,4,0,0,0,.951,2.835,3.737,3.737,0,0,0,.687.635,3.674,3.674,0,0,0,3.142.568,2.685,2.685,0,0,0,.618-.233.79.79,0,1,1,.76,1.385,4.215,4.215,0,0,1-.959.371,5.061,5.061,0,0,1-1.387.192Z" transform="translate(-1.893 -5.472)"/>
      <path id="Trazado_896337" data-name="Trazado 896337" d="M16.4,43.224a.786.786,0,0,1-.789-.786v-.008a.789.789,0,1,1,.789.793Z" transform="translate(-3.286 -8.031)"/>
      <path id="Trazado_896338" data-name="Trazado 896338" d="M13.791,39.466a.779.779,0,0,1-.342-.079L9.558,37.513A.789.789,0,0,1,9.869,36a.824.824,0,0,1,.351.079l3.916,1.887a.789.789,0,0,1-.344,1.5Z" transform="translate(-1.912 -6.842)"/>
      <path id="Trazado_896339" data-name="Trazado 896339" d="M19.39,42.129a5.293,5.293,0,0,1-3.1-1,5.653,5.653,0,0,1-.956-.878A5.53,5.53,0,0,1,14,36.373a6.786,6.786,0,0,1,2.015-4.92,7.285,7.285,0,0,1,3.707-1.91,2.168,2.168,0,0,1,1.84.466c.019.016.038.033.052.048s.062.058.1.1a2,2,0,0,1,.5,1.7,2.823,2.823,0,0,0,.012.976c.011.057.023.11.035.161a2.12,2.12,0,0,0,.538.9,5,5,0,0,1,.919,5.72A4.605,4.605,0,0,1,22.589,41a4.989,4.989,0,0,1-3.2,1.127Zm.776-11.051a.727.727,0,0,0-.14.014,5.714,5.714,0,0,0-2.907,1.49,5.216,5.216,0,0,0-1.541,3.809,3.982,3.982,0,0,0,.948,2.826,4.03,4.03,0,0,0,.688.632,3.6,3.6,0,0,0,4.365-.062,3.038,3.038,0,0,0,.749-.913,3.419,3.419,0,0,0-.678-3.9,3.662,3.662,0,0,1-.917-1.6c-.021-.083-.039-.165-.056-.251A4.4,4.4,0,0,1,20.66,31.6a.429.429,0,0,0-.1-.367l-.038-.036,0,0a.541.541,0,0,0-.358-.119Z" transform="translate(-2.946 -5.473)"/>
      <path id="Trazado_896340" data-name="Trazado 896340" d="M20.59,43.341a.788.788,0,0,1-.71-.443l-1.722-3.532-3.652-1.874a.79.79,0,0,1,.722-1.4l3.885,1.995a.785.785,0,0,1,.349.356L21.3,42.205a.79.79,0,0,1-.709,1.136Z" transform="translate(-2.964 -6.842)"/>
      <path id="Trazado_896341" data-name="Trazado 896341" d="M19.789,39.634a.79.79,0,0,1-.3-1.52l4.317-1.768a.79.79,0,1,1,.6,1.462l-4.317,1.768a.786.786,0,0,1-.3.059Z" transform="translate(-4 -6.902)"/>
      <path id="Trazado_896342" data-name="Trazado 896342" d="M12.789,8.237A.789.789,0,0,1,12,7.447V4.289a.789.789,0,0,1,.789-.789h30a.789.789,0,0,1,.789.789V7.447a.789.789,0,0,1-1.579,0V5.079H13.579V7.447a.789.789,0,0,1-.789.789Z" transform="translate(-2.526)"/>
      <path id="Trazado_896343" data-name="Trazado 896343" d="M46.842,28.079H5.789a.789.789,0,0,1,0-1.579H46.842a.789.789,0,0,1,0,1.579Z" transform="translate(-1.053 -4.842)"/>
    </g>
  </g>
</svg>
