<svg xmlns="http://www.w3.org/2000/svg" width="108" height="108" viewBox="0 0 108 108">
  <g id="_30" data-name="30" transform="translate(-588.551 -1403)">
    <circle id="Elipse_11934" data-name="Elipse 11934" cx="54" cy="54" r="54" transform="translate(588.551 1403)" fill="#3cead6"/>
    <g id="Grupo_1111155" data-name="Grupo 1111155" transform="translate(553.838 1420.676)">
      <g id="Grupo_1111127" data-name="Grupo 1111127" transform="translate(62.707 1.147)">
        <path id="Trazado_896344" data-name="Trazado 896344" d="M131.893,83.529H95.179A9.179,9.179,0,0,1,86,74.351V16.679A9.179,9.179,0,0,1,95.179,7.5h36.714a9.179,9.179,0,0,1,9.179,9.179V74.351A9.179,9.179,0,0,1,131.893,83.529Z" transform="translate(-86 -7.5)" fill="#f2f6fc"/>
      </g>
      <g id="Grupo_1111128" data-name="Grupo 1111128" transform="translate(62.707 1.147)">
        <path id="Trazado_896345" data-name="Trazado 896345" d="M101.3,80.47a3.059,3.059,0,0,1,3.06-3.06V13.619a3.06,3.06,0,1,1,0-6.119H95.179A9.179,9.179,0,0,0,86,16.679V74.351a9.179,9.179,0,0,0,9.179,9.179h9.179A3.059,3.059,0,0,1,101.3,80.47Z" transform="translate(-86 -7.5)" fill="#e9edf5"/>
      </g>
      <g id="Grupo_1111129" data-name="Grupo 1111129" transform="translate(68.826 7.266)">
        <path id="Trazado_896346" data-name="Trazado 896346" d="M129.06,111.291a3.063,3.063,0,0,1-3.06-3.06V50.56a3.063,3.063,0,0,1,3.06-3.06h36.714a3.063,3.063,0,0,1,3.06,3.06v57.672a3.063,3.063,0,0,1-3.06,3.06Z" transform="translate(-126 -47.5)" fill="#cde2ff"/>
      </g>
      <g id="Grupo_1111130" data-name="Grupo 1111130" transform="translate(68.826 7.266)">
        <path id="Trazado_896347" data-name="Trazado 896347" d="M135.179,108.232V50.56a3.063,3.063,0,0,1,3.06-3.06H129.06A3.063,3.063,0,0,0,126,50.56v57.672a3.063,3.063,0,0,0,3.06,3.06h9.179A3.063,3.063,0,0,1,135.179,108.232Z" transform="translate(-126 -47.5)" fill="#b2d3ff"/>
      </g>
      <g id="Grupo_1111131" data-name="Grupo 1111131" transform="translate(74.945 13.385)">
        <path id="Trazado_896348" data-name="Trazado 896348" d="M169.06,87.5a3.059,3.059,0,0,1,3.06,3.06v11.065H166V90.56A3.059,3.059,0,0,1,169.06,87.5Z" transform="translate(-166 -87.5)" fill="#ff9696"/>
      </g>
      <g id="Grupo_1111132" data-name="Grupo 1111132" transform="translate(74.945 16.802)">
        <path id="Trazado_896349" data-name="Trazado 896349" d="M169.06,112.893a3.059,3.059,0,0,1-3.06-3.06v10.708h6.119V109.833A3.059,3.059,0,0,1,169.06,112.893Z" transform="translate(-166 -109.833)" fill="#ff7d81"/>
      </g>
      <g id="Grupo_1111133" data-name="Grupo 1111133" transform="translate(87.183 13.385)">
        <path id="Trazado_896350" data-name="Trazado 896350" d="M249.06,87.5a3.059,3.059,0,0,1,3.06,3.06v11.065H246V90.56A3.059,3.059,0,0,1,249.06,87.5Z" transform="translate(-246 -87.5)" fill="#ffee6e"/>
      </g>
      <g id="Grupo_1111134" data-name="Grupo 1111134" transform="translate(87.183 16.802)">
        <path id="Trazado_896351" data-name="Trazado 896351" d="M249.06,112.893a3.059,3.059,0,0,1-3.06-3.06v10.708h6.119V109.833A3.059,3.059,0,0,1,249.06,112.893Z" transform="translate(-246 -109.833)" fill="#ffe45c"/>
      </g>
      <g id="Grupo_1111135" data-name="Grupo 1111135" transform="translate(99.421 13.385)">
        <path id="Trazado_896352" data-name="Trazado 896352" d="M329.06,87.5a3.059,3.059,0,0,1,3.06,3.06v11.065H326V90.56A3.059,3.059,0,0,1,329.06,87.5Z" transform="translate(-326 -87.5)" fill="#e0b8ff"/>
      </g>
      <g id="Grupo_1111136" data-name="Grupo 1111136" transform="translate(99.421 16.802)">
        <path id="Trazado_896353" data-name="Trazado 896353" d="M329.06,112.893a3.059,3.059,0,0,1-3.06-3.06v10.708h6.119V109.833A3.059,3.059,0,0,1,329.06,112.893Z" transform="translate(-326 -109.833)" fill="#d2a0f5"/>
      </g>
      <g id="Grupo_1111137" data-name="Grupo 1111137" transform="translate(74.945 36.689)">
        <path id="Trazado_896354" data-name="Trazado 896354" d="M169.06,239.833a3.059,3.059,0,0,1,3.06,3.06v11.065H166V242.893a3.06,3.06,0,0,1,3.06-3.06Z" transform="translate(-166 -239.833)" fill="#ffee6e"/>
      </g>
      <g id="Grupo_1111138" data-name="Grupo 1111138" transform="translate(87.183 36.689)">
        <path id="Trazado_896355" data-name="Trazado 896355" d="M249.06,239.833a3.059,3.059,0,0,1,3.06,3.06v11.065H246V242.893a3.06,3.06,0,0,1,3.06-3.06Z" transform="translate(-246 -239.833)" fill="#e0b8ff"/>
      </g>
      <g id="Grupo_1111139" data-name="Grupo 1111139" transform="translate(99.421 36.689)">
        <path id="Trazado_896356" data-name="Trazado 896356" d="M329.06,239.833a3.059,3.059,0,0,1,3.06,3.06v11.065H326V242.893a3.06,3.06,0,0,1,3.06-3.06Z" transform="translate(-326 -239.833)" fill="#ff9696"/>
      </g>
      <g id="Grupo_1111140" data-name="Grupo 1111140" transform="translate(68.826 24.451)">
        <path id="Trazado_896357" data-name="Trazado 896357" d="M126,159.833h42.833v6.119H126Z" transform="translate(-126 -159.833)" fill="#b2d3ff"/>
      </g>
      <g id="Grupo_1111141" data-name="Grupo 1111141" transform="translate(68.826 24.451)">
        <path id="Trazado_896358" data-name="Trazado 896358" d="M135.179,162.893a3.059,3.059,0,0,1,3.06-3.06H126v6.119h12.238A3.059,3.059,0,0,1,135.179,162.893Z" transform="translate(-126 -159.833)" fill="#9bc5ff"/>
      </g>
      <g id="Grupo_1111142" data-name="Grupo 1111142" transform="translate(74.945 40.105)">
        <path id="Trazado_896359" data-name="Trazado 896359" d="M169.06,265.227a3.06,3.06,0,0,1-3.06-3.06v10.708h6.119V262.167A3.06,3.06,0,0,1,169.06,265.227Z" transform="translate(-166 -262.167)" fill="#ffe45c"/>
      </g>
      <g id="Grupo_1111143" data-name="Grupo 1111143" transform="translate(87.183 40.105)">
        <path id="Trazado_896360" data-name="Trazado 896360" d="M249.06,265.227a3.059,3.059,0,0,1-3.06-3.06v10.708h6.119V262.167A3.06,3.06,0,0,1,249.06,265.227Z" transform="translate(-246 -262.167)" fill="#d2a0f5"/>
      </g>
      <g id="Grupo_1111144" data-name="Grupo 1111144" transform="translate(99.421 40.105)">
        <path id="Trazado_896361" data-name="Trazado 896361" d="M329.06,265.227a3.059,3.059,0,0,1-3.06-3.06v10.708h6.119V262.167A3.06,3.06,0,0,1,329.06,265.227Z" transform="translate(-326 -262.167)" fill="#ff7d81"/>
      </g>
      <g id="Grupo_1111145" data-name="Grupo 1111145" transform="translate(68.826 47.754)">
        <path id="Trazado_896362" data-name="Trazado 896362" d="M126,312.167h42.833v6.119H126Z" transform="translate(-126 -312.167)" fill="#b2d3ff"/>
      </g>
      <g id="Grupo_1111146" data-name="Grupo 1111146" transform="translate(68.826 47.754)">
        <path id="Trazado_896363" data-name="Trazado 896363" d="M135.179,315.227a3.059,3.059,0,0,1,3.06-3.06H126v6.119h12.238A3.06,3.06,0,0,1,135.179,315.227Z" transform="translate(-126 -312.167)" fill="#9bc5ff"/>
      </g>
      <g id="Grupo_1111147" data-name="Grupo 1111147" transform="translate(74.945 59.992)">
        <path id="Trazado_896364" data-name="Trazado 896364" d="M169.06,392.167a3.059,3.059,0,0,1,3.06,3.06v8.006H166v-8.006A3.059,3.059,0,0,1,169.06,392.167Z" transform="translate(-166 -392.167)" fill="#e0b8ff"/>
      </g>
      <g id="Grupo_1111148" data-name="Grupo 1111148" transform="translate(74.945 63.409)">
        <path id="Trazado_896365" data-name="Trazado 896365" d="M169.06,417.56A3.059,3.059,0,0,1,166,414.5v7.649h6.119V414.5A3.059,3.059,0,0,1,169.06,417.56Z" transform="translate(-166 -414.5)" fill="#d2a0f5"/>
      </g>
      <g id="Grupo_1111149" data-name="Grupo 1111149" transform="translate(87.183 59.992)">
        <path id="Trazado_896366" data-name="Trazado 896366" d="M249.06,392.167a3.059,3.059,0,0,1,3.06,3.06v8.006H246v-8.006A3.059,3.059,0,0,1,249.06,392.167Z" transform="translate(-246 -392.167)" fill="#ff9696"/>
      </g>
      <g id="Grupo_1111150" data-name="Grupo 1111150" transform="translate(99.421 59.992)">
        <path id="Trazado_896367" data-name="Trazado 896367" d="M329.06,392.167a3.059,3.059,0,0,1,3.06,3.06v8.006H326v-8.006A3.059,3.059,0,0,1,329.06,392.167Z" transform="translate(-326 -392.167)" fill="#ffee6e"/>
      </g>
      <g id="Grupo_1111151" data-name="Grupo 1111151" transform="translate(59.647 28.454)">
        <path id="Trazado_896368" data-name="Trazado 896368" d="M72.119,207.417H69.06a3.059,3.059,0,0,1-3.06-3.06v-15.3A3.059,3.059,0,0,1,69.06,186h3.06a3.059,3.059,0,0,1,3.06,3.06v15.3A3.059,3.059,0,0,1,72.119,207.417Z" transform="translate(-66 -186)" fill="#7e8596"/>
      </g>
      <g id="Grupo_1111152" data-name="Grupo 1111152" transform="translate(59.647 28.454)">
        <path id="Trazado_896369" data-name="Trazado 896369" d="M69.06,204.357v-15.3a3.059,3.059,0,0,1,3.06-3.06H69.06A3.059,3.059,0,0,0,66,189.06v15.3a3.059,3.059,0,0,0,3.06,3.06h3.06A3.059,3.059,0,0,1,69.06,204.357Z" transform="translate(-66 -186)" fill="#707789"/>
      </g>
      <g id="Grupo_1111153" data-name="Grupo 1111153" transform="translate(87.183 63.409)">
        <path id="Trazado_896370" data-name="Trazado 896370" d="M249.06,417.56A3.059,3.059,0,0,1,246,414.5v7.649h6.119V414.5A3.059,3.059,0,0,1,249.06,417.56Z" transform="translate(-246 -414.5)" fill="#ff7d81"/>
      </g>
      <g id="Grupo_1111154" data-name="Grupo 1111154" transform="translate(99.421 63.409)">
        <path id="Trazado_896371" data-name="Trazado 896371" d="M329.06,417.56A3.059,3.059,0,0,1,326,414.5v7.649h6.119V414.5A3.059,3.059,0,0,1,329.06,417.56Z" transform="translate(-326 -414.5)" fill="#ffe45c"/>
      </g>
      <path id="Trazado_896372" data-name="Trazado 896372" d="M108.6,0H71.885A10.338,10.338,0,0,0,61.56,10.326V27.467a4.214,4.214,0,0,0-3.06,4.047v15.3a4.214,4.214,0,0,0,3.06,4.047V68A10.338,10.338,0,0,0,71.885,78.324H108.6A10.338,10.338,0,0,0,118.926,68V10.326A10.338,10.338,0,0,0,108.6,0ZM60.795,46.811v-15.3A1.914,1.914,0,0,1,62.707,29.6h3.06a1.914,1.914,0,0,1,1.912,1.912v15.3a1.914,1.914,0,0,1-1.912,1.912h-3.06A1.914,1.914,0,0,1,60.795,46.811ZM79.917,23.3H76.092V16.445a1.912,1.912,0,0,1,3.824,0Zm30.6,2.295v3.824h-8.79a1.147,1.147,0,0,0,0,2.295h8.79v14.89h-3.824V39.748a4.207,4.207,0,0,0-8.414,0v6.859H94.45V39.748a4.207,4.207,0,0,0-8.414,0v6.859H82.211V39.748a4.207,4.207,0,0,0-8.414,0v6.859H69.973V31.717H97.14a1.147,1.147,0,0,0,0-2.295H69.973V25.6ZM92.155,23.3H88.33V16.445a1.912,1.912,0,1,1,3.824,0Zm12.238,0h-3.824V16.445a1.912,1.912,0,0,1,3.824,0Zm-3.824,23.3V39.748a1.912,1.912,0,1,1,3.824,0v6.859Zm-12.238,0V39.748a1.912,1.912,0,1,1,3.824,0v6.859Zm-12.238,0V39.748a1.912,1.912,0,1,1,3.824,0v6.859ZM69.973,48.9h40.539v3.824H69.973Zm40.539-25.6h-3.824V16.445a4.207,4.207,0,1,0-8.414,0V23.3H94.45V16.445a4.207,4.207,0,0,0-8.414,0V23.3H82.211V16.445a4.207,4.207,0,0,0-8.414,0V23.3H69.973V10.326a1.914,1.914,0,0,1,1.912-1.912H108.6a1.914,1.914,0,0,1,1.912,1.912ZM116.631,68a8.04,8.04,0,0,1-8.031,8.031H71.885A8.04,8.04,0,0,1,63.854,68V51.018h1.912a4.178,4.178,0,0,0,1.912-.462v8.671a1.147,1.147,0,0,0,2.295,0V55.021h40.539V68A1.914,1.914,0,0,1,108.6,69.91h-1.912V63.052a4.207,4.207,0,1,0-8.414,0V69.91H94.45V63.052a4.207,4.207,0,1,0-8.414,0V69.91H82.211V63.052a4.207,4.207,0,1,0-8.414,0V69.91H71.885A1.914,1.914,0,0,1,69.973,68V63.817a1.147,1.147,0,1,0-2.295,0V68A4.212,4.212,0,0,0,71.885,72.2H108.6A4.212,4.212,0,0,0,112.807,68V10.326A4.212,4.212,0,0,0,108.6,6.119H71.885a4.212,4.212,0,0,0-4.207,4.207V27.768a4.18,4.18,0,0,0-1.912-.462H63.854V10.326a8.04,8.04,0,0,1,8.031-8.031H108.6a8.04,8.04,0,0,1,8.031,8.031ZM100.569,69.91V63.052a1.912,1.912,0,0,1,3.824,0V69.91Zm-12.238,0V63.052a1.912,1.912,0,0,1,3.824,0V69.91Zm-12.238,0V63.052a1.912,1.912,0,0,1,3.824,0V69.91Z"/>
    </g>
  </g>
</svg>
