<svg xmlns="http://www.w3.org/2000/svg" width="108" height="108" viewBox="0 0 108 108">
  <g id="_31" data-name="31" transform="translate(-903.551 -1403)">
    <circle id="Elipse_11935" data-name="Elipse 11935" cx="54" cy="54" r="54" transform="translate(903.551 1403)" fill="#3cead6"/>
    <g id="Grupo_1111157" data-name="Grupo 1111157" transform="translate(916.251 1418.676)">
      <g id="Grupo_1111156" data-name="Grupo 1111156" transform="translate(1.613 1.613)">
        <path id="Trazado_896373" data-name="Trazado 896373" d="M49.688,89.373A39.687,39.687,0,1,0,10,49.687,39.763,39.763,0,0,0,49.688,89.373Z" transform="translate(-10.001 -10)" fill="#4ad194"/>
        <path id="Trazado_896374" data-name="Trazado 896374" d="M83.234,116.467A33.233,33.233,0,1,0,50,83.233,33.3,33.3,0,0,0,83.234,116.467Z" transform="translate(-43.548 -43.547)" fill="#a6f076"/>
        <path id="Trazado_896375" data-name="Trazado 896375" d="M49.688,89.373A39.687,39.687,0,1,0,10,49.687,39.763,39.763,0,0,0,49.688,89.373Z" transform="translate(-10.001 -10)" fill="#fd4a4a"/>
        <path id="Trazado_896376" data-name="Trazado 896376" d="M89.567,118.467A33.233,33.233,0,1,0,56.334,85.233,33.3,33.3,0,0,0,89.567,118.467Z" transform="translate(-48.859 -45.224)" fill="#ff8d8d"/>
        <path id="Trazado_896377" data-name="Trazado 896377" d="M130.344,180.448a19.54,19.54,0,0,1,13.385,5.281,6.332,6.332,0,1,1,10.3,5.673,12.229,12.229,0,0,1,3.576,8.656H110.734A19.613,19.613,0,0,1,130.344,180.448Z" transform="translate(-94.483 -152.722)" fill="#3c5485"/>
      </g>
      <path id="Trazado_896378" data-name="Trazado 896378" d="M362,416.822l-.051.034a1.613,1.613,0,1,0,1.818,2.665l.051-.034A1.613,1.613,0,1,0,362,416.822Z" transform="translate(-302.968 -349.341)"/>
      <path id="Trazado_896379" data-name="Trazado 896379" d="M132.05,78.493a1.606,1.606,0,0,0,.9-.277l.048-.032a1.613,1.613,0,1,0-1.8-2.677l-.054.036a1.613,1.613,0,0,0,.9,2.95Z" transform="translate(-109.393 -63.094)"/>
      <path id="Trazado_896380" data-name="Trazado 896380" d="M82.6,41.3A41.3,41.3,0,0,0,17.083,7.845a1.613,1.613,0,1,0,1.892,2.614,38.072,38.072,0,0,1,50.362,56.6L67.052,64.77A34.846,34.846,0,0,0,25.9,10.036a1.613,1.613,0,1,0,1.426,2.895A31.616,31.616,0,0,1,64.765,62.484L52.845,50.563H64.739a1.613,1.613,0,0,0,1.613-1.613c0-.037,0-.073,0-.109a13.773,13.773,0,0,0-2.986-8.494,7.946,7.946,0,1,0-13.325-8.5,21.227,21.227,0,0,0-19.022-3.111L8.331,6.049A1.613,1.613,0,0,0,6.049,8.331l4.93,4.93A41.3,41.3,0,0,0,65.516,74.755a1.613,1.613,0,0,0-1.892-2.614,38.072,38.072,0,0,1-50.362-56.6l2.284,2.284A34.848,34.848,0,0,0,56.7,72.561a1.613,1.613,0,1,0-1.426-2.895A31.616,31.616,0,0,1,17.833,20.115l9.954,9.954A21.254,21.254,0,0,0,16.276,47.935c-.005.055-.009.11-.009.166,0,.008,0,.016,0,.025-.01.273-.017.547-.017.823a6.2,6.2,0,0,0,6.2,6.2H36.171a1.613,1.613,0,1,0,0-3.227H22.447a2.968,2.968,0,0,1-2.489-1.356H48.281L74.269,76.55a1.613,1.613,0,1,0,2.281-2.282L71.62,69.338A41.281,41.281,0,0,0,82.6,41.3ZM37.475,30.953A17.929,17.929,0,0,1,49.758,35.8a1.613,1.613,0,0,0,2.7-.982A4.718,4.718,0,1,1,61.082,38a18.819,18.819,0,0,0-3.44-2.382,1.613,1.613,0,0,0-1.53,2.841,15.524,15.524,0,0,1,3.88,2.953l.014.014.01.011A10.578,10.578,0,0,1,63,47.336H49.618L33.645,31.363A18,18,0,0,1,37.475,30.953ZM37.17,47.336c-.007-2.74-.606-4.642-1.867-5.941-1.9-1.953-4.662-1.931-7.59-1.908-.32,0-.644.005-.971.005a1.613,1.613,0,0,0,0,3.227c.336,0,.669,0,1-.005,2.314-.019,4.314-.035,5.249.929a4.52,4.52,0,0,1,.929,2.846H19.646a18.048,18.048,0,0,1,10.561-14L45.055,47.336H37.17Z" transform="translate(0 0)"/>
      <path id="Trazado_896381" data-name="Trazado 896381" d="M344.731,260.982a1.613,1.613,0,1,0-1.613-1.613A1.616,1.616,0,0,0,344.731,260.982Z" transform="translate(-287.764 -216.172)"/>
      <path id="Trazado_896382" data-name="Trazado 896382" d="M244.907,321.824a1.613,1.613,0,1,0,0,3.227h.077a1.613,1.613,0,0,0,0-3.227Z" transform="translate(-204.044 -269.905)"/>
    </g>
  </g>
</svg>
