<svg xmlns="http://www.w3.org/2000/svg" width="126.355" height="126.374" viewBox="0 0 126.355 126.374">
  <g id="_33" data-name="33" transform="translate(-0.038)">
    <g id="Grupo_1111160" data-name="Grupo 1111160" transform="translate(1.888 1.851)">
      <path id="Trazado_896383" data-name="Trazado 896383" d="M109.12,211.14H12.831a5.294,5.294,0,0,1-5.294-5.294v-85.56a5.294,5.294,0,0,1,5.294-5.294H109.12a5.294,5.294,0,0,1,5.294,5.294v85.56A5.294,5.294,0,0,1,109.12,211.14Z" transform="translate(-7.537 -88.468)" fill="#685e68"/>
      <path id="Trazado_896384" data-name="Trazado 896384" d="M402.245,114.992h-5.557a5.294,5.294,0,0,1,5.294,5.294v85.56a5.294,5.294,0,0,1-5.294,5.294h5.557a5.294,5.294,0,0,0,5.294-5.294v-85.56A5.294,5.294,0,0,0,402.245,114.992Z" transform="translate(-300.662 -88.468)" fill="#554e56"/>
      <path id="Trazado_896385" data-name="Trazado 896385" d="M35.537,223.514V144.8a1.807,1.807,0,0,1,1.807-1.807h89.443A1.807,1.807,0,0,1,128.6,144.8v78.715a1.807,1.807,0,0,1-1.807,1.807H37.345a1.808,1.808,0,0,1-1.808-1.807Z" transform="translate(-28.628 -109.558)" fill="#c8effe"/>
      <g id="Grupo_1111158" data-name="Grupo 1111158" transform="translate(26.816 33.434)">
        <path id="Trazado_896386" data-name="Trazado 896386" d="M209.968,225.322H216.9l31.345-82.33h-6.933Z" transform="translate(-186.833 -142.992)" fill="#dff6fd"/>
        <path id="Trazado_896387" data-name="Trazado 896387" d="M116.21,225.322h6.933l31.345-82.33h-6.933Z" transform="translate(-116.21 -142.992)" fill="#dff6fd"/>
      </g>
      <path id="Trazado_896388" data-name="Trazado 896388" d="M386.726,142.992h-6.1a1.808,1.808,0,0,1,1.808,1.807v78.715a1.808,1.808,0,0,1-1.808,1.807h6.1a1.807,1.807,0,0,0,1.807-1.807V144.8A1.807,1.807,0,0,0,386.726,142.992Z" transform="translate(-288.566 -109.558)" fill="#99e6fc"/>
      <path id="Trazado_896389" data-name="Trazado 896389" d="M125.6,210.052l-.92-.92-9-.211.762,8.451.92.92a11.672,11.672,0,0,1,3.206,10.472,11.671,11.671,0,0,0,2.344,9.51l20.08,25.1,25.082-30.31L145.553,215.5a11.672,11.672,0,0,0-9.4-2.257l-.084.016A11.673,11.673,0,0,1,125.6,210.052Z" transform="translate(-88.991 -159.219)" fill="#fe5694"/>
      <path id="Trazado_896390" data-name="Trazado 896390" d="M229.181,284.592l-9.314-7.268a14.5,14.5,0,0,0-8.211,4.128l-2.8,2.8a14.667,14.667,0,0,0-3.624,6l-.862,2.777a5.752,5.752,0,0,1-1.421,2.354l-1.994,1.994a14.5,14.5,0,0,0-4.151,8.409L204.1,314.9Z" transform="translate(-150.102 -210.743)" fill="#fd3581"/>
      <path id="Trazado_896391" data-name="Trazado 896391" d="M88.642,179.653a5.827,5.827,0,0,0,0,8.241l6.147,6.147,8.241-8.241-6.147-6.147a5.827,5.827,0,0,0-8.241,0Z" transform="translate(-67.343 -135.888)" fill="#f9f7f8"/>
      <path id="Trazado_896392" data-name="Trazado 896392" d="M222.644,304.66l-.862,2.777a10.172,10.172,0,0,1-2.522,4.178l-1.994,1.994a10.172,10.172,0,0,0,14.385,14.385L233.645,326a10.172,10.172,0,0,1,4.178-2.522l2.777-.862a10.173,10.173,0,0,0,4.178-2.522l2.8-2.8a10.172,10.172,0,0,0,0-14.385l-5.227-5.227a10.172,10.172,0,0,0-14.385,0l-2.8,2.8A10.168,10.168,0,0,0,222.644,304.66Z" transform="translate(-163.27 -223.835)" fill="#fe93bb"/>
      <path id="Trazado_896393" data-name="Trazado 896393" d="M260.949,297.684l-2.8,2.8c-.025.025-.049.053-.074.078a10.17,10.17,0,0,1,14.291.089l5.227,5.227a10.17,10.17,0,0,1,.089,14.291c.026-.025.053-.048.078-.074l2.8-2.8a10.172,10.172,0,0,0,0-14.385l-5.227-5.227A10.172,10.172,0,0,0,260.949,297.684Z" transform="translate(-196.256 -223.835)" fill="#fe76a8"/>
      <circle id="Elipse_12003" data-name="Elipse 12003" cx="4.419" cy="4.419" r="4.419" transform="translate(68.622 80.696)" fill="#f9f7f8"/>
      <g id="Grupo_1111159" data-name="Grupo 1111159" transform="translate(77.015)">
        <circle id="Elipse_12004" data-name="Elipse 12004" cx="22.819" cy="22.819" r="22.819" transform="translate(0 0)" fill="#528fd8"/>
        <path id="Trazado_896394" data-name="Trazado 896394" d="M402,7.5a23,23,0,0,0-3.316.241,22.821,22.821,0,0,1,0,45.158A22.82,22.82,0,1,0,402,7.5Z" transform="translate(-379.18 -7.5)" fill="#0573ce"/>
      </g>
      <path id="Trazado_896395" data-name="Trazado 896395" d="M92.784,291.9H78.151a2.246,2.246,0,0,1-2.246-2.246V276.324a2.246,2.246,0,0,1,2.246-2.246H92.784a2.246,2.246,0,0,1,2.246,2.246v13.329A2.246,2.246,0,0,1,92.784,291.9Z" transform="translate(-59.035 -208.298)" fill="#f9f7f8"/>
      <path id="Trazado_896396" data-name="Trazado 896396" d="M130.625,274.078h-4.482a2.246,2.246,0,0,1,2.246,2.246v13.329a2.246,2.246,0,0,1-2.246,2.246h4.482a2.246,2.246,0,0,0,2.246-2.246V276.324A2.246,2.246,0,0,0,130.625,274.078Z" transform="translate(-96.876 -208.298)" fill="#efedef"/>
    </g>
    <g id="Grupo_1111161" data-name="Grupo 1111161" transform="translate(0.038)">
      <path id="Trazado_896397" data-name="Trazado 896397" d="M288.834,328.87a6.269,6.269,0,1,0,0,8.866A6.277,6.277,0,0,0,288.834,328.87Zm-2.617,6.249a2.566,2.566,0,1,1,0-3.631A2.55,2.55,0,0,1,286.217,335.119Z" transform="translate(-209.51 -246.338)"/>
      <path id="Trazado_896398" data-name="Trazado 896398" d="M347.835,55.779a1.851,1.851,0,0,0,2.6-.318l2.028-2.593h6.234l-4.409,4.409-3.267-.4a1.851,1.851,0,1,0-.449,3.674l2.726.334.334,2.726a1.851,1.851,0,1,0,3.674-.449l-.4-3.267,4.409-4.409V61.72l-2.593,2.028A1.851,1.851,0,0,0,361,66.664l2.164-1.692,2.163,1.692a1.851,1.851,0,0,0,2.28-2.916l-2.593-2.028V55.486l4.409,4.409-.4,3.267a1.851,1.851,0,0,0,3.674.449l.334-2.726,2.726-.334a1.851,1.851,0,1,0-.449-3.674l-3.267.4-4.409-4.409h6.234l2.028,2.593a1.851,1.851,0,1,0,2.916-2.28l-1.692-2.163,1.692-2.164a1.851,1.851,0,1,0-2.916-2.28l-2.028,2.593H367.63l4.409-4.409,3.267.4a1.851,1.851,0,0,0,.449-3.674l-2.726-.334-.334-2.726a1.851,1.851,0,1,0-3.674.449l.4,3.267-4.409,4.409V40.316l2.593-2.028a1.851,1.851,0,1,0-2.28-2.916l-2.163,1.692L361,35.372a1.851,1.851,0,1,0-2.28,2.916l2.593,2.028V46.55L356.9,42.141l.4-3.267a1.851,1.851,0,1,0-3.674-.449l-.334,2.726-2.726.334a1.851,1.851,0,1,0,.449,3.674l3.267-.4,4.409,4.409H352.46l-2.028-2.593a1.851,1.851,0,0,0-2.916,2.28l1.692,2.164-1.692,2.163a1.851,1.851,0,0,0,.318,2.6Z" transform="translate(-261.478 -26.348)"/>
      <path id="Trazado_896399" data-name="Trazado 896399" d="M126.393,24.67a24.669,24.669,0,0,0-41.8-17.747,1.851,1.851,0,1,0,2.571,2.662,20.922,20.922,0,1,1-3.96,5.252A1.851,1.851,0,1,0,79.931,13.1,24.72,24.72,0,0,0,77.052,24.67q0,.936.069,1.854H7.182A7.152,7.152,0,0,0,.038,33.669v85.56a7.152,7.152,0,0,0,7.144,7.144H83.039a1.851,1.851,0,1,0,0-3.7H7.182a3.447,3.447,0,0,1-3.443-3.443V33.669a3.447,3.447,0,0,1,3.443-3.443h70.5a24.438,24.438,0,0,0,.977,3.208H10.605a3.662,3.662,0,0,0-3.658,3.658V51.7a1.851,1.851,0,0,0,3.7,0V37.135H80.439a24.7,24.7,0,0,0,19.566,12.146v66.482H10.648V58.853a1.851,1.851,0,1,0-3.7,0v56.954a3.662,3.662,0,0,0,3.658,3.658h89.444a3.662,3.662,0,0,0,3.658-3.658V49.261a24.552,24.552,0,0,0,3.208-.471V119.23a3.447,3.447,0,0,1-3.443,3.443H90.195a1.851,1.851,0,1,0,0,3.7h13.277a7.152,7.152,0,0,0,7.145-7.144V47.682A24.711,24.711,0,0,0,126.393,24.67Z" transform="translate(-0.038)"/>
      <path id="Trazado_896400" data-name="Trazado 896400" d="M68.4,198.265v13.33a4.1,4.1,0,0,0,4.1,4.1H87.135a4.074,4.074,0,0,0,2.33-.729c3.191,4.016,17.533,21.9,16.618,20.755a12.023,12.023,0,0,0,16.992-.01l1.994-1.994a8.35,8.35,0,0,1,3.418-2.063l2.777-.862a12.074,12.074,0,0,0,4.939-2.981l2.8-2.8a12.036,12.036,0,0,0,0-17c-7.144-7.144-4.716-4.723-5.236-5.236-.127-.126-22.654-17.693-22.678-17.712a13.522,13.522,0,0,0-10.889-2.615l-.085.016a9.809,9.809,0,0,1-8.812-2.7L84.234,172.7a7.678,7.678,0,1,0-10.858,10.858l7.067,7.067a9.771,9.771,0,0,1,2.272,3.547H72.5a4.1,4.1,0,0,0-4.1,4.1ZM87.53,211.594a.4.4,0,0,1-.4.4H72.5a.4.4,0,0,1-.4-.4v-13.33a.4.4,0,0,1,.4-.4H87.135a.4.4,0,0,1,.4.4v13.33Zm51.29,4.914a8.266,8.266,0,0,1-2.437,5.884l-2.8,2.8a8.354,8.354,0,0,1-3.418,2.063l-2.777.862a12.073,12.073,0,0,0-4.939,2.981l-1.994,1.994a8.321,8.321,0,0,1-11.7.067l-1.283-1.6a8.329,8.329,0,0,1,1.215-10.23l1.994-1.994a12.069,12.069,0,0,0,2.981-4.938l.862-2.777a8.354,8.354,0,0,1,2.064-3.418l2.8-2.8a8.331,8.331,0,0,1,10.047-1.325l1.8,1.4,5.147,5.147A8.266,8.266,0,0,1,138.82,216.508ZM74.828,178.125a3.977,3.977,0,0,1,6.789-2.812l4.838,4.838-5.624,5.624-4.838-4.839A3.949,3.949,0,0,1,74.828,178.125ZM83.441,188.4l5.639-5.639a13.506,13.506,0,0,0,11.735,3.333l.085-.016a9.818,9.818,0,0,1,7.909,1.9L123.449,199.4a11.959,11.959,0,0,0-6.679,3.378l-2.8,2.8a12.072,12.072,0,0,0-2.981,4.939l-.862,2.777a8.353,8.353,0,0,1-2.063,3.418l-1.994,1.994a11.932,11.932,0,0,0-3.407,6.835L91.232,211.244v-12.98a4.1,4.1,0,0,0-4.1-4.1h-.547a13.445,13.445,0,0,0-3.147-5.768Z" transform="translate(-51.535 -128.388)"/>
      <path id="Trazado_896401" data-name="Trazado 896401" d="M100.876,291.954H92.953a1.851,1.851,0,0,0,0,3.7h7.924a1.851,1.851,0,0,0,0-3.7Z" transform="translate(-68.631 -219.912)"/>
      <path id="Trazado_896402" data-name="Trazado 896402" d="M100.876,313.422H92.953a1.851,1.851,0,0,0,0,3.7h7.924a1.851,1.851,0,0,0,0-3.7Z" transform="translate(-68.631 -236.083)"/>
    </g>
  </g>
</svg>
