<svg xmlns="http://www.w3.org/2000/svg" width="107.721" height="107.721" viewBox="0 0 107.721 107.721">
  <g id="_34" data-name="34" transform="translate(0)">
    <g id="Grupo_1111187" data-name="Grupo 1111187" transform="translate(1.737 1.737)">
      <g id="Grupo_1111163" data-name="Grupo 1111163" transform="translate(34.749)">
        <path id="Trazado_896403" data-name="Trazado 896403" d="M181.9,8v2.756a5.933,5.933,0,0,1-1.737,4.194H169.737A5.933,5.933,0,0,1,168,10.756V8Z" transform="translate(-168 -8)" fill="#dfb28b"/>
      </g>
      <g id="Grupo_1111164" data-name="Grupo 1111164" transform="translate(10.425)">
        <path id="Trazado_896404" data-name="Trazado 896404" d="M69.9,8v2.756a5.933,5.933,0,0,1-1.737,4.194H57.737A5.933,5.933,0,0,1,56,10.756V8Z" transform="translate(-56 -8)" fill="#dfb28b"/>
      </g>
      <g id="Grupo_1111165" data-name="Grupo 1111165" transform="translate(33.011 6.95)">
        <path id="Trazado_896405" data-name="Trazado 896405" d="M173.9,40l3.475,10.425H160L163.475,40Z" transform="translate(-160 -40)" fill="#ecc19c"/>
      </g>
      <g id="Grupo_1111166" data-name="Grupo 1111166" transform="translate(33.011 17.374)">
        <path id="Trazado_896406" data-name="Trazado 896406" d="M177.374,88l-1.737,6.95h-13.9L160,88Z" transform="translate(-160 -88)" fill="#dfb28b"/>
      </g>
      <g id="Grupo_1111167" data-name="Grupo 1111167" transform="translate(8.687 6.95)">
        <path id="Trazado_896407" data-name="Trazado 896407" d="M61.9,40l3.475,10.425H48L51.475,40Z" transform="translate(-48 -40)" fill="#ecc19c"/>
      </g>
      <g id="Grupo_1111168" data-name="Grupo 1111168" transform="translate(8.687 17.374)">
        <path id="Trazado_896408" data-name="Trazado 896408" d="M65.374,88l-1.737,6.95h-13.9L48,88Z" transform="translate(-48 -88)" fill="#dfb28b"/>
      </g>
      <g id="Grupo_1111169" data-name="Grupo 1111169" transform="translate(0.102 83.397)">
        <path id="Trazado_896409" data-name="Trazado 896409" d="M100.452,392h12.06a31,31,0,0,1-2.12,9.028l-2.98,7.451a6.952,6.952,0,0,1-6.455,4.37H20.024a6.952,6.952,0,0,1-6.455-4.37l-2.98-7.451A31,31,0,0,1,8.47,392h91.982Z" transform="translate(-8.47 -392)" fill="#aab2bd"/>
      </g>
      <g id="Grupo_1111170" data-name="Grupo 1111170" transform="translate(3.041 24.324)">
        <path id="Trazado_896410" data-name="Trazado 896410" d="M22.026,126.515A6.951,6.951,0,0,1,28.963,120H113.2a6.951,6.951,0,0,1,6.937,6.515l.026.434H22Z" transform="translate(-22 -120)" fill="#aab2bd"/>
      </g>
      <g id="Grupo_1111171" data-name="Grupo 1111171" transform="translate(0 31.274)">
        <path id="Trazado_896411" data-name="Trazado 896411" d="M112.186,199.68l-1.568-25.093L109.206,152H11.041L9.629,174.587,8.061,199.68c-.041.645-.061,1.292-.061,1.937q0,1.257.1,2.506H112.145q.1-1.248.1-2.506C112.247,200.972,112.227,200.325,112.186,199.68Z" transform="translate(-8 -152)" fill="#69d6f4"/>
      </g>
      <g id="Grupo_1111172" data-name="Grupo 1111172" transform="translate(62.548 17.374)">
        <path id="Trazado_896412" data-name="Trazado 896412" d="M323.8,89.737v3.475a1.737,1.737,0,0,1-1.737,1.737H297.737A1.737,1.737,0,0,1,296,93.212V89.737A1.737,1.737,0,0,1,297.737,88h24.324A1.737,1.737,0,0,1,323.8,89.737Z" transform="translate(-296 -88)" fill="#cf9e76"/>
      </g>
      <g id="Grupo_1111173" data-name="Grupo 1111173" transform="translate(66.023 6.95)">
        <path id="Trazado_896413" data-name="Trazado 896413" d="M332.849,43.475v6.95H312v-6.95A3.474,3.474,0,0,1,315.475,40h13.9A3.474,3.474,0,0,1,332.849,43.475Z" transform="translate(-312 -40)" fill="#dfb28b"/>
      </g>
      <g id="Grupo_1111174" data-name="Grupo 1111174" transform="translate(72.893 0.198)">
        <circle id="Elipse_12005" data-name="Elipse 12005" cx="3.462" cy="3.462" r="3.462" transform="translate(0)" fill="#fcd770"/>
      </g>
      <g id="Grupo_1111175" data-name="Grupo 1111175" transform="translate(19.112 43.436)">
        <path id="Trazado_896414" data-name="Trazado 896414" d="M101.212,208a5.211,5.211,0,1,1-.3.009c.1-.007.2-.009.3-.009Z" transform="translate(-96 -208)" fill="#b4dd7f"/>
      </g>
      <g id="Grupo_1111176" data-name="Grupo 1111176" transform="translate(13.9 36.486)">
        <path id="Trazado_896415" data-name="Trazado 896415" d="M82.425,181.212a5.166,5.166,0,0,1-.3,1.746,5.213,5.213,0,0,0-4.91,5.2,5.213,5.213,0,0,0-4.91-5.2,5.212,5.212,0,1,1,10.123-1.746Z" transform="translate(-72 -176)" fill="#fcd770"/>
      </g>
      <g id="Grupo_1111177" data-name="Grupo 1111177" transform="translate(8.687 43.436)">
        <path id="Trazado_896416" data-name="Trazado 896416" d="M58.425,213.212A5.212,5.212,0,1,1,53.212,208c.1,0,.2,0,.3.009A5.213,5.213,0,0,1,58.425,213.212Z" transform="translate(-48 -208)" fill="#ff826e"/>
      </g>
      <g id="Grupo_1111178" data-name="Grupo 1111178" transform="translate(45.174 38.224)">
        <path id="Trazado_896417" data-name="Trazado 896417" d="M229.9,184v10.425a5.214,5.214,0,0,1-5.212,5.212h-3.475A5.214,5.214,0,0,1,216,194.425V184Z" transform="translate(-216 -184)" fill="#ff826e"/>
      </g>
      <g id="Grupo_1111179" data-name="Grupo 1111179" transform="translate(79.922 38.224)">
        <path id="Trazado_896418" data-name="Trazado 896418" d="M389.9,184v10.425a5.214,5.214,0,0,1-5.212,5.212h-3.475A5.214,5.214,0,0,1,376,194.425V184Z" transform="translate(-376 -184)" fill="#ff826e"/>
      </g>
      <g id="Grupo_1111180" data-name="Grupo 1111180" transform="translate(71.235 71.235)">
        <path id="Trazado_896419" data-name="Trazado 896419" d="M360.324,339.475v5.212a3.474,3.474,0,0,1-3.475,3.475H339.475A3.474,3.474,0,0,1,336,344.687V336c4.053,0,4.053,3.475,8.107,3.475S348.162,336,352.215,336,356.269,339.475,360.324,339.475Z" transform="translate(-336 -336)" fill="#ccd1d9"/>
      </g>
      <g id="Grupo_1111181" data-name="Grupo 1111181" transform="translate(71.235 66.023)">
        <path id="Trazado_896420" data-name="Trazado 896420" d="M360.324,315.475v5.212c-4.055,0-4.055-3.475-8.109-3.475s-4.053,3.475-8.107,3.475-4.055-3.475-8.107-3.475v-1.737A3.474,3.474,0,0,1,339.475,312h17.374A3.474,3.474,0,0,1,360.324,315.475Z" transform="translate(-336 -312)" fill="#e6e9ed"/>
      </g>
      <g id="Grupo_1111182" data-name="Grupo 1111182" transform="translate(39.961 71.235)">
        <path id="Trazado_896421" data-name="Trazado 896421" d="M216.324,339.475v5.212a3.474,3.474,0,0,1-3.475,3.475H195.475A3.474,3.474,0,0,1,192,344.687V336c4.053,0,4.053,3.475,8.107,3.475S204.162,336,208.215,336,212.269,339.475,216.324,339.475Z" transform="translate(-192 -336)" fill="#fcd770"/>
      </g>
      <g id="Grupo_1111183" data-name="Grupo 1111183" transform="translate(39.961 66.023)">
        <path id="Trazado_896422" data-name="Trazado 896422" d="M216.324,315.475v5.212c-4.055,0-4.055-3.475-8.11-3.475s-4.053,3.475-8.107,3.475-4.055-3.475-8.107-3.475v-1.737A3.474,3.474,0,0,1,195.475,312h17.374A3.474,3.474,0,0,1,216.324,315.475Z" transform="translate(-192 -312)" fill="#ffeaa7"/>
      </g>
      <g id="Grupo_1111184" data-name="Grupo 1111184" transform="translate(8.687 72.973)">
        <path id="Trazado_896423" data-name="Trazado 896423" d="M72.324,344v6.95a3.474,3.474,0,0,1-3.475,3.475H51.475A3.474,3.474,0,0,1,48,350.95V344Z" transform="translate(-48 -344)" fill="#dfb28b"/>
      </g>
      <g id="Grupo_1111185" data-name="Grupo 1111185" transform="translate(8.687 66.023)">
        <path id="Trazado_896424" data-name="Trazado 896424" d="M72.324,315.475v3.475H48v-3.475A3.474,3.474,0,0,1,51.475,312H68.849A3.474,3.474,0,0,1,72.324,315.475Z" transform="translate(-48 -312)" fill="#ecc19c"/>
      </g>
      <g id="Grupo_1111186" data-name="Grupo 1111186" transform="translate(15.637 90.347)">
        <path id="Trazado_896425" data-name="Trazado 896425" d="M80,424h72.973v6.95H80Z" transform="translate(-80 -424)" fill="#e6e9ed"/>
      </g>
    </g>
    <g id="Grupo_1111188" data-name="Grupo 1111188" transform="translate(0 0)">
      <path id="Trazado_896426" data-name="Trazado 896426" d="M72,426.425h76.447V416H72Zm3.475-6.95h69.5v3.475h-69.5Z" transform="translate(-56.363 -325.653)"/>
      <path id="Trazado_896427" data-name="Trazado 896427" d="M107.658,80.584,104.65,32.47a8.7,8.7,0,0,0-8.67-8.145H93.822V20.849a3.479,3.479,0,0,0-3.475-3.475V12.162A5.218,5.218,0,0,0,85.135,6.95H83.1a5.212,5.212,0,1,0-9.827,0H71.235a5.218,5.218,0,0,0-5.212,5.212v5.212a3.479,3.479,0,0,0-3.475,3.475v3.475H52.611l1.32-5.282L50.608,9.071a7.613,7.613,0,0,0,1.515-4.579V0H34.749V4.493a7.613,7.613,0,0,0,1.515,4.579l-3.324,9.971,1.32,5.282H28.287l1.32-5.282L26.284,9.071A7.613,7.613,0,0,0,27.8,4.493V0H10.425V4.493A7.613,7.613,0,0,0,11.94,9.071L8.616,19.043l1.366,5.463A8.707,8.707,0,0,0,3.071,32.47L.064,80.584C.022,81.262,0,81.95,0,82.629A32.642,32.642,0,0,0,2.345,94.807l2.981,7.453a8.645,8.645,0,0,0,8.066,5.461H94.329a8.646,8.646,0,0,0,8.066-5.461l2.981-7.453a32.648,32.648,0,0,0,2.345-12.178c0-.679-.021-1.368-.064-2.045Zm-12.1-6.293a7.823,7.823,0,0,1-1.186-.9,7.313,7.313,0,0,0-10.37,0,3.9,3.9,0,0,1-5.846,0,7.851,7.851,0,0,0-3.447-1.963v-.193A1.739,1.739,0,0,1,76.448,69.5H93.822a1.739,1.739,0,0,1,1.737,1.737ZM74.71,81.66V75.13a7.83,7.83,0,0,1,1.185.9,7.313,7.313,0,0,0,10.369,0,3.9,3.9,0,0,1,5.847,0,7.85,7.85,0,0,0,3.448,1.963V81.66A1.739,1.739,0,0,1,93.822,83.4H76.448A1.739,1.739,0,0,1,74.71,81.66ZM93.822,66.023H76.448a5.218,5.218,0,0,0-5.212,5.212V81.66a5.188,5.188,0,0,0,.3,1.737H67.461a5.188,5.188,0,0,0,.3-1.737V71.235a5.218,5.218,0,0,0-5.212-5.212c0-.959-.778-5.212-1.737-5.212s-1.737,4.253-1.737,5.212H55.6c0-.959-.778-5.212-1.737-5.212s-1.737,4.253-1.737,5.212H48.648c0-.959-.778-5.212-1.737-5.212s-1.737,4.253-1.737,5.212a5.218,5.218,0,0,0-5.212,5.212V81.66a5.188,5.188,0,0,0,.3,1.737H36.188a5.188,5.188,0,0,0,.3-1.737V71.235a5.218,5.218,0,0,0-5.212-5.212c0-.959-.778-5.212-1.737-5.212S27.8,65.063,27.8,66.023H24.324c0-.959-.778-5.212-1.737-5.212s-1.737,4.253-1.737,5.212H17.374c0-.959-.778-5.212-1.737-5.212S13.9,65.063,13.9,66.023a5.218,5.218,0,0,0-5.212,5.212V81.66a5.188,5.188,0,0,0,.3,1.737h-5.5c-.007-.256-.011-.511-.011-.768,0-.607.019-1.223.057-1.829L5,57.336h97.724L104.19,80.8c.038.606.057,1.221.057,1.829q0,.385-.011.768h-5.5a5.188,5.188,0,0,0,.3-1.737V71.235A5.218,5.218,0,0,0,93.822,66.023ZM62.548,69.5a1.739,1.739,0,0,1,1.737,1.737V74.29a7.823,7.823,0,0,1-1.186-.9,7.313,7.313,0,0,0-10.37,0,3.9,3.9,0,0,1-5.846,0,7.851,7.851,0,0,0-3.447-1.963v-.193A1.739,1.739,0,0,1,45.174,69.5ZM43.436,81.66V75.13a7.831,7.831,0,0,1,1.185.9,7.313,7.313,0,0,0,10.369,0,3.9,3.9,0,0,1,5.847,0,7.85,7.85,0,0,0,3.448,1.963V81.66A1.739,1.739,0,0,1,62.548,83.4H45.174A1.739,1.739,0,0,1,43.436,81.66ZM31.274,69.5a1.739,1.739,0,0,1,1.737,1.737v1.737H12.162V71.235A1.739,1.739,0,0,1,13.9,69.5ZM12.162,81.66V76.447H33.011V81.66A1.739,1.739,0,0,1,31.274,83.4H13.9A1.739,1.739,0,0,1,12.162,81.66Zm89.149-46.911,1.194,19.112H96.362a6.905,6.905,0,0,0,.935-3.475V38.224H79.922V50.386a6.905,6.905,0,0,0,.935,3.475H61.613a6.905,6.905,0,0,0,.935-3.475V38.224H45.173V50.386a6.905,6.905,0,0,0,.935,3.475H32.076a6.944,6.944,0,0,0-4.282-10.206c0-.073,0-.146,0-.219a6.95,6.95,0,1,0-13.9,0c0,.073,0,.146,0,.219A6.944,6.944,0,0,0,9.622,53.861H5.216L6.41,34.749ZM83.4,50.386V41.7H93.822v8.687a3.479,3.479,0,0,1-3.475,3.475H86.872A3.479,3.479,0,0,1,83.4,50.386Zm-34.749,0V41.7H59.073v8.687A3.479,3.479,0,0,1,55.6,53.861H52.123A3.479,3.479,0,0,1,48.648,50.386Zm-36.486,0a3.475,3.475,0,1,1,3.475,3.475A3.479,3.479,0,0,1,12.162,50.386Zm5.212-6.95a3.475,3.475,0,1,1,6.95,0c0,.074,0,.149-.009.223A6.958,6.958,0,0,0,20.849,45.8a6.958,6.958,0,0,0-3.466-2.138C17.379,43.585,17.374,43.511,17.374,43.436Zm5.212,6.95a3.475,3.475,0,1,1,3.475,3.475A3.479,3.479,0,0,1,22.587,50.386ZM76.448,5.212A1.737,1.737,0,1,1,78.185,6.95,1.739,1.739,0,0,1,76.448,5.212Zm-6.95,6.95a1.739,1.739,0,0,1,1.737-1.737h13.9a1.739,1.739,0,0,1,1.737,1.737v5.212H69.5Zm-3.475,8.687H90.347l0,3.475H66.023ZM39.476,10.425H47.4l2.317,6.95H37.16Zm-1.252-6.95H48.648V4.493a4.162,4.162,0,0,1-.794,2.457H39.018a4.162,4.162,0,0,1-.794-2.457Zm-1.25,17.374H49.9l-.869,3.475H37.843ZM15.152,10.425h7.92l2.317,6.95H12.835ZM25.574,20.849l-.869,3.475H13.519l-.869-3.475ZM13.9,3.475H24.324V4.493A4.162,4.162,0,0,1,23.53,6.95H14.693A4.163,4.163,0,0,1,13.9,4.493ZM11.741,27.8H95.98a5.224,5.224,0,0,1,4.913,3.475H6.828A5.224,5.224,0,0,1,11.741,27.8ZM102.15,93.517l-2.981,7.453a5.187,5.187,0,0,1-4.839,3.276H13.392a5.187,5.187,0,0,1-4.839-3.276L5.572,93.517a29.216,29.216,0,0,1-1.79-6.645H103.939A29.209,29.209,0,0,1,102.15,93.517Z" transform="translate(0 0)"/>
    </g>
  </g>
</svg>
