<svg xmlns="http://www.w3.org/2000/svg" width="57.276" height="56.902" viewBox="0 0 57.276 56.902">
  <g id="_7" data-name="7" transform="translate(0 -1.674)">
    <g id="Grupo_1111038" data-name="Grupo 1111038" transform="translate(0.921 2.512)">
      <path id="Trazado_896036" data-name="Trazado 896036" d="M67.773,16.114,64.515,17.6c-.19.087-.376.18-.558.278V15.29a6.708,6.708,0,0,1,1.261-3.915l.774-1.077a.707.707,0,0,0-.868-1.056L62.84,10.284a6.708,6.708,0,0,0-3.923,6.1,6.708,6.708,0,0,0-3.923-6.1L52.711,9.242a.707.707,0,0,0-.868,1.056l.774,1.077a6.708,6.708,0,0,1,1.261,3.915v2.59c-.182-.1-.368-.191-.558-.278l-3.258-1.487a1.009,1.009,0,0,0-1.238,1.506l1.1,1.537a9.572,9.572,0,0,1,1.8,5.586v1.566h14.38V24.743a9.572,9.572,0,0,1,1.8-5.586l1.1-1.537A1.009,1.009,0,0,0,67.773,16.114Z" transform="translate(-44.118 -9.174)" fill="#97da7b"/>
      <path id="Trazado_896037" data-name="Trazado 896037" d="M54.643,17.6l-3.258-1.487a.99.99,0,0,0-1.267.373L52.559,17.6a3.949,3.949,0,0,0,2.643.278Q54.929,17.735,54.643,17.6Zm1.674-7.317L54.034,9.245a.707.707,0,0,0-.989.5l1.187.542c2.389,1.09,6.007,4.3,6.007,6.1a6.706,6.706,0,0,0-3.923-6.1ZM66.447,9.245l-1.1.5a.685.685,0,0,1-.122.555l-.774,1.077-.025.035a4.712,4.712,0,0,0,.206,5.67l.643.8V15.293a6.707,6.707,0,0,1,1.261-3.915l.774-1.077a.707.707,0,0,0-.868-1.056Zm2.65,6.872-.818.373a.979.979,0,0,1-.03,1.133l-1.1,1.537a9.573,9.573,0,0,0-1.8,5.586v1.565h2.086V24.746a9.572,9.572,0,0,1,1.8-5.586l1.1-1.537A1.008,1.008,0,0,0,69.1,16.117Z" transform="translate(-45.441 -9.177)" fill="#80d261"/>
      <path id="Trazado_896038" data-name="Trazado 896038" d="M25.058,155.788a13.655,13.655,0,0,1-12.835-9l-.095-.262a26.353,26.353,0,0,1,0-17.98l.095-.262a13.655,13.655,0,0,1,12.835-9h.13a13.655,13.655,0,0,1,12.8,8.913,26.353,26.353,0,0,1,.115,17.986l-.185.521A13.654,13.654,0,0,1,25.058,155.788Z" transform="translate(-10.29 -106.991)" fill="#ffd15b"/>
      <path id="Trazado_896039" data-name="Trazado 896039" d="M141.814,137.358a26.363,26.363,0,0,1-1.525,8.835l-.185.522a13.653,13.653,0,0,1-14.526,8.975,13.653,13.653,0,0,0,11.2-8.975l.185-.522a26.363,26.363,0,0,0-.114-17.985,13.655,13.655,0,0,0-11.2-8.819,13.525,13.525,0,0,1,1.6-.094h.13a13.653,13.653,0,0,1,12.8,8.913,26.333,26.333,0,0,1,1.64,9.151Z" transform="translate(-112.472 -106.993)" fill="#ffc344"/>
      <path id="Trazado_896040" data-name="Trazado 896040" d="M132.428,72.451A26.883,26.883,0,1,1,94.409,110.47l3.09-3.09,17.836-15.185,14-16.652Z" transform="translate(-84.785 -65.383)" fill="#97da7b"/>
      <path id="Trazado_896041" data-name="Trazado 896041" d="M270.779,110.472a26.822,26.822,0,0,1-20.621,7.826A26.885,26.885,0,0,0,269.1,74.134l1.68-1.68A26.882,26.882,0,0,1,270.779,110.472Z" transform="translate(-223.136 -65.385)" fill="#80d261"/>
      <path id="Trazado_896042" data-name="Trazado 896042" d="M153.911,100.115a22.513,22.513,0,0,1-31.838,31.838l15.919-15.919Z" transform="translate(-109.358 -89.957)" fill="#ee6161"/>
      <circle id="Elipse_11977" data-name="Elipse 11977" cx="10.279" cy="10.279" r="10.279" transform="translate(16.353 34.668)" fill="#ffd15b"/>
      <path id="Trazado_896043" data-name="Trazado 896043" d="M245.4,329.813a10.281,10.281,0,0,1-11.731,10.176,10.279,10.279,0,0,0,0-20.352A10.281,10.281,0,0,1,245.4,329.813Z" transform="translate(-208.488 -284.866)" fill="#ffc344"/>
      <path id="Trazado_896044" data-name="Trazado 896044" d="M20.391,347.547l-.133-.043a3.67,3.67,0,0,0-2.255,0c-4.075,1.309-8.318-1.382-9.363-5.938l-.011-.049a15.035,15.035,0,0,1,0-6.708l.046-.2c1.032-4.5,5.188-7.19,9.231-5.979l.171.051a3.66,3.66,0,0,0,2.109,0l.3-.09c3.992-1.2,8.1,1.413,9.2,5.834l.036.148a15.03,15.03,0,0,1,0,7.183c-1.106,4.478-5.305,7.086-9.329,5.793Z" transform="translate(-8.249 -292.653)" fill="#f79595"/>
      <path id="Trazado_896045" data-name="Trazado 896045" d="M144.753,341.793a7.807,7.807,0,0,1-6.2,6.044,11.426,11.426,0,0,0,3.534-6.044,15.02,15.02,0,0,0,0-7.183l-.036-.147c-.7-2.824-2.239-5.132-4.3-6.119a7.707,7.707,0,0,1,6.969,6.119l.036.147A15.02,15.02,0,0,1,144.753,341.793Z" transform="translate(-123.282 -292.692)" fill="#f47c7c"/>
    </g>
    <g id="Grupo_1111039" data-name="Grupo 1111039" transform="translate(0 1.674)">
      <path id="Trazado_896046" data-name="Trazado 896046" d="M57.276,28.589a27.539,27.539,0,0,0-8.119-19.6.838.838,0,0,0-1.185,0L18.731,38.229c-2.174-1.148-4.161-.815-6.441-.416a8.654,8.654,0,0,0-3.765-5.252.838.838,0,1,0-.794,1.475,6.846,6.846,0,0,1,2.724,3.551A7.955,7.955,0,0,0,2.93,39.823c-2.653-9.675.537-24.19,12.89-24.173A13.022,13.022,0,0,1,27.978,24.4a.838.838,0,1,0,1.58-.557,14.749,14.749,0,0,0-5.654-7.4,8.764,8.764,0,0,1,1.486-3.458l1.1-1.537a1.862,1.862,0,0,0-2.266-2.758L21.6,9.89a8.488,8.488,0,0,1,1.877-5.766,1.545,1.545,0,0,0-1.9-2.307c-2.343,1.069-4.6,2.019-5.859,4.458-1.247-2.421-3.528-3.394-5.859-4.458a1.545,1.545,0,0,0-1.9,2.307A8.492,8.492,0,0,1,9.844,9.89l-2.631-1.2a1.862,1.862,0,0,0-2.266,2.758l1.1,1.537a8.763,8.763,0,0,1,1.5,3.508c-7.68,5.224-8.51,16.85-5.876,24.966A13.7,13.7,0,0,0,1.3,53.835a.838.838,0,0,0,1.494-.758c-2.024-3.993-1.418-10.766,2.763-13.2,1.83-1.065,3.435-.821,5.367-.435a11.11,11.11,0,0,1,.116,1.618.838.838,0,0,0,1.676,0,13.108,13.108,0,0,0-.1-1.606c1.974-.363,3.637-.72,5.521.356,5.3,3.028,5.312,13.331-.019,16.306a6.052,6.052,0,0,1-4.931.449,4.5,4.5,0,0,0-2.768,0A5.982,5.982,0,0,1,5.2,55.821a.838.838,0,1,0-.923,1.4,7.728,7.728,0,0,0,6.651.943,2.829,2.829,0,0,1,1.742,0,7.76,7.76,0,0,0,6.261-.581,8.348,8.348,0,0,0,1.793-1.35A11.1,11.1,0,0,0,34.9,55.791a27.724,27.724,0,0,0,22.371-27.2ZM7.412,12.006l-1.1-1.537q-.092-.289.21-.255c1.253.572,2.553,1.089,3.768,1.741a.838.838,0,0,0,1.234-.738c0-2.875-.078-5.244-1.905-7.671,2.721,1.242,5.269,2.736,5.269,6.178a.838.838,0,1,0,1.676,0c0-3.425,2.548-4.936,5.269-6.178-1.827,2.428-1.9,4.8-1.9,7.671a.838.838,0,0,0,1.235.738c1.214-.653,2.514-1.169,3.767-1.741q.3-.034.21.255l-1.1,1.537a10.446,10.446,0,0,0-1.642,3.543,14.709,14.709,0,0,0-13.323.04A10.442,10.442,0,0,0,7.412,12.006ZM21.8,54.944c2.753-3.988,2.626-10.781-.476-14.578a9.351,9.351,0,0,1,6.228-2.348A9.441,9.441,0,1,1,21.8,54.944Zm15.008-1.334a11.067,11.067,0,0,0,1.509-3.371A23.381,23.381,0,0,0,52.451,33.191a.838.838,0,0,0-1.643-.329A21.714,21.714,0,0,1,38.64,48.274,11.235,11.235,0,0,0,27.553,36.342a11.012,11.012,0,0,0-7.289,2.722l25.2-25.2a21.5,21.5,0,0,1,5.766,14.965.838.838,0,1,0,1.676.019,23.16,23.16,0,0,0-6.257-16.168l1.908-1.908A26.054,26.054,0,0,1,36.809,53.609Z" transform="translate(0 -1.674)"/>
      <path id="Trazado_896047" data-name="Trazado 896047" d="M347.644,324.5a.838.838,0,1,0-1.185,1.185l1.265,1.265a.838.838,0,0,0,1.185-1.185Z" transform="translate(-307.541 -288.224)"/>
      <path id="Trazado_896048" data-name="Trazado 896048" d="M377.2,283.55l-1.631-.727a.838.838,0,1,0-.682,1.53l1.631.727a.838.838,0,1,0,.682-1.53Z" transform="translate(-332.568 -251.353)"/>
      <path id="Trazado_896049" data-name="Trazado 896049" d="M388.04,233.681l-1.773-.089h-.043a.838.838,0,0,0-.041,1.674l1.773.089H388a.838.838,0,0,0,.041-1.674Z" transform="translate(-342.337 -207.685)"/>
      <path id="Trazado_896050" data-name="Trazado 896050" d="M378.534,180.707a.837.837,0,0,0,.266-.044l1.674-.561a.838.838,0,1,0-.532-1.589l-1.674.561a.838.838,0,0,0,.266,1.632Z" transform="translate(-335.506 -158.721)"/>
      <path id="Trazado_896051" data-name="Trazado 896051" d="M119.4,190.409a.835.835,0,0,0,.592-.245l1.846-1.846a.838.838,0,1,0-1.185-1.185l-1.254,1.254-1.254-1.254a.838.838,0,1,0-1.185,1.185l1.846,1.846a.836.836,0,0,0,.592.245Z" transform="translate(-103.676 -166.199)"/>
      <path id="Trazado_896052" data-name="Trazado 896052" d="M187.04,190.409a.835.835,0,0,0,.592-.245l1.846-1.846a.838.838,0,0,0-1.185-1.185l-1.254,1.254-1.254-1.254a.838.838,0,1,0-1.185,1.185l1.846,1.846a.836.836,0,0,0,.592.245Z" transform="translate(-163.763 -166.199)"/>
      <path id="Trazado_896053" data-name="Trazado 896053" d="M86.5,234.5l-1.254,1.254L83.995,234.5a.838.838,0,0,0-1.185,1.185l1.846,1.846a.838.838,0,0,0,1.185,0l1.846-1.846A.838.838,0,1,0,86.5,234.5Z" transform="translate(-73.342 -208.27)"/>
      <path id="Trazado_896054" data-name="Trazado 896054" d="M152.3,237.527a.838.838,0,0,0,1.185,0l1.846-1.846a.838.838,0,1,0-1.185-1.185l-1.254,1.254-1.253-1.254a.838.838,0,0,0-1.185,1.185Z" transform="translate(-133.43 -208.271)"/>
      <circle id="Elipse_11978" data-name="Elipse 11978" cx="0.838" cy="0.838" r="0.838" transform="translate(28.59 39.054)"/>
    </g>
  </g>
</svg>
