<svg xmlns="http://www.w3.org/2000/svg" width="90" height="90" viewBox="0 0 90 90">
  <g id="_70" data-name="70" transform="translate(-390.051 -1477)">
    <rect id="Rectángulo_405129" data-name="Rectángulo 405129" width="90" height="90" transform="translate(390.051 1477)" fill="none"/>
    <g id="Grupo_1111285" data-name="Grupo 1111285" transform="translate(395.051 1481.996)">
      <g id="Grupo_1111213" data-name="Grupo 1111213" transform="translate(1.174 1.177)">
        <g id="Grupo_1111200" data-name="Grupo 1111200" transform="translate(0.001 52.821)">
          <path id="Trazado_896428" data-name="Trazado 896428" d="M15.34,370.285,7.965,362.91a1.566,1.566,0,0,1,0-2.214l14.78-14.78,9.59,9.59-14.78,14.78A1.565,1.565,0,0,1,15.34,370.285Z" transform="translate(-7.506 -345.915)" fill="#e1761c"/>
        </g>
        <g id="Grupo_1111201" data-name="Grupo 1111201" transform="translate(0 52.821)">
          <path id="Trazado_896429" data-name="Trazado 896429" d="M25.116,348.292l-2.376-2.376L7.958,360.7a1.563,1.563,0,0,0,0,2.211l2.564,2.564a1.83,1.83,0,0,1,0-2.588Z" transform="translate(-7.5 -345.916)" fill="#d76718"/>
        </g>
        <g id="Grupo_1111202" data-name="Grupo 1111202" transform="translate(4.344 59.663)">
          <path id="Trazado_896430" data-name="Trazado 896430" d="M0,0H13.562V5.732H0Z" transform="translate(4.052 0) rotate(45)" fill="#fdcd08"/>
        </g>
        <g id="Grupo_1111203" data-name="Grupo 1111203" transform="translate(4.344 59.663)">
          <path id="Trazado_896431" data-name="Trazado 896431" d="M0,0H3.36V5.732H0Z" transform="translate(4.052 0) rotate(45)" fill="#faab18"/>
        </g>
        <g id="Grupo_1111204" data-name="Grupo 1111204" transform="translate(7.103 0)">
          <circle id="Elipse_12006" data-name="Elipse 12006" cx="35.274" cy="35.274" r="35.274" fill="#365f7e"/>
        </g>
        <g id="Grupo_1111205" data-name="Grupo 1111205" transform="translate(7.103)">
          <path id="Trazado_896432" data-name="Trazado 896432" d="M65.563,20.235a35.194,35.194,0,0,1,48.654-1.159q-.561-.618-1.156-1.217a35.308,35.308,0,0,0-49.867,50q.6.6,1.214,1.159A35.424,35.424,0,0,1,65.563,20.235Z" transform="translate(-52.866 -7.504)" fill="#2c4d66"/>
        </g>
        <g id="Grupo_1111206" data-name="Grupo 1111206" transform="translate(15.191 8.251)">
          <circle id="Elipse_12007" data-name="Elipse 12007" cx="27.104" cy="27.104" r="27.104" transform="translate(0)" fill="#b3dafe"/>
        </g>
        <g id="Grupo_1111207" data-name="Grupo 1111207" transform="translate(15.272 8.251)">
          <path id="Trazado_896433" data-name="Trazado 896433" d="M115.835,70.471a27.1,27.1,0,0,1,37.13-1.128q-.543-.613-1.128-1.2a27.1,27.1,0,0,0-38.331,38.331c.391.391.792.766,1.2,1.128A27.1,27.1,0,0,1,115.835,70.471Z" transform="translate(-105.568 -60.203)" fill="#8ac9fe"/>
        </g>
        <g id="Grupo_1111208" data-name="Grupo 1111208" transform="translate(27.236 17.783)">
          <path id="Trazado_896434" data-name="Trazado 896434" d="M182.371,142.169l6.492.392a11.151,11.151,0,0,0,11.508-8.5l2.726-11.211a1.166,1.166,0,0,0-1.409-1.409l-11.211,2.726a11.151,11.151,0,0,0-8.5,11.508Z" transform="translate(-181.958 -121.41)" fill="#77d192"/>
        </g>
        <g id="Grupo_1111209" data-name="Grupo 1111209" transform="translate(27.236 17.783)">
          <path id="Trazado_896435" data-name="Trazado 896435" d="M183.916,137.614a11.151,11.151,0,0,1,8.5-11.508l10.514-2.556.17-.7a1.166,1.166,0,0,0-1.409-1.409l-11.211,2.726a11.152,11.152,0,0,0-8.5,11.508l.392,6.492,1.827.11Z" transform="translate(-181.958 -121.41)" fill="#5bc175"/>
        </g>
        <g id="Grupo_1111210" data-name="Grupo 1111210" transform="translate(39.486 44.27)">
          <circle id="Elipse_12008" data-name="Elipse 12008" cx="3.973" cy="3.973" r="3.973" fill="#e58e82"/>
        </g>
        <g id="Grupo_1111211" data-name="Grupo 1111211" transform="translate(52.669 36.76)">
          <circle id="Elipse_12009" data-name="Elipse 12009" cx="3.112" cy="3.112" r="3.112" fill="#fdcd08"/>
        </g>
        <g id="Grupo_1111212" data-name="Grupo 1111212" transform="translate(52.156 24.491)">
          <circle id="Elipse_12010" data-name="Elipse 12010" cx="2.738" cy="2.738" r="2.738" fill="#77d192"/>
        </g>
      </g>
      <g id="Grupo_1111214" data-name="Grupo 1111214" transform="translate(0 0.003)">
        <path id="Trazado_896436" data-name="Trazado 896436" d="M79.358,29.636a1.172,1.172,0,0,0-2.3.437,33.948,33.948,0,1,1-1.384-5.1,1.172,1.172,0,1,0,2.208-.787,36.463,36.463,0,0,0-60.113-13.5,36.456,36.456,0,0,0,0,51.556,36.955,36.955,0,0,0,4.257,3.655L19.115,68.8l-5.534-5.534a1.172,1.172,0,0,0-1.657,1.657l5.534,5.534L15.07,72.844,7.158,64.931l4.677-4.677A1.172,1.172,0,0,0,10.177,58.6L.8,67.974a2.732,2.732,0,0,0,0,3.864L8.164,79.2a2.732,2.732,0,0,0,3.864,0L23.99,67.239a36.467,36.467,0,0,0,55.369-37.6ZM10.37,77.544a.388.388,0,0,1-.549,0L2.457,70.181a.389.389,0,0,1,0-.549L5.5,66.589,13.413,74.5Z" transform="translate(0 -0.003)"/>
        <path id="Trazado_896437" data-name="Trazado 896437" d="M104.507,65.011a1.174,1.174,0,0,0-1.629.322,28.3,28.3,0,1,0,3.517-4.276,1.174,1.174,0,0,0,1.661,1.661,25.9,25.9,0,1,1-3.227,3.923,1.174,1.174,0,0,0-.322-1.629Z" transform="translate(-82.922 -44.523)"/>
        <path id="Trazado_896438" data-name="Trazado 896438" d="M156.592,139.936a1.175,1.175,0,0,0,1.661,0l2.89-2.89,5.965.36q.378.023.752.023a12.316,12.316,0,0,0,11.968-9.415l2.725-11.211a2.341,2.341,0,0,0-2.827-2.827L168.514,116.7a12.316,12.316,0,0,0-9.392,12.719l.36,5.965-2.89,2.89a1.174,1.174,0,0,0,0,1.661Zm10.657-4.874-3.887-.235,3.316-3.316h4.155a1.174,1.174,0,0,0,0-2.349h-1.807l1.04-1.04,9.668-9.668-2.189,9A9.974,9.974,0,0,1,167.249,135.062Zm-5.783-5.783a9.97,9.97,0,0,1,7.6-10.3l9-2.189-7.663,7.663V122.65a1.174,1.174,0,1,0-2.348,0v4.156l-2.7,2.7h0l-3.66,3.66Z" transform="translate(-131.859 -96.129)"/>
        <path id="Trazado_896439" data-name="Trazado 896439" d="M247.718,272.29a5.081,5.081,0,0,0-.64-1.551l1.246-1.246a1.174,1.174,0,0,0-1.661-1.661l-1.246,1.246a5.082,5.082,0,0,0-1.551-.64v-1.765a1.174,1.174,0,0,0-2.348,0v1.77a5.081,5.081,0,0,0-1.542.644l-1.255-1.255a1.174,1.174,0,0,0-1.661,1.661l1.261,1.261a5.121,5.121,0,0,0-.63,1.536H235.9a1.174,1.174,0,0,0,0,2.349h1.8a5.114,5.114,0,0,0,.633,1.527l-1.27,1.27a1.174,1.174,0,0,0,1.661,1.661l1.269-1.269a5.082,5.082,0,0,0,1.528.635v1.792a1.174,1.174,0,1,0,2.349,0v-1.787a5.076,5.076,0,0,0,1.537-.632l1.26,1.26a1.174,1.174,0,1,0,1.661-1.661l-1.255-1.255a5.08,5.08,0,0,0,.644-1.542h1.77a1.174,1.174,0,0,0,0-2.349h-1.765Zm-5.015,3.962a2.8,2.8,0,1,1,1.979-4.778A2.8,2.8,0,0,1,242.7,276.252Z" transform="translate(-198.07 -224.037)"/>
        <path id="Trazado_896440" data-name="Trazado 896440" d="M338.423,236.594a4.286,4.286,0,0,0,6.061,6.061h0a4.286,4.286,0,0,0-6.062-6.061Zm4.4,4.4a1.937,1.937,0,1,1,0-2.74A1.94,1.94,0,0,1,342.824,240.995Z" transform="translate(-284.499 -198.579)"/>
        <path id="Trazado_896441" data-name="Trazado 896441" d="M335.031,157.936a3.912,3.912,0,0,0,5.533,5.533h0a3.912,3.912,0,1,0-5.533-5.533Zm3.872,3.872a1.563,1.563,0,1,1,0-2.211A1.565,1.565,0,0,1,338.9,161.809Z" transform="translate(-281.729 -132.3)"/>
      </g>
    </g>
  </g>
</svg>
