<svg xmlns="http://www.w3.org/2000/svg" width="90" height="90" viewBox="0 0 90 90">
  <g id="_72" data-name="72" transform="translate(-996.051 -1466)">
    <rect id="Rectángulo_405131" data-name="Rectángulo 405131" width="90" height="90" transform="translate(996.051 1466)" fill="none"/>
    <g id="Grupo_1111287" data-name="Grupo 1111287" transform="translate(948.503 1471)">
      <g id="Grupo_1111226" data-name="Grupo 1111226" transform="translate(63.703 1.662)">
        <g id="Grupo_1111225" data-name="Grupo 1111225">
          <path id="Trazado_896476" data-name="Trazado 896476" d="M91.6,91.352H84.986L81.68,97.079l3.306,5.727,8.306-8.519Z" transform="translate(-79.846 -78.74)" fill="#c3f839"/>
          <path id="Trazado_896477" data-name="Trazado 896477" d="M83.642,106.251l-1.962,3.4,3.306,5.727,2.465-2.528Z" transform="translate(-79.846 -91.311)" fill="#abe700"/>
          <path id="Trazado_896478" data-name="Trazado 896478" d="M78.455,31.195,99.012,10.638l20.557,20.557a29.072,29.072,0,1,1-41.114,0Z" transform="translate(-69.94 -10.638)" fill="#54c9f3"/>
          <path id="Trazado_896479" data-name="Trazado 896479" d="M116.977,171.3a29.073,29.073,0,0,1-36.008-45.186l-2.513,2.513a29.073,29.073,0,0,0,38.9,43.117Z" transform="translate(-69.94 -108.073)" fill="#00adeb"/>
          <path id="Trazado_896480" data-name="Trazado 896480" d="M303.886,42.6l4.876-4.876,4.876,4.876a6.9,6.9,0,1,1-9.752,0Z" transform="translate(-265.628 -33.494)" fill="#b6e6fa"/>
          <path id="Trazado_896481" data-name="Trazado 896481" d="M306.251,63.551a6.9,6.9,0,0,1,0-9.752l-2.365,2.365a6.9,6.9,0,1,0,10.79,8.425A6.9,6.9,0,0,1,306.251,63.551Z" transform="translate(-265.628 -47.055)" fill="#8ad8f6"/>
          <g id="Grupo_1111224" data-name="Grupo 1111224" transform="translate(19.474 9.512)">
            <path id="Trazado_896482" data-name="Trazado 896482" d="M196.231,78.142l-1.657-1.657,1.657-1.657,1.657,1.657Zm3.315-3.315-1.657-1.657,1.657-1.657L201.2,73.17Z" transform="translate(-194.574 -71.513)" fill="#fff"/>
          </g>
          <circle id="Elipse_12013" data-name="Elipse 12013" cx="8.336" cy="8.336" r="8.336" transform="translate(4.329 60.471)" fill="#fee95d"/>
          <path id="Trazado_896483" data-name="Trazado 896483" d="M108.634,418.525a8.335,8.335,0,0,1-7.067-12.755,8.335,8.335,0,1,0,11.486,11.486A8.3,8.3,0,0,1,108.634,418.525Z" transform="translate(-93.32 -344.031)" fill="#f7d700"/>
          <path id="Trazado_896484" data-name="Trazado 896484" d="M341.145,377.7h-7.812l-3.906,6.766,3.906,6.766h7.813l3.906-6.766Z" transform="translate(-288.881 -320.347)" fill="#fd3501"/>
          <path id="Trazado_896485" data-name="Trazado 896485" d="M333.332,377.7l-3.906,6.766,3.906,6.766h7.813l1.985-3.437h-7.812l-1.922-3.328L337.3,377.7Z" transform="translate(-288.881 -320.347)" fill="#dd2d00"/>
        </g>
      </g>
      <g id="Grupo_1111227" data-name="Grupo 1111227" transform="translate(62.548 0)">
        <path id="Trazado_896486" data-name="Trazado 896486" d="M122.011,35.084l-2.266.591a27.788,27.788,0,0,1-3.559,22.206h-8.723l-4.58,7.933,1.355,2.346a27.812,27.812,0,0,1-18.394,1.589,9.556,9.556,0,0,0-13.38-7.907,27.878,27.878,0,0,1,.592-38.816L92.77,3.312l7.586,7.586a8.062,8.062,0,0,0,11.281,11.281,28.31,28.31,0,0,1,7.414,11.234l2.208-.782a30.6,30.6,0,0,0-7.965-12.109,8.074,8.074,0,0,0-.768-10.512l-5.7-5.7-4.872,4.872L92.77,0,77.406,15.364l-1.268-2.2H68.178L64.2,20.062l3.415,5.915A30.245,30.245,0,0,0,70.43,63.093a9.5,9.5,0,0,0,2.937,16.42l.741-2.222a7.166,7.166,0,1,1,2.267.366V80a9.516,9.516,0,0,0,9.358-7.865A30.127,30.127,0,0,0,105.413,70.2l2.05,3.55h9.16l4.58-7.933-3.476-6.021A30.122,30.122,0,0,0,122.011,35.084ZM110.868,11.667a5.72,5.72,0,1,1-8.09,0l4.045-4.045ZM66.9,20.062,69.53,15.51h5.256l.905,1.568L71.4,21.37a30.694,30.694,0,0,0-2.274,2.544ZM115.27,71.4h-6.455l-3.228-5.59,3.228-5.59h6.455l3.228,5.59Z" transform="translate(-62.548 0)"/>
        <path id="Trazado_896487" data-name="Trazado 896487" d="M167.9,238.044V226.333h-2.342v4.685h-4.689v-4.685h-2.342v11.711h2.342V233.36h4.689v4.685Z" transform="translate(-143.534 -190.968)"/>
        <path id="Trazado_896488" data-name="Trazado 896488" d="M298.129,226.283a4.69,4.69,0,0,0-4.685,4.685v2.358a4.685,4.685,0,1,0,9.369,0v-2.358A4.69,4.69,0,0,0,298.129,226.283Zm2.342,7.042a2.342,2.342,0,1,1-4.684,0v-2.358a2.342,2.342,0,1,1,4.684,0Z" transform="translate(-257.366 -190.926)"/>
        <path id="Trazado_896489" data-name="Trazado 896489" d="M239.245,262.552a3.562,3.562,0,0,0-2.36-6.192,3.6,3.6,0,0,0-3.521,4.072h2.342c-.08-.869.178-1.684,1.179-1.729a1.211,1.211,0,0,1,.8,2.1l-4.322,3.854v3.413h7.055v-2.342h-4.713v-.021Z" transform="translate(-206.656 -216.304)"/>
      </g>
    </g>
  </g>
</svg>
