<svg id="_76" data-name="76" xmlns="http://www.w3.org/2000/svg" width="137.051" height="157.354" viewBox="0 0 137.051 157.354">
  <path id="Trazado_896501" data-name="Trazado 896501" d="M8,376v20.3a5.091,5.091,0,0,0,5.076,5.076H134.9a5.091,5.091,0,0,0,5.076-5.076V376Zm0,0" transform="translate(-5.462 -256.715)" fill="#ccd1d9"/>
  <path id="Trazado_896502" data-name="Trazado 896502" d="M8,296v25.38H139.975V296Zm0,0" transform="translate(-5.462 -202.095)" fill="#ccd1d9"/>
  <path id="Trazado_896503" data-name="Trazado 896503" d="M259.146,168H216v40.608h65.987V168Zm0,0" transform="translate(-147.475 -114.703)" fill="#969faa"/>
  <path id="Trazado_896504" data-name="Trazado 896504" d="M139.975,13.076v5.076H8V13.076A5.091,5.091,0,0,1,13.076,8H134.9A5.091,5.091,0,0,1,139.975,13.076Zm0,0" transform="translate(-5.462 -5.462)" fill="#838f9b"/>
  <path id="Trazado_896505" data-name="Trazado 896505" d="M145.823,456l-5.076,10.152H29.076L24,456Zm0,0" transform="translate(-16.386 -311.335)" fill="#838f9b"/>
  <path id="Trazado_896506" data-name="Trazado 896506" d="M329.38,200v30.456H311.614V215.228H304V200Zm0,0" transform="translate(-207.557 -136.551)" fill="#fcd770"/>
  <path id="Trazado_896507" data-name="Trazado 896507" d="M251.532,40H216V80.608h65.987V40Zm0,0" transform="translate(-147.475 -27.31)" fill="#aab2bd"/>
  <path id="Trazado_896508" data-name="Trazado 896508" d="M323.5,88.076A9.125,9.125,0,0,1,324.69,88a12.713,12.713,0,1,1-10.177,5.124,12.557,12.557,0,0,1,8.983-5.049Zm0,0" transform="translate(-213.019 -60.082)" fill="#ff826e"/>
  <path id="Trazado_896509" data-name="Trazado 896509" d="M259.5,88.076A9.126,9.126,0,0,1,260.69,88a12.607,12.607,0,0,1,10.127,5.124,12.678,12.678,0,0,0,10.177,20.255h-20.3a12.68,12.68,0,0,1-1.193-25.3Zm0,0" transform="translate(-169.323 -60.082)" fill="#ff826e"/>
  <path id="Trazado_896510" data-name="Trazado 896510" d="M273.38,248v15.228H248V248Zm0,0" transform="translate(-169.323 -169.323)" fill="#ffeaa7"/>
  <path id="Trazado_896511" data-name="Trazado 896511" d="M192.608,376v5.076a5.091,5.091,0,0,1-5.076,5.076H157.076A5.091,5.091,0,0,1,152,381.076V376Zm0,0" transform="translate(-103.778 -256.715)" fill="#838f9b"/>
  <path id="Trazado_896512" data-name="Trazado 896512" d="M192.608,296v5.076a5.091,5.091,0,0,1-5.076,5.076H157.076A5.091,5.091,0,0,1,152,301.076V296Zm0,0" transform="translate(-103.778 -202.095)" fill="#838f9b"/>
  <path id="Trazado_896513" data-name="Trazado 896513" d="M8,40v81.215H73.987V40Zm0,0" transform="translate(-5.462 -27.31)" fill="#ccd1d9"/>
  <path id="Trazado_896514" data-name="Trazado 896514" d="M194.152,113.38v25.38h-5.076A5.091,5.091,0,0,1,184,133.684V93.076A5.091,5.091,0,0,1,189.076,88h5.076Zm0,0" transform="translate(-125.627 -60.082)" fill="#838f9b"/>
  <path id="Trazado_896515" data-name="Trazado 896515" d="M129.437,0H7.614A7.624,7.624,0,0,0,0,7.614V139.589A7.616,7.616,0,0,0,5.946,147l5.175,10.35H125.93L131.1,147a7.616,7.616,0,0,0,5.946-7.416V7.614A7.624,7.624,0,0,0,129.437,0ZM7.614,5.076H129.437a2.541,2.541,0,0,1,2.538,2.538v2.538H5.076V7.614A2.541,2.541,0,0,1,7.614,5.076ZM50.76,121.823H86.291v2.538a2.541,2.541,0,0,1-2.538,2.538H53.3a2.541,2.541,0,0,1-2.538-2.538ZM5.076,116.747v-20.3H45.684v2.538a7.624,7.624,0,0,0,7.614,7.614H83.753a7.624,7.624,0,0,0,7.614-7.614V96.443h40.608v20.3Zm114.209-25.38h-12.69V76.139H98.981V65.987h20.3ZM101.519,81.215V91.367h-20.3V81.215ZM86.291,96.443v2.538a2.541,2.541,0,0,1-2.538,2.538H53.3a2.541,2.541,0,0,1-2.538-2.538V96.443Zm-20.3-20.3H63.449A2.541,2.541,0,0,1,60.911,73.6V32.994a2.541,2.541,0,0,1,2.538-2.538h2.538Zm0-50.76H63.449a7.624,7.624,0,0,0-7.614,7.614V73.6a7.624,7.624,0,0,0,7.614,7.614h2.538V91.367H5.076V15.228H65.987Zm58.373,65.987V60.911H93.905V76.139H76.139V91.367H71.063V55.835h60.911V91.367ZM81.215,40.608a10.13,10.13,0,0,1,7.132-9.641,22.187,22.187,0,0,1,.482,4.565h5.076a27.5,27.5,0,0,0-.446-4.829,9.972,9.972,0,0,1,4.847,2.619,15.157,15.157,0,0,0,2.046,17.439H91.367A10.162,10.162,0,0,1,81.215,40.608Zm27.918-5.076h5.076a27.209,27.209,0,0,0-.452-4.855,10.248,10.248,0,1,1-5.106.29,22.187,22.187,0,0,1,.482,4.565ZM122.99,50.76a15.189,15.189,0,0,0-10.743-25.351,26.975,26.975,0,0,0-5.96-9l-.434-.436-3.594,3.584.436.439a22.007,22.007,0,0,1,4.3,6.124,15.2,15.2,0,0,0-5.5,3.19,14.956,14.956,0,0,0-9.553-3.895,26.96,26.96,0,0,0-5.96-9l-.434-.436-3.594,3.584.436.439a22.008,22.008,0,0,1,4.3,6.124A15.191,15.191,0,0,0,80.048,50.76H71.063V15.228h60.911V50.76ZM14.259,152.279,11.721,147.2H125.33l-2.538,5.076Zm115.178-10.152H7.614a2.541,2.541,0,0,1-2.538-2.538V121.823H45.684v2.538a7.624,7.624,0,0,0,7.614,7.614H83.753a7.624,7.624,0,0,0,7.614-7.614v-2.538h40.608v17.766A2.541,2.541,0,0,1,129.437,142.127Zm0,0"/>
</svg>
