<svg xmlns="http://www.w3.org/2000/svg" width="142.2" height="142.217" viewBox="0 0 142.2 142.217">
  <g id="_78" data-name="78" transform="translate(0.001 -0.014)">
    <g id="_039---Frozen-Veg" data-name="039---Frozen-Veg" transform="translate(-0.001 0.013)">
      <path id="Shape" d="M98.363,64.154a33.181,33.181,0,1,1-66.363,0,30.4,30.4,0,0,1,.237-3.911,33.181,33.181,0,0,1,66.126,3.911Z" transform="translate(41.475 42.469)" fill="#00bcd4"/>
      <path id="Shape-2" data-name="Shape" d="M48.055,31a33.231,33.231,0,0,0-3.555.2,33.181,33.181,0,0,1,0,65.969A33.181,33.181,0,1,0,48.055,31Z" transform="translate(58.602 42.442)" fill="#00838f"/>
      <path id="Shape-3" data-name="Shape" d="M112.928,71.862a20.336,20.336,0,0,1,5.262,19.482,33.181,33.181,0,0,0-61.267,2.489,22.3,22.3,0,0,1-2.086-2.441A21.442,21.442,0,0,1,50.381,78.64a15.643,15.643,0,0,1,4.456-11.234,15.562,15.562,0,0,1-11.211,4.432,21.374,21.374,0,0,1-12.775-4.432A23.618,23.618,0,0,1,23.03,57.262v-.024a18.013,18.013,0,0,1,.261-14.908v-.024a9.407,9.407,0,0,1,.758-1.351,19.624,19.624,0,0,1-2.892-2.394A20.674,20.674,0,0,1,50.381,9.315a20.1,20.1,0,0,1,1.635,1.872,11.85,11.85,0,0,1,3.247-6.731C60.643-.924,70.385.1,77.045,6.731a19.8,19.8,0,0,1,5.238,9.291c5.451-4.93,14.837-3.84,21.307,2.631s7.561,15.856,2.631,21.307a19.8,19.8,0,0,1,9.291,5.238c6.636,6.66,7.655,16.4,2.275,21.781a11.851,11.851,0,0,1-6.731,3.247,20.1,20.1,0,0,1,1.872,1.635Z" transform="translate(18.591 1.343)" fill="#a4c400"/>
      <path id="Shape-4" data-name="Shape" d="M33.313,7.918A20.1,20.1,0,0,1,34.949,9.79,12.531,12.531,0,0,1,36.7,5,20.383,20.383,0,0,0,22.565,2.329,20.091,20.091,0,0,1,33.313,7.918Z" transform="translate(28.549 2.74)" fill="#90ac00"/>
      <path id="Shape-5" data-name="Shape" d="M25.712,33.1a18.931,18.931,0,0,0,3.645.351c.367,0,.73-.026,1.093-.047a14.78,14.78,0,0,1,3.008-4.385A14.986,14.986,0,0,1,25.712,33.1Z" transform="translate(32.86 39.729)" fill="#90ac00"/>
      <path id="Shape-6" data-name="Shape" d="M43.736,6.672a19.8,19.8,0,0,1,5.238,9.291,11.9,11.9,0,0,1,6.139-2.887,20.082,20.082,0,0,0-4.266-6.4A17.671,17.671,0,0,0,34.419,1.4a19.672,19.672,0,0,1,9.317,5.276Z" transform="translate(44.79 1.403)" fill="#90ac00"/>
      <path id="Shape-7" data-name="Shape" d="M69.47,63.268A11.85,11.85,0,0,0,76.2,60.021c5.38-5.38,4.361-15.121-2.275-21.781A19.8,19.8,0,0,0,64.635,33c4.93-5.451,3.84-14.837-2.631-21.307A17.539,17.539,0,0,0,45.65,6.433a19.492,19.492,0,0,1,9.243,5.262c6.47,6.47,7.561,15.856,2.631,21.307a19.8,19.8,0,0,1,9.291,5.238c6.636,6.66,7.655,16.4,2.275,21.781a11.851,11.851,0,0,1-6.731,3.247,19.7,19.7,0,0,1,7.21,11.244A33.349,33.349,0,0,1,76.6,84.386,20.335,20.335,0,0,0,71.342,64.9a20.1,20.1,0,0,0-1.872-1.635Z" transform="translate(60.177 8.301)" fill="#90ac00"/>
      <path id="Shape-8" data-name="Shape" d="M59.334,31A33.139,33.139,0,0,0,31.078,46.842a23.256,23.256,0,0,0,2.133,3.451A22.3,22.3,0,0,0,35.3,52.734,33.219,33.219,0,0,1,62.889,31.211,33.353,33.353,0,0,0,59.334,31Z" transform="translate(40.212 42.442)" fill="#90ac00"/>
      <path id="Shape-9" data-name="Shape" d="M75.138,61.311a33.317,33.317,0,0,0-1.8,7.537A42.548,42.548,0,0,0,55.8,79.2L30.415,104.589a4.911,4.911,0,0,1-6.944-.19l-9.978-9.954L3.538,84.467a4.911,4.911,0,0,1-.19-6.944L28.732,52.138a46.44,46.44,0,0,0,12.514-27.4,23.618,23.618,0,0,0,7.821,10.144,64.8,64.8,0,0,1-3.934,14.695,2.387,2.387,0,0,0,3.911,2.56l12.8-12.822a15.562,15.562,0,0,0,11.211-4.432A15.643,15.643,0,0,0,68.6,46.118L55.8,58.893a2.387,2.387,0,0,0,2.56,3.911,64.8,64.8,0,0,1,14.695-3.934,22.3,22.3,0,0,0,2.086,2.441Z" transform="translate(0.376 33.865)" fill="#549414"/>
      <path id="Shape-10" data-name="Shape" d="M81.084,62.453l-6.52,3.226-9.717-5.608,9.717-5.608,6.52,3.238a2.37,2.37,0,0,0,2.1-4.25L79.5,51.626l2.32-1.341a2.37,2.37,0,1,0-2.37-4.105l-2.323,1.339.265-4.107a2.37,2.37,0,0,0-2.214-2.517,2.32,2.32,0,0,0-2.517,2.214l-.465,7.245-9.717,5.612V44.748l6.056-4.029A2.37,2.37,0,0,0,65.9,36.775l-3.425,2.278V36.37a2.37,2.37,0,1,0-4.74,0v2.683l-3.425-2.285a2.37,2.37,0,0,0-2.631,3.944l6.056,4.036V55.966l-9.717-5.612-.474-7.26a2.339,2.339,0,0,0-2.517-2.214A2.37,2.37,0,0,0,42.814,43.4l.275,4.112L40.767,46.17a2.37,2.37,0,1,0-2.37,4.105l2.32,1.341-3.688,1.825a2.374,2.374,0,0,0,2.1,4.259l6.52-3.238,9.717,5.608-9.717,5.608-6.523-3.226a2.37,2.37,0,0,0-2.1,4.25l3.688,1.825-2.32,1.341a2.37,2.37,0,1,0,2.37,4.105l2.323-1.339-.265,4.107a2.37,2.37,0,0,0,2.214,2.517h.154a2.37,2.37,0,0,0,2.37-2.218l.474-7.26,9.7-5.605V75.394l-6.056,4.029a2.37,2.37,0,0,0,2.631,3.944l3.425-2.278v2.683a2.37,2.37,0,1,0,4.74,0V81.089L65.9,83.374a2.37,2.37,0,0,0,2.631-3.944l-6.056-4.036V64.176l9.717,5.612.474,7.26a2.37,2.37,0,0,0,2.37,2.218h.154a2.37,2.37,0,0,0,2.214-2.517l-.282-4.117,2.323,1.339a2.37,2.37,0,1,0,2.37-4.105L79.5,68.525,83.184,66.7a2.37,2.37,0,0,0-2.1-4.25Z" transform="translate(46.55 46.552)" fill="#f5f5f5"/>
      <path id="Shape-11" data-name="Shape" d="M11.791,57.4a2.37,2.37,0,0,1-1.676-4.046L25.348,38.118A2.37,2.37,0,0,1,28.7,41.469L13.467,56.7a2.37,2.37,0,0,1-1.676.694Z" transform="translate(10.54 51.282)" fill="#f5f5f5"/>
      <path id="Shape-12" data-name="Shape" d="M8.221,53.139a2.37,2.37,0,0,1-1.676-4.046L8.235,47.4a2.37,2.37,0,0,1,3.351,3.351L9.9,52.444a2.37,2.37,0,0,1-1.676.694Z" transform="translate(5.649 64.001)" fill="#f5f5f5"/>
      <g id="Grupo_1111252" data-name="Grupo 1111252">
        <path id="Shape-13" data-name="Shape" d="M135.246,72.663a13.469,13.469,0,0,0,3.806-2.652c6.288-6.288,5.269-17.562-2.282-25.142a22.473,22.473,0,0,0-7.21-4.818c3.392-6.461,1.638-15.377-4.7-21.717s-15.259-8.094-21.717-4.7a22.532,22.532,0,0,0-4.83-7.222c-7.57-7.539-18.857-8.558-25.13-2.273a13.332,13.332,0,0,0-2.652,3.811A22.478,22.478,0,0,0,55.642,2.39h-.014a23.274,23.274,0,0,0-23.18,23.187A22.469,22.469,0,0,0,39.072,41.6q.73.711,1.5,1.368a20.589,20.589,0,0,0-.391,15.9A43.373,43.373,0,0,1,28.423,84.336L3.037,109.718a7.3,7.3,0,0,0,.187,10.31l9.954,9.954,9.966,9.954a7.551,7.551,0,0,0,5.349,2.252,6.928,6.928,0,0,0,4.977-2.043l25.372-25.381a39.3,39.3,0,0,1,13.273-8.544c0,.14-.021.277-.021.417a35.552,35.552,0,1,0,68.133-14.183,22.53,22.53,0,0,0-4.982-19.79ZM37.188,25.579A18.532,18.532,0,0,1,55.63,7.133a17.762,17.762,0,0,1,12.654,5.214,18.059,18.059,0,0,1,1.441,1.659,2.37,2.37,0,0,0,4.214-1.1A9.53,9.53,0,0,1,76.518,7.5c4.444-4.444,12.711-3.42,18.423,2.268a17.4,17.4,0,0,1,4.615,8.172,2.37,2.37,0,0,0,3.894,1.209c4.577-4.136,12.5-3.012,18.055,2.541s6.674,13.479,2.55,18.041a2.37,2.37,0,0,0,1.206,3.9,17.394,17.394,0,0,1,8.163,4.605c5.688,5.719,6.719,13.984,2.278,18.43a9.54,9.54,0,0,1-5.406,2.581,2.37,2.37,0,0,0-1.1,4.216,17.555,17.555,0,0,1,6.722,11.694A35.452,35.452,0,0,0,75.9,90.757c-4.707-6.752-4.8-15.3.209-20.312a2.371,2.371,0,1,0-3.354-3.351,13.543,13.543,0,0,1-10.94,3.681A19.94,19.94,0,0,1,49.52,64.833c-6.188-6.188-7.821-15.119-3.877-21.241a2.37,2.37,0,0,0-.668-3.249,17.3,17.3,0,0,1-2.543-2.1,17.75,17.75,0,0,1-5.243-12.659ZM68.277,85.035a24.068,24.068,0,0,0,2.275,5.985,68.415,68.415,0,0,0-11.7,3.439ZM52.16,72.635a24.234,24.234,0,0,0,5.97,2.287l-9.44,9.416a66.734,66.734,0,0,0,3.479-11.7Zm3.318,38.772L30.1,136.8a2.621,2.621,0,0,1-3.584-.2l-9.954-9.943v-.012l-9.954-9.969a2.593,2.593,0,0,1-.19-3.6L31.775,87.688A45.864,45.864,0,0,0,43.751,65.409a26.107,26.107,0,0,0,2.408,2.771c.547.548,1.133,1.024,1.711,1.512a61.708,61.708,0,0,1-3.555,12.87,4.688,4.688,0,0,0,1.78,5.714,4.79,4.79,0,0,0,2.65.808,4.74,4.74,0,0,0,3.351-1.4L64.283,75.489a19.418,19.418,0,0,0,4.008-.581,19.514,19.514,0,0,0-.576,3.982L55.5,91.108a4.74,4.74,0,0,0,5.11,7.786,61.769,61.769,0,0,1,12.884-3.576c.111.133.237.265.344.4a35.38,35.38,0,0,0-1.24,5.276,44.5,44.5,0,0,0-17.1,10.417Zm52.178,26.04a30.811,30.811,0,1,1,30.811-30.811A30.811,30.811,0,0,1,107.656,137.448Z" transform="translate(-0.999 -0.013)"/>
        <path id="Shape-14" data-name="Shape" d="M31.638,22.782a2.37,2.37,0,0,0,3.271-.711A15.24,15.24,0,0,0,37,10.931a2.372,2.372,0,1,0-4.648.948,10.483,10.483,0,0,1-1.422,7.653A2.37,2.37,0,0,0,31.638,22.782Z" transform="translate(39.508 12.345)"/>
        <path id="Shape-15" data-name="Shape" d="M32.167,17.016a2.37,2.37,0,0,0,.438,3.318A12.782,12.782,0,0,1,37.53,30.713a2.37,2.37,0,0,0,2.294,2.444H39.9a2.37,2.37,0,0,0,2.37-2.3,17.579,17.579,0,0,0-6.776-14.289,2.37,2.37,0,0,0-3.328.446Z" transform="translate(41.036 22.002)"/>
        <path id="Shape-16" data-name="Shape" d="M40.52,25.67a2.351,2.351,0,0,0,1.251-.36,16.828,16.828,0,0,0,7.66-11.739,2.37,2.37,0,1,0-4.688-.68,12.054,12.054,0,0,1-5.482,8.4A2.37,2.37,0,0,0,40.52,25.67Z" transform="translate(49.893 14.733)"/>
        <path id="Shape-17" data-name="Shape" d="M25.351,18.768a2.344,2.344,0,0,0,1.123-.287,10.277,10.277,0,0,1,7.279-.917,2.371,2.371,0,1,0,1.149-4.6,15.053,15.053,0,0,0-10.665,1.349,2.37,2.37,0,0,0,1.126,4.456Z" transform="translate(29.135 17.141)"/>
        <path id="Shape-18" data-name="Shape" d="M45.053,29.032a2.37,2.37,0,0,0,3.266-.756,12.059,12.059,0,0,1,8.4-5.48,2.371,2.371,0,1,0-.68-4.693A16.851,16.851,0,0,0,44.3,25.766,2.37,2.37,0,0,0,45.053,29.032Z" transform="translate(57.835 24.738)"/>
      </g>
    </g>
  </g>
</svg>
