<svg xmlns="http://www.w3.org/2000/svg" width="90" height="90" viewBox="0 0 90 90">
  <g id="_80" data-name="80" transform="translate(-659.051 -3559)">
    <rect id="Rectángulo_405133" data-name="Rectángulo 405133" width="90" height="90" transform="translate(659.051 3559)" fill="none"/>
    <g id="Grupo_1111256" data-name="Grupo 1111256" transform="translate(669.051 3528.35)">
      <path id="XMLID_1581_" d="M85.5,315.363v18.114a1.368,1.368,0,0,1-1.367,1.367H22.7a1.368,1.368,0,0,1-1.367-1.367V315.363Z" transform="translate(-18.414 -231.975)" fill="#8d9da7"/>
      <path id="XMLID_1582_" d="M456.683,315.363v18.114a1.368,1.368,0,0,1-1.367,1.367H451.3a1.368,1.368,0,0,0,1.367-1.367V315.363Z" transform="translate(-389.599 -231.975)" fill="#7a8d98"/>
      <path id="XMLID_1583_" d="M85.5,315.363v8.66a7.176,7.176,0,0,1-3.127.714H24.457a7.176,7.176,0,0,1-3.127-.714v-8.66Z" transform="translate(-18.414 -231.975)" fill="#7a8d98"/>
      <path id="XMLID_1584_" d="M75.449,107.81v29.366a5.017,5.017,0,0,1-5.018,5.016H12.518A5.017,5.017,0,0,1,7.5,137.176V107.81a1.368,1.368,0,0,1,1.367-1.367H74.082A1.368,1.368,0,0,1,75.449,107.81Z" transform="translate(-6.475 -51.618)" fill="#c5d3dd"/>
      <path id="XMLID_1585_" d="M447.463,107.81v29.366a5.017,5.017,0,0,1-5.018,5.016H438.43a5.017,5.017,0,0,0,5.018-5.016V107.81a1.368,1.368,0,0,0-1.367-1.367H446.1A1.368,1.368,0,0,1,447.463,107.81Z" transform="translate(-378.488 -51.618)" fill="#b7c4ce"/>
      <path id="XMLID_1588_" d="M96.883,55.52v26.3a1.368,1.368,0,0,1-1.367,1.367H38.367A1.368,1.368,0,0,1,37,81.821V55.52a1.367,1.367,0,0,1,1.367-1.367H95.516a1.367,1.367,0,0,1,1.367,1.367Z" transform="translate(-31.941 -6.477)" fill="#9ce6fb"/>
      <g id="Grupo_1111255" data-name="Grupo 1111255" transform="translate(5.059 47.676)">
        <path id="XMLID_1589_" d="M69.895,54.153,40.86,83.188H38.367A1.368,1.368,0,0,1,37,81.821V80.2L63.042,54.153h6.852Z" transform="translate(-37 -54.153)" fill="#c9f0fd"/>
        <path id="XMLID_1590_" d="M258.791,55.52v5.268l-22.4,22.4H224.55l29.034-29.035h3.84a1.367,1.367,0,0,1,1.367,1.367Z" transform="translate(-198.908 -54.153)" fill="#c9f0fd"/>
        <path id="XMLID_1591_" d="M357.274,130.153V147.43a1.368,1.368,0,0,1-1.367,1.367H338.63Z" transform="translate(-297.392 -119.762)" fill="#c9f0fd"/>
      </g>
      <path id="XMLID_1592_" d="M37,106.443H96.883V114.7H37Z" transform="translate(-31.941 -51.618)" fill="#8d9da7"/>
      <path id="XMLID_1593_" d="M129.892,106.443l-8.259,8.259H114.78l8.259-8.259Z" transform="translate(-99.087 -51.618)" fill="#a0acb9"/>
      <path id="XMLID_1594_" d="M344.32,106.443l-8.259,8.259H324.22l8.258-8.259Z" transform="translate(-279.893 -51.618)" fill="#a0acb9"/>
      <path id="XMLID_1595_" d="M443.318,130.153v5.018H438.3Z" transform="translate(-378.376 -72.087)" fill="#a0acb9"/>
      <path id="XMLID_1617_" d="M95.391,221.665v5.458H75.112a4.052,4.052,0,0,1-1.533-1.366,1.769,1.769,0,0,1-.26-.9c0-1.379,1.775-2.595,4.468-3.307a22.074,22.074,0,0,1,5.558-.666,19.335,19.335,0,0,1,7.421,1.3,1.41,1.41,0,0,0,1.4-.16,6.329,6.329,0,0,1,2.475-.987A.638.638,0,0,1,95.391,221.665Z" transform="translate(-63.296 -150.412)" fill="#fb5532"/>
      <path id="XMLID_1618_" d="M77.788,225.753l-4.208,4.208a1.769,1.769,0,0,1-.26-.9C73.32,227.681,75.095,226.465,77.788,225.753Z" transform="translate(-63.296 -154.616)" fill="#fc7d4b"/>
      <path id="XMLID_1622_" d="M95.391,185.626v6.381a.638.638,0,0,1-.751.628,6.329,6.329,0,0,1-2.475-.987,1.414,1.414,0,0,0-1.4-.161,19.306,19.306,0,0,1-7.421,1.3A20.33,20.33,0,0,1,76.5,191.72c-1.959-.725-3.184-1.758-3.184-2.9,0-2.194,4.488-3.973,10.026-3.973h.036a19.294,19.294,0,0,1,7.386,1.3,1.414,1.414,0,0,0,1.4-.161A6.306,6.306,0,0,1,94.64,185,.637.637,0,0,1,95.391,185.626Z" transform="translate(-63.296 -119.299)" fill="#fc7d4b"/>
      <path id="XMLID_1623_" d="M83.381,184.843,76.5,191.72c-1.959-.725-3.184-1.758-3.184-2.9,0-2.194,4.488-3.973,10.026-3.973Z" transform="translate(-63.296 -119.299)" fill="#fb946d"/>
      <path id="XMLID_1626_" d="M95.391,149.586v6.381a.638.638,0,0,1-.751.628,6.306,6.306,0,0,1-2.475-.986,1.407,1.407,0,0,0-1.4-.161,19.332,19.332,0,0,1-7.421,1.3,24.573,24.573,0,0,1-2.825-.16,14.9,14.9,0,0,1-5.343-1.509c-1.17-.649-1.858-1.445-1.858-2.305,0-1.928,3.464-3.534,8.06-3.9.636-.051,1.293-.077,1.966-.077a23.131,23.131,0,0,1,4.534.429,14.384,14.384,0,0,1,2.888.874,1.407,1.407,0,0,0,1.4-.161,6.307,6.307,0,0,1,2.475-.986A.638.638,0,0,1,95.391,149.586Z" transform="translate(-63.296 -88.187)" fill="#fcac8d"/>
      <path id="XMLID_1627_" d="M99.611,149.232l-7.358,7.358a14.9,14.9,0,0,1-5.343-1.509l6.2-6.2c.636-.051,1.293-.077,1.966-.077A23.131,23.131,0,0,1,99.611,149.232Z" transform="translate(-75.028 -88.187)" fill="#ffc5b0"/>
      <path id="XMLID_1631_" d="M299.321,221.665v5.458H279.042c-1.129-.643-1.792-1.425-1.792-2.267,0-2.194,4.488-3.973,10.027-3.973.282,0,.561,0,.835.014a22.84,22.84,0,0,1,3.4.358,14.771,14.771,0,0,1,3.187.93,1.41,1.41,0,0,0,1.4-.16,6.327,6.327,0,0,1,2.476-.987A.637.637,0,0,1,299.321,221.665Z" transform="translate(-239.345 -150.412)" fill="#fb5532"/>
      <path id="XMLID_1632_" d="M288.112,220.9l-6.226,6.226h-2.844c-1.129-.643-1.792-1.425-1.792-2.267,0-2.194,4.488-3.973,10.027-3.973Q287.7,220.883,288.112,220.9Z" transform="translate(-239.345 -150.412)" fill="#fc7d4b"/>
      <path id="XMLID_1633_" d="M352.309,222.577v5.458H338.63l5.868-5.868a14.769,14.769,0,0,1,3.187.93,1.41,1.41,0,0,0,1.4-.16,6.327,6.327,0,0,1,2.476-.987A.637.637,0,0,1,352.309,222.577Z" transform="translate(-292.333 -151.324)" fill="#fc7d4b"/>
      <path id="XMLID_1637_" d="M299.32,185.626v6.381a.637.637,0,0,1-.749.628,6.327,6.327,0,0,1-2.476-.987,1.413,1.413,0,0,0-1.4-.161,17.725,17.725,0,0,1-5.781,1.25c-.533.036-1.081.053-1.639.053-.715,0-1.411-.03-2.084-.086-4.539-.38-7.943-1.976-7.943-3.887v-.011c.007-1.045,1.032-1.995,2.7-2.7a19.52,19.52,0,0,1,7.325-1.261,22.436,22.436,0,0,1,5.2.577,13.353,13.353,0,0,1,2.22.726,1.387,1.387,0,0,0,.7.108,1.431,1.431,0,0,0,.7-.269,6.3,6.3,0,0,1,2.476-.986A.636.636,0,0,1,299.32,185.626Z" transform="translate(-239.345 -119.299)" fill="#fc7d4b"/>
      <path id="XMLID_1638_" d="M292.476,185.42l-7.283,7.283c-4.539-.38-7.943-1.976-7.943-3.887v-.011l2.7-2.7a19.52,19.52,0,0,1,7.325-1.261A22.434,22.434,0,0,1,292.476,185.42Z" transform="translate(-239.345 -119.299)" fill="#fb946d"/>
      <path id="XMLID_1639_" d="M372.984,186.545v6.381a.637.637,0,0,1-.749.628,6.327,6.327,0,0,1-2.476-.987,1.413,1.413,0,0,0-1.4-.161,17.725,17.725,0,0,1-5.78,1.25l6.482-6.482a1.431,1.431,0,0,0,.7-.269,6.3,6.3,0,0,1,2.476-.986A.636.636,0,0,1,372.984,186.545Z" transform="translate(-313.008 -120.218)" fill="#fb946d"/>
      <path id="XMLID_1642_" d="M299.32,149.586v6.381a.637.637,0,0,1-.749.628,6.3,6.3,0,0,1-2.476-.986,1.417,1.417,0,0,0-.889-.276,1.4,1.4,0,0,0-.51.115,16.437,16.437,0,0,1-4.491,1.131,24.466,24.466,0,0,1-2.929.172,18.885,18.885,0,0,1-7.671-1.414c-1.47-.692-2.356-1.586-2.356-2.561,0-2.038,3.872-3.717,8.862-3.947.381-.016.771-.026,1.165-.026a19.325,19.325,0,0,1,7.42,1.3,1.407,1.407,0,0,0,1.4-.161,5.567,5.567,0,0,1,1.472-.729,7.218,7.218,0,0,1,1-.257.637.637,0,0,1,.749.628Z" transform="translate(-239.345 -88.187)" fill="#fcac8d"/>
      <path id="XMLID_1643_" d="M312.442,149.216l-7.362,7.362a24.472,24.472,0,0,1-2.929.172,18.885,18.885,0,0,1-7.671-1.414l6.506-6.508c.381-.016.771-.026,1.165-.026a19.325,19.325,0,0,1,7.42,1.3,1.407,1.407,0,0,0,1.4-.161,5.566,5.566,0,0,1,1.472-.729Z" transform="translate(-254.219 -88.187)" fill="#ffc5b0"/>
      <path id="XMLID_1644_" d="M412.7,166.473v4.748a.637.637,0,0,1-.749.628,6.3,6.3,0,0,1-2.476-.986,1.417,1.417,0,0,0-.889-.276Z" transform="translate(-352.728 -103.441)" fill="#ffc5b0"/>
      <path id="XMLID_777_" d="M68.975,66.7A1.025,1.025,0,0,0,70,65.675V56.192A2.4,2.4,0,0,0,67.607,53.8H65.967V49.043a2.4,2.4,0,0,0-2.393-2.393H6.426a2.4,2.4,0,0,0-2.393,2.393V53.8H2.393A2.4,2.4,0,0,0,0,56.192V85.557a6.025,6.025,0,0,0,1.891,4.385V101.5a2.4,2.4,0,0,0,2.393,2.393H65.716a2.4,2.4,0,0,0,2.393-2.393V89.942A6.025,6.025,0,0,0,70,85.557V70.514a1.025,1.025,0,0,0-2.051,0V85.557a4,4,0,0,1-3.992,3.992H33.25a1.025,1.025,0,0,0,0,2.051H63.958a6.011,6.011,0,0,0,2.1-.377V101.5a.342.342,0,0,1-.342.342H4.284a.342.342,0,0,1-.342-.342V91.223a6.011,6.011,0,0,0,2.1.377H7.4v.7a1.025,1.025,0,0,0,2.051,0v-.7h1.97v.7a1.025,1.025,0,0,0,2.051,0v-.7h1.97v.7a1.025,1.025,0,0,0,2.051,0v-.7h1.97v.7a1.025,1.025,0,0,0,2.051,0v-.7h1.97v.7a1.025,1.025,0,0,0,2.051,0v-.7H28.41a1.025,1.025,0,0,0,0-2.051H6.042a4,4,0,0,1-3.992-3.992V56.192a.342.342,0,0,1,.342-.342H4.033V75.343a2.4,2.4,0,0,0,2.393,2.393H47.551a1.025,1.025,0,1,0,0-2.051h-7.57c-.662-.419-1.051-.873-1.051-1.241,0-.393.434-.876,1.172-1.316.118.052.238.1.362.152a20.935,20.935,0,0,0,7.467,1.236,20.232,20.232,0,0,0,7.831-1.389.387.387,0,0,1,.385.05,7.2,7.2,0,0,0,2.8,1.147v1.36H52.39a1.025,1.025,0,0,0,0,2.051H63.574a2.4,2.4,0,0,0,2.393-2.393V55.85h1.641a.342.342,0,0,1,.342.342v9.483A1.025,1.025,0,0,0,68.975,66.7ZM38.931,64.59c0-.438.6-1.187,2.289-1.856a18.869,18.869,0,0,1,6.712-1.092,18.444,18.444,0,0,1,7.011,1.217,2.449,2.449,0,0,0,2.413-.272,4.96,4.96,0,0,1,1.6-.705V67.3a4.961,4.961,0,0,1-1.6-.7,2.449,2.449,0,0,0-2.413-.272,18.444,18.444,0,0,1-7.011,1.217,18.866,18.866,0,0,1-6.712-1.092C39.53,65.777,38.931,65.028,38.931,64.59Zm21.475-4.465a1.658,1.658,0,0,0-1.36-.362,7.239,7.239,0,0,0-2.9,1.167.386.386,0,0,1-.385.05,20.232,20.232,0,0,0-7.831-1.388,20.935,20.935,0,0,0-7.467,1.236,8.322,8.322,0,0,0-2.192,1.231H33.12V61.4a1.663,1.663,0,0,0-1.955-1.637,7.24,7.24,0,0,0-2.9,1.167.387.387,0,0,1-.384.05,20.233,20.233,0,0,0-7.831-1.388,20.935,20.935,0,0,0-7.467,1.236,8.321,8.321,0,0,0-2.192,1.231H6.084V55.85H9.57v.9a1.025,1.025,0,0,0,2.051,0v-.9h2.442v.9a1.025,1.025,0,0,0,2.051,0v-.9h2.442v.9a1.025,1.025,0,0,0,2.051,0v-.9h8.877v.9a1.025,1.025,0,0,0,2.051,0v-.9h2.442v.9a1.025,1.025,0,1,0,2.051,0v-.9h2.442v.9a1.025,1.025,0,0,0,2.051,0v-.9h8.877v.9a1.025,1.025,0,0,0,2.051,0v-.9h2.442v.9a1.025,1.025,0,0,0,2.051,0v-.9h2.442v.9a1.025,1.025,0,0,0,2.051,0v-.9h3.486v6.208H61V61.4A1.659,1.659,0,0,0,60.406,60.125ZM12.1,75.685c-.662-.419-1.051-.873-1.051-1.241,0-.392.44-.877,1.172-1.316.118.051.237.1.361.151a20.935,20.935,0,0,0,7.467,1.236,20.231,20.231,0,0,0,7.831-1.389.387.387,0,0,1,.384.05,7.2,7.2,0,0,0,2.8,1.148v1.36H12.1ZM31.069,67.3a4.958,4.958,0,0,1-1.6-.705,2.449,2.449,0,0,0-2.413-.272,18.445,18.445,0,0,1-7.011,1.217,18.866,18.866,0,0,1-6.712-1.092c-1.689-.67-2.289-1.418-2.289-1.856s.6-1.187,2.289-1.856a18.869,18.869,0,0,1,6.712-1.092,18.445,18.445,0,0,1,7.011,1.217,2.449,2.449,0,0,0,2.413-.272,4.961,4.961,0,0,1,1.6-.705Zm-18.849.9c.118.052.238.1.362.152a20.935,20.935,0,0,0,7.467,1.236A20.233,20.233,0,0,0,27.881,68.2a.386.386,0,0,1,.384.05,7.2,7.2,0,0,0,2.8,1.148v2.827a4.961,4.961,0,0,1-1.6-.705,2.45,2.45,0,0,0-2.413-.272,18.443,18.443,0,0,1-7.011,1.217,18.869,18.869,0,0,1-6.712-1.092c-1.689-.67-2.289-1.418-2.289-1.856,0-.395.432-.876,1.171-1.316ZM6.084,49.043a.342.342,0,0,1,.342-.342H63.574a.342.342,0,0,1,.342.342V53.8H6.084Zm0,26.3V64.109H9.045A2.639,2.639,0,0,0,9,64.59,3.24,3.24,0,0,0,10.3,67.049,3.2,3.2,0,0,0,9,69.517,3.24,3.24,0,0,0,10.3,71.976,3.2,3.2,0,0,0,9,74.444a2.746,2.746,0,0,0,.3,1.241H6.426A.342.342,0,0,1,6.084,75.343Zm30.8-.9a2.746,2.746,0,0,0,.3,1.241H33.12V64.109h3.807a2.639,2.639,0,0,0-.047.481,3.24,3.24,0,0,0,1.306,2.459,3.2,3.2,0,0,0-1.306,2.468,3.24,3.24,0,0,0,1.306,2.459A3.2,3.2,0,0,0,36.88,74.444ZM57.355,71.52a2.449,2.449,0,0,0-2.413-.272,18.443,18.443,0,0,1-7.011,1.217,18.869,18.869,0,0,1-6.712-1.092c-1.689-.67-2.289-1.418-2.289-1.856,0-.395.432-.875,1.171-1.316.118.052.238.1.362.152a20.935,20.935,0,0,0,7.467,1.236A20.231,20.231,0,0,0,55.763,68.2a.386.386,0,0,1,.384.05,7.2,7.2,0,0,0,2.8,1.148v2.827a4.96,4.96,0,0,1-1.6-.7Zm6.219,4.165H61V64.109h2.915V75.343A.342.342,0,0,1,63.574,75.685Z" transform="translate(0 0)"/>
      <path id="XMLID_136_" d="M55.115,399.445a1.025,1.025,0,0,0-1.025,1.025v1.721a1.025,1.025,0,0,0,2.051,0V400.47A1.025,1.025,0,0,0,55.115,399.445Z" transform="translate(-46.695 -304.561)"/>
      <path id="XMLID_135_" d="M84.525,399.445A1.025,1.025,0,0,0,83.5,400.47v1.721a1.025,1.025,0,0,0,2.051,0V400.47A1.025,1.025,0,0,0,84.525,399.445Z" transform="translate(-72.084 -304.561)"/>
      <path id="XMLID_791_" d="M113.935,399.445a1.025,1.025,0,0,0-1.025,1.025v1.721a1.025,1.025,0,1,0,2.051,0V400.47A1.025,1.025,0,0,0,113.935,399.445Z" transform="translate(-97.473 -304.561)"/>
      <path id="XMLID_134_" d="M143.345,399.445a1.025,1.025,0,0,0-1.025,1.025v1.721a1.025,1.025,0,0,0,2.051,0V400.47A1.025,1.025,0,0,0,143.345,399.445Z" transform="translate(-122.862 -304.561)"/>
      <path id="XMLID_133_" d="M172.755,399.445a1.025,1.025,0,0,0-1.025,1.025v1.721a1.025,1.025,0,0,0,2.051,0V400.47A1.025,1.025,0,0,0,172.755,399.445Z" transform="translate(-148.251 -304.561)"/>
      <path id="XMLID_132_" d="M103.025,167.834a1.028,1.028,0,1,0,1.025,1.031v-.012A1.02,1.02,0,0,0,103.025,167.834Z" transform="translate(-88.055 -104.616)"/>
      <path id="XMLID_795_" d="M306.025,169.892a1.025,1.025,0,0,0,1.025-1.025v-.012a1.02,1.02,0,0,0-1.025-1.019,1.028,1.028,0,0,0,0,2.057Z" transform="translate(-263.301 -104.617)"/>
      <path id="XMLID_131_" d="M394.155,290.033a1.025,1.025,0,1,0,0,2.051h4.152a1.025,1.025,0,0,0,0-2.051Z" transform="translate(-339.382 -210.108)"/>
    </g>
  </g>
</svg>
