<svg id="_9" data-name="9" xmlns="http://www.w3.org/2000/svg" width="63.687" height="63.687" viewBox="0 0 63.687 63.687">
  <g id="Grupo_1111065" data-name="Grupo 1111065" transform="translate(0.933 0.933)">
    <g id="Grupo_1111061" data-name="Grupo 1111061">
      <g id="Grupo_1111060" data-name="Grupo 1111060">
        <path id="Trazado_896073" data-name="Trazado 896073" d="M178.7,38.411a30.789,30.789,0,0,1-6.936,19.513c-7.1,1.447-18.9,7.077-21.8,5.3-12.92-7.921-15.2-25.422-17.41-38.421-.6-3.54.632-8.37,6.025-15.91A30.936,30.936,0,0,1,178.7,38.411Z" transform="translate(-116.878 -7.5)" fill="#fff8e6"/>
        <path id="Trazado_896074" data-name="Trazado 896074" d="M62.385,67.739A30.914,30.914,0,1,1,29.2,18.71C27.427,37.437,40.023,59.8,62.385,67.739Z" transform="translate(-7.5 -17.316)" fill="#fff1cf"/>
      </g>
      <path id="Trazado_896075" data-name="Trazado 896075" d="M212.542,108.459a20.9,20.9,0,0,1-6.359,15.037c-16.561-4.532-25.768-16.8-23.378-34.076a20.97,20.97,0,0,1,29.736,19.039Z" transform="translate(-160.672 -77.549)" fill="#fff1cf"/>
      <path id="Trazado_896076" data-name="Trazado 896076" d="M123.06,137.016A20.961,20.961,0,1,1,99.683,102.94,50.768,50.768,0,0,0,123.06,137.016Z" transform="translate(-77.549 -91.068)" fill="#ffe0b7"/>
    </g>
    <g id="Grupo_1111062" data-name="Grupo 1111062" transform="translate(7.668 11.008)">
      <circle id="Elipse_11980" data-name="Elipse 11980" cx="11.195" cy="11.195" r="11.195" transform="translate(0)" fill="#8ce09f"/>
      <ellipse id="Elipse_11981" data-name="Elipse 11981" cx="7.463" cy="7.463" rx="7.463" ry="7.463" transform="translate(3.732 3.732)" fill="#ffce71"/>
    </g>
    <g id="Grupo_1111063" data-name="Grupo 1111063" transform="translate(3.545 3.545)">
      <path id="Trazado_896077" data-name="Trazado 896077" d="M161.433,91.194c-2.633-6.553-1.712-16.314,3.618-23.462a2.487,2.487,0,0,1,2.068-1,14.586,14.586,0,0,1,8.723,3.379Z" transform="translate(-144.585 -62.912)" fill="#85a4e4"/>
      <path id="Trazado_896078" data-name="Trazado 896078" d="M283.617,73.494A34.321,34.321,0,0,1,276.7,83.681c-14.759-.01-20.979-10.008-15.576-22.484h0a33.779,33.779,0,0,1,6.146-3.6Z" transform="translate(-231.435 -54.905)" fill="#b5e9f1"/>
      <path id="Trazado_896079" data-name="Trazado 896079" d="M340.271,37.487c1.88,1.88,2.423,9.17-1.063,17.1C325.8,56.9,321.754,46.2,322.859,38.687,330.912,35.049,338.368,35.584,340.271,37.487Z" transform="translate(-287.026 -36.002)" fill="#99b2e9"/>
      <path id="Trazado_896080" data-name="Trazado 896080" d="M81.264,109.056c-.1.1-.2.2-.295.3-8.47,8.47-19.007,11.2-26.1,11.837a1.252,1.252,0,0,0-1.137,1.3,15.593,15.593,0,0,1-5.593,12.263,1.254,1.254,0,0,1-1.909-.529A14.605,14.605,0,0,1,45.2,127.19a1.256,1.256,0,0,0-1.382-1.382,14.605,14.605,0,0,1-7.042-1.024,1.254,1.254,0,0,1-.529-1.909,15.591,15.591,0,0,1,12.263-5.593,1.252,1.252,0,0,0,1.3-1.137c.639-7.1,3.367-17.635,11.837-26.1a35.3,35.3,0,0,1,4.033-3.472c-.7,8.664,5.2,18.926,15.576,22.486Z" transform="translate(-36 -80.28)" fill="#9be1ec"/>
    </g>
    <g id="Grupo_1111064" data-name="Grupo 1111064" transform="translate(28.423 31.763)">
      <circle id="Elipse_11982" data-name="Elipse 11982" cx="11.195" cy="11.195" r="11.195" fill="#8ce09f"/>
      <ellipse id="Elipse_11983" data-name="Elipse 11983" cx="7.463" cy="7.463" rx="7.463" ry="7.463" transform="translate(3.732 3.732)" fill="#ffce71"/>
    </g>
  </g>
  <g id="Grupo_1111066" data-name="Grupo 1111066" transform="translate(0 0)">
    <path id="Trazado_896081" data-name="Trazado 896081" d="M372.7,89.2a.93.93,0,0,1-.66-.273l-1.379-1.38a.933.933,0,1,1,1.319-1.319l1.379,1.38a.933.933,0,0,1-.66,1.592Z" transform="translate(-324.312 -75.262)"/>
    <path id="Trazado_896082" data-name="Trazado 896082" d="M275.292,293.75a8.4,8.4,0,1,0-8.4,8.4A8.406,8.406,0,0,0,275.292,293.75Zm-14.927,0a6.5,6.5,0,0,1,.466-2.424l4.2,2.424-4.2,2.424A6.5,6.5,0,0,1,260.366,293.75Zm13.061,0a6.5,6.5,0,0,1-.466,2.424l-4.2-2.424,4.2-2.424A6.5,6.5,0,0,1,273.427,293.75Zm-1.4-4.038-4.2,2.423v-4.848A6.533,6.533,0,0,1,272.025,289.712Zm-6.062-2.426v4.848l-4.2-2.423A6.533,6.533,0,0,1,265.963,287.286Zm-4.2,10.5,4.2-2.422v4.848A6.532,6.532,0,0,1,261.768,297.788Zm6.062,2.426v-4.848l4.2,2.422A6.532,6.532,0,0,1,267.829,300.214Z" transform="translate(-226.346 -249.859)"/>
    <path id="Trazado_896083" data-name="Trazado 896083" d="M59.7,16.4c.914-4.961.4-9.385-1.316-11.1s-6.139-2.23-11.1-1.316A31.861,31.861,0,0,0,7.211,11.66a.933.933,0,0,0,1.442,1.184,30,30,0,0,1,35.815-8.2,34.158,34.158,0,0,0-10.2,4.907A14.476,14.476,0,0,0,27.04,7.369,3.42,3.42,0,0,0,24.2,8.742a24.863,24.863,0,0,0-1.679,2.574A12.137,12.137,0,0,0,10,30.305c-.036.5-.054,1.021-.054,1.538a21.956,21.956,0,0,0,2.1,9.362,17.115,17.115,0,0,0-7,4.093A30.017,30.017,0,0,1,6.213,16.29a.933.933,0,1,0-1.594-.97,31.879,31.879,0,0,0-.857,31.552A2.19,2.19,0,0,0,4.9,49.845c.277.114.581.23.911.343A31.907,31.907,0,0,0,13.5,57.875c.112.33.228.635.343.912a2.2,2.2,0,0,0,2.03,1.356,2.15,2.15,0,0,0,.944-.218A31.853,31.853,0,0,0,59.7,16.4ZM41.169,7.813a30.352,30.352,0,0,1,6.022-1.907c5.259-1.056,8.94-.216,9.873.717a6.182,6.182,0,0,1,1.118,3.361,21.777,21.777,0,0,1-.4,6.512A30.237,30.237,0,0,1,56,22.23c-4.76.715-8.524-.241-11.193-2.845-3.285-3.2-4.013-8.114-3.635-11.572ZM18.181,24.069l-2.422,4.2a6.534,6.534,0,0,1-2.426-4.2ZM13.332,22.2a6.532,6.532,0,0,1,2.426-4.2l2.422,4.2Zm5.682,4.154a23.72,23.72,0,0,0,.427,3.3,6.485,6.485,0,0,1-2.068-.457Zm.5-6.935q-.1.515-.186,1.031l-1.952-3.381a6.5,6.5,0,0,1,2.424-.466q.214,0,.428.014a27.886,27.886,0,0,0-.713,2.8ZM9.534,23.136a10.271,10.271,0,0,1,12.087-10.1q-.411.868-.763,1.771A8.4,8.4,0,1,0,19.037,31.5q-.272.933-.492,1.824A10.243,10.243,0,0,1,9.534,23.136Zm2.287,9.148a12.06,12.06,0,0,0,6.307,2.866,45.677,45.677,0,0,0-.762,5.111.32.32,0,0,1-.336.288,14.524,14.524,0,0,0-3.123.214,20.069,20.069,0,0,1-2.086-8.479ZM8.676,50.87a15.234,15.234,0,0,0,3.721.064.323.323,0,0,1,.356.356,15.229,15.229,0,0,0,.064,3.721A29.969,29.969,0,0,1,8.676,50.87ZM16.2,58.1l-.025.02-.128.1a.306.306,0,0,1-.269.05.322.322,0,0,1-.217-.19,13.6,13.6,0,0,1-.958-6.587A2.189,2.189,0,0,0,12.2,49.079a13.6,13.6,0,0,1-6.586-.958.324.324,0,0,1-.192-.218.3.3,0,0,1,.05-.267,14.761,14.761,0,0,1,11.479-5.222,2.184,2.184,0,0,0,2.274-1.985,42.9,42.9,0,0,1,7.856-21.214.933.933,0,1,0-1.5-1.107,41.274,41.274,0,0,0-4.7,8.238A25.582,25.582,0,0,1,25.692,9.857a1.557,1.557,0,0,1,1.29-.623,12.473,12.473,0,0,1,5.65,1.538,36.092,36.092,0,0,0-3.159,2.808c-.352.352-.706.72-1.052,1.093a.933.933,0,0,0,1.368,1.269c.33-.356.667-.706,1-1.042a33.617,33.617,0,0,1,8.433-6.169c-.181,3.877.848,8.646,4.275,11.989a13.407,13.407,0,0,0,9.644,3.594c.663,0,1.31-.035,1.933-.094a33.592,33.592,0,0,1-6.292,8.674c-.387.387-.784.767-1.185,1.135a12.122,12.122,0,0,0-19.178,9.653,44.107,44.107,0,0,1-5.165.78,2.183,2.183,0,0,0-1.986,2.274A14.822,14.822,0,0,1,16.2,58.1Zm35.66-25.771a19.9,19.9,0,0,1-.872,5.4,12.2,12.2,0,0,0-1.951-2.488q.54-.5,1.065-1.026Q51.021,33.3,51.864,32.325ZM23.138,46.656a.32.32,0,0,1,.288-.336,45.878,45.878,0,0,0,5.112-.756,12.143,12.143,0,0,0,2.88,6.3,20.072,20.072,0,0,1-8.494-2.086A14.5,14.5,0,0,0,23.138,46.656Zm29.9,6.385a30,30,0,0,1-34.652,5.6,17.114,17.114,0,0,0,4.093-7,21.958,21.958,0,0,0,9.361,2.1c.522,0,1.042-.018,1.551-.055a12.027,12.027,0,0,0,4.8,2.107.933.933,0,0,0,.36-1.831,10.262,10.262,0,1,1,3.993,0,.933.933,0,1,0,.36,1.831A12.133,12.133,0,0,0,52.1,40.172a21.734,21.734,0,0,0,1.64-8.328c0-.588-.024-1.182-.071-1.772a34.3,34.3,0,0,0,5.375-10.852,30,30,0,0,1-6,33.822Z" transform="translate(0 0)"/>
  </g>
</svg>
