<svg id="_91" data-name="91" xmlns="http://www.w3.org/2000/svg" width="137.333" height="137.333" viewBox="0 0 137.333 137.333">
  <g id="Grupo_1110970" data-name="Grupo 1110970" transform="translate(2.682 6.706)">
    <path id="Trazado_895928" data-name="Trazado 895928" d="M10,322v16.094c0,17.776,18.014,32.187,40.234,32.187A48.329,48.329,0,0,0,68.9,366.617l11.067-4.646c12.245-5.137,28.609-7.784,41.887-7.784,11.11,0,20.117-7.2,20.117-16.094V322Z" transform="translate(-10 -242.336)" fill="#ffddcf"/>
    <path id="Trazado_895929" data-name="Trazado 895929" d="M136,222.033c-22.429-13.851-51.47-21.1-77.725-21l-16.062.9C23.835,204.9,10,217.9,10,233.475c0,17.776,18.014,32.187,40.234,32.187A48.329,48.329,0,0,0,68.9,262l11.067-4.646c12.245-5.137,28.609-7.784,41.887-7.784,11.11,0,20.117-7.2,20.117-16.094A14.658,14.658,0,0,0,136,222.033Z" transform="translate(-10 -153.811)" fill="#ff7b79"/>
    <path id="Trazado_895930" data-name="Trazado 895930" d="M402.117,25a12.07,12.07,0,1,1-5,23.06,32.225,32.225,0,0,0-13.347-2.942H382V29.023h1.773a32.225,32.225,0,0,0,13.347-2.942A12,12,0,0,1,402.117,25Z" transform="translate(-282.219 -25)" fill="#ff7b79"/>
    <path id="Trazado_895931" data-name="Trazado 895931" d="M289.8,40V56.094H256L272.094,40Z" transform="translate(-190.016 -35.977)" fill="#eefaff"/>
    <path id="Trazado_895932" data-name="Trazado 895932" d="M206.234,40,190.141,56.094h-8.047L166,48.047,182.094,40Z" transform="translate(-124.156 -35.977)" fill="#99ebfa"/>
    <ellipse id="Elipse_11950" data-name="Elipse 11950" cx="16.5" cy="8" rx="16.5" ry="8" transform="translate(23.984 70.961)" fill="#ffddcf"/>
    <path id="Trazado_895933" data-name="Trazado 895933" d="M146.086,157.834a8.045,8.045,0,1,1-16.086.26c0-4.445,8.047-16.094,8.047-16.094S145.791,153.212,146.086,157.834Z" transform="translate(-97.813 -110.617)" fill="#99ebfa"/>
  </g>
  <g id="Grupo_1110971" data-name="Grupo 1110971" transform="translate(0 0)">
    <path id="Trazado_895934" data-name="Trazado 895934" d="M90,292.729c0,6.117,8.072,10.729,18.776,10.729s18.776-4.612,18.776-10.729S119.48,282,108.776,282,90,286.612,90,292.729Zm32.187,0c0,2.187-5.225,5.365-13.411,5.365s-13.411-3.177-13.411-5.365,5.225-5.365,13.411-5.365S122.187,290.542,122.187,292.729Z" transform="translate(-65.859 -206.36)"/>
    <path id="Trazado_895935" data-name="Trazado 895935" d="M236.737,4.023a14.6,14.6,0,0,0-6.108,1.322A29.476,29.476,0,0,1,219.3,8.031V2.682a2.682,2.682,0,0,0-5.365,0V8.047H174.776a2.679,2.679,0,0,0-1.2.283l-16.094,8.047a2.682,2.682,0,0,0,0,4.8l16.094,8.047a2.682,2.682,0,0,0,1.2.283h39.161V34.87a2.682,2.682,0,0,0,5.365,0V29.521a29.471,29.471,0,0,1,11.324,2.684,14.606,14.606,0,0,0,6.111,1.323,14.753,14.753,0,0,0,0-29.505ZM175.409,24.141,164.68,18.776l10.729-5.365h17.032L181.712,24.141Zm38.528,0H189.3l10.729-10.729h13.91Zm22.8,4.023a9.283,9.283,0,0,1-3.886-.84A34.789,34.789,0,0,0,219.3,24.153V13.4a34.79,34.79,0,0,0,13.552-3.173,9.281,9.281,0,0,1,3.883-.838,9.388,9.388,0,1,1,0,18.776Z" transform="translate(-114.156 0)"/>
    <circle id="Elipse_11951" data-name="Elipse 11951" cx="2.5" cy="2.5" r="2.5" transform="translate(89.667 56.667)"/>
    <path id="Trazado_895936" data-name="Trazado 895936" d="M130.089,169.238a134.829,134.829,0,0,0-24.884-11.9,2.682,2.682,0,0,0-1.827,5.044,129.594,129.594,0,0,1,23.756,11.336,11.924,11.924,0,0,1,4.835,9.245c0,7.4-7.821,13.411-17.435,13.411-14.724,0-31.171,3.063-42.925,7.993l-11.066,4.645a45.966,45.966,0,0,1-17.626,3.456c-20.706,0-37.552-13.236-37.552-29.505,0-13.272,11.425-24.927,27.506-28.433a10.725,10.725,0,0,0,20.493-1.317,152.715,152.715,0,0,1,27.163,2.862,2.682,2.682,0,0,0,1.03-5.265,158.388,158.388,0,0,0-28.443-2.965c-1.674-5.369-6.824-13-7.99-14.688a2.682,2.682,0,0,0-4.414,0c-1.284,1.859-7.185,10.609-8.328,15.995C14.536,152.812,0,165.978,0,182.963v16.094c0,20.681,20.955,34.87,42.917,34.87a51.378,51.378,0,0,0,19.7-3.873l11.066-4.645c11.139-4.673,26.791-7.575,40.849-7.575,12.572,0,22.8-8.423,22.8-18.776V182.963C137.333,177.3,133.859,171.569,130.089,169.238ZM42.914,139.571c1.267,2.027,5.367,8.826,5.367,11.2a5.364,5.364,0,0,1-10.713.407C37.346,148.666,41.563,141.73,42.914,139.571Zm89.054,59.486c0,7.4-7.821,13.411-17.435,13.411-14.724,0-31.171,3.063-42.925,7.993l-11.066,4.645a45.966,45.966,0,0,1-17.626,3.456c-20.338,0-36.95-12.769-37.535-28.639,7.043,10.268,20.791,17.91,37.535,17.91a51.378,51.378,0,0,0,19.7-3.873l11.066-4.645c11.139-4.673,26.791-7.575,40.849-7.575a24.961,24.961,0,0,0,17.435-6.7Z" transform="translate(0 -96.594)"/>
  </g>
</svg>
