<svg xmlns="http://www.w3.org/2000/svg" width="118" height="118" viewBox="0 0 118 118">
  <g id="_92" data-name="92" transform="translate(-584.051 -6801.683)">
    <circle id="Elipse_11952" data-name="Elipse 11952" cx="59" cy="59" r="59" transform="translate(584.051 6801.683)" fill="#31a854"/>
    <g id="Grupo_1110980" data-name="Grupo 1110980" transform="translate(608.006 6811.683)">
      <g id="Grupo_1110978" data-name="Grupo 1110978" transform="translate(1.056 28.651)">
        <path id="Trazado_895957" data-name="Trazado 895957" d="M77.479,184.463v31.711H7.5V184.481a3.319,3.319,0,0,1,3.058-3.31c7.114-.562,24.491-1.535,31.931-1.345,6.451-.239,24.649.763,31.927,1.327A3.319,3.319,0,0,1,77.479,184.463Z" transform="translate(-7.501 -170.172)" fill="#ffdfcf"/>
        <path id="Trazado_895958" data-name="Trazado 895958" d="M451.883,190.46v31.711h-4.24V190.179a3.319,3.319,0,0,0-3.061-3.31c-.408-.031-.85-.065-1.322-.1,2.175.135,4.09.266,5.56.38A3.32,3.32,0,0,1,451.883,190.46Z" transform="translate(-381.905 -176.169)" fill="#ffcebf"/>
        <path id="Trazado_895959" data-name="Trazado 895959" d="M77.479,229.709v26.946H7.5V229.709s9.936-2.805,15.521-2.805c4.867,0,14.6,2.805,19.468,2.805s14.6-2.805,19.468-2.805a54.538,54.538,0,0,1,15.521,2.805Z" transform="translate(-7.501 -210.652)" fill="#ffc8dd"/>
        <path id="Trazado_895960" data-name="Trazado 895960" d="M478.63,239.312v26.945h-4.24V238.08C476.943,238.721,478.63,239.312,478.63,239.312Z" transform="translate(-408.652 -220.254)" fill="#fea3c6"/>
        <g id="Grupo_1110975" data-name="Grupo 1110975" transform="translate(11.945 0)">
          <path id="Trazado_895961" data-name="Trazado 895961" d="M100.685,284.886a4.175,4.175,0,0,1-8.35,0c0-2.306,4.175-7.795,4.175-7.795S100.685,282.58,100.685,284.886Z" transform="translate(-92.335 -253.773)" fill="#62dbfb"/>
          <path id="Trazado_895962" data-name="Trazado 895962" d="M368.389,242.38a4.175,4.175,0,0,1-8.35,0c0-2.306,4.175-7.795,4.175-7.795S368.389,240.074,368.389,242.38Z" transform="translate(-322.346 -217.251)" fill="#62dbfb"/>
          <path id="Trazado_895963" data-name="Trazado 895963" d="M234.7,119.273a4.175,4.175,0,1,1-8.35,0c0-2.306,4.175-7.795,4.175-7.795S234.7,116.967,234.7,119.273Z" transform="translate(-207.479 -111.478)" fill="#62dbfb"/>
        </g>
        <path id="Trazado_895964" data-name="Trazado 895964" d="M7.5,438.205V442.1a3.32,3.32,0,0,0,3.32,3.32H74.159a3.32,3.32,0,0,0,3.32-3.32v-3.891Z" transform="translate(-7.501 -392.202)" fill="#fe76a8"/>
        <path id="Trazado_895965" data-name="Trazado 895965" d="M454.131,438.205V442.1a3.32,3.32,0,0,1-3.32,3.32h4.239a3.32,3.32,0,0,0,3.32-3.32v-3.891Z" transform="translate(-388.393 -392.202)" fill="#fe5694"/>
        <g id="Grupo_1110976" data-name="Grupo 1110976" transform="translate(0 38.03)">
          <ellipse id="Elipse_11958" data-name="Elipse 11958" cx="7.165" cy="3.986" rx="7.165" ry="3.986" fill="#ffe177"/>
          <ellipse id="Elipse_11959" data-name="Elipse 11959" cx="7.165" cy="3.986" rx="7.165" ry="3.986" transform="translate(18.549)" fill="#ffe177"/>
          <ellipse id="Elipse_11960" data-name="Elipse 11960" cx="7.165" cy="3.986" rx="7.165" ry="3.986" transform="translate(37.098)" fill="#ffe177"/>
          <ellipse id="Elipse_11961" data-name="Elipse 11961" cx="7.165" cy="3.986" rx="7.165" ry="3.986" transform="translate(55.647)" fill="#ffe177"/>
        </g>
        <path id="Trazado_895966" data-name="Trazado 895966" d="M115.94,284.885a4.176,4.176,0,0,1-5.85,3.824,4.173,4.173,0,0,0,2.5-3.824c0-1.305-1.338-3.631-2.5-5.4.89-1.359,1.676-2.392,1.676-2.392S115.94,282.578,115.94,284.885Z" transform="translate(-95.645 -253.772)" fill="#01d0fb"/>
        <path id="Trazado_895967" data-name="Trazado 895967" d="M383.649,242.375A4.174,4.174,0,0,1,377.8,246.2a4.175,4.175,0,0,0,2.5-3.826c0-1.305-1.339-3.631-2.5-5.4.888-1.357,1.674-2.391,1.674-2.391S383.649,240.07,383.649,242.375Z" transform="translate(-325.662 -217.247)" fill="#01d0fb"/>
        <path id="Trazado_895968" data-name="Trazado 895968" d="M249.95,119.275a4.175,4.175,0,0,1-5.85,3.824,4.174,4.174,0,0,0,2.5-3.824c0-1.305-1.339-3.631-2.5-5.4.89-1.36,1.676-2.392,1.676-2.392S249.95,116.968,249.95,119.275Z" transform="translate(-210.787 -111.48)" fill="#01d0fb"/>
        <ellipse id="Elipse_11962" data-name="Elipse 11962" cx="7.165" cy="3.986" rx="7.165" ry="3.986" transform="translate(55.647 38.03)" fill="#ffe177"/>
        <g id="Grupo_1110977" data-name="Grupo 1110977" transform="translate(5.046 38.03)">
          <path id="Trazado_895969" data-name="Trazado 895969" d="M45.457,381.575a12.538,12.538,0,0,0-2.12.177c2.922.5,5.046,2.018,5.046,3.809s-2.123,3.306-5.046,3.809a12.526,12.526,0,0,0,2.12.177c3.957,0,7.165-1.785,7.165-3.987S49.414,381.575,45.457,381.575Z" transform="translate(-43.337 -381.575)" fill="#ffd15b"/>
          <path id="Trazado_895970" data-name="Trazado 895970" d="M177.2,381.575a12.538,12.538,0,0,0-2.12.177c2.922.5,5.046,2.018,5.046,3.809s-2.123,3.306-5.046,3.809a12.526,12.526,0,0,0,2.12.177c3.957,0,7.165-1.785,7.165-3.987S181.154,381.575,177.2,381.575Z" transform="translate(-156.528 -381.575)" fill="#ffd15b"/>
          <path id="Trazado_895971" data-name="Trazado 895971" d="M308.937,381.575a12.539,12.539,0,0,0-2.12.177c2.922.5,5.046,2.018,5.046,3.809s-2.123,3.306-5.046,3.809a12.526,12.526,0,0,0,2.12.177c3.957,0,7.165-1.785,7.165-3.987S312.894,381.575,308.937,381.575Z" transform="translate(-269.719 -381.575)" fill="#ffd15b"/>
          <path id="Trazado_895972" data-name="Trazado 895972" d="M478.63,387.671c0,1.621-1.74,3.017-4.24,3.64V384.03C476.889,384.652,478.63,386.049,478.63,387.671Z" transform="translate(-413.697 -383.684)" fill="#ffd15b"/>
        </g>
        <ellipse id="Elipse_11963" data-name="Elipse 11963" cx="4.648" cy="2.586" rx="4.648" ry="2.586" transform="translate(30.555 30.28)" fill="#fea3c6"/>
      </g>
      <g id="Grupo_1110979" data-name="Grupo 1110979" transform="translate(0 15.078)">
        <path id="Trazado_895973" data-name="Trazado 895973" d="M90.067,283.674a5.237,5.237,0,0,0,5.231-5.231c0-2.533-3.657-7.47-4.391-8.434a1.056,1.056,0,0,0-1.681,0c-.733.964-4.391,5.9-4.391,8.434A5.237,5.237,0,0,0,90.067,283.674Zm0-11.233c1.494,2.131,3.119,4.875,3.119,6a3.119,3.119,0,1,1-6.238,0C86.948,277.317,88.573,274.573,90.067,272.441Z" transform="translate(-72.891 -233.756)"/>
        <path id="Trazado_895974" data-name="Trazado 895974" d="M93.893,21.352,95.244,20V34.765a1.056,1.056,0,1,0,2.112,0V20l1.351,1.351a1.056,1.056,0,0,0,1.493-1.493l-3.154-3.154a1.056,1.056,0,0,0-1.493,0L92.4,19.859a1.056,1.056,0,0,0,1.493,1.494Z" transform="translate(-79.124 -16.21)"/>
        <path id="Trazado_895975" data-name="Trazado 895975" d="M68.053,39.51c-1.991-.154-4.725-.335-7.7-.511a1.056,1.056,0,1,0-.125,2.108c2.959.175,5.679.355,7.658.508a2.274,2.274,0,0,1,2.088,2.257v3.315a53.334,53.334,0,0,0-14.465-2.411A62.277,62.277,0,0,0,45.58,46.2a61.381,61.381,0,0,1-9.534,1.384A61.368,61.368,0,0,1,26.511,46.2a62.289,62.289,0,0,0-9.933-1.422,47.99,47.99,0,0,0-8.844,1.16V41.378C14.5,40.923,24.8,40.388,31.7,40.286a5.281,5.281,0,0,0,8.7-.014c3.714.055,8.971.253,14.912.562h.056a1.056,1.056,0,0,0,.054-2.111c-5.56-.289-10.528-.481-14.205-.551a5.249,5.249,0,0,0,.061-.8c0-2.534-3.658-7.47-4.391-8.434a1.056,1.056,0,0,0-1.681,0c-.733.964-4.391,5.9-4.391,8.434a5.251,5.251,0,0,0,.063.812c-6.867.128-16.6.635-23.144,1.073v-19.5l1.351,1.351a1.056,1.056,0,0,0,1.493-1.493L7.424,16.47a1.056,1.056,0,0,0-1.493,0L2.777,19.624a1.056,1.056,0,0,0,1.493,1.493l1.351-1.351V39.408c-.57.041-1.1.082-1.591.12A4.4,4.4,0,0,0,0,43.892V79.476a4.381,4.381,0,0,0,4.376,4.376H14.989a1.056,1.056,0,0,0,0-2.112H4.376a2.267,2.267,0,0,1-2.264-2.264V76.641H69.978v2.835a2.267,2.267,0,0,1-2.264,2.264H19.938a1.056,1.056,0,0,0,0,2.112H67.714a4.381,4.381,0,0,0,4.376-4.376v-35.6a4.4,4.4,0,0,0-4.037-4.363ZM36.045,31.375c1.494,2.132,3.119,4.876,3.119,6-.074,4.1-6.166,4.1-6.238,0,0-1.125,1.625-3.869,3.119-6ZM57.988,54.71a3.119,3.119,0,1,1-6.238,0c0-1.125,1.625-3.869,3.119-6,1.494,2.132,3.119,4.876,3.119,6Zm-41.41-7.82a61.381,61.381,0,0,1,9.534,1.384,62.291,62.291,0,0,0,9.933,1.422,62.29,62.29,0,0,0,9.933-1.422c2.633-.506,5.331-1.024,7.5-1.257-1.26,1.74-3.842,5.564-3.842,7.693a5.231,5.231,0,1,0,10.462,0c0-2.179-2.705-6.135-3.928-7.812A53.867,53.867,0,0,1,69.978,49.4V68.19a11.072,11.072,0,0,0-6.109-1.635c-4.61,0-8.221,2.215-8.221,5.042a3.9,3.9,0,0,0,1.492,2.93H52.049a3.9,3.9,0,0,0,1.492-2.93c0-2.828-3.611-5.042-8.221-5.042S37.1,68.77,37.1,71.6a3.9,3.9,0,0,0,1.492,2.93H33.5a3.9,3.9,0,0,0,1.492-2.93c0-2.828-3.611-5.042-8.221-5.042S18.549,68.77,18.549,71.6a3.9,3.9,0,0,0,1.492,2.93H14.951a3.9,3.9,0,0,0,1.492-2.93c0-2.828-3.611-5.042-8.221-5.042A11.071,11.071,0,0,0,2.112,68.19V49.446c.754-.2,2.007-.525,3.509-.875V61.555a1.056,1.056,0,0,0,2.112,0V48.1a47.675,47.675,0,0,1,8.844-1.21ZM8.222,74.528c-3.6,0-6.109-1.544-6.109-2.93s2.509-2.93,6.109-2.93,6.109,1.544,6.109,2.93S11.822,74.528,8.222,74.528Zm12.44-2.93c0-1.386,2.509-2.93,6.109-2.93s6.109,1.544,6.109,2.93-2.509,2.93-6.109,2.93S20.661,72.984,20.661,71.6Zm18.549,0c0-1.386,2.509-2.93,6.109-2.93s6.109,1.544,6.109,2.93-2.509,2.93-6.109,2.93S39.21,72.984,39.21,71.6Zm24.658,2.93c-3.6,0-6.109-1.544-6.109-2.93s2.509-2.93,6.109-2.93,6.109,1.544,6.109,2.93S67.469,74.528,63.869,74.528ZM4.2,41.634c.44-.035.917-.071,1.424-.108V46.4c-1.414.324-2.641.634-3.51.861V43.892A2.276,2.276,0,0,1,4.2,41.634Z" transform="translate(0 -16.008)"/>
        <path id="Trazado_895976" data-name="Trazado 895976" d="M222.713,326.321c3.252,0,5.7-1.566,5.7-3.642s-2.452-3.642-5.7-3.642-5.7,1.566-5.7,3.642S219.461,326.321,222.713,326.321Zm0-5.172c2.159,0,3.592.921,3.592,1.53s-1.433,1.53-3.592,1.53-3.592-.921-3.592-1.53S220.554,321.149,222.713,321.149Z" transform="translate(-186.454 -276.239)"/>
        <path id="Trazado_895977" data-name="Trazado 895977" d="M343.059,31.512a1.056,1.056,0,0,0,1.055,1.018h.039a1.056,1.056,0,0,0,1.017-1.094,12.043,12.043,0,0,0-1.543-5.1A8.768,8.768,0,0,1,342.4,22.3a9.487,9.487,0,0,1,1.985-5.486,1.056,1.056,0,0,0-1.611-1.366,11.5,11.5,0,0,0-2.486,6.852,10.7,10.7,0,0,0,1.446,4.962,10.033,10.033,0,0,1,1.328,4.249Z" transform="translate(-292.373 -15.078)"/>
        <path id="Trazado_895978" data-name="Trazado 895978" d="M385.316,69.149a1.056,1.056,0,0,0,1.055,1.018h.039a1.056,1.056,0,0,0,1.017-1.094,12.039,12.039,0,0,0-1.543-5.1,8.768,8.768,0,0,1-1.23-4.031,1.056,1.056,0,1,0-2.112,0,10.7,10.7,0,0,0,1.446,4.962A10.027,10.027,0,0,1,385.316,69.149Z" transform="translate(-328.68 -52.714)"/>
        <path id="Trazado_895979" data-name="Trazado 895979" d="M427.574,31.512a1.056,1.056,0,0,0,1.055,1.018h.039a1.056,1.056,0,0,0,1.017-1.094,12.039,12.039,0,0,0-1.543-5.1,8.768,8.768,0,0,1-1.23-4.031,9.487,9.487,0,0,1,1.985-5.486,1.056,1.056,0,0,0-1.611-1.366A11.5,11.5,0,0,0,424.8,22.3a10.7,10.7,0,0,0,1.446,4.962A10.025,10.025,0,0,1,427.574,31.512Z" transform="translate(-364.988 -15.078)"/>
      </g>
    </g>
  </g>
</svg>
