<svg xmlns="http://www.w3.org/2000/svg" width="118" height="118" viewBox="0 0 118 118">
  <g id="_93" data-name="93" transform="translate(-899.051 -6801.683)">
    <circle id="Elipse_11953" data-name="Elipse 11953" cx="59" cy="59" r="59" transform="translate(899.051 6801.683)" fill="#31a854"/>
    <g id="Icons_copy" data-name="Icons copy" transform="translate(918.82 6820.016)">
      <path id="Trazado_895937" data-name="Trazado 895937" d="M27,5h8.13v5.677H27Z" transform="translate(8.164 1.775)" fill="#607d8b"/>
      <path id="Trazado_895938" data-name="Trazado 895938" d="M30,5h4.065v5.677H30Z" transform="translate(9.229 1.775)" fill="#37474f"/>
      <rect id="Rectángulo_405049" data-name="Rectángulo 405049" width="16.26" height="5.42" rx="2" transform="translate(31.1 1.355)" fill="#3f51b5"/>
      <path id="Trazado_895939" data-name="Trazado 895939" d="M35.065,1H31a2.71,2.71,0,1,1,0,5.42h4.065a2.71,2.71,0,0,0,0-5.42Z" transform="translate(9.584 0.355)" fill="#283593"/>
      <g id="Grupo_1110973" data-name="Grupo 1110973" transform="translate(5.355 11.137)">
        <path id="Trazado_895940" data-name="Trazado 895940" d="M15.268,16.608l-2.791-4.322a1.355,1.355,0,0,1,.393-1.87l3.035-1.978a1.345,1.345,0,0,1,1.87.406l2.8,4.309Z" transform="translate(-2.423 -8.219)" fill="#3f51b5"/>
        <path id="Trazado_895941" data-name="Trazado 895941" d="M41.6,13.152l2.8-4.309a1.345,1.345,0,0,1,1.87-.406l3.035,1.978a1.355,1.355,0,0,1,.393,1.87l-2.791,4.322Z" transform="translate(7.992 -8.219)" fill="#3f51b5"/>
        <circle id="Elipse_11954" data-name="Elipse 11954" cx="33.874" cy="33.874" r="33.874" transform="translate(0 1.058)" fill="#3f51b5"/>
      </g>
      <path id="Trazado_895942" data-name="Trazado 895942" d="M30.532,9c-.677,0-1.355.026-2.032.066a33.874,33.874,0,0,1,0,67.613c.677.041,1.355.066,2.032.066A33.874,33.874,0,1,0,30.532,9Z" transform="translate(8.697 3.194)" fill="#283593"/>
      <circle id="Elipse_11955" data-name="Elipse 11955" cx="28.454" cy="28.454" r="28.454" transform="translate(10.775 17.615)" fill="#00bcd4"/>
      <path id="Trazado_895943" data-name="Trazado 895943" d="M30.532,13c-.686,0-1.355.056-2.032.1a28.422,28.422,0,0,1,0,56.7c.677.047,1.347.1,2.032.1a28.454,28.454,0,0,0,0-56.909Z" transform="translate(8.697 4.615)" fill="#00838f"/>
      <path id="Trazado_895944" data-name="Trazado 895944" d="M4,46.069A35.229,35.229,0,1,0,62.044,19.257l2.141-3.314a2.71,2.71,0,0,0-.789-3.748l-3.03-1.976a2.7,2.7,0,0,0-3.745.8L54.48,14.313a34.935,34.935,0,0,0-9.83-3.055V8.13a4.065,4.065,0,1,0,0-8.13H33.809a4.065,4.065,0,1,0,0,8.13v3.127a34.935,34.935,0,0,0-9.825,3.055l-2.135-3.282a2.7,2.7,0,0,0-3.752-.813l-3.035,1.977a2.71,2.71,0,0,0-.791,3.74l2.144,3.32A35.159,35.159,0,0,0,4,46.069ZM58.876,12.49l3.03,1.978-2,3.1a35.23,35.23,0,0,0-3.036-1.978ZM32.454,4.065A1.355,1.355,0,0,1,33.809,2.71h10.84a1.355,1.355,0,1,1,0,2.71H33.809A1.355,1.355,0,0,1,32.454,4.065ZM36.519,8.13h5.42v2.825c-.9-.069-1.8-.115-2.71-.115s-1.814.046-2.71.115ZM16.542,14.468l3.03-1.967L21.585,15.6a35.172,35.172,0,0,0-3.034,1.977Zm22.688-.919A32.519,32.519,0,1,1,6.71,46.069,32.519,32.519,0,0,1,39.229,13.55Z" transform="translate(0)"/>
      <path id="Trazado_895945" data-name="Trazado 895945" d="M37.809,71.619A29.809,29.809,0,1,0,8,41.809,29.809,29.809,0,0,0,37.809,71.619ZM12.065,40.454H10.779A26.95,26.95,0,0,1,17.744,23.66l.9.9a1.355,1.355,0,0,0,1.917-1.916l-.9-.9a26.95,26.95,0,0,1,16.795-6.965v1.286a1.355,1.355,0,1,0,2.71,0V14.779a26.95,26.95,0,0,1,16.8,6.965l-.9.9a1.355,1.355,0,1,0,1.917,1.916l.9-.9A26.95,26.95,0,0,1,64.84,40.454H63.554a1.355,1.355,0,0,0,0,2.71H64.84a26.95,26.95,0,0,1-6.965,16.8l-.9-.9a1.355,1.355,0,0,0-1.917,1.916l.9.9A26.95,26.95,0,0,1,39.164,68.84V67.554a1.355,1.355,0,0,0-2.71,0V68.84A26.95,26.95,0,0,1,19.66,61.875l.9-.9a1.355,1.355,0,0,0-1.917-1.916l-.9.9a26.95,26.95,0,0,1-6.965-16.795h1.286a1.355,1.355,0,1,0,0-2.71Z" transform="translate(1.42 4.26)"/>
      <path id="Trazado_895946" data-name="Trazado 895946" d="M24.323,44.323l-6.862-1.839a1.355,1.355,0,0,0-.7,2.615l4.244,1.137-4.2,2.429a1.355,1.355,0,1,0,1.355,2.347l4.2-2.43-1.137,4.244a1.355,1.355,0,0,0,.958,1.66,1.373,1.373,0,0,0,.351.046,1.355,1.355,0,0,0,1.309-1l1.837-6.861,8.043-4.641v9.287L28.7,56.336a1.355,1.355,0,1,0,1.916,1.916l3.107-3.107V60a1.355,1.355,0,0,0,2.71,0V55.145l3.107,3.107a1.355,1.355,0,1,0,1.916-1.916l-5.023-5.023V42.026l8.043,4.643,1.837,6.862a1.355,1.355,0,0,0,1.309,1,1.372,1.372,0,0,0,.351-.046,1.355,1.355,0,0,0,.958-1.66l-1.137-4.244L52,51.015a1.355,1.355,0,1,0,1.355-2.347l-4.207-2.429,4.244-1.14a1.355,1.355,0,0,0-.7-2.615L45.83,44.323,37.787,39.68l8.043-4.643,6.862,1.839a1.355,1.355,0,0,0,.7-2.615l-4.244-1.137,4.207-2.429A1.355,1.355,0,1,0,52,28.347l-4.207,2.429,1.137-4.244a1.355,1.355,0,0,0-2.618-.7l-1.837,6.862-8.043,4.641V28.046l5.023-5.023a1.355,1.355,0,1,0-1.916-1.916l-3.107,3.107V19.355a1.355,1.355,0,1,0-2.71,0v4.859l-3.107-3.107A1.355,1.355,0,1,0,28.7,23.023l5.023,5.023v9.287l-8.043-4.643-1.837-6.862a1.355,1.355,0,0,0-2.618.7l1.137,4.244-4.2-2.429A1.355,1.355,0,1,0,16.8,30.691l4.2,2.429-4.244,1.14a1.355,1.355,0,1,0,.7,2.615l6.862-1.839,8.043,4.644Z" transform="translate(4.153 6.39)"/>
    </g>
  </g>
</svg>
