<svg xmlns="http://www.w3.org/2000/svg" xmlns:xlink="http://www.w3.org/1999/xlink" width="116" height="116" viewBox="0 0 116 116">
  <defs>
    <filter id="Elipse_11515" x="0" y="0" width="116" height="116" filterUnits="userSpaceOnUse">
      <feOffset dy="8" input="SourceAlpha"/>
      <feGaussianBlur stdDeviation="5" result="blur"/>
      <feFlood flood-opacity="0.161"/>
      <feComposite operator="in" in2="blur"/>
      <feComposite in="SourceGraphic"/>
    </filter>
  </defs>
  <g id="a2" transform="translate(-1225.333 -156)">
    <g transform="matrix(1, 0, 0, 1, 1225.33, 156)" filter="url(#Elipse_11515)">
      <circle id="Elipse_11515-2" data-name="Elipse 11515" cx="43" cy="43" r="43" transform="translate(15 7)" fill="#facd6c"/>
    </g>
    <g id="Grupo_1110990" data-name="Grupo 1110990" transform="translate(1254.896 136.765)">
      <path id="XMLID_1497_" d="M73.466,315.363v14.717a1.111,1.111,0,0,1-1.111,1.111H22.441a1.111,1.111,0,0,1-1.111-1.111V315.363Z" transform="translate(-18.961 -238.863)" fill="#8d9da7"/>
      <path id="XMLID_1498_" d="M455.673,315.363v14.717a1.111,1.111,0,0,1-1.111,1.111H451.3a1.111,1.111,0,0,0,1.111-1.111V315.363Z" transform="translate(-401.168 -238.863)" fill="#7a8d98"/>
      <path id="XMLID_1499_" d="M73.466,315.363V322.4a5.83,5.83,0,0,1-2.54.58H23.871a5.83,5.83,0,0,1-2.54-.58v-7.036Z" transform="translate(-18.961 -238.863)" fill="#7a8d98"/>
      <path id="XMLID_1500_" d="M62.709,107.554v23.86a4.076,4.076,0,0,1-4.077,4.076H11.577A4.076,4.076,0,0,1,7.5,131.414v-23.86a1.111,1.111,0,0,1,1.111-1.111H61.6a1.111,1.111,0,0,1,1.111,1.111Z" transform="translate(-6.667 -53.151)" fill="#c5d3dd"/>
      <path id="XMLID_1501_" d="M445.769,107.554v23.86a4.076,4.076,0,0,1-4.077,4.076H438.43a4.076,4.076,0,0,0,4.077-4.076v-23.86a1.111,1.111,0,0,0-1.111-1.111h3.263A1.111,1.111,0,0,1,445.769,107.554Z" transform="translate(-389.727 -53.151)" fill="#b7c4ce"/>
      <path id="XMLID_1503_" d="M85.655,55.264V76.633a1.111,1.111,0,0,1-1.111,1.111H38.111A1.111,1.111,0,0,1,37,76.633V55.264a1.111,1.111,0,0,1,1.111-1.111H84.544A1.111,1.111,0,0,1,85.655,55.264Z" transform="translate(-32.89 -6.67)" fill="#9ce6fb"/>
      <g id="Grupo_1110989" data-name="Grupo 1110989" transform="translate(4.11 47.483)">
        <path id="XMLID_1504_" d="M64.393,54.153,40.8,77.744H38.111A1.111,1.111,0,0,1,37,76.633V75.312L58.159,54.153Z" transform="translate(-37 -54.153)" fill="#c9f0fd"/>
        <path id="XMLID_1505_" d="M252.371,55.264v4.28l-18.2,18.2H224.55l23.59-23.591h3.12A1.111,1.111,0,0,1,252.371,55.264Z" transform="translate(-203.716 -54.153)" fill="#c9f0fd"/>
        <path id="XMLID_1506_" d="M353.779,130.153v14.038a1.111,1.111,0,0,1-1.111,1.111H338.63Z" transform="translate(-305.124 -121.711)" fill="#c9f0fd"/>
      </g>
      <path id="XMLID_1507_" d="M37,106.443H85.655v6.711H37Z" transform="translate(-32.89 -53.151)" fill="#8d9da7"/>
      <path id="XMLID_1508_" d="M127.725,106.443l-6.711,6.711H114.78l6.711-6.711Z" transform="translate(-102.03 -53.151)" fill="#a0acb9"/>
      <path id="XMLID_1509_" d="M340.552,106.443l-6.711,6.711H324.22l6.709-6.711Z" transform="translate(-288.204 -53.151)" fill="#a0acb9"/>
      <path id="XMLID_1510_" d="M442.377,130.153v4.077H438.3Z" transform="translate(-389.612 -74.227)" fill="#a0acb9"/>
      <path id="XMLID_1546_" d="M111.068,175.59a5.386,5.386,0,0,1-5.406,5.33h-5.4A4.008,4.008,0,0,1,96.4,178a3.855,3.855,0,0,1-.14-1.006,3.955,3.955,0,0,1,3.956-3.986h.008a1.444,1.444,0,0,0,1.174-.587,5.349,5.349,0,0,1,9.671,3.169Z" transform="translate(-85.566 -109.845)" fill="#fb4a59"/>
      <path id="XMLID_1547_" d="M103.834,173.3,96.4,180.737a3.856,3.856,0,0,1-.14-1.006,3.955,3.955,0,0,1,3.956-3.986h.008a1.444,1.444,0,0,0,1.174-.587,5.356,5.356,0,0,1,2.437-1.856Z" transform="translate(-85.566 -112.583)" fill="#fb6672"/>
      <path id="XMLID_1549_" d="M111.068,145.64a5.386,5.386,0,0,1-5.406,5.33h-5.4a4.026,4.026,0,0,1-2.55-.909,3.944,3.944,0,0,1,2.5-7h.008a1.443,1.443,0,0,0,1.174-.587,5.348,5.348,0,0,1,9.671,3.169Z" transform="translate(-85.566 -83.222)" fill="#fb8189"/>
      <path id="XMLID_1550_" d="M107.273,140.5l-9.559,9.559a3.944,3.944,0,0,1,2.5-7h.008a1.444,1.444,0,0,0,1.174-.587,5.352,5.352,0,0,1,5.876-1.968Z" transform="translate(-85.566 -83.222)" fill="#fc9aa1"/>
      <circle id="XMLID_2683_" cx="1.998" cy="1.998" r="1.998" transform="translate(18.173 60.546)" fill="#ffeed3"/>
      <path id="XMLID_2682_" d="M169.979,174.195a2,2,0,0,1-3.7,1.05,2,2,0,0,0,2.175-2.991A2,2,0,0,1,169.979,174.195Z" transform="translate(-147.811 -111.651)" fill="#fddaa9"/>
      <path id="XMLID_1555_" d="M288.625,224.965a2.443,2.443,0,0,1-2.444,2.444h-11a2.444,2.444,0,0,1,0-4.888h11A2.444,2.444,0,0,1,288.625,224.965Z" transform="translate(-242.443 -156.335)" fill="#e22334"/>
      <path id="XMLID_1556_" d="M275.184,222.521H281.9l-4.888,4.888h-1.824a2.444,2.444,0,0,1,0-4.888Z" transform="translate(-242.443 -156.335)" fill="#fb4a59"/>
      <path id="XMLID_1557_" d="M347.2,224.965a2.443,2.443,0,0,1-2.444,2.444H338.63l4.888-4.888h1.234A2.444,2.444,0,0,1,347.2,224.965Z" transform="translate(-301.014 -156.335)" fill="#fb4a59"/>
      <path id="XMLID_1564_" d="M288.625,188.145a2.442,2.442,0,0,1-2.444,2.444h-11a2.444,2.444,0,0,1,0-4.888h11a2.444,2.444,0,0,1,2.444,2.444Z" transform="translate(-242.443 -123.605)" fill="#fb4a59"/>
      <path id="XMLID_1565_" d="M287.612,185.7l-4.888,4.888h-5.914a2.444,2.444,0,0,1-2.241-1.466l3.421-3.421Z" transform="translate(-244.07 -123.605)" fill="#fb6672"/>
      <path id="XMLID_1566_" d="M379.926,195.621a2.442,2.442,0,0,1-2.444,2.444H375.45l3.953-3.953A2.429,2.429,0,0,1,379.926,195.621Z" transform="translate(-333.744 -131.08)" fill="#fb6672"/>
      <path id="XMLID_1573_" d="M288.625,151.335a2.442,2.442,0,0,1-2.444,2.444h-11a2.444,2.444,0,0,1,0-4.888h11a2.442,2.442,0,0,1,2.444,2.444Z" transform="translate(-242.443 -90.884)" fill="#fb8189"/>
      <path id="XMLID_1574_" d="M311.089,150.492,307.8,153.78H298.18l4.887-4.888H308.8A2.444,2.444,0,0,1,311.089,150.492Z" transform="translate(-265.057 -90.885)" fill="#fc9aa1"/>
      <path id="XMLID_756_" d="M54.931,52.459H53.6V48.594a1.946,1.946,0,0,0-1.944-1.944H25.016a.833.833,0,1,0,0,1.666H51.654a.278.278,0,0,1,.278.278v3.865H4.943V48.594a.278.278,0,0,1,.278-.278H21.084a.833.833,0,0,0,0-1.666H5.221a1.946,1.946,0,0,0-1.944,1.944v3.865H1.944A1.946,1.946,0,0,0,0,54.4v23.86a4.895,4.895,0,0,0,1.537,3.562v9.392a1.946,1.946,0,0,0,1.944,1.944H53.394a1.946,1.946,0,0,0,1.944-1.944V81.825a4.894,4.894,0,0,0,1.537-3.562V54.4a1.946,1.946,0,0,0-1.944-1.944ZM42.423,70.241l.273-.273a.833.833,0,1,0-1.178-1.178L40.2,70.1a.838.838,0,0,0-.11.137h-.88l.273-.273a.833.833,0,0,0-1.178-1.178L36.994,70.1a.836.836,0,0,0-.11.137H36l.273-.273A.833.833,0,1,0,35.1,68.79L33.784,70.1a.837.837,0,0,0-.11.137h-.94a1.612,1.612,0,0,1-1.6-1.61,1.6,1.6,0,0,1,.39-1.05,3.258,3.258,0,0,0,1.221.237h11a3.258,3.258,0,0,0,1.22-.236,1.609,1.609,0,0,1-1.212,2.66H42.423Zm4.331-11.072a3.282,3.282,0,0,0-3.016-2h-3a.833.833,0,1,0,0,1.666h3a1.611,1.611,0,0,1,0,3.221H42.423l.273-.273a.833.833,0,0,0-1.178-1.178L40.2,61.924a.835.835,0,0,0-.111.137h-.88l.273-.273a.833.833,0,0,0-1.178-1.178l-1.314,1.314a.835.835,0,0,0-.111.137H36l.273-.273A.833.833,0,1,0,35.1,60.61l-1.314,1.314a.835.835,0,0,0-.111.137h-.932a1.611,1.611,0,1,1,0-3.221H36.8a.833.833,0,0,0,0-1.666H32.742a3.282,3.282,0,0,0-3.016,2h-4.3a6.227,6.227,0,0,0-.893-1.134,6.141,6.141,0,0,0-4.379-1.818,6.206,6.206,0,0,0-5,2.54A.62.62,0,0,1,14.65,59h0a4.817,4.817,0,0,0-1.258.167H4.943V54.125H7.775v.73a.833.833,0,1,0,1.666,0v-.73h1.984v.73a.833.833,0,1,0,1.666,0v-.73h1.984v.73a.833.833,0,1,0,1.666,0v-.73h7.213v.73a.833.833,0,1,0,1.666,0v-.73H27.6v.73a.833.833,0,1,0,1.666,0v-.73h1.984v.73a.833.833,0,1,0,1.666,0v-.73h7.213v.73a.833.833,0,1,0,1.666,0v-.73h1.984v.73a.833.833,0,1,0,1.666,0v-.73h1.984v.73a.833.833,0,1,0,1.666,0v-.73h2.832v5.044H46.754ZM42.7,64.7a.833.833,0,0,0-1.178,0L40.2,66.014a.834.834,0,0,0-.111.137h-.88l.273-.273A.833.833,0,0,0,38.308,64.7l-1.314,1.314a.834.834,0,0,0-.111.137H36l.273-.273A.833.833,0,1,0,35.1,64.7l-1.314,1.314a.835.835,0,0,0-.111.137h-.932a1.613,1.613,0,0,1-1.611-1.611,1.594,1.594,0,0,1,.389-1.05,3.258,3.258,0,0,0,1.221.237h11a3.258,3.258,0,0,0,1.22-.237,1.6,1.6,0,0,1,.39,1.05,1.613,1.613,0,0,1-1.611,1.611H42.423l.273-.273a.833.833,0,0,0,0-1.178Zm-31.17-.885a3.123,3.123,0,0,1,3.129-3.147h0A2.286,2.286,0,0,0,16.5,59.74a4.534,4.534,0,0,1,3.649-1.856,4.515,4.515,0,0,1,4.515,4.532,4.553,4.553,0,0,1-4.574,4.5H14.7A3.157,3.157,0,0,1,11.526,63.815Zm-6.583-2.98h5.938a4.765,4.765,0,0,0-.722,4.613,4.749,4.749,0,0,0,.878,4.793H5.221a.278.278,0,0,1-.278-.278Zm6.6,6.577A4.845,4.845,0,0,0,14.7,68.581h5.4a6.25,6.25,0,0,0,4.462-1.869,4.572,4.572,0,0,1-4.462,3.53H14.7a3.163,3.163,0,0,1-3.158-2.829Zm14.794-1.665a6.2,6.2,0,0,0-.229-1.692,6.1,6.1,0,0,0,.229-1.634,6.216,6.216,0,0,0-.2-1.585h3.353a3.262,3.262,0,0,0,.7,1.661,3.266,3.266,0,0,0,0,4.087,3.274,3.274,0,0,0-.293,3.658H24.348A6.138,6.138,0,0,0,26.335,65.747Zm19.963.837a3.274,3.274,0,0,0,0-4.09,3.261,3.261,0,0,0,.694-1.658h4.939v9.128a.278.278,0,0,1-.278.278H46.591a3.272,3.272,0,0,0-.293-3.657Zm7.374,24.633a.278.278,0,0,1-.278.278H3.481a.278.278,0,0,1-.278-.278V82.865a4.884,4.884,0,0,0,1.706.306h1.1v.566a.833.833,0,0,0,1.666,0v-.566h1.6v.566a.833.833,0,0,0,1.666,0v-.566h1.6v.566a.833.833,0,0,0,1.666,0v-.566h1.6v.566a.833.833,0,0,0,1.666,0v-.566h1.6v.566a.833.833,0,0,0,1.666,0v-.566h22.28a.833.833,0,0,0,0-1.666H4.909a3.247,3.247,0,0,1-3.243-3.243V54.4a.278.278,0,0,1,.278-.278H3.277V69.963a1.946,1.946,0,0,0,1.944,1.944H51.654A1.946,1.946,0,0,0,53.6,69.963V54.125h1.333a.278.278,0,0,1,.278.278v23.86a3.247,3.247,0,0,1-3.243,3.243H46.955a.833.833,0,0,0,0,1.666h5.011a4.884,4.884,0,0,0,1.706-.306Z"/>
      <path id="XMLID_215_" d="M54.923,399.445a.833.833,0,0,0-.833.833v1.4a.833.833,0,1,0,1.666,0v-1.4A.833.833,0,0,0,54.923,399.445Z" transform="translate(-48.081 -313.605)"/>
      <path id="XMLID_214_" d="M84.333,399.445a.833.833,0,0,0-.833.833v1.4a.833.833,0,1,0,1.666,0v-1.4A.833.833,0,0,0,84.333,399.445Z" transform="translate(-74.224 -313.605)"/>
      <path id="XMLID_213_" d="M113.743,399.445a.833.833,0,0,0-.833.833v1.4a.833.833,0,1,0,1.666,0v-1.4A.833.833,0,0,0,113.743,399.445Z" transform="translate(-100.368 -313.605)"/>
      <path id="XMLID_212_" d="M143.153,399.445a.833.833,0,0,0-.833.833v1.4a.833.833,0,0,0,1.666,0v-1.4A.833.833,0,0,0,143.153,399.445Z" transform="translate(-126.511 -313.605)"/>
      <path id="XMLID_211_" d="M172.563,399.445a.833.833,0,0,0-.833.833v1.4a.833.833,0,0,0,1.666,0v-1.4A.833.833,0,0,0,172.563,399.445Z" transform="translate(-152.654 -313.605)"/>
      <path id="XMLID_210_" d="M398.17,290.866a.833.833,0,0,0-.833-.833h-3.374a.833.833,0,0,0,0,1.666h3.374A.833.833,0,0,0,398.17,290.866Z" transform="translate(-349.46 -216.347)"/>
      <path id="XMLID_207_" d="M158.932,169.9a2.831,2.831,0,1,0-2.831-2.831A2.834,2.834,0,0,0,158.932,169.9Zm0-4a1.164,1.164,0,1,1-1.164,1.164A1.166,1.166,0,0,1,158.932,165.909Z" transform="translate(-138.761 -104.53)"/>
    </g>
  </g>
</svg>
