<svg xmlns="http://www.w3.org/2000/svg" xmlns:xlink="http://www.w3.org/1999/xlink" width="116" height="116" viewBox="0 0 116 116">
  <defs>
    <filter id="Elipse_11516" x="0" y="0" width="116" height="116" filterUnits="userSpaceOnUse">
      <feOffset dy="8" input="SourceAlpha"/>
      <feGaussianBlur stdDeviation="5" result="blur"/>
      <feFlood flood-opacity="0.161"/>
      <feComposite operator="in" in2="blur"/>
      <feComposite in="SourceGraphic"/>
    </filter>
  </defs>
  <g id="a3" transform="translate(-984.333 -450)">
    <g transform="matrix(1, 0, 0, 1, 984.33, 450)" filter="url(#Elipse_11516)">
      <circle id="Elipse_11516-2" data-name="Elipse 11516" cx="43" cy="43" r="43" transform="translate(15 7)" fill="#facd6c"/>
    </g>
    <g id="Grupo_1111017" data-name="Grupo 1111017" transform="translate(1014.715 456.509)">
      <g id="Grupo_1111011" data-name="Grupo 1111011" transform="translate(0.817 18.335)">
        <g id="Grupo_1110991" data-name="Grupo 1110991" transform="translate(33.972 0)">
          <circle id="Elipse_11969" data-name="Elipse 11969" cx="8.801" cy="8.801" r="8.801" fill="#bd80e1"/>
        </g>
        <g id="Grupo_1110992" data-name="Grupo 1110992" transform="translate(37.492 3.52)">
          <circle id="Elipse_11970" data-name="Elipse 11970" cx="5.281" cy="5.281" r="5.281" fill="#af66da"/>
        </g>
        <g id="Grupo_1110993" data-name="Grupo 1110993" transform="translate(41.013 7.041)">
          <circle id="Elipse_11971" data-name="Elipse 11971" cx="1.76" cy="1.76" r="1.76" fill="#814ba2"/>
        </g>
        <g id="Grupo_1110994" data-name="Grupo 1110994" transform="translate(9.632 6.756)">
          <path id="Trazado_896003" data-name="Trazado 896003" d="M136.359,101.564a6.592,6.592,0,0,0-4.717-6.318c.005-.09.009-.18.009-.272a4.392,4.392,0,0,0-6.773-3.693,4.385,4.385,0,0,0-4.6-2.586,5.993,5.993,0,0,0-8.25,0,4.385,4.385,0,0,0-4.6,2.586,4.392,4.392,0,0,0-6.773,3.693c0,.091,0,.182.009.272a6.592,6.592,0,0,0-4.717,6.318Z" transform="translate(-95.939 -87.049)" fill="#b98080"/>
        </g>
        <g id="Grupo_1110995" data-name="Grupo 1110995" transform="translate(27.605 6.756)">
          <path id="Trazado_896004" data-name="Trazado 896004" d="M261.107,87.634a1.743,1.743,0,0,0,1,.544l.026,0a4.72,4.72,0,0,1,3.324,2.333,1.679,1.679,0,0,0,1.691.841,5.063,5.063,0,0,1,1.434.023c3.435.509,4,2.822,3.987,4.354A2.728,2.728,0,0,0,273.64,97.9a7.127,7.127,0,0,1,2.462,3.663h7.307a6.592,6.592,0,0,0-4.717-6.318c.006-.09.009-.18.009-.272a4.392,4.392,0,0,0-6.773-3.693,4.394,4.394,0,0,0-4.022-2.626,4.443,4.443,0,0,0-.582.04,6,6,0,0,0-6.362-1.214Q261.035,87.556,261.107,87.634Z" transform="translate(-260.962 -87.048)" fill="#ae6c6c"/>
        </g>
        <g id="Grupo_1110996" data-name="Grupo 1110996" transform="translate(9.632 8.362)">
          <path id="Trazado_896005" data-name="Trazado 896005" d="M109.22,114.306a11.875,11.875,0,0,0,2.759-12.474,4.372,4.372,0,0,0-4.563,2.591,4.392,4.392,0,0,0-6.773,3.693c0,.091,0,.182.009.272a6.592,6.592,0,0,0-4.717,6.318H108.8Q109.014,114.511,109.22,114.306Z" transform="translate(-95.936 -101.797)" fill="#ae6c6c"/>
        </g>
        <g id="Grupo_1110997" data-name="Grupo 1110997" transform="translate(0 24.791)">
          <path id="Trazado_896006" data-name="Trazado 896006" d="M51.066,269.364h-33A10.561,10.561,0,0,1,7.5,258.8v-6.161H61.627V258.8A10.561,10.561,0,0,1,51.066,269.364Z" transform="translate(-7.501 -252.642)" fill="#e6f7fe"/>
        </g>
        <g id="Grupo_1110998" data-name="Grupo 1110998" transform="translate(0 21.271)">
          <path id="Trazado_896007" data-name="Trazado 896007" d="M7.5,220.319H61.626v3.52H7.5Z" transform="translate(-7.5 -220.319)" fill="#b2e5fb"/>
        </g>
        <g id="Grupo_1110999" data-name="Grupo 1110999" transform="translate(40.045 24.791)">
          <path id="Trazado_896008" data-name="Trazado 896008" d="M385.734,252.641V258.8a10.561,10.561,0,0,1-10.561,10.561h3.52A10.561,10.561,0,0,0,389.254,258.8v-6.161Z" transform="translate(-375.173 -252.641)" fill="#d3effd"/>
        </g>
        <g id="Grupo_1111000" data-name="Grupo 1111000" transform="translate(50.606 21.271)">
          <path id="Trazado_896009" data-name="Trazado 896009" d="M472.141,220.319h3.52v3.52h-3.52Z" transform="translate(-472.141 -220.319)" fill="#91dafa"/>
        </g>
        <g id="Grupo_1111003" data-name="Grupo 1111003" transform="translate(0 12.47)">
          <g id="Grupo_1111001" data-name="Grupo 1111001">
            <path id="Trazado_896010" data-name="Trazado 896010" d="M14.579,141.234c1.7,1.7,1.787,4.553,1.7,6.023a1.1,1.1,0,0,1-1.033,1.033c-1.47.086-4.322,0-6.023-1.7s-1.787-4.553-1.7-6.023a1.1,1.1,0,0,1,1.033-1.033C10.026,139.448,12.878,139.534,14.579,141.234Z" transform="translate(-7.5 -139.511)" fill="#9be69d"/>
          </g>
          <g id="Grupo_1111002" data-name="Grupo 1111002" transform="translate(3.622 0.477)">
            <path id="Trazado_896011" data-name="Trazado 896011" d="M44.212,145.136a5.369,5.369,0,0,0-2.077-1.246,5.8,5.8,0,0,1,.956,3.015,7.341,7.341,0,0,1-2.335,4.768,10.481,10.481,0,0,0,4.124.519,1.1,1.1,0,0,0,1.033-1.033C46,149.688,45.913,146.836,44.212,145.136Z" transform="translate(-40.756 -143.89)" fill="#6fd7a3"/>
          </g>
        </g>
        <g id="Grupo_1111006" data-name="Grupo 1111006" transform="translate(45.329 12.47)">
          <g id="Grupo_1111004" data-name="Grupo 1111004">
            <path id="Trazado_896012" data-name="Trazado 896012" d="M430.771,146.59c-1.7,1.7-4.553,1.787-6.023,1.7a1.1,1.1,0,0,1-1.033-1.033c-.086-1.47,0-4.322,1.7-6.023s4.553-1.787,6.023-1.7a1.1,1.1,0,0,1,1.033,1.033C432.557,142.037,432.471,144.889,430.771,146.59Z" transform="translate(-423.692 -139.511)" fill="#9be69d"/>
          </g>
          <g id="Grupo_1111005" data-name="Grupo 1111005" transform="translate(0 3.622)">
            <path id="Trazado_896013" data-name="Trazado 896013" d="M430.771,176.223a5.369,5.369,0,0,0,1.246-2.077A5.8,5.8,0,0,1,429,175.1a7.341,7.341,0,0,1-4.768-2.335,10.481,10.481,0,0,0-.519,4.124,1.1,1.1,0,0,0,1.033,1.033C426.219,178.01,429.071,177.924,430.771,176.223Z" transform="translate(-423.693 -172.767)" fill="#6fd7a3"/>
          </g>
        </g>
        <g id="Grupo_1111010" data-name="Grupo 1111010" transform="translate(8.801 6.756)">
          <g id="Grupo_1111007" data-name="Grupo 1111007">
            <path id="Trazado_896014" data-name="Trazado 896014" d="M88.631,98.153a1.1,1.1,0,0,0,.107,1.65A8.8,8.8,0,0,0,101.062,87.48a1.1,1.1,0,0,0-1.65-.107Z" transform="translate(-88.307 -87.049)" fill="#fe646f"/>
          </g>
          <g id="Grupo_1111008" data-name="Grupo 1111008" transform="translate(3.953 0)">
            <path id="Trazado_896015" data-name="Trazado 896015" d="M133.4,87.48a1.1,1.1,0,0,0-1.65-.107l-1.182,1.182a8.8,8.8,0,0,1-5.969,12.831,8.8,8.8,0,0,0,8.8-13.906Z" transform="translate(-124.603 -87.049)" fill="#fd4755"/>
          </g>
          <g id="Grupo_1111009" data-name="Grupo 1111009" transform="translate(1.98 1.98)">
            <path id="Trazado_896016" data-name="Trazado 896016" d="M113.953,105.227a5.281,5.281,0,0,1-7.468,7.468Z" transform="translate(-106.485 -105.227)" fill="#fb2b3a"/>
          </g>
        </g>
      </g>
      <g id="Grupo_1111015" data-name="Grupo 1111015" transform="translate(19.079 51.047)">
        <g id="Grupo_1111012" data-name="Grupo 1111012">
          <circle id="Elipse_11972" data-name="Elipse 11972" cx="8.801" cy="8.801" r="8.801" fill="#9be69d"/>
        </g>
        <g id="Grupo_1111013" data-name="Grupo 1111013" transform="translate(1.607 1.607)">
          <path id="Trazado_896017" data-name="Trazado 896017" d="M202.192,340.123a8.8,8.8,0,0,1-12.261,12.261,8.8,8.8,0,1,0,12.261-12.261Z" transform="translate(-189.931 -340.123)" fill="#6fd7a3"/>
        </g>
        <g id="Grupo_1111014" data-name="Grupo 1111014" transform="translate(3.757 5.58)">
          <path id="Trazado_896018" data-name="Trazado 896018" d="M219.168,377.05a1.825,1.825,0,0,0-2.507.1l-3.07,3.07-.829-.829a1.825,1.825,0,0,0-2.507-.1,1.792,1.792,0,0,0-.063,2.594l1.876,1.876a2.154,2.154,0,0,0,3.046,0l4.117-4.116a1.792,1.792,0,0,0-.063-2.594Z" transform="translate(-209.668 -376.597)" fill="#e6f7fe"/>
        </g>
      </g>
      <g id="Grupo_1111016" data-name="Grupo 1111016" transform="translate(0 17.518)">
        <path id="Trazado_896019" data-name="Trazado 896019" d="M54.943,38.789h-1.5c.124-.1.245-.212.361-.328,1.913-1.913,2.036-4.987,1.938-6.648a1.917,1.917,0,0,0-1.8-1.8c-.337-.02-.732-.03-1.163-.019a9.62,9.62,0,1,0-18.619-4.751,6.808,6.808,0,0,0-7.9.647c-.1-.006-.2-.009-.3-.009a5.179,5.179,0,0,0-2.109.445,9.548,9.548,0,0,0-.817-1.294,1.9,1.9,0,0,0-1.386-.753,1.92,1.92,0,0,0-1.494.558L16.46,28.521a.817.817,0,0,0,1.155,1.155l1.4-1.4a4.463,4.463,0,0,1-6.205,6.205l2.113-2.113a.817.817,0,1,0-1.155-1.155L10.083,34.9a6.468,6.468,0,0,0-1.61-2.948c-1.913-1.913-4.986-2.036-6.648-1.938a1.917,1.917,0,0,0-1.8,1.8c-.1,1.662.025,4.735,1.938,6.648.116.116.237.225.361.328H.817A.817.817,0,0,0,0,39.606v9.681A11.391,11.391,0,0,0,11.379,60.665h1.685a.817.817,0,1,0,0-1.634H11.379a9.756,9.756,0,0,1-9.745-9.744V43.943H54.126v5.344a9.756,9.756,0,0,1-9.745,9.744H37.463a9.617,9.617,0,0,0-19.166,0H16.876a.817.817,0,1,0,0,1.634H18.3a9.617,9.617,0,0,0,19.165,0h6.919A11.391,11.391,0,0,0,55.76,49.287V39.606a.817.817,0,0,0-.817-.817ZM27.88,67.832a7.984,7.984,0,1,1,7.984-7.984A7.993,7.993,0,0,1,27.88,67.832ZM43.59,28.079a.943.943,0,1,1,.943-.943A.944.944,0,0,1,43.59,28.079Zm0-3.52a2.575,2.575,0,0,0-2.476,3.289,5.189,5.189,0,0,0-1.4.377,5.2,5.2,0,0,0-.575-.723c-.01-.121-.017-.243-.017-.367a4.464,4.464,0,1,1,7.262,3.476,5.24,5.24,0,0,0-1.162-1.488,2.575,2.575,0,0,0-1.636-4.565Zm9.57,7.064c.265,0,.5.009.684.02a.283.283,0,0,1,.266.265c.066,1.118.054,3.881-1.463,5.4a6.7,6.7,0,0,1-4.526,1.481l3-3a.817.817,0,0,0-1.155-1.155l-3,3a6.7,6.7,0,0,1,1.481-4.526C49.71,31.842,51.838,31.623,53.16,31.623ZM43.59,19.152a7.988,7.988,0,0,1,7.385,11.023,7.451,7.451,0,0,0-3,1.2,6.1,6.1,0,1,0-10.43-5.016,5.2,5.2,0,0,0-1.841-.467,7.965,7.965,0,0,1,7.887-6.739ZM10.52,36.772l1.118-1.118a6.1,6.1,0,0,0,8.544-8.544L21.3,25.992a.285.285,0,0,1,.224-.084.261.261,0,0,1,.2.1A7.985,7.985,0,0,1,10.54,37.192a.259.259,0,0,1-.1-.194.286.286,0,0,1,.084-.225ZM1.655,31.908a.283.283,0,0,1,.265-.266c.187-.011.419-.02.684-.02,1.322,0,3.45.219,4.714,1.482A6.7,6.7,0,0,1,8.8,37.631l-3-3A.817.817,0,0,0,4.64,35.783l3,3a6.7,6.7,0,0,1-4.525-1.481c-1.517-1.517-1.528-4.28-1.463-5.4Zm-.021,10.4V40.423H38.956a.817.817,0,0,0,0-1.634H20.691a9.611,9.611,0,0,0,3.787-10.956,3.54,3.54,0,0,1,1.948-.287.816.816,0,0,0,.669-.217,5.176,5.176,0,0,1,7.128,0,.817.817,0,0,0,.669.217,3.567,3.567,0,0,1,3.749,2.106.817.817,0,0,0,1.19.358,3.576,3.576,0,0,1,5.514,3.006c0,.075,0,.154-.008.222a.817.817,0,0,0,.582.833l.027.009a11.2,11.2,0,0,0-.593,4.519c0,.065.011.128.021.191H42.768a.817.817,0,1,0,0,1.634H54.126v1.887H1.634Z" transform="translate(0 -17.518)"/>
        <path id="Trazado_896020" data-name="Trazado 896020" d="M213.037,369.731a2.631,2.631,0,0,0-3.634.122l-2.492,2.492-.252-.252a2.631,2.631,0,0,0-3.635-.122,2.588,2.588,0,0,0-.854,1.869,2.62,2.62,0,0,0,.763,1.906l1.876,1.876a2.974,2.974,0,0,0,4.2,0l4.116-4.116a2.621,2.621,0,0,0,.763-1.906,2.588,2.588,0,0,0-.854-1.869Zm-1.065,2.62-4.116,4.117a1.339,1.339,0,0,1-1.891,0l-1.876-1.876a.975.975,0,0,1,.035-1.412.94.94,0,0,1,.637-.239,1.054,1.054,0,0,1,.743.308l.829.829a.817.817,0,0,0,1.155,0l3.07-3.07a1.012,1.012,0,0,1,1.379-.069.975.975,0,0,1,.035,1.412Z" transform="translate(-180.151 -330.774)"/>
      </g>
    </g>
  </g>
</svg>
