<svg xmlns="http://www.w3.org/2000/svg" xmlns:xlink="http://www.w3.org/1999/xlink" width="69.001" height="69.001" viewBox="0 0 69.001 69.001">
  <defs>
    <clipPath id="clip-path">
      <path id="Trazado_874075" data-name="Trazado 874075" d="M28.17,0A28.17,28.17,0,1,1,0,28.17,28.17,28.17,0,0,1,28.17,0Z" transform="translate(0 0)" fill="none"/>
    </clipPath>
    <clipPath id="clip-path-2">
      <rect id="Rectángulo_34556" data-name="Rectángulo 34556" width="82.161" height="56.339" transform="translate(0 0)" fill="#5fb9b7"/>
    </clipPath>
  </defs>
  <g id="icon" transform="translate(-176 -4490.432)">
    <g id="Grupo_146944" data-name="Grupo 146944" transform="matrix(-0.966, -0.259, 0.259, -0.966, 230.42, 4559.433)">
      <path id="Trazado_874717" data-name="Trazado 874717" d="M27.77,0A27.77,27.77,0,1,1,0,27.77,27.77,27.77,0,0,1,27.77,0Z" transform="translate(0.399 0.4)" fill="#a76122"/>
      <g id="Enmascarar_grupo_1098690" data-name="Enmascarar grupo 1098690" transform="translate(0 0)" clip-path="url(#clip-path)">
        <g id="Grupo_103038" data-name="Grupo 103038" transform="translate(3.009 -15.338)">
          <g id="Enmascarar_grupo_82" data-name="Enmascarar grupo 82" transform="matrix(0.819, -0.574, 0.574, 0.819, 0, 47.126)" clip-path="url(#clip-path-2)">
            <path id="Trazado_159232" data-name="Trazado 159232" d="M2.737,70.054,79,67.039a2.987,2.987,0,0,0,2.96-2.626L84.739,2.4A2.438,2.438,0,0,0,82,0L5.739,3.018a2.986,2.986,0,0,0-2.96,2.626L0,67.653A2.438,2.438,0,0,0,2.737,70.054Z" transform="translate(14.859 0.375) rotate(17)" fill="#5fb9b7"/>
          </g>
        </g>
      </g>
    </g>
    <circle id="Elipse_11518" data-name="Elipse 11518" cx="22.179" cy="22.179" r="22.179" transform="translate(188.322 4502.753)" fill="#fff"/>
    <g id="Grupo_1110985" data-name="Grupo 1110985" transform="translate(193.917 4500.705)">
      <g id="Grupo_1110983" data-name="Grupo 1110983" transform="translate(0.486 8.661)">
        <path id="Trazado_895981" data-name="Trazado 895981" d="M25.794,64.641s-1.843-5.087-3.071-5.246-.831,1.9-.831,1.9S19.12,55.634,17.12,55.71c-1.462.055-.97,2.933-.97,2.933s-4.9-4.464-6.212-3.179c-1.33,1.3,3.9,6.215,3.9,6.215s-3.793-.843-3.9-.071c-.185,1.348,4.08,4.068,4.08,4.068l9.587,2.452Z" transform="translate(-9.578 -52.669)" fill="#bbec6c"/>
        <path id="Trazado_895982" data-name="Trazado 895982" d="M283.067,233.158l-.229-.343a2.481,2.481,0,0,1,.686-3.439l9.2-6.146a2.481,2.481,0,0,1,3.442.687l.229.343a2.481,2.481,0,0,1-.686,3.439l-9.2,6.146A2.481,2.481,0,0,1,283.067,233.158Z" transform="translate(-264.605 -209.389)" fill="#dd7f66"/>
        <path id="Trazado_895983" data-name="Trazado 895983" d="M321.428,224.249l-.228-.343a2.478,2.478,0,0,0-3.037-.9,2.468,2.468,0,0,1,1.088.9l.228.343a2.484,2.484,0,0,1-.686,3.442l-9.2,6.147a2.493,2.493,0,0,1-.4.217,2.474,2.474,0,0,0,2.351-.217l9.2-6.147a2.484,2.484,0,0,0,.686-3.442Z" transform="translate(-289.639 -209.381)" fill="#d6694b"/>
        <path id="Trazado_895984" data-name="Trazado 895984" d="M117.541,68.183h-1.353a.98.98,0,0,1-.864-.521A16.457,16.457,0,0,0,112,63.079a.884.884,0,0,1,.77-.485c2-.075,4.772,5.589,4.772,5.589Z" transform="translate(-105.228 -59.553)" fill="#a2e62e"/>
        <path id="Trazado_895985" data-name="Trazado 895985" d="M196.8,143.314a.868.868,0,0,1,.046.359S196.818,143.527,196.8,143.314Z" transform="translate(-184.534 -135.043)" fill="#bbec6c"/>
        <path id="Trazado_895986" data-name="Trazado 895986" d="M200.59,124.613l-2.182,3.485-1.68-.43,1.533-2.448a1.85,1.85,0,0,0,.244-1.355c-.241-1.173-.8-3.326-1.693-3.441a.741.741,0,0,0-.18-.006c.027-.547.21-1.139.889-1.051C198.747,119.526,200.59,124.613,200.59,124.613Z" transform="translate(-184.375 -112.641)" fill="#a2e62e"/>
        <ellipse id="Elipse_11966" data-name="Elipse 11966" cx="3.943" cy="3.948" rx="3.943" ry="3.948" transform="translate(0 12.974)" fill="#fe76a8"/>
        <path id="Trazado_895987" data-name="Trazado 895987" d="M15.387,219.851a3.943,3.943,0,1,1-3.943-3.947h.047A3.945,3.945,0,0,1,15.387,219.851Z" transform="translate(-7.5 -202.929)" fill="#fe76a8"/>
        <path id="Trazado_895988" data-name="Trazado 895988" d="M54.8,219.861a3.95,3.95,0,0,1-2.643,3.728,5.02,5.02,0,0,1-1.253-7.675A3.945,3.945,0,0,1,54.8,219.861Z" transform="translate(-46.915 -202.939)" fill="#fe5694"/>
        <path id="Trazado_895989" data-name="Trazado 895989" d="M255.227,184.731l-.229-.343a2.481,2.481,0,0,1,.686-3.439l9.2-6.146a2.481,2.481,0,0,1,3.442.687l.229.343a2.481,2.481,0,0,1-.686,3.439l-9.2,6.146A2.481,2.481,0,0,1,255.227,184.731Z" transform="translate(-238.569 -164.101)" fill="#dd7f66"/>
        <path id="Trazado_895990" data-name="Trazado 895990" d="M293.586,175.822l-.228-.343a2.478,2.478,0,0,0-3.037-.9,2.468,2.468,0,0,1,1.088.9l.228.343a2.484,2.484,0,0,1-.686,3.442l-9.2,6.147a2.487,2.487,0,0,1-.4.217,2.474,2.474,0,0,0,2.351-.217l9.2-6.147A2.484,2.484,0,0,0,293.586,175.822Z" transform="translate(-263.602 -164.092)" fill="#d6694b"/>
        <ellipse id="Elipse_11967" data-name="Elipse 11967" cx="5.012" cy="5.017" rx="5.012" ry="5.017" transform="translate(4.68 11.284)" fill="#ffe177"/>
        <path id="Trazado_895991" data-name="Trazado 895991" d="M143,189.81a5.029,5.029,0,0,0-.975.1,5.018,5.018,0,0,1,0,9.843A5.016,5.016,0,1,0,143,189.81Z" transform="translate(-133.304 -178.526)" fill="#ffd15b"/>
        <path id="Trazado_895992" data-name="Trazado 895992" d="M194.058,139.284l-5.044-3.484,6.747-10.775a2.783,2.783,0,0,1,3.987-.782l1.775,1.279a2.79,2.79,0,0,1,.524,4.033Z" transform="translate(-177.251 -116.717)" fill="#f2fbff"/>
        <path id="Trazado_895993" data-name="Trazado 895993" d="M256.37,125.527l-1.775-1.279a2.778,2.778,0,0,0-2.6-.349,2.787,2.787,0,0,1,.651.349l1.775,1.279a2.79,2.79,0,0,1,.524,4.033l-7.284,8.87,1.244.859,7.989-9.729A2.79,2.79,0,0,0,256.37,125.527Z" transform="translate(-232.098 -116.722)" fill="#dff6fd"/>
        <path id="Trazado_895994" data-name="Trazado 895994" d="M346.5,23.031c.706-1.648-3.963-.825-3.963-.825s4.038-2.443,3.387-3.618-4.2,1.6-4.2,1.6,1.507-4.247.188-4.492-2.353,4.363-2.353,4.363-.7-4.693-2.039-3.5.682,6.653.682,6.653l.888.64.887.64S345.8,24.679,346.5,23.031Z" transform="translate(-315.712 -15.69)" fill="#bbec6c"/>
        <path id="Trazado_895995" data-name="Trazado 895995" d="M40.566,313.609H11.227a.928.928,0,0,1-.928-.928v-2.2a.928.928,0,0,1,.928-.928H40.566a.928.928,0,0,1,.928.928v2.2A.928.928,0,0,1,40.566,313.609Z" transform="translate(-10.118 -290.512)" fill="#cbc4cc"/>
        <path id="Trazado_895996" data-name="Trazado 895996" d="M66.211,372.1H38.7l.816,3.5a5.874,5.874,0,0,0,5.719,4.541H59.676a5.874,5.874,0,0,0,5.719-4.541Z" transform="translate(-36.675 -349.004)" fill="#918291"/>
        <path id="Trazado_895997" data-name="Trazado 895997" d="M426.6,59.644a15.317,15.317,0,0,0,.66-3.017c.982-.563,2.064-.99,2.4-.392C430.193,57.2,427.551,59.03,426.6,59.644Z" transform="translate(-399.441 -53.338)" fill="#a2e62e"/>
        <path id="Trazado_895998" data-name="Trazado 895998" d="M415.564,114.105c-.442,1.031-2.882,1.345-4.648,1.436a16.814,16.814,0,0,0,.776-1.774q.1-.265.186-.53C412.87,113.091,416.165,112.7,415.564,114.105Z" transform="translate(-384.773 -106.764)" fill="#a2e62e"/>
        <path id="Trazado_895999" data-name="Trazado 895999" d="M433.717,309.556h-3.024a.928.928,0,0,1,.927.928v2.2a.928.928,0,0,1-.927.928h3.024a.928.928,0,0,0,.927-.928v-2.2A.928.928,0,0,0,433.717,309.556Z" transform="translate(-403.269 -290.512)" fill="#b5adb6"/>
        <path id="Trazado_896000" data-name="Trazado 896000" d="M322.3,372.1l-.816,3.5a5.874,5.874,0,0,1-5.719,4.541h3.024a5.874,5.874,0,0,0,5.719-4.541l.816-3.5Z" transform="translate(-295.793 -349.004)" fill="#7a6d79"/>
      </g>
      <g id="Grupo_1110984" data-name="Grupo 1110984" transform="translate(0 8.174)">
        <path id="Trazado_896001" data-name="Trazado 896001" d="M31.728,27.463a3.033,3.033,0,0,0,.723-4.546,2.939,2.939,0,0,0-1.084-.978,2.956,2.956,0,0,0-.492-1.818,3.04,3.04,0,0,0-4.537-1.032,3.246,3.246,0,0,0-.458-1.137c.54-.012,1.219-.043,1.922-.116,2.266-.235,3.548-.772,3.921-1.642a1.035,1.035,0,0,0-.1-1.105c-.361-.456-1.144-.646-2.459-.595.13-.1.261-.2.391-.308.537-.438,2.171-1.772,1.567-2.862a1.021,1.021,0,0,0-.714-.513c-.807-.163-2.078.513-3.027,1.129.283-1.1.52-2.518.109-3.232a1.021,1.021,0,0,0-.712-.514,1.431,1.431,0,0,0-1.41.774,7.339,7.339,0,0,0-.805,1.621c-.059.156-.115.313-.167.467-.369-1.264-.8-1.947-1.345-2.144a1.034,1.034,0,0,0-1.078.26c-.706.63-.807,2.018-.311,4.243.154.691.34,1.346.5,1.862a3.277,3.277,0,0,0-3.582,1.435L16.8,19.552c-.191-.472-.447-1.077-.739-1.691-.625-1.314-1.459-2.838-2.372-2.956a1.118,1.118,0,0,0-1.258.688c-.248-.428-.543-.912-.868-1.4C10.2,12.152,9.032,11.179,8.01,11.215a1.346,1.346,0,0,0-1.022.507,2.888,2.888,0,0,0-.494,1.787c-.269-.221-.585-.474-.93-.736a.486.486,0,0,0-.587.775c.984.745,1.748,1.439,1.755,1.446a.486.486,0,0,0,.806-.441,6.4,6.4,0,0,1-.073-.949,2.175,2.175,0,0,1,.278-1.269.375.375,0,0,1,.3-.147c1.158-.042,3.223,3.083,4.317,5.317a.486.486,0,0,0,.914-.3,2.026,2.026,0,0,1,.1-1.292c.017-.018.052-.055.193-.037.005,0,.522.1,1.62,2.411.448.941.816,1.882.974,2.3l-1.128,1.8a5.473,5.473,0,0,0-3.569-2.769L5.843,15.276a.486.486,0,0,0-.593.77L9.7,19.48a5.489,5.489,0,0,0-3.736,1.946,4.36,4.36,0,0,0-.86-.224c-.27-.177-1.141-.758-1.985-1.445-1.4-1.137-1.708-1.727-1.774-1.966a11.319,11.319,0,0,1,3.3.355.486.486,0,0,0,.438-.829c-1.527-1.433-3.955-4.136-3.968-5.287a.273.273,0,0,1,.071-.227c.185-.181.8-.142,1.956.514a.486.486,0,0,0,.478-.846c-1.487-.841-2.506-.959-3.115-.362a1.249,1.249,0,0,0-.362.932c.01.872.725,2.116,2.187,3.8.34.392.678.759.98,1.076-1.924-.2-2.624-.3-2.94.616-.066.478.085,1.307,2.146,2.983.33.268.661.519.96.738a4.391,4.391,0,0,0-.924.315,4.123,4.123,0,0,0-1.38-.915.486.486,0,0,0-.323.917A3.015,3.015,0,0,1,1.7,22.1,4.43,4.43,0,0,0,.536,27.7a1.408,1.408,0,0,0-.355.935v2.2A1.416,1.416,0,0,0,1.6,32.243H29.409l-.677,2.9a5.366,5.366,0,0,1-5.245,4.166H9.042A5.366,5.366,0,0,1,3.8,35.144L3.506,33.9a.486.486,0,1,0-.947.221l.291,1.246a6.36,6.36,0,0,0,6.192,4.917H23.487a6.36,6.36,0,0,0,6.192-4.917l.728-3.121h.527a1.416,1.416,0,0,0,1.414-1.414v-2.2a1.414,1.414,0,0,0-.62-1.169Zm-.086-4.007a2.073,2.073,0,0,1-.323,3.111l-.975.651H25.592l4.463-2.981a2.95,2.95,0,0,0,1.079-1.3A1.985,1.985,0,0,1,31.642,23.456Zm-4.568-3.69a2.071,2.071,0,0,1,2.992.894,2,2,0,0,1-.552,2.769l-5.673,3.79H21.215l4.443-5.411a3.247,3.247,0,0,0,.7-1.567ZM22.624,9.9a.333.333,0,0,1,.1-.07c.042.02.376.217.764,1.588a15.564,15.564,0,0,1,.368,1.691.486.486,0,0,0,.955.034,18.979,18.979,0,0,1,.665-2.217c.572-1.513,1.015-1.795,1.125-1.775.015,0,.025,0,.048.044.285.494-.092,2.362-.6,3.808a.486.486,0,0,0,.758.545c1.207-.945,2.856-1.9,3.414-1.782.045.009.05.019.057.032.054.1-.072.608-1.325,1.632a18.953,18.953,0,0,1-1.889,1.335.486.486,0,0,0,.336.894,15.544,15.544,0,0,1,1.72-.187c1.424-.066,1.714.189,1.745.222a.333.333,0,0,1-.033.121c-.077.18-.53.787-3.119,1.057a24.97,24.97,0,0,1-2.792.116l-1.53-1.1a25.031,25.031,0,0,1-.777-2.687c-.566-2.544-.134-3.167.012-3.3Zm-3.217,7.33A2.3,2.3,0,0,1,22.7,16.58h0l1.775,1.279a2.314,2.314,0,0,1,.433,3.331l-4.95,6.027H13.151ZM12,27.218H10.664V25.8l1.421.821a.483.483,0,0,0,.243.065h.008Zm-1.826-6.788a4.511,4.511,0,0,1,4.237,2.937L12.768,26a.483.483,0,0,0-.2-.216l-1.422-.822,1.422-.822a.486.486,0,1,0-.486-.842l-1.421.821V22.476a.486.486,0,1,0-.972,0v1.643L8.271,23.3a.486.486,0,1,0-.486.842l1.422.822-1.422.822a.486.486,0,1,0,.486.842L9.692,25.8v1.415H6.254a4.531,4.531,0,0,1,3.924-6.787ZM2.345,22.824a3.992,3.992,0,0,1,.421.8.486.486,0,0,0,.9-.355A4.952,4.952,0,0,0,3.2,22.35a3.456,3.456,0,0,1,2.2-.092,5.5,5.5,0,0,0-.229,4.961H1.6a1.413,1.413,0,0,0-.2.015,3.461,3.461,0,0,1,.954-4.41Zm29.031,8.006a.442.442,0,0,1-.442.442H1.6a.442.442,0,0,1-.442-.442v-2.2A.442.442,0,0,1,1.6,28.19H30.934a.442.442,0,0,1,.442.442Z" transform="translate(0 -8.174)"/>
        <path id="Trazado_896002" data-name="Trazado 896002" d="M259.163,36.91h.45v.451a.486.486,0,1,0,.972,0V36.91h.45a.486.486,0,1,0,0-.972h-.45v-.451a.486.486,0,1,0-.972,0v.451h-.45a.486.486,0,0,0,0,.972Z" transform="translate(-241.914 -33.262)"/>
        <circle id="Elipse_11968" data-name="Elipse 11968" cx="0.486" cy="0.486" r="0.486" transform="translate(16.129 5.54)"/>
      </g>
    </g>
  </g>
</svg>
